%TF.GenerationSoftware,KiCad,Pcbnew,9.0.1*%
%TF.CreationDate,2025-04-15T01:10:54-06:00*%
%TF.ProjectId,zippy-badge,7a697070-792d-4626-9164-67652e6b6963,rev?*%
%TF.SameCoordinates,PX4d8ff50PY83b6430*%
%TF.FileFunction,Soldermask,Top*%
%TF.FilePolarity,Negative*%
%FSLAX46Y46*%
G04 Gerber Fmt 4.6, Leading zero omitted, Abs format (unit mm)*
G04 Created by KiCad (PCBNEW 9.0.1) date 2025-04-15 01:10:54*
%MOMM*%
%LPD*%
G01*
G04 APERTURE LIST*
G04 Aperture macros list*
%AMRoundRect*
0 Rectangle with rounded corners*
0 $1 Rounding radius*
0 $2 $3 $4 $5 $6 $7 $8 $9 X,Y pos of 4 corners*
0 Add a 4 corners polygon primitive as box body*
4,1,4,$2,$3,$4,$5,$6,$7,$8,$9,$2,$3,0*
0 Add four circle primitives for the rounded corners*
1,1,$1+$1,$2,$3*
1,1,$1+$1,$4,$5*
1,1,$1+$1,$6,$7*
1,1,$1+$1,$8,$9*
0 Add four rect primitives between the rounded corners*
20,1,$1+$1,$2,$3,$4,$5,0*
20,1,$1+$1,$4,$5,$6,$7,0*
20,1,$1+$1,$6,$7,$8,$9,0*
20,1,$1+$1,$8,$9,$2,$3,0*%
G04 Aperture macros list end*
%ADD10RoundRect,0.090000X-0.660000X-0.360000X0.660000X-0.360000X0.660000X0.360000X-0.660000X0.360000X0*%
%ADD11RoundRect,0.225000X0.225000X0.250000X-0.225000X0.250000X-0.225000X-0.250000X0.225000X-0.250000X0*%
%ADD12C,0.650000*%
%ADD13RoundRect,0.150000X0.150000X0.500000X-0.150000X0.500000X-0.150000X-0.500000X0.150000X-0.500000X0*%
%ADD14RoundRect,0.075000X0.075000X0.575000X-0.075000X0.575000X-0.075000X-0.575000X0.075000X-0.575000X0*%
%ADD15O,1.000000X2.100000*%
%ADD16O,1.000000X1.600000*%
%ADD17RoundRect,0.150000X-0.150000X0.512500X-0.150000X-0.512500X0.150000X-0.512500X0.150000X0.512500X0*%
%ADD18RoundRect,0.150000X-0.512500X-0.150000X0.512500X-0.150000X0.512500X0.150000X-0.512500X0.150000X0*%
%ADD19RoundRect,0.200000X0.200000X0.275000X-0.200000X0.275000X-0.200000X-0.275000X0.200000X-0.275000X0*%
%ADD20RoundRect,0.200000X-0.200000X-0.275000X0.200000X-0.275000X0.200000X0.275000X-0.200000X0.275000X0*%
%ADD21RoundRect,0.225000X-0.250000X0.225000X-0.250000X-0.225000X0.250000X-0.225000X0.250000X0.225000X0*%
%ADD22C,0.900000*%
%ADD23R,1.250000X2.500000*%
%ADD24RoundRect,0.225000X-0.225000X-0.250000X0.225000X-0.250000X0.225000X0.250000X-0.225000X0.250000X0*%
%ADD25R,1.200000X1.400000*%
%ADD26R,2.500000X2.500000*%
%ADD27RoundRect,0.225000X0.250000X-0.225000X0.250000X0.225000X-0.250000X0.225000X-0.250000X-0.225000X0*%
%ADD28R,0.254000X0.812800*%
%ADD29R,1.600200X0.203200*%
%ADD30RoundRect,0.150000X-0.150000X-0.200000X0.150000X-0.200000X0.150000X0.200000X-0.150000X0.200000X0*%
%ADD31C,1.200000*%
%ADD32R,0.700000X1.600000*%
%ADD33R,1.200000X2.200000*%
%ADD34R,1.600000X1.400000*%
%ADD35O,1.700000X1.700000*%
%ADD36C,1.700000*%
%ADD37RoundRect,0.050000X-0.387500X-0.050000X0.387500X-0.050000X0.387500X0.050000X-0.387500X0.050000X0*%
%ADD38RoundRect,0.050000X-0.050000X-0.387500X0.050000X-0.387500X0.050000X0.387500X-0.050000X0.387500X0*%
%ADD39R,3.200000X3.200000*%
%ADD40C,0.700000*%
%ADD41RoundRect,0.250000X0.450000X0.275000X-0.450000X0.275000X-0.450000X-0.275000X0.450000X-0.275000X0*%
G04 APERTURE END LIST*
D10*
%TO.C,D5*%
X26240000Y28830000D03*
X26240000Y25530000D03*
X31140000Y25530000D03*
X31140000Y28830000D03*
%TD*%
%TO.C,D23*%
X50600000Y48690000D03*
X50600000Y45390000D03*
X55500000Y45390000D03*
X55500000Y48690000D03*
%TD*%
%TO.C,D18*%
X42480000Y35450000D03*
X42480000Y32150000D03*
X47380000Y32150000D03*
X47380000Y35450000D03*
%TD*%
%TO.C,D36*%
X58720000Y8970000D03*
X58720000Y5670000D03*
X63620000Y5670000D03*
X63620000Y8970000D03*
%TD*%
D11*
%TO.C,C17*%
X45720000Y3600000D03*
X44170000Y3600000D03*
%TD*%
D10*
%TO.C,D24*%
X50600000Y42070000D03*
X50600000Y38770000D03*
X55500000Y38770000D03*
X55500000Y42070000D03*
%TD*%
%TO.C,D7*%
X26240000Y15590000D03*
X26240000Y12290000D03*
X31140000Y12290000D03*
X31140000Y15590000D03*
%TD*%
D12*
%TO.C,J2*%
X51870000Y90090000D03*
X46090000Y90090000D03*
D13*
X52180000Y88950000D03*
X51380000Y88950000D03*
D14*
X50230000Y88950000D03*
X49230000Y88950000D03*
X48730000Y88950000D03*
X47730000Y88950000D03*
D13*
X46580000Y88950000D03*
X45780000Y88950000D03*
X45780000Y88950000D03*
X46580000Y88950000D03*
D14*
X47230000Y88950000D03*
X48230000Y88950000D03*
X49730000Y88950000D03*
X50730000Y88950000D03*
D13*
X51380000Y88950000D03*
X52180000Y88950000D03*
D15*
X53300000Y89590000D03*
D16*
X53300000Y93770000D03*
D15*
X44660000Y89590000D03*
D16*
X44660000Y93770000D03*
%TD*%
D10*
%TO.C,D13*%
X34360000Y22210000D03*
X34360000Y18910000D03*
X39260000Y18910000D03*
X39260000Y22210000D03*
%TD*%
%TO.C,D42*%
X66840000Y15590000D03*
X66840000Y12290000D03*
X71740000Y12290000D03*
X71740000Y15590000D03*
%TD*%
%TO.C,D8*%
X26240000Y8970000D03*
X26240000Y5670000D03*
X31140000Y5670000D03*
X31140000Y8970000D03*
%TD*%
D17*
%TO.C,D44*%
X49870000Y84437500D03*
X47970000Y84437500D03*
X48920000Y82162500D03*
%TD*%
D10*
%TO.C,D2*%
X26240000Y48690000D03*
X26240000Y45390000D03*
X31140000Y45390000D03*
X31140000Y48690000D03*
%TD*%
D18*
%TO.C,U1*%
X58135000Y89570000D03*
X58135000Y88620000D03*
X58135000Y87670000D03*
X60410000Y87670000D03*
X60410000Y89570000D03*
%TD*%
D10*
%TO.C,D21*%
X42480000Y15590000D03*
X42480000Y12290000D03*
X47380000Y12290000D03*
X47380000Y15590000D03*
%TD*%
D19*
%TO.C,R1*%
X68010000Y90730000D03*
X66360000Y90730000D03*
%TD*%
D11*
%TO.C,C9*%
X60070000Y91390000D03*
X58520000Y91390000D03*
%TD*%
D20*
%TO.C,R8*%
X58040000Y62530000D03*
X59690000Y62530000D03*
%TD*%
D21*
%TO.C,C14*%
X65190000Y80390000D03*
X65190000Y78840000D03*
%TD*%
D10*
%TO.C,D43*%
X66840000Y8970000D03*
X66840000Y5670000D03*
X71740000Y5670000D03*
X71740000Y8970000D03*
%TD*%
D20*
%TO.C,R9*%
X51330000Y68120000D03*
X52980000Y68120000D03*
%TD*%
D10*
%TO.C,D15*%
X34360000Y8970000D03*
X34360000Y5670000D03*
X39260000Y5670000D03*
X39260000Y8970000D03*
%TD*%
%TO.C,D11*%
X34360000Y35450000D03*
X34360000Y32150000D03*
X39260000Y32150000D03*
X39260000Y35450000D03*
%TD*%
D21*
%TO.C,C11*%
X56140000Y65590000D03*
X56140000Y64040000D03*
%TD*%
D22*
%TO.C,SW2*%
X79680000Y94020000D03*
X72880000Y94020000D03*
D23*
X78780000Y91270000D03*
X76280000Y91270000D03*
X73780000Y91270000D03*
%TD*%
D10*
%TO.C,D14*%
X34360000Y15590000D03*
X34360000Y12290000D03*
X39260000Y12290000D03*
X39260000Y15590000D03*
%TD*%
D11*
%TO.C,C5*%
X68480000Y74180000D03*
X66930000Y74180000D03*
%TD*%
D10*
%TO.C,D34*%
X58720000Y22210000D03*
X58720000Y18910000D03*
X63620000Y18910000D03*
X63620000Y22210000D03*
%TD*%
D24*
%TO.C,C12*%
X47325000Y77890000D03*
X48875000Y77890000D03*
%TD*%
D25*
%TO.C,Y1*%
X52990000Y62630000D03*
X52990000Y64830000D03*
X51290000Y64830000D03*
X51290000Y62630000D03*
%TD*%
D10*
%TO.C,D25*%
X50600000Y35450000D03*
X50600000Y32150000D03*
X55500000Y32150000D03*
X55500000Y35450000D03*
%TD*%
%TO.C,D26*%
X50600000Y28830000D03*
X50600000Y25530000D03*
X55500000Y25530000D03*
X55500000Y28830000D03*
%TD*%
%TO.C,D22*%
X42480000Y8970000D03*
X42480000Y5670000D03*
X47380000Y5670000D03*
X47380000Y8970000D03*
%TD*%
%TO.C,D41*%
X66840000Y22210000D03*
X66840000Y18910000D03*
X71740000Y18910000D03*
X71740000Y22210000D03*
%TD*%
D26*
%TO.C,TP3*%
X64340000Y61790000D03*
%TD*%
D11*
%TO.C,C16*%
X37570000Y3580000D03*
X36020000Y3580000D03*
%TD*%
D10*
%TO.C,D32*%
X58720000Y35450000D03*
X58720000Y32150000D03*
X63620000Y32150000D03*
X63620000Y35450000D03*
%TD*%
D27*
%TO.C,C6*%
X61515000Y64305000D03*
X61515000Y65855000D03*
%TD*%
D28*
%TO.C,U3*%
X51094998Y75513200D03*
X51594999Y75513200D03*
X52094999Y75513200D03*
X52595000Y75513200D03*
X52595000Y78310000D03*
X52094999Y78310000D03*
X51594999Y78310000D03*
X51094998Y78310000D03*
D29*
X51844999Y76911600D03*
%TD*%
D30*
%TO.C,D1*%
X76230000Y86890000D03*
X74830000Y86890000D03*
%TD*%
D31*
%TO.C,J1*%
X31290000Y91830000D03*
X23310000Y91830000D03*
D32*
X24160000Y81330000D03*
X25260000Y81330000D03*
X26360000Y81330000D03*
X27460000Y81330000D03*
X28560000Y81330000D03*
X29660000Y81330000D03*
X30760000Y81330000D03*
X31860000Y81330000D03*
X32960000Y81330000D03*
D25*
X34110000Y81830000D03*
D33*
X34110000Y91430000D03*
D34*
X19510000Y81830000D03*
D33*
X18610000Y91430000D03*
%TD*%
D35*
%TO.C,X1*%
X86690000Y77410000D03*
X86690000Y74870000D03*
D36*
X89230000Y77410000D03*
D35*
X89230000Y74870000D03*
D36*
X91770000Y77410000D03*
D35*
X91770000Y74870000D03*
%TD*%
D10*
%TO.C,D3*%
X26240000Y42070000D03*
X26240000Y38770000D03*
X31140000Y38770000D03*
X31140000Y42070000D03*
%TD*%
%TO.C,D37*%
X66840000Y48690000D03*
X66840000Y45390000D03*
X71740000Y45390000D03*
X71740000Y48690000D03*
%TD*%
D27*
%TO.C,C10*%
X62560000Y87830000D03*
X62560000Y89380000D03*
%TD*%
D10*
%TO.C,D6*%
X26240000Y22210000D03*
X26240000Y18910000D03*
X31140000Y18910000D03*
X31140000Y22210000D03*
%TD*%
D20*
%TO.C,R3*%
X51885000Y85900000D03*
X53535000Y85900000D03*
%TD*%
D10*
%TO.C,D17*%
X42480000Y42070000D03*
X42480000Y38770000D03*
X47380000Y38770000D03*
X47380000Y42070000D03*
%TD*%
%TO.C,D33*%
X58720000Y28830000D03*
X58720000Y25530000D03*
X63620000Y25530000D03*
X63620000Y28830000D03*
%TD*%
D20*
%TO.C,R2*%
X64180000Y65820000D03*
X65830000Y65820000D03*
%TD*%
D10*
%TO.C,D28*%
X50600000Y15590000D03*
X50600000Y12290000D03*
X55500000Y12290000D03*
X55500000Y15590000D03*
%TD*%
%TO.C,D35*%
X58720000Y15590000D03*
X58720000Y12290000D03*
X63620000Y12290000D03*
X63620000Y15590000D03*
%TD*%
D37*
%TO.C,U2*%
X57487500Y74197500D03*
X57487500Y73797500D03*
X57487500Y73397500D03*
X57487500Y72997500D03*
X57487500Y72597500D03*
X57487500Y72197500D03*
X57487500Y71797500D03*
X57487500Y71397500D03*
X57487500Y70997500D03*
X57487500Y70597500D03*
X57487500Y70197500D03*
X57487500Y69797500D03*
X57487500Y69397500D03*
X57487500Y68997500D03*
D38*
X58325000Y68160000D03*
X58725000Y68160000D03*
X59125000Y68160000D03*
X59525000Y68160000D03*
X59925000Y68160000D03*
X60325000Y68160000D03*
X60725000Y68160000D03*
X61125000Y68160000D03*
X61525000Y68160000D03*
X61925000Y68160000D03*
X62325000Y68160000D03*
X62725000Y68160000D03*
X63125000Y68160000D03*
X63525000Y68160000D03*
D37*
X64362500Y68997500D03*
X64362500Y69397500D03*
X64362500Y69797500D03*
X64362500Y70197500D03*
X64362500Y70597500D03*
X64362500Y70997500D03*
X64362500Y71397500D03*
X64362500Y71797500D03*
X64362500Y72197500D03*
X64362500Y72597500D03*
X64362500Y72997500D03*
X64362500Y73397500D03*
X64362500Y73797500D03*
X64362500Y74197500D03*
D38*
X63525000Y75035000D03*
X63125000Y75035000D03*
X62725000Y75035000D03*
X62325000Y75035000D03*
X61925000Y75035000D03*
X61525000Y75035000D03*
X61125000Y75035000D03*
X60725000Y75035000D03*
X60325000Y75035000D03*
X59925000Y75035000D03*
X59525000Y75035000D03*
X59125000Y75035000D03*
X58725000Y75035000D03*
X58325000Y75035000D03*
D39*
X60925000Y71597500D03*
%TD*%
D20*
%TO.C,R5*%
X51885000Y82650000D03*
X53535000Y82650000D03*
%TD*%
D21*
%TO.C,C7*%
X59020000Y80390000D03*
X59020000Y78840000D03*
%TD*%
D10*
%TO.C,D10*%
X34360000Y42070000D03*
X34360000Y38770000D03*
X39260000Y38770000D03*
X39260000Y42070000D03*
%TD*%
D21*
%TO.C,C3*%
X60605000Y80390000D03*
X60605000Y78840000D03*
%TD*%
D19*
%TO.C,R7*%
X48915000Y75920000D03*
X47265000Y75920000D03*
%TD*%
D11*
%TO.C,C15*%
X29450000Y3670000D03*
X27900000Y3670000D03*
%TD*%
D27*
%TO.C,C13*%
X56140000Y60980000D03*
X56140000Y62530000D03*
%TD*%
D21*
%TO.C,C4*%
X66780000Y80390000D03*
X66780000Y78840000D03*
%TD*%
D10*
%TO.C,D9*%
X34360000Y48690000D03*
X34360000Y45390000D03*
X39260000Y45390000D03*
X39260000Y48690000D03*
%TD*%
D24*
%TO.C,C2*%
X51380000Y69730000D03*
X52930000Y69730000D03*
%TD*%
D10*
%TO.C,D38*%
X66840000Y42070000D03*
X66840000Y38770000D03*
X71740000Y38770000D03*
X71740000Y42070000D03*
%TD*%
D40*
%TO.C,SW1*%
X67170000Y93610000D03*
X67170000Y95410000D03*
D41*
X68970000Y93790000D03*
X65370000Y93790000D03*
X68970000Y95230000D03*
X65370000Y95230000D03*
%TD*%
D10*
%TO.C,D16*%
X42480000Y48690000D03*
X42480000Y45390000D03*
X47380000Y45390000D03*
X47380000Y48690000D03*
%TD*%
D21*
%TO.C,C8*%
X63605000Y80390000D03*
X63605000Y78840000D03*
%TD*%
D10*
%TO.C,D4*%
X26240000Y35450000D03*
X26240000Y32150000D03*
X31140000Y32150000D03*
X31140000Y35450000D03*
%TD*%
%TO.C,D20*%
X42480000Y22210000D03*
X42480000Y18910000D03*
X47380000Y18910000D03*
X47380000Y22210000D03*
%TD*%
D11*
%TO.C,C18*%
X53740000Y3540000D03*
X52190000Y3540000D03*
%TD*%
D19*
%TO.C,R4*%
X46085000Y85880000D03*
X44435000Y85880000D03*
%TD*%
D10*
%TO.C,D12*%
X34360000Y28830000D03*
X34360000Y25530000D03*
X39260000Y25530000D03*
X39260000Y28830000D03*
%TD*%
D11*
%TO.C,C19*%
X61910000Y3560000D03*
X60360000Y3560000D03*
%TD*%
D19*
%TO.C,R6*%
X53535000Y84275000D03*
X51885000Y84275000D03*
%TD*%
D10*
%TO.C,D40*%
X66840000Y28830000D03*
X66840000Y25530000D03*
X71740000Y25530000D03*
X71740000Y28830000D03*
%TD*%
D24*
%TO.C,C1*%
X19510000Y77400000D03*
X21060000Y77400000D03*
%TD*%
D10*
%TO.C,D19*%
X42480000Y28830000D03*
X42480000Y25530000D03*
X47380000Y25530000D03*
X47380000Y28830000D03*
%TD*%
%TO.C,D30*%
X58720000Y48690000D03*
X58720000Y45390000D03*
X63620000Y45390000D03*
X63620000Y48690000D03*
%TD*%
%TO.C,D27*%
X50600000Y22210000D03*
X50600000Y18910000D03*
X55500000Y18910000D03*
X55500000Y22210000D03*
%TD*%
%TO.C,D29*%
X50600000Y8970000D03*
X50600000Y5670000D03*
X55500000Y5670000D03*
X55500000Y8970000D03*
%TD*%
%TO.C,D31*%
X58720000Y42070000D03*
X58720000Y38770000D03*
X63620000Y38770000D03*
X63620000Y42070000D03*
%TD*%
D26*
%TO.C,TP4*%
X67900000Y61790000D03*
%TD*%
D11*
%TO.C,C20*%
X69950000Y3540000D03*
X68400000Y3540000D03*
%TD*%
D10*
%TO.C,D39*%
X66840000Y35450000D03*
X66840000Y32150000D03*
X71740000Y32150000D03*
X71740000Y35450000D03*
%TD*%
M02*
