%TF.GenerationSoftware,KiCad,Pcbnew,9.0.1*%
%TF.CreationDate,2025-06-23T00:24:10-06:00*%
%TF.ProjectId,zippy-badge,7a697070-792d-4626-9164-67652e6b6963,1.1*%
%TF.SameCoordinates,PX6aea9b0PY7fd22b0*%
%TF.FileFunction,AssemblyDrawing,Bot*%
%FSLAX46Y46*%
G04 Gerber Fmt 4.6, Leading zero omitted, Abs format (unit mm)*
G04 Created by KiCad (PCBNEW 9.0.1) date 2025-06-23 00:24:10*
%MOMM*%
%LPD*%
G01*
G04 APERTURE LIST*
%ADD10C,0.100000*%
%ADD11C,0.150000*%
%ADD12C,0.300000*%
%ADD13C,0.400000*%
G04 APERTURE END LIST*
D10*
D11*
X64892200Y-31977200D02*
X172892200Y-31977200D01*
X172892200Y-63977200D01*
X64892200Y-63977200D01*
X64892200Y-31977200D01*
D10*
D11*
X-102110000Y124030000D02*
X174892200Y124030000D01*
X174892200Y-65977200D01*
X-102110000Y-65977200D01*
X-102110000Y124030000D01*
D10*
D11*
X-100110000Y122030000D02*
X172892200Y122030000D01*
X172892200Y-63977200D01*
X-100110000Y-63977200D01*
X-100110000Y122030000D01*
D10*
D11*
X-52110000Y122030000D02*
X-52110000Y124030000D01*
D10*
D11*
X-2110000Y122030000D02*
X-2110000Y124030000D01*
D10*
D11*
X47890000Y122030000D02*
X47890000Y124030000D01*
D10*
D11*
X97890000Y122030000D02*
X97890000Y124030000D01*
D10*
D11*
X147890000Y122030000D02*
X147890000Y124030000D01*
D10*
D11*
X-76020840Y122436396D02*
X-76763697Y122436396D01*
X-76392269Y122436396D02*
X-76392269Y123736396D01*
X-76392269Y123736396D02*
X-76516078Y123550681D01*
X-76516078Y123550681D02*
X-76639888Y123426872D01*
X-76639888Y123426872D02*
X-76763697Y123364967D01*
D10*
D11*
X-26763697Y123612586D02*
X-26701793Y123674491D01*
X-26701793Y123674491D02*
X-26577983Y123736396D01*
X-26577983Y123736396D02*
X-26268459Y123736396D01*
X-26268459Y123736396D02*
X-26144650Y123674491D01*
X-26144650Y123674491D02*
X-26082745Y123612586D01*
X-26082745Y123612586D02*
X-26020840Y123488777D01*
X-26020840Y123488777D02*
X-26020840Y123364967D01*
X-26020840Y123364967D02*
X-26082745Y123179253D01*
X-26082745Y123179253D02*
X-26825602Y122436396D01*
X-26825602Y122436396D02*
X-26020840Y122436396D01*
D10*
D11*
X23174398Y123736396D02*
X23979160Y123736396D01*
X23979160Y123736396D02*
X23545826Y123241158D01*
X23545826Y123241158D02*
X23731541Y123241158D01*
X23731541Y123241158D02*
X23855350Y123179253D01*
X23855350Y123179253D02*
X23917255Y123117348D01*
X23917255Y123117348D02*
X23979160Y122993539D01*
X23979160Y122993539D02*
X23979160Y122684015D01*
X23979160Y122684015D02*
X23917255Y122560205D01*
X23917255Y122560205D02*
X23855350Y122498300D01*
X23855350Y122498300D02*
X23731541Y122436396D01*
X23731541Y122436396D02*
X23360112Y122436396D01*
X23360112Y122436396D02*
X23236303Y122498300D01*
X23236303Y122498300D02*
X23174398Y122560205D01*
D10*
D11*
X73855350Y123303062D02*
X73855350Y122436396D01*
X73545826Y123798300D02*
X73236303Y122869729D01*
X73236303Y122869729D02*
X74041064Y122869729D01*
D10*
D11*
X123917255Y123736396D02*
X123298207Y123736396D01*
X123298207Y123736396D02*
X123236303Y123117348D01*
X123236303Y123117348D02*
X123298207Y123179253D01*
X123298207Y123179253D02*
X123422017Y123241158D01*
X123422017Y123241158D02*
X123731541Y123241158D01*
X123731541Y123241158D02*
X123855350Y123179253D01*
X123855350Y123179253D02*
X123917255Y123117348D01*
X123917255Y123117348D02*
X123979160Y122993539D01*
X123979160Y122993539D02*
X123979160Y122684015D01*
X123979160Y122684015D02*
X123917255Y122560205D01*
X123917255Y122560205D02*
X123855350Y122498300D01*
X123855350Y122498300D02*
X123731541Y122436396D01*
X123731541Y122436396D02*
X123422017Y122436396D01*
X123422017Y122436396D02*
X123298207Y122498300D01*
X123298207Y122498300D02*
X123236303Y122560205D01*
D10*
D11*
X173855350Y123736396D02*
X173607731Y123736396D01*
X173607731Y123736396D02*
X173483922Y123674491D01*
X173483922Y123674491D02*
X173422017Y123612586D01*
X173422017Y123612586D02*
X173298207Y123426872D01*
X173298207Y123426872D02*
X173236303Y123179253D01*
X173236303Y123179253D02*
X173236303Y122684015D01*
X173236303Y122684015D02*
X173298207Y122560205D01*
X173298207Y122560205D02*
X173360112Y122498300D01*
X173360112Y122498300D02*
X173483922Y122436396D01*
X173483922Y122436396D02*
X173731541Y122436396D01*
X173731541Y122436396D02*
X173855350Y122498300D01*
X173855350Y122498300D02*
X173917255Y122560205D01*
X173917255Y122560205D02*
X173979160Y122684015D01*
X173979160Y122684015D02*
X173979160Y122993539D01*
X173979160Y122993539D02*
X173917255Y123117348D01*
X173917255Y123117348D02*
X173855350Y123179253D01*
X173855350Y123179253D02*
X173731541Y123241158D01*
X173731541Y123241158D02*
X173483922Y123241158D01*
X173483922Y123241158D02*
X173360112Y123179253D01*
X173360112Y123179253D02*
X173298207Y123117348D01*
X173298207Y123117348D02*
X173236303Y122993539D01*
D10*
D11*
X-52110000Y-63977200D02*
X-52110000Y-65977200D01*
D10*
D11*
X-2110000Y-63977200D02*
X-2110000Y-65977200D01*
D10*
D11*
X47890000Y-63977200D02*
X47890000Y-65977200D01*
D10*
D11*
X97890000Y-63977200D02*
X97890000Y-65977200D01*
D10*
D11*
X147890000Y-63977200D02*
X147890000Y-65977200D01*
D10*
D11*
X-76020840Y-65570804D02*
X-76763697Y-65570804D01*
X-76392269Y-65570804D02*
X-76392269Y-64270804D01*
X-76392269Y-64270804D02*
X-76516078Y-64456519D01*
X-76516078Y-64456519D02*
X-76639888Y-64580328D01*
X-76639888Y-64580328D02*
X-76763697Y-64642233D01*
D10*
D11*
X-26763697Y-64394614D02*
X-26701793Y-64332709D01*
X-26701793Y-64332709D02*
X-26577983Y-64270804D01*
X-26577983Y-64270804D02*
X-26268459Y-64270804D01*
X-26268459Y-64270804D02*
X-26144650Y-64332709D01*
X-26144650Y-64332709D02*
X-26082745Y-64394614D01*
X-26082745Y-64394614D02*
X-26020840Y-64518423D01*
X-26020840Y-64518423D02*
X-26020840Y-64642233D01*
X-26020840Y-64642233D02*
X-26082745Y-64827947D01*
X-26082745Y-64827947D02*
X-26825602Y-65570804D01*
X-26825602Y-65570804D02*
X-26020840Y-65570804D01*
D10*
D11*
X23174398Y-64270804D02*
X23979160Y-64270804D01*
X23979160Y-64270804D02*
X23545826Y-64766042D01*
X23545826Y-64766042D02*
X23731541Y-64766042D01*
X23731541Y-64766042D02*
X23855350Y-64827947D01*
X23855350Y-64827947D02*
X23917255Y-64889852D01*
X23917255Y-64889852D02*
X23979160Y-65013661D01*
X23979160Y-65013661D02*
X23979160Y-65323185D01*
X23979160Y-65323185D02*
X23917255Y-65446995D01*
X23917255Y-65446995D02*
X23855350Y-65508900D01*
X23855350Y-65508900D02*
X23731541Y-65570804D01*
X23731541Y-65570804D02*
X23360112Y-65570804D01*
X23360112Y-65570804D02*
X23236303Y-65508900D01*
X23236303Y-65508900D02*
X23174398Y-65446995D01*
D10*
D11*
X73855350Y-64704138D02*
X73855350Y-65570804D01*
X73545826Y-64208900D02*
X73236303Y-65137471D01*
X73236303Y-65137471D02*
X74041064Y-65137471D01*
D10*
D11*
X123917255Y-64270804D02*
X123298207Y-64270804D01*
X123298207Y-64270804D02*
X123236303Y-64889852D01*
X123236303Y-64889852D02*
X123298207Y-64827947D01*
X123298207Y-64827947D02*
X123422017Y-64766042D01*
X123422017Y-64766042D02*
X123731541Y-64766042D01*
X123731541Y-64766042D02*
X123855350Y-64827947D01*
X123855350Y-64827947D02*
X123917255Y-64889852D01*
X123917255Y-64889852D02*
X123979160Y-65013661D01*
X123979160Y-65013661D02*
X123979160Y-65323185D01*
X123979160Y-65323185D02*
X123917255Y-65446995D01*
X123917255Y-65446995D02*
X123855350Y-65508900D01*
X123855350Y-65508900D02*
X123731541Y-65570804D01*
X123731541Y-65570804D02*
X123422017Y-65570804D01*
X123422017Y-65570804D02*
X123298207Y-65508900D01*
X123298207Y-65508900D02*
X123236303Y-65446995D01*
D10*
D11*
X173855350Y-64270804D02*
X173607731Y-64270804D01*
X173607731Y-64270804D02*
X173483922Y-64332709D01*
X173483922Y-64332709D02*
X173422017Y-64394614D01*
X173422017Y-64394614D02*
X173298207Y-64580328D01*
X173298207Y-64580328D02*
X173236303Y-64827947D01*
X173236303Y-64827947D02*
X173236303Y-65323185D01*
X173236303Y-65323185D02*
X173298207Y-65446995D01*
X173298207Y-65446995D02*
X173360112Y-65508900D01*
X173360112Y-65508900D02*
X173483922Y-65570804D01*
X173483922Y-65570804D02*
X173731541Y-65570804D01*
X173731541Y-65570804D02*
X173855350Y-65508900D01*
X173855350Y-65508900D02*
X173917255Y-65446995D01*
X173917255Y-65446995D02*
X173979160Y-65323185D01*
X173979160Y-65323185D02*
X173979160Y-65013661D01*
X173979160Y-65013661D02*
X173917255Y-64889852D01*
X173917255Y-64889852D02*
X173855350Y-64827947D01*
X173855350Y-64827947D02*
X173731541Y-64766042D01*
X173731541Y-64766042D02*
X173483922Y-64766042D01*
X173483922Y-64766042D02*
X173360112Y-64827947D01*
X173360112Y-64827947D02*
X173298207Y-64889852D01*
X173298207Y-64889852D02*
X173236303Y-65013661D01*
D10*
D11*
X-102110000Y74030000D02*
X-100110000Y74030000D01*
D10*
D11*
X-102110000Y24030000D02*
X-100110000Y24030000D01*
D10*
D11*
X-102110000Y-25970000D02*
X-100110000Y-25970000D01*
D10*
D11*
X-101419524Y98807824D02*
X-100800477Y98807824D01*
X-101543334Y98436396D02*
X-101110001Y99736396D01*
X-101110001Y99736396D02*
X-100676667Y98436396D01*
D10*
D11*
X-101017143Y49117348D02*
X-100831429Y49055443D01*
X-100831429Y49055443D02*
X-100769524Y48993539D01*
X-100769524Y48993539D02*
X-100707620Y48869729D01*
X-100707620Y48869729D02*
X-100707620Y48684015D01*
X-100707620Y48684015D02*
X-100769524Y48560205D01*
X-100769524Y48560205D02*
X-100831429Y48498300D01*
X-100831429Y48498300D02*
X-100955239Y48436396D01*
X-100955239Y48436396D02*
X-101450477Y48436396D01*
X-101450477Y48436396D02*
X-101450477Y49736396D01*
X-101450477Y49736396D02*
X-101017143Y49736396D01*
X-101017143Y49736396D02*
X-100893334Y49674491D01*
X-100893334Y49674491D02*
X-100831429Y49612586D01*
X-100831429Y49612586D02*
X-100769524Y49488777D01*
X-100769524Y49488777D02*
X-100769524Y49364967D01*
X-100769524Y49364967D02*
X-100831429Y49241158D01*
X-100831429Y49241158D02*
X-100893334Y49179253D01*
X-100893334Y49179253D02*
X-101017143Y49117348D01*
X-101017143Y49117348D02*
X-101450477Y49117348D01*
D10*
D11*
X-100707620Y-1439795D02*
X-100769524Y-1501700D01*
X-100769524Y-1501700D02*
X-100955239Y-1563604D01*
X-100955239Y-1563604D02*
X-101079048Y-1563604D01*
X-101079048Y-1563604D02*
X-101264762Y-1501700D01*
X-101264762Y-1501700D02*
X-101388572Y-1377890D01*
X-101388572Y-1377890D02*
X-101450477Y-1254080D01*
X-101450477Y-1254080D02*
X-101512381Y-1006461D01*
X-101512381Y-1006461D02*
X-101512381Y-820747D01*
X-101512381Y-820747D02*
X-101450477Y-573128D01*
X-101450477Y-573128D02*
X-101388572Y-449319D01*
X-101388572Y-449319D02*
X-101264762Y-325509D01*
X-101264762Y-325509D02*
X-101079048Y-263604D01*
X-101079048Y-263604D02*
X-100955239Y-263604D01*
X-100955239Y-263604D02*
X-100769524Y-325509D01*
X-100769524Y-325509D02*
X-100707620Y-387414D01*
D10*
D11*
X-101450477Y-51563604D02*
X-101450477Y-50263604D01*
X-101450477Y-50263604D02*
X-101140953Y-50263604D01*
X-101140953Y-50263604D02*
X-100955239Y-50325509D01*
X-100955239Y-50325509D02*
X-100831429Y-50449319D01*
X-100831429Y-50449319D02*
X-100769524Y-50573128D01*
X-100769524Y-50573128D02*
X-100707620Y-50820747D01*
X-100707620Y-50820747D02*
X-100707620Y-51006461D01*
X-100707620Y-51006461D02*
X-100769524Y-51254080D01*
X-100769524Y-51254080D02*
X-100831429Y-51377890D01*
X-100831429Y-51377890D02*
X-100955239Y-51501700D01*
X-100955239Y-51501700D02*
X-101140953Y-51563604D01*
X-101140953Y-51563604D02*
X-101450477Y-51563604D01*
D10*
D11*
X174892200Y74030000D02*
X172892200Y74030000D01*
D10*
D11*
X174892200Y24030000D02*
X172892200Y24030000D01*
D10*
D11*
X174892200Y-25970000D02*
X172892200Y-25970000D01*
D10*
D11*
X173582676Y98807824D02*
X174201723Y98807824D01*
X173458866Y98436396D02*
X173892199Y99736396D01*
X173892199Y99736396D02*
X174325533Y98436396D01*
D10*
D11*
X173985057Y49117348D02*
X174170771Y49055443D01*
X174170771Y49055443D02*
X174232676Y48993539D01*
X174232676Y48993539D02*
X174294580Y48869729D01*
X174294580Y48869729D02*
X174294580Y48684015D01*
X174294580Y48684015D02*
X174232676Y48560205D01*
X174232676Y48560205D02*
X174170771Y48498300D01*
X174170771Y48498300D02*
X174046961Y48436396D01*
X174046961Y48436396D02*
X173551723Y48436396D01*
X173551723Y48436396D02*
X173551723Y49736396D01*
X173551723Y49736396D02*
X173985057Y49736396D01*
X173985057Y49736396D02*
X174108866Y49674491D01*
X174108866Y49674491D02*
X174170771Y49612586D01*
X174170771Y49612586D02*
X174232676Y49488777D01*
X174232676Y49488777D02*
X174232676Y49364967D01*
X174232676Y49364967D02*
X174170771Y49241158D01*
X174170771Y49241158D02*
X174108866Y49179253D01*
X174108866Y49179253D02*
X173985057Y49117348D01*
X173985057Y49117348D02*
X173551723Y49117348D01*
D10*
D11*
X174294580Y-1439795D02*
X174232676Y-1501700D01*
X174232676Y-1501700D02*
X174046961Y-1563604D01*
X174046961Y-1563604D02*
X173923152Y-1563604D01*
X173923152Y-1563604D02*
X173737438Y-1501700D01*
X173737438Y-1501700D02*
X173613628Y-1377890D01*
X173613628Y-1377890D02*
X173551723Y-1254080D01*
X173551723Y-1254080D02*
X173489819Y-1006461D01*
X173489819Y-1006461D02*
X173489819Y-820747D01*
X173489819Y-820747D02*
X173551723Y-573128D01*
X173551723Y-573128D02*
X173613628Y-449319D01*
X173613628Y-449319D02*
X173737438Y-325509D01*
X173737438Y-325509D02*
X173923152Y-263604D01*
X173923152Y-263604D02*
X174046961Y-263604D01*
X174046961Y-263604D02*
X174232676Y-325509D01*
X174232676Y-325509D02*
X174294580Y-387414D01*
D10*
D11*
X173551723Y-51563604D02*
X173551723Y-50263604D01*
X173551723Y-50263604D02*
X173861247Y-50263604D01*
X173861247Y-50263604D02*
X174046961Y-50325509D01*
X174046961Y-50325509D02*
X174170771Y-50449319D01*
X174170771Y-50449319D02*
X174232676Y-50573128D01*
X174232676Y-50573128D02*
X174294580Y-50820747D01*
X174294580Y-50820747D02*
X174294580Y-51006461D01*
X174294580Y-51006461D02*
X174232676Y-51254080D01*
X174232676Y-51254080D02*
X174170771Y-51377890D01*
X174170771Y-51377890D02*
X174046961Y-51501700D01*
X174046961Y-51501700D02*
X173861247Y-51563604D01*
X173861247Y-51563604D02*
X173551723Y-51563604D01*
D10*
D11*
X88348026Y-59763328D02*
X88348026Y-58263328D01*
X88348026Y-58263328D02*
X88705169Y-58263328D01*
X88705169Y-58263328D02*
X88919455Y-58334757D01*
X88919455Y-58334757D02*
X89062312Y-58477614D01*
X89062312Y-58477614D02*
X89133741Y-58620471D01*
X89133741Y-58620471D02*
X89205169Y-58906185D01*
X89205169Y-58906185D02*
X89205169Y-59120471D01*
X89205169Y-59120471D02*
X89133741Y-59406185D01*
X89133741Y-59406185D02*
X89062312Y-59549042D01*
X89062312Y-59549042D02*
X88919455Y-59691900D01*
X88919455Y-59691900D02*
X88705169Y-59763328D01*
X88705169Y-59763328D02*
X88348026Y-59763328D01*
X90490884Y-59763328D02*
X90490884Y-58977614D01*
X90490884Y-58977614D02*
X90419455Y-58834757D01*
X90419455Y-58834757D02*
X90276598Y-58763328D01*
X90276598Y-58763328D02*
X89990884Y-58763328D01*
X89990884Y-58763328D02*
X89848026Y-58834757D01*
X90490884Y-59691900D02*
X90348026Y-59763328D01*
X90348026Y-59763328D02*
X89990884Y-59763328D01*
X89990884Y-59763328D02*
X89848026Y-59691900D01*
X89848026Y-59691900D02*
X89776598Y-59549042D01*
X89776598Y-59549042D02*
X89776598Y-59406185D01*
X89776598Y-59406185D02*
X89848026Y-59263328D01*
X89848026Y-59263328D02*
X89990884Y-59191900D01*
X89990884Y-59191900D02*
X90348026Y-59191900D01*
X90348026Y-59191900D02*
X90490884Y-59120471D01*
X90990884Y-58763328D02*
X91562312Y-58763328D01*
X91205169Y-58263328D02*
X91205169Y-59549042D01*
X91205169Y-59549042D02*
X91276598Y-59691900D01*
X91276598Y-59691900D02*
X91419455Y-59763328D01*
X91419455Y-59763328D02*
X91562312Y-59763328D01*
X92633741Y-59691900D02*
X92490884Y-59763328D01*
X92490884Y-59763328D02*
X92205170Y-59763328D01*
X92205170Y-59763328D02*
X92062312Y-59691900D01*
X92062312Y-59691900D02*
X91990884Y-59549042D01*
X91990884Y-59549042D02*
X91990884Y-58977614D01*
X91990884Y-58977614D02*
X92062312Y-58834757D01*
X92062312Y-58834757D02*
X92205170Y-58763328D01*
X92205170Y-58763328D02*
X92490884Y-58763328D01*
X92490884Y-58763328D02*
X92633741Y-58834757D01*
X92633741Y-58834757D02*
X92705170Y-58977614D01*
X92705170Y-58977614D02*
X92705170Y-59120471D01*
X92705170Y-59120471D02*
X91990884Y-59263328D01*
X93348026Y-59620471D02*
X93419455Y-59691900D01*
X93419455Y-59691900D02*
X93348026Y-59763328D01*
X93348026Y-59763328D02*
X93276598Y-59691900D01*
X93276598Y-59691900D02*
X93348026Y-59620471D01*
X93348026Y-59620471D02*
X93348026Y-59763328D01*
X93348026Y-58834757D02*
X93419455Y-58906185D01*
X93419455Y-58906185D02*
X93348026Y-58977614D01*
X93348026Y-58977614D02*
X93276598Y-58906185D01*
X93276598Y-58906185D02*
X93348026Y-58834757D01*
X93348026Y-58834757D02*
X93348026Y-58977614D01*
X95133741Y-58406185D02*
X95205169Y-58334757D01*
X95205169Y-58334757D02*
X95348027Y-58263328D01*
X95348027Y-58263328D02*
X95705169Y-58263328D01*
X95705169Y-58263328D02*
X95848027Y-58334757D01*
X95848027Y-58334757D02*
X95919455Y-58406185D01*
X95919455Y-58406185D02*
X95990884Y-58549042D01*
X95990884Y-58549042D02*
X95990884Y-58691900D01*
X95990884Y-58691900D02*
X95919455Y-58906185D01*
X95919455Y-58906185D02*
X95062312Y-59763328D01*
X95062312Y-59763328D02*
X95990884Y-59763328D01*
X96919455Y-58263328D02*
X97062312Y-58263328D01*
X97062312Y-58263328D02*
X97205169Y-58334757D01*
X97205169Y-58334757D02*
X97276598Y-58406185D01*
X97276598Y-58406185D02*
X97348026Y-58549042D01*
X97348026Y-58549042D02*
X97419455Y-58834757D01*
X97419455Y-58834757D02*
X97419455Y-59191900D01*
X97419455Y-59191900D02*
X97348026Y-59477614D01*
X97348026Y-59477614D02*
X97276598Y-59620471D01*
X97276598Y-59620471D02*
X97205169Y-59691900D01*
X97205169Y-59691900D02*
X97062312Y-59763328D01*
X97062312Y-59763328D02*
X96919455Y-59763328D01*
X96919455Y-59763328D02*
X96776598Y-59691900D01*
X96776598Y-59691900D02*
X96705169Y-59620471D01*
X96705169Y-59620471D02*
X96633740Y-59477614D01*
X96633740Y-59477614D02*
X96562312Y-59191900D01*
X96562312Y-59191900D02*
X96562312Y-58834757D01*
X96562312Y-58834757D02*
X96633740Y-58549042D01*
X96633740Y-58549042D02*
X96705169Y-58406185D01*
X96705169Y-58406185D02*
X96776598Y-58334757D01*
X96776598Y-58334757D02*
X96919455Y-58263328D01*
X97990883Y-58406185D02*
X98062311Y-58334757D01*
X98062311Y-58334757D02*
X98205169Y-58263328D01*
X98205169Y-58263328D02*
X98562311Y-58263328D01*
X98562311Y-58263328D02*
X98705169Y-58334757D01*
X98705169Y-58334757D02*
X98776597Y-58406185D01*
X98776597Y-58406185D02*
X98848026Y-58549042D01*
X98848026Y-58549042D02*
X98848026Y-58691900D01*
X98848026Y-58691900D02*
X98776597Y-58906185D01*
X98776597Y-58906185D02*
X97919454Y-59763328D01*
X97919454Y-59763328D02*
X98848026Y-59763328D01*
X100205168Y-58263328D02*
X99490882Y-58263328D01*
X99490882Y-58263328D02*
X99419454Y-58977614D01*
X99419454Y-58977614D02*
X99490882Y-58906185D01*
X99490882Y-58906185D02*
X99633740Y-58834757D01*
X99633740Y-58834757D02*
X99990882Y-58834757D01*
X99990882Y-58834757D02*
X100133740Y-58906185D01*
X100133740Y-58906185D02*
X100205168Y-58977614D01*
X100205168Y-58977614D02*
X100276597Y-59120471D01*
X100276597Y-59120471D02*
X100276597Y-59477614D01*
X100276597Y-59477614D02*
X100205168Y-59620471D01*
X100205168Y-59620471D02*
X100133740Y-59691900D01*
X100133740Y-59691900D02*
X99990882Y-59763328D01*
X99990882Y-59763328D02*
X99633740Y-59763328D01*
X99633740Y-59763328D02*
X99490882Y-59691900D01*
X99490882Y-59691900D02*
X99419454Y-59620471D01*
X100919453Y-59191900D02*
X102062311Y-59191900D01*
X103062311Y-58263328D02*
X103205168Y-58263328D01*
X103205168Y-58263328D02*
X103348025Y-58334757D01*
X103348025Y-58334757D02*
X103419454Y-58406185D01*
X103419454Y-58406185D02*
X103490882Y-58549042D01*
X103490882Y-58549042D02*
X103562311Y-58834757D01*
X103562311Y-58834757D02*
X103562311Y-59191900D01*
X103562311Y-59191900D02*
X103490882Y-59477614D01*
X103490882Y-59477614D02*
X103419454Y-59620471D01*
X103419454Y-59620471D02*
X103348025Y-59691900D01*
X103348025Y-59691900D02*
X103205168Y-59763328D01*
X103205168Y-59763328D02*
X103062311Y-59763328D01*
X103062311Y-59763328D02*
X102919454Y-59691900D01*
X102919454Y-59691900D02*
X102848025Y-59620471D01*
X102848025Y-59620471D02*
X102776596Y-59477614D01*
X102776596Y-59477614D02*
X102705168Y-59191900D01*
X102705168Y-59191900D02*
X102705168Y-58834757D01*
X102705168Y-58834757D02*
X102776596Y-58549042D01*
X102776596Y-58549042D02*
X102848025Y-58406185D01*
X102848025Y-58406185D02*
X102919454Y-58334757D01*
X102919454Y-58334757D02*
X103062311Y-58263328D01*
X104848025Y-58763328D02*
X104848025Y-59763328D01*
X104490882Y-58191900D02*
X104133739Y-59263328D01*
X104133739Y-59263328D02*
X105062310Y-59263328D01*
X105633738Y-59191900D02*
X106776596Y-59191900D01*
X107419453Y-58406185D02*
X107490881Y-58334757D01*
X107490881Y-58334757D02*
X107633739Y-58263328D01*
X107633739Y-58263328D02*
X107990881Y-58263328D01*
X107990881Y-58263328D02*
X108133739Y-58334757D01*
X108133739Y-58334757D02*
X108205167Y-58406185D01*
X108205167Y-58406185D02*
X108276596Y-58549042D01*
X108276596Y-58549042D02*
X108276596Y-58691900D01*
X108276596Y-58691900D02*
X108205167Y-58906185D01*
X108205167Y-58906185D02*
X107348024Y-59763328D01*
X107348024Y-59763328D02*
X108276596Y-59763328D01*
X109133738Y-58906185D02*
X108990881Y-58834757D01*
X108990881Y-58834757D02*
X108919452Y-58763328D01*
X108919452Y-58763328D02*
X108848024Y-58620471D01*
X108848024Y-58620471D02*
X108848024Y-58549042D01*
X108848024Y-58549042D02*
X108919452Y-58406185D01*
X108919452Y-58406185D02*
X108990881Y-58334757D01*
X108990881Y-58334757D02*
X109133738Y-58263328D01*
X109133738Y-58263328D02*
X109419452Y-58263328D01*
X109419452Y-58263328D02*
X109562310Y-58334757D01*
X109562310Y-58334757D02*
X109633738Y-58406185D01*
X109633738Y-58406185D02*
X109705167Y-58549042D01*
X109705167Y-58549042D02*
X109705167Y-58620471D01*
X109705167Y-58620471D02*
X109633738Y-58763328D01*
X109633738Y-58763328D02*
X109562310Y-58834757D01*
X109562310Y-58834757D02*
X109419452Y-58906185D01*
X109419452Y-58906185D02*
X109133738Y-58906185D01*
X109133738Y-58906185D02*
X108990881Y-58977614D01*
X108990881Y-58977614D02*
X108919452Y-59049042D01*
X108919452Y-59049042D02*
X108848024Y-59191900D01*
X108848024Y-59191900D02*
X108848024Y-59477614D01*
X108848024Y-59477614D02*
X108919452Y-59620471D01*
X108919452Y-59620471D02*
X108990881Y-59691900D01*
X108990881Y-59691900D02*
X109133738Y-59763328D01*
X109133738Y-59763328D02*
X109419452Y-59763328D01*
X109419452Y-59763328D02*
X109562310Y-59691900D01*
X109562310Y-59691900D02*
X109633738Y-59620471D01*
X109633738Y-59620471D02*
X109705167Y-59477614D01*
X109705167Y-59477614D02*
X109705167Y-59191900D01*
X109705167Y-59191900D02*
X109633738Y-59049042D01*
X109633738Y-59049042D02*
X109562310Y-58977614D01*
X109562310Y-58977614D02*
X109419452Y-58906185D01*
D10*
D11*
X64892200Y-60477200D02*
X172892200Y-60477200D01*
D10*
D11*
X66348026Y-62563328D02*
X66348026Y-61063328D01*
X67205169Y-62563328D02*
X66562312Y-61706185D01*
X67205169Y-61063328D02*
X66348026Y-61920471D01*
X67848026Y-62563328D02*
X67848026Y-61563328D01*
X67848026Y-61063328D02*
X67776598Y-61134757D01*
X67776598Y-61134757D02*
X67848026Y-61206185D01*
X67848026Y-61206185D02*
X67919455Y-61134757D01*
X67919455Y-61134757D02*
X67848026Y-61063328D01*
X67848026Y-61063328D02*
X67848026Y-61206185D01*
X69419455Y-62420471D02*
X69348027Y-62491900D01*
X69348027Y-62491900D02*
X69133741Y-62563328D01*
X69133741Y-62563328D02*
X68990884Y-62563328D01*
X68990884Y-62563328D02*
X68776598Y-62491900D01*
X68776598Y-62491900D02*
X68633741Y-62349042D01*
X68633741Y-62349042D02*
X68562312Y-62206185D01*
X68562312Y-62206185D02*
X68490884Y-61920471D01*
X68490884Y-61920471D02*
X68490884Y-61706185D01*
X68490884Y-61706185D02*
X68562312Y-61420471D01*
X68562312Y-61420471D02*
X68633741Y-61277614D01*
X68633741Y-61277614D02*
X68776598Y-61134757D01*
X68776598Y-61134757D02*
X68990884Y-61063328D01*
X68990884Y-61063328D02*
X69133741Y-61063328D01*
X69133741Y-61063328D02*
X69348027Y-61134757D01*
X69348027Y-61134757D02*
X69419455Y-61206185D01*
X70705170Y-62563328D02*
X70705170Y-61777614D01*
X70705170Y-61777614D02*
X70633741Y-61634757D01*
X70633741Y-61634757D02*
X70490884Y-61563328D01*
X70490884Y-61563328D02*
X70205170Y-61563328D01*
X70205170Y-61563328D02*
X70062312Y-61634757D01*
X70705170Y-62491900D02*
X70562312Y-62563328D01*
X70562312Y-62563328D02*
X70205170Y-62563328D01*
X70205170Y-62563328D02*
X70062312Y-62491900D01*
X70062312Y-62491900D02*
X69990884Y-62349042D01*
X69990884Y-62349042D02*
X69990884Y-62206185D01*
X69990884Y-62206185D02*
X70062312Y-62063328D01*
X70062312Y-62063328D02*
X70205170Y-61991900D01*
X70205170Y-61991900D02*
X70562312Y-61991900D01*
X70562312Y-61991900D02*
X70705170Y-61920471D01*
X72062313Y-62563328D02*
X72062313Y-61063328D01*
X72062313Y-62491900D02*
X71919455Y-62563328D01*
X71919455Y-62563328D02*
X71633741Y-62563328D01*
X71633741Y-62563328D02*
X71490884Y-62491900D01*
X71490884Y-62491900D02*
X71419455Y-62420471D01*
X71419455Y-62420471D02*
X71348027Y-62277614D01*
X71348027Y-62277614D02*
X71348027Y-61849042D01*
X71348027Y-61849042D02*
X71419455Y-61706185D01*
X71419455Y-61706185D02*
X71490884Y-61634757D01*
X71490884Y-61634757D02*
X71633741Y-61563328D01*
X71633741Y-61563328D02*
X71919455Y-61563328D01*
X71919455Y-61563328D02*
X72062313Y-61634757D01*
X73919455Y-61777614D02*
X74419455Y-61777614D01*
X74633741Y-62563328D02*
X73919455Y-62563328D01*
X73919455Y-62563328D02*
X73919455Y-61063328D01*
X73919455Y-61063328D02*
X74633741Y-61063328D01*
X75276598Y-62420471D02*
X75348027Y-62491900D01*
X75348027Y-62491900D02*
X75276598Y-62563328D01*
X75276598Y-62563328D02*
X75205170Y-62491900D01*
X75205170Y-62491900D02*
X75276598Y-62420471D01*
X75276598Y-62420471D02*
X75276598Y-62563328D01*
X75990884Y-62563328D02*
X75990884Y-61063328D01*
X75990884Y-61063328D02*
X76348027Y-61063328D01*
X76348027Y-61063328D02*
X76562313Y-61134757D01*
X76562313Y-61134757D02*
X76705170Y-61277614D01*
X76705170Y-61277614D02*
X76776599Y-61420471D01*
X76776599Y-61420471D02*
X76848027Y-61706185D01*
X76848027Y-61706185D02*
X76848027Y-61920471D01*
X76848027Y-61920471D02*
X76776599Y-62206185D01*
X76776599Y-62206185D02*
X76705170Y-62349042D01*
X76705170Y-62349042D02*
X76562313Y-62491900D01*
X76562313Y-62491900D02*
X76348027Y-62563328D01*
X76348027Y-62563328D02*
X75990884Y-62563328D01*
X77490884Y-62420471D02*
X77562313Y-62491900D01*
X77562313Y-62491900D02*
X77490884Y-62563328D01*
X77490884Y-62563328D02*
X77419456Y-62491900D01*
X77419456Y-62491900D02*
X77490884Y-62420471D01*
X77490884Y-62420471D02*
X77490884Y-62563328D01*
X78133742Y-62134757D02*
X78848028Y-62134757D01*
X77990885Y-62563328D02*
X78490885Y-61063328D01*
X78490885Y-61063328D02*
X78990885Y-62563328D01*
X79490884Y-62420471D02*
X79562313Y-62491900D01*
X79562313Y-62491900D02*
X79490884Y-62563328D01*
X79490884Y-62563328D02*
X79419456Y-62491900D01*
X79419456Y-62491900D02*
X79490884Y-62420471D01*
X79490884Y-62420471D02*
X79490884Y-62563328D01*
X81419456Y-62563328D02*
X81705170Y-62563328D01*
X81705170Y-62563328D02*
X81848027Y-62491900D01*
X81848027Y-62491900D02*
X81919456Y-62420471D01*
X81919456Y-62420471D02*
X82062313Y-62206185D01*
X82062313Y-62206185D02*
X82133742Y-61920471D01*
X82133742Y-61920471D02*
X82133742Y-61349042D01*
X82133742Y-61349042D02*
X82062313Y-61206185D01*
X82062313Y-61206185D02*
X81990885Y-61134757D01*
X81990885Y-61134757D02*
X81848027Y-61063328D01*
X81848027Y-61063328D02*
X81562313Y-61063328D01*
X81562313Y-61063328D02*
X81419456Y-61134757D01*
X81419456Y-61134757D02*
X81348027Y-61206185D01*
X81348027Y-61206185D02*
X81276599Y-61349042D01*
X81276599Y-61349042D02*
X81276599Y-61706185D01*
X81276599Y-61706185D02*
X81348027Y-61849042D01*
X81348027Y-61849042D02*
X81419456Y-61920471D01*
X81419456Y-61920471D02*
X81562313Y-61991900D01*
X81562313Y-61991900D02*
X81848027Y-61991900D01*
X81848027Y-61991900D02*
X81990885Y-61920471D01*
X81990885Y-61920471D02*
X82062313Y-61849042D01*
X82062313Y-61849042D02*
X82133742Y-61706185D01*
X82776598Y-62420471D02*
X82848027Y-62491900D01*
X82848027Y-62491900D02*
X82776598Y-62563328D01*
X82776598Y-62563328D02*
X82705170Y-62491900D01*
X82705170Y-62491900D02*
X82776598Y-62420471D01*
X82776598Y-62420471D02*
X82776598Y-62563328D01*
X83776599Y-61063328D02*
X83919456Y-61063328D01*
X83919456Y-61063328D02*
X84062313Y-61134757D01*
X84062313Y-61134757D02*
X84133742Y-61206185D01*
X84133742Y-61206185D02*
X84205170Y-61349042D01*
X84205170Y-61349042D02*
X84276599Y-61634757D01*
X84276599Y-61634757D02*
X84276599Y-61991900D01*
X84276599Y-61991900D02*
X84205170Y-62277614D01*
X84205170Y-62277614D02*
X84133742Y-62420471D01*
X84133742Y-62420471D02*
X84062313Y-62491900D01*
X84062313Y-62491900D02*
X83919456Y-62563328D01*
X83919456Y-62563328D02*
X83776599Y-62563328D01*
X83776599Y-62563328D02*
X83633742Y-62491900D01*
X83633742Y-62491900D02*
X83562313Y-62420471D01*
X83562313Y-62420471D02*
X83490884Y-62277614D01*
X83490884Y-62277614D02*
X83419456Y-61991900D01*
X83419456Y-61991900D02*
X83419456Y-61634757D01*
X83419456Y-61634757D02*
X83490884Y-61349042D01*
X83490884Y-61349042D02*
X83562313Y-61206185D01*
X83562313Y-61206185D02*
X83633742Y-61134757D01*
X83633742Y-61134757D02*
X83776599Y-61063328D01*
X84919455Y-62420471D02*
X84990884Y-62491900D01*
X84990884Y-62491900D02*
X84919455Y-62563328D01*
X84919455Y-62563328D02*
X84848027Y-62491900D01*
X84848027Y-62491900D02*
X84919455Y-62420471D01*
X84919455Y-62420471D02*
X84919455Y-62563328D01*
X86419456Y-62563328D02*
X85562313Y-62563328D01*
X85990884Y-62563328D02*
X85990884Y-61063328D01*
X85990884Y-61063328D02*
X85848027Y-61277614D01*
X85848027Y-61277614D02*
X85705170Y-61420471D01*
X85705170Y-61420471D02*
X85562313Y-61491900D01*
D10*
D11*
X64892200Y-57477200D02*
X172892200Y-57477200D01*
D10*
D12*
X152303853Y-59755528D02*
X151803853Y-59041242D01*
X151446710Y-59755528D02*
X151446710Y-58255528D01*
X151446710Y-58255528D02*
X152018139Y-58255528D01*
X152018139Y-58255528D02*
X152160996Y-58326957D01*
X152160996Y-58326957D02*
X152232425Y-58398385D01*
X152232425Y-58398385D02*
X152303853Y-58541242D01*
X152303853Y-58541242D02*
X152303853Y-58755528D01*
X152303853Y-58755528D02*
X152232425Y-58898385D01*
X152232425Y-58898385D02*
X152160996Y-58969814D01*
X152160996Y-58969814D02*
X152018139Y-59041242D01*
X152018139Y-59041242D02*
X151446710Y-59041242D01*
X153518139Y-59684100D02*
X153375282Y-59755528D01*
X153375282Y-59755528D02*
X153089568Y-59755528D01*
X153089568Y-59755528D02*
X152946710Y-59684100D01*
X152946710Y-59684100D02*
X152875282Y-59541242D01*
X152875282Y-59541242D02*
X152875282Y-58969814D01*
X152875282Y-58969814D02*
X152946710Y-58826957D01*
X152946710Y-58826957D02*
X153089568Y-58755528D01*
X153089568Y-58755528D02*
X153375282Y-58755528D01*
X153375282Y-58755528D02*
X153518139Y-58826957D01*
X153518139Y-58826957D02*
X153589568Y-58969814D01*
X153589568Y-58969814D02*
X153589568Y-59112671D01*
X153589568Y-59112671D02*
X152875282Y-59255528D01*
X154089567Y-58755528D02*
X154446710Y-59755528D01*
X154446710Y-59755528D02*
X154803853Y-58755528D01*
X155375281Y-59612671D02*
X155446710Y-59684100D01*
X155446710Y-59684100D02*
X155375281Y-59755528D01*
X155375281Y-59755528D02*
X155303853Y-59684100D01*
X155303853Y-59684100D02*
X155375281Y-59612671D01*
X155375281Y-59612671D02*
X155375281Y-59755528D01*
X155375281Y-58826957D02*
X155446710Y-58898385D01*
X155446710Y-58898385D02*
X155375281Y-58969814D01*
X155375281Y-58969814D02*
X155303853Y-58898385D01*
X155303853Y-58898385D02*
X155375281Y-58826957D01*
X155375281Y-58826957D02*
X155375281Y-58969814D01*
X158018139Y-59755528D02*
X157160996Y-59755528D01*
X157589567Y-59755528D02*
X157589567Y-58255528D01*
X157589567Y-58255528D02*
X157446710Y-58469814D01*
X157446710Y-58469814D02*
X157303853Y-58612671D01*
X157303853Y-58612671D02*
X157160996Y-58684100D01*
X158660995Y-59612671D02*
X158732424Y-59684100D01*
X158732424Y-59684100D02*
X158660995Y-59755528D01*
X158660995Y-59755528D02*
X158589567Y-59684100D01*
X158589567Y-59684100D02*
X158660995Y-59612671D01*
X158660995Y-59612671D02*
X158660995Y-59755528D01*
X160160996Y-59755528D02*
X159303853Y-59755528D01*
X159732424Y-59755528D02*
X159732424Y-58255528D01*
X159732424Y-58255528D02*
X159589567Y-58469814D01*
X159589567Y-58469814D02*
X159446710Y-58612671D01*
X159446710Y-58612671D02*
X159303853Y-58684100D01*
D10*
D11*
X66276598Y-59691900D02*
X66490884Y-59763328D01*
X66490884Y-59763328D02*
X66848026Y-59763328D01*
X66848026Y-59763328D02*
X66990884Y-59691900D01*
X66990884Y-59691900D02*
X67062312Y-59620471D01*
X67062312Y-59620471D02*
X67133741Y-59477614D01*
X67133741Y-59477614D02*
X67133741Y-59334757D01*
X67133741Y-59334757D02*
X67062312Y-59191900D01*
X67062312Y-59191900D02*
X66990884Y-59120471D01*
X66990884Y-59120471D02*
X66848026Y-59049042D01*
X66848026Y-59049042D02*
X66562312Y-58977614D01*
X66562312Y-58977614D02*
X66419455Y-58906185D01*
X66419455Y-58906185D02*
X66348026Y-58834757D01*
X66348026Y-58834757D02*
X66276598Y-58691900D01*
X66276598Y-58691900D02*
X66276598Y-58549042D01*
X66276598Y-58549042D02*
X66348026Y-58406185D01*
X66348026Y-58406185D02*
X66419455Y-58334757D01*
X66419455Y-58334757D02*
X66562312Y-58263328D01*
X66562312Y-58263328D02*
X66919455Y-58263328D01*
X66919455Y-58263328D02*
X67133741Y-58334757D01*
X67776597Y-59763328D02*
X67776597Y-58763328D01*
X67776597Y-58263328D02*
X67705169Y-58334757D01*
X67705169Y-58334757D02*
X67776597Y-58406185D01*
X67776597Y-58406185D02*
X67848026Y-58334757D01*
X67848026Y-58334757D02*
X67776597Y-58263328D01*
X67776597Y-58263328D02*
X67776597Y-58406185D01*
X68348026Y-58763328D02*
X69133741Y-58763328D01*
X69133741Y-58763328D02*
X68348026Y-59763328D01*
X68348026Y-59763328D02*
X69133741Y-59763328D01*
X70276598Y-59691900D02*
X70133741Y-59763328D01*
X70133741Y-59763328D02*
X69848027Y-59763328D01*
X69848027Y-59763328D02*
X69705169Y-59691900D01*
X69705169Y-59691900D02*
X69633741Y-59549042D01*
X69633741Y-59549042D02*
X69633741Y-58977614D01*
X69633741Y-58977614D02*
X69705169Y-58834757D01*
X69705169Y-58834757D02*
X69848027Y-58763328D01*
X69848027Y-58763328D02*
X70133741Y-58763328D01*
X70133741Y-58763328D02*
X70276598Y-58834757D01*
X70276598Y-58834757D02*
X70348027Y-58977614D01*
X70348027Y-58977614D02*
X70348027Y-59120471D01*
X70348027Y-59120471D02*
X69633741Y-59263328D01*
X70990883Y-59620471D02*
X71062312Y-59691900D01*
X71062312Y-59691900D02*
X70990883Y-59763328D01*
X70990883Y-59763328D02*
X70919455Y-59691900D01*
X70919455Y-59691900D02*
X70990883Y-59620471D01*
X70990883Y-59620471D02*
X70990883Y-59763328D01*
X70990883Y-58834757D02*
X71062312Y-58906185D01*
X71062312Y-58906185D02*
X70990883Y-58977614D01*
X70990883Y-58977614D02*
X70919455Y-58906185D01*
X70919455Y-58906185D02*
X70990883Y-58834757D01*
X70990883Y-58834757D02*
X70990883Y-58977614D01*
X72776598Y-59334757D02*
X73490884Y-59334757D01*
X72633741Y-59763328D02*
X73133741Y-58263328D01*
X73133741Y-58263328D02*
X73633741Y-59763328D01*
X74776598Y-58763328D02*
X74776598Y-59763328D01*
X74419455Y-58191900D02*
X74062312Y-59263328D01*
X74062312Y-59263328D02*
X74990883Y-59263328D01*
D10*
D11*
X151348026Y-62563328D02*
X151348026Y-61063328D01*
X152705170Y-62563328D02*
X152705170Y-61063328D01*
X152705170Y-62491900D02*
X152562312Y-62563328D01*
X152562312Y-62563328D02*
X152276598Y-62563328D01*
X152276598Y-62563328D02*
X152133741Y-62491900D01*
X152133741Y-62491900D02*
X152062312Y-62420471D01*
X152062312Y-62420471D02*
X151990884Y-62277614D01*
X151990884Y-62277614D02*
X151990884Y-61849042D01*
X151990884Y-61849042D02*
X152062312Y-61706185D01*
X152062312Y-61706185D02*
X152133741Y-61634757D01*
X152133741Y-61634757D02*
X152276598Y-61563328D01*
X152276598Y-61563328D02*
X152562312Y-61563328D01*
X152562312Y-61563328D02*
X152705170Y-61634757D01*
X153419455Y-62420471D02*
X153490884Y-62491900D01*
X153490884Y-62491900D02*
X153419455Y-62563328D01*
X153419455Y-62563328D02*
X153348027Y-62491900D01*
X153348027Y-62491900D02*
X153419455Y-62420471D01*
X153419455Y-62420471D02*
X153419455Y-62563328D01*
X153419455Y-61634757D02*
X153490884Y-61706185D01*
X153490884Y-61706185D02*
X153419455Y-61777614D01*
X153419455Y-61777614D02*
X153348027Y-61706185D01*
X153348027Y-61706185D02*
X153419455Y-61634757D01*
X153419455Y-61634757D02*
X153419455Y-61777614D01*
X156062313Y-62563328D02*
X155205170Y-62563328D01*
X155633741Y-62563328D02*
X155633741Y-61063328D01*
X155633741Y-61063328D02*
X155490884Y-61277614D01*
X155490884Y-61277614D02*
X155348027Y-61420471D01*
X155348027Y-61420471D02*
X155205170Y-61491900D01*
X157490884Y-62563328D02*
X156633741Y-62563328D01*
X157062312Y-62563328D02*
X157062312Y-61063328D01*
X157062312Y-61063328D02*
X156919455Y-61277614D01*
X156919455Y-61277614D02*
X156776598Y-61420471D01*
X156776598Y-61420471D02*
X156633741Y-61491900D01*
X159205169Y-60991900D02*
X157919455Y-62920471D01*
X160490884Y-62563328D02*
X159633741Y-62563328D01*
X160062312Y-62563328D02*
X160062312Y-61063328D01*
X160062312Y-61063328D02*
X159919455Y-61277614D01*
X159919455Y-61277614D02*
X159776598Y-61420471D01*
X159776598Y-61420471D02*
X159633741Y-61491900D01*
X161919455Y-62563328D02*
X161062312Y-62563328D01*
X161490883Y-62563328D02*
X161490883Y-61063328D01*
X161490883Y-61063328D02*
X161348026Y-61277614D01*
X161348026Y-61277614D02*
X161205169Y-61420471D01*
X161205169Y-61420471D02*
X161062312Y-61491900D01*
D10*
D11*
X64892200Y-53477200D02*
X172892200Y-53477200D01*
D10*
D13*
X66583928Y-54181638D02*
X67726785Y-54181638D01*
X66905357Y-56181638D02*
X67155357Y-54181638D01*
X68143452Y-56181638D02*
X68310119Y-54848304D01*
X68393452Y-54181638D02*
X68286309Y-54276876D01*
X68286309Y-54276876D02*
X68369643Y-54372114D01*
X68369643Y-54372114D02*
X68476786Y-54276876D01*
X68476786Y-54276876D02*
X68393452Y-54181638D01*
X68393452Y-54181638D02*
X68369643Y-54372114D01*
X68976786Y-54848304D02*
X69738690Y-54848304D01*
X69345833Y-54181638D02*
X69131548Y-55895923D01*
X69131548Y-55895923D02*
X69202976Y-56086400D01*
X69202976Y-56086400D02*
X69381548Y-56181638D01*
X69381548Y-56181638D02*
X69572024Y-56181638D01*
X70524405Y-56181638D02*
X70345833Y-56086400D01*
X70345833Y-56086400D02*
X70274405Y-55895923D01*
X70274405Y-55895923D02*
X70488690Y-54181638D01*
X72060119Y-56086400D02*
X71857738Y-56181638D01*
X71857738Y-56181638D02*
X71476785Y-56181638D01*
X71476785Y-56181638D02*
X71298214Y-56086400D01*
X71298214Y-56086400D02*
X71226785Y-55895923D01*
X71226785Y-55895923D02*
X71322024Y-55134019D01*
X71322024Y-55134019D02*
X71441071Y-54943542D01*
X71441071Y-54943542D02*
X71643452Y-54848304D01*
X71643452Y-54848304D02*
X72024404Y-54848304D01*
X72024404Y-54848304D02*
X72202976Y-54943542D01*
X72202976Y-54943542D02*
X72274404Y-55134019D01*
X72274404Y-55134019D02*
X72250595Y-55324495D01*
X72250595Y-55324495D02*
X71274404Y-55514971D01*
X73024405Y-55991161D02*
X73107738Y-56086400D01*
X73107738Y-56086400D02*
X73000595Y-56181638D01*
X73000595Y-56181638D02*
X72917262Y-56086400D01*
X72917262Y-56086400D02*
X73024405Y-55991161D01*
X73024405Y-55991161D02*
X73000595Y-56181638D01*
X73155357Y-54943542D02*
X73238690Y-55038780D01*
X73238690Y-55038780D02*
X73131548Y-55134019D01*
X73131548Y-55134019D02*
X73048214Y-55038780D01*
X73048214Y-55038780D02*
X73155357Y-54943542D01*
X73155357Y-54943542D02*
X73131548Y-55134019D01*
X75536310Y-54181638D02*
X76869643Y-54181638D01*
X76869643Y-54181638D02*
X75286310Y-56181638D01*
X75286310Y-56181638D02*
X76619643Y-56181638D01*
X77381548Y-56181638D02*
X77548215Y-54848304D01*
X77631548Y-54181638D02*
X77524405Y-54276876D01*
X77524405Y-54276876D02*
X77607739Y-54372114D01*
X77607739Y-54372114D02*
X77714882Y-54276876D01*
X77714882Y-54276876D02*
X77631548Y-54181638D01*
X77631548Y-54181638D02*
X77607739Y-54372114D01*
X78500596Y-54848304D02*
X78250596Y-56848304D01*
X78488691Y-54943542D02*
X78691072Y-54848304D01*
X78691072Y-54848304D02*
X79072024Y-54848304D01*
X79072024Y-54848304D02*
X79250596Y-54943542D01*
X79250596Y-54943542D02*
X79333929Y-55038780D01*
X79333929Y-55038780D02*
X79405358Y-55229257D01*
X79405358Y-55229257D02*
X79333929Y-55800685D01*
X79333929Y-55800685D02*
X79214882Y-55991161D01*
X79214882Y-55991161D02*
X79107739Y-56086400D01*
X79107739Y-56086400D02*
X78905358Y-56181638D01*
X78905358Y-56181638D02*
X78524405Y-56181638D01*
X78524405Y-56181638D02*
X78345834Y-56086400D01*
X80310120Y-54848304D02*
X80060120Y-56848304D01*
X80298215Y-54943542D02*
X80500596Y-54848304D01*
X80500596Y-54848304D02*
X80881548Y-54848304D01*
X80881548Y-54848304D02*
X81060120Y-54943542D01*
X81060120Y-54943542D02*
X81143453Y-55038780D01*
X81143453Y-55038780D02*
X81214882Y-55229257D01*
X81214882Y-55229257D02*
X81143453Y-55800685D01*
X81143453Y-55800685D02*
X81024406Y-55991161D01*
X81024406Y-55991161D02*
X80917263Y-56086400D01*
X80917263Y-56086400D02*
X80714882Y-56181638D01*
X80714882Y-56181638D02*
X80333929Y-56181638D01*
X80333929Y-56181638D02*
X80155358Y-56086400D01*
X81929168Y-54848304D02*
X82238692Y-56181638D01*
X82881549Y-54848304D02*
X82238692Y-56181638D01*
X82238692Y-56181638D02*
X81988692Y-56657828D01*
X81988692Y-56657828D02*
X81881549Y-56753066D01*
X81881549Y-56753066D02*
X81679168Y-56848304D01*
X85798216Y-55134019D02*
X86072026Y-55229257D01*
X86072026Y-55229257D02*
X86155359Y-55324495D01*
X86155359Y-55324495D02*
X86226788Y-55514971D01*
X86226788Y-55514971D02*
X86191073Y-55800685D01*
X86191073Y-55800685D02*
X86072026Y-55991161D01*
X86072026Y-55991161D02*
X85964883Y-56086400D01*
X85964883Y-56086400D02*
X85762502Y-56181638D01*
X85762502Y-56181638D02*
X85000597Y-56181638D01*
X85000597Y-56181638D02*
X85250597Y-54181638D01*
X85250597Y-54181638D02*
X85917264Y-54181638D01*
X85917264Y-54181638D02*
X86095835Y-54276876D01*
X86095835Y-54276876D02*
X86179169Y-54372114D01*
X86179169Y-54372114D02*
X86250597Y-54562590D01*
X86250597Y-54562590D02*
X86226788Y-54753066D01*
X86226788Y-54753066D02*
X86107740Y-54943542D01*
X86107740Y-54943542D02*
X86000597Y-55038780D01*
X86000597Y-55038780D02*
X85798216Y-55134019D01*
X85798216Y-55134019D02*
X85131550Y-55134019D01*
X87857740Y-56181638D02*
X87988692Y-55134019D01*
X87988692Y-55134019D02*
X87917264Y-54943542D01*
X87917264Y-54943542D02*
X87738692Y-54848304D01*
X87738692Y-54848304D02*
X87357740Y-54848304D01*
X87357740Y-54848304D02*
X87155359Y-54943542D01*
X87869645Y-56086400D02*
X87667264Y-56181638D01*
X87667264Y-56181638D02*
X87191073Y-56181638D01*
X87191073Y-56181638D02*
X87012502Y-56086400D01*
X87012502Y-56086400D02*
X86941073Y-55895923D01*
X86941073Y-55895923D02*
X86964883Y-55705447D01*
X86964883Y-55705447D02*
X87083931Y-55514971D01*
X87083931Y-55514971D02*
X87286312Y-55419733D01*
X87286312Y-55419733D02*
X87762502Y-55419733D01*
X87762502Y-55419733D02*
X87964883Y-55324495D01*
X89667264Y-56181638D02*
X89917264Y-54181638D01*
X89679169Y-56086400D02*
X89476788Y-56181638D01*
X89476788Y-56181638D02*
X89095836Y-56181638D01*
X89095836Y-56181638D02*
X88917264Y-56086400D01*
X88917264Y-56086400D02*
X88833931Y-55991161D01*
X88833931Y-55991161D02*
X88762502Y-55800685D01*
X88762502Y-55800685D02*
X88833931Y-55229257D01*
X88833931Y-55229257D02*
X88952978Y-55038780D01*
X88952978Y-55038780D02*
X89060121Y-54943542D01*
X89060121Y-54943542D02*
X89262502Y-54848304D01*
X89262502Y-54848304D02*
X89643455Y-54848304D01*
X89643455Y-54848304D02*
X89822026Y-54943542D01*
X91643455Y-54848304D02*
X91441074Y-56467352D01*
X91441074Y-56467352D02*
X91322026Y-56657828D01*
X91322026Y-56657828D02*
X91214883Y-56753066D01*
X91214883Y-56753066D02*
X91012502Y-56848304D01*
X91012502Y-56848304D02*
X90726788Y-56848304D01*
X90726788Y-56848304D02*
X90548217Y-56753066D01*
X91488693Y-56086400D02*
X91286312Y-56181638D01*
X91286312Y-56181638D02*
X90905360Y-56181638D01*
X90905360Y-56181638D02*
X90726788Y-56086400D01*
X90726788Y-56086400D02*
X90643455Y-55991161D01*
X90643455Y-55991161D02*
X90572026Y-55800685D01*
X90572026Y-55800685D02*
X90643455Y-55229257D01*
X90643455Y-55229257D02*
X90762502Y-55038780D01*
X90762502Y-55038780D02*
X90869645Y-54943542D01*
X90869645Y-54943542D02*
X91072026Y-54848304D01*
X91072026Y-54848304D02*
X91452979Y-54848304D01*
X91452979Y-54848304D02*
X91631550Y-54943542D01*
X93202979Y-56086400D02*
X93000598Y-56181638D01*
X93000598Y-56181638D02*
X92619645Y-56181638D01*
X92619645Y-56181638D02*
X92441074Y-56086400D01*
X92441074Y-56086400D02*
X92369645Y-55895923D01*
X92369645Y-55895923D02*
X92464884Y-55134019D01*
X92464884Y-55134019D02*
X92583931Y-54943542D01*
X92583931Y-54943542D02*
X92786312Y-54848304D01*
X92786312Y-54848304D02*
X93167264Y-54848304D01*
X93167264Y-54848304D02*
X93345836Y-54943542D01*
X93345836Y-54943542D02*
X93417264Y-55134019D01*
X93417264Y-55134019D02*
X93393455Y-55324495D01*
X93393455Y-55324495D02*
X92417264Y-55514971D01*
D10*
D11*
X66848026Y-51577614D02*
X66348026Y-51577614D01*
X66348026Y-52363328D02*
X66348026Y-50863328D01*
X66348026Y-50863328D02*
X67062312Y-50863328D01*
X67633740Y-52363328D02*
X67633740Y-51363328D01*
X67633740Y-50863328D02*
X67562312Y-50934757D01*
X67562312Y-50934757D02*
X67633740Y-51006185D01*
X67633740Y-51006185D02*
X67705169Y-50934757D01*
X67705169Y-50934757D02*
X67633740Y-50863328D01*
X67633740Y-50863328D02*
X67633740Y-51006185D01*
X68562312Y-52363328D02*
X68419455Y-52291900D01*
X68419455Y-52291900D02*
X68348026Y-52149042D01*
X68348026Y-52149042D02*
X68348026Y-50863328D01*
X69705169Y-52291900D02*
X69562312Y-52363328D01*
X69562312Y-52363328D02*
X69276598Y-52363328D01*
X69276598Y-52363328D02*
X69133740Y-52291900D01*
X69133740Y-52291900D02*
X69062312Y-52149042D01*
X69062312Y-52149042D02*
X69062312Y-51577614D01*
X69062312Y-51577614D02*
X69133740Y-51434757D01*
X69133740Y-51434757D02*
X69276598Y-51363328D01*
X69276598Y-51363328D02*
X69562312Y-51363328D01*
X69562312Y-51363328D02*
X69705169Y-51434757D01*
X69705169Y-51434757D02*
X69776598Y-51577614D01*
X69776598Y-51577614D02*
X69776598Y-51720471D01*
X69776598Y-51720471D02*
X69062312Y-51863328D01*
X70419454Y-52220471D02*
X70490883Y-52291900D01*
X70490883Y-52291900D02*
X70419454Y-52363328D01*
X70419454Y-52363328D02*
X70348026Y-52291900D01*
X70348026Y-52291900D02*
X70419454Y-52220471D01*
X70419454Y-52220471D02*
X70419454Y-52363328D01*
X70419454Y-51434757D02*
X70490883Y-51506185D01*
X70490883Y-51506185D02*
X70419454Y-51577614D01*
X70419454Y-51577614D02*
X70348026Y-51506185D01*
X70348026Y-51506185D02*
X70419454Y-51434757D01*
X70419454Y-51434757D02*
X70419454Y-51577614D01*
X72133740Y-51363328D02*
X72919455Y-51363328D01*
X72919455Y-51363328D02*
X72133740Y-52363328D01*
X72133740Y-52363328D02*
X72919455Y-52363328D01*
X73490883Y-52363328D02*
X73490883Y-51363328D01*
X73490883Y-50863328D02*
X73419455Y-50934757D01*
X73419455Y-50934757D02*
X73490883Y-51006185D01*
X73490883Y-51006185D02*
X73562312Y-50934757D01*
X73562312Y-50934757D02*
X73490883Y-50863328D01*
X73490883Y-50863328D02*
X73490883Y-51006185D01*
X74205169Y-51363328D02*
X74205169Y-52863328D01*
X74205169Y-51434757D02*
X74348027Y-51363328D01*
X74348027Y-51363328D02*
X74633741Y-51363328D01*
X74633741Y-51363328D02*
X74776598Y-51434757D01*
X74776598Y-51434757D02*
X74848027Y-51506185D01*
X74848027Y-51506185D02*
X74919455Y-51649042D01*
X74919455Y-51649042D02*
X74919455Y-52077614D01*
X74919455Y-52077614D02*
X74848027Y-52220471D01*
X74848027Y-52220471D02*
X74776598Y-52291900D01*
X74776598Y-52291900D02*
X74633741Y-52363328D01*
X74633741Y-52363328D02*
X74348027Y-52363328D01*
X74348027Y-52363328D02*
X74205169Y-52291900D01*
X75562312Y-51363328D02*
X75562312Y-52863328D01*
X75562312Y-51434757D02*
X75705170Y-51363328D01*
X75705170Y-51363328D02*
X75990884Y-51363328D01*
X75990884Y-51363328D02*
X76133741Y-51434757D01*
X76133741Y-51434757D02*
X76205170Y-51506185D01*
X76205170Y-51506185D02*
X76276598Y-51649042D01*
X76276598Y-51649042D02*
X76276598Y-52077614D01*
X76276598Y-52077614D02*
X76205170Y-52220471D01*
X76205170Y-52220471D02*
X76133741Y-52291900D01*
X76133741Y-52291900D02*
X75990884Y-52363328D01*
X75990884Y-52363328D02*
X75705170Y-52363328D01*
X75705170Y-52363328D02*
X75562312Y-52291900D01*
X76776598Y-51363328D02*
X77133741Y-52363328D01*
X77490884Y-51363328D02*
X77133741Y-52363328D01*
X77133741Y-52363328D02*
X76990884Y-52720471D01*
X76990884Y-52720471D02*
X76919455Y-52791900D01*
X76919455Y-52791900D02*
X76776598Y-52863328D01*
X78062312Y-51791900D02*
X79205170Y-51791900D01*
X79919455Y-52363328D02*
X79919455Y-50863328D01*
X79919455Y-51434757D02*
X80062313Y-51363328D01*
X80062313Y-51363328D02*
X80348027Y-51363328D01*
X80348027Y-51363328D02*
X80490884Y-51434757D01*
X80490884Y-51434757D02*
X80562313Y-51506185D01*
X80562313Y-51506185D02*
X80633741Y-51649042D01*
X80633741Y-51649042D02*
X80633741Y-52077614D01*
X80633741Y-52077614D02*
X80562313Y-52220471D01*
X80562313Y-52220471D02*
X80490884Y-52291900D01*
X80490884Y-52291900D02*
X80348027Y-52363328D01*
X80348027Y-52363328D02*
X80062313Y-52363328D01*
X80062313Y-52363328D02*
X79919455Y-52291900D01*
X81919456Y-52363328D02*
X81919456Y-51577614D01*
X81919456Y-51577614D02*
X81848027Y-51434757D01*
X81848027Y-51434757D02*
X81705170Y-51363328D01*
X81705170Y-51363328D02*
X81419456Y-51363328D01*
X81419456Y-51363328D02*
X81276598Y-51434757D01*
X81919456Y-52291900D02*
X81776598Y-52363328D01*
X81776598Y-52363328D02*
X81419456Y-52363328D01*
X81419456Y-52363328D02*
X81276598Y-52291900D01*
X81276598Y-52291900D02*
X81205170Y-52149042D01*
X81205170Y-52149042D02*
X81205170Y-52006185D01*
X81205170Y-52006185D02*
X81276598Y-51863328D01*
X81276598Y-51863328D02*
X81419456Y-51791900D01*
X81419456Y-51791900D02*
X81776598Y-51791900D01*
X81776598Y-51791900D02*
X81919456Y-51720471D01*
X83276599Y-52363328D02*
X83276599Y-50863328D01*
X83276599Y-52291900D02*
X83133741Y-52363328D01*
X83133741Y-52363328D02*
X82848027Y-52363328D01*
X82848027Y-52363328D02*
X82705170Y-52291900D01*
X82705170Y-52291900D02*
X82633741Y-52220471D01*
X82633741Y-52220471D02*
X82562313Y-52077614D01*
X82562313Y-52077614D02*
X82562313Y-51649042D01*
X82562313Y-51649042D02*
X82633741Y-51506185D01*
X82633741Y-51506185D02*
X82705170Y-51434757D01*
X82705170Y-51434757D02*
X82848027Y-51363328D01*
X82848027Y-51363328D02*
X83133741Y-51363328D01*
X83133741Y-51363328D02*
X83276599Y-51434757D01*
X84633742Y-51363328D02*
X84633742Y-52577614D01*
X84633742Y-52577614D02*
X84562313Y-52720471D01*
X84562313Y-52720471D02*
X84490884Y-52791900D01*
X84490884Y-52791900D02*
X84348027Y-52863328D01*
X84348027Y-52863328D02*
X84133742Y-52863328D01*
X84133742Y-52863328D02*
X83990884Y-52791900D01*
X84633742Y-52291900D02*
X84490884Y-52363328D01*
X84490884Y-52363328D02*
X84205170Y-52363328D01*
X84205170Y-52363328D02*
X84062313Y-52291900D01*
X84062313Y-52291900D02*
X83990884Y-52220471D01*
X83990884Y-52220471D02*
X83919456Y-52077614D01*
X83919456Y-52077614D02*
X83919456Y-51649042D01*
X83919456Y-51649042D02*
X83990884Y-51506185D01*
X83990884Y-51506185D02*
X84062313Y-51434757D01*
X84062313Y-51434757D02*
X84205170Y-51363328D01*
X84205170Y-51363328D02*
X84490884Y-51363328D01*
X84490884Y-51363328D02*
X84633742Y-51434757D01*
X85919456Y-52291900D02*
X85776599Y-52363328D01*
X85776599Y-52363328D02*
X85490885Y-52363328D01*
X85490885Y-52363328D02*
X85348027Y-52291900D01*
X85348027Y-52291900D02*
X85276599Y-52149042D01*
X85276599Y-52149042D02*
X85276599Y-51577614D01*
X85276599Y-51577614D02*
X85348027Y-51434757D01*
X85348027Y-51434757D02*
X85490885Y-51363328D01*
X85490885Y-51363328D02*
X85776599Y-51363328D01*
X85776599Y-51363328D02*
X85919456Y-51434757D01*
X85919456Y-51434757D02*
X85990885Y-51577614D01*
X85990885Y-51577614D02*
X85990885Y-51720471D01*
X85990885Y-51720471D02*
X85276599Y-51863328D01*
X86633741Y-52220471D02*
X86705170Y-52291900D01*
X86705170Y-52291900D02*
X86633741Y-52363328D01*
X86633741Y-52363328D02*
X86562313Y-52291900D01*
X86562313Y-52291900D02*
X86633741Y-52220471D01*
X86633741Y-52220471D02*
X86633741Y-52363328D01*
X87348027Y-52363328D02*
X87348027Y-50863328D01*
X87490885Y-51791900D02*
X87919456Y-52363328D01*
X87919456Y-51363328D02*
X87348027Y-51934757D01*
X88562313Y-52363328D02*
X88562313Y-51363328D01*
X88562313Y-50863328D02*
X88490885Y-50934757D01*
X88490885Y-50934757D02*
X88562313Y-51006185D01*
X88562313Y-51006185D02*
X88633742Y-50934757D01*
X88633742Y-50934757D02*
X88562313Y-50863328D01*
X88562313Y-50863328D02*
X88562313Y-51006185D01*
X89919457Y-52291900D02*
X89776599Y-52363328D01*
X89776599Y-52363328D02*
X89490885Y-52363328D01*
X89490885Y-52363328D02*
X89348028Y-52291900D01*
X89348028Y-52291900D02*
X89276599Y-52220471D01*
X89276599Y-52220471D02*
X89205171Y-52077614D01*
X89205171Y-52077614D02*
X89205171Y-51649042D01*
X89205171Y-51649042D02*
X89276599Y-51506185D01*
X89276599Y-51506185D02*
X89348028Y-51434757D01*
X89348028Y-51434757D02*
X89490885Y-51363328D01*
X89490885Y-51363328D02*
X89776599Y-51363328D01*
X89776599Y-51363328D02*
X89919457Y-51434757D01*
X91205171Y-52363328D02*
X91205171Y-51577614D01*
X91205171Y-51577614D02*
X91133742Y-51434757D01*
X91133742Y-51434757D02*
X90990885Y-51363328D01*
X90990885Y-51363328D02*
X90705171Y-51363328D01*
X90705171Y-51363328D02*
X90562313Y-51434757D01*
X91205171Y-52291900D02*
X91062313Y-52363328D01*
X91062313Y-52363328D02*
X90705171Y-52363328D01*
X90705171Y-52363328D02*
X90562313Y-52291900D01*
X90562313Y-52291900D02*
X90490885Y-52149042D01*
X90490885Y-52149042D02*
X90490885Y-52006185D01*
X90490885Y-52006185D02*
X90562313Y-51863328D01*
X90562313Y-51863328D02*
X90705171Y-51791900D01*
X90705171Y-51791900D02*
X91062313Y-51791900D01*
X91062313Y-51791900D02*
X91205171Y-51720471D01*
X92562314Y-52363328D02*
X92562314Y-50863328D01*
X92562314Y-52291900D02*
X92419456Y-52363328D01*
X92419456Y-52363328D02*
X92133742Y-52363328D01*
X92133742Y-52363328D02*
X91990885Y-52291900D01*
X91990885Y-52291900D02*
X91919456Y-52220471D01*
X91919456Y-52220471D02*
X91848028Y-52077614D01*
X91848028Y-52077614D02*
X91848028Y-51649042D01*
X91848028Y-51649042D02*
X91919456Y-51506185D01*
X91919456Y-51506185D02*
X91990885Y-51434757D01*
X91990885Y-51434757D02*
X92133742Y-51363328D01*
X92133742Y-51363328D02*
X92419456Y-51363328D01*
X92419456Y-51363328D02*
X92562314Y-51434757D01*
X92919457Y-52506185D02*
X94062314Y-52506185D01*
X94419456Y-51363328D02*
X94419456Y-52863328D01*
X94419456Y-51434757D02*
X94562314Y-51363328D01*
X94562314Y-51363328D02*
X94848028Y-51363328D01*
X94848028Y-51363328D02*
X94990885Y-51434757D01*
X94990885Y-51434757D02*
X95062314Y-51506185D01*
X95062314Y-51506185D02*
X95133742Y-51649042D01*
X95133742Y-51649042D02*
X95133742Y-52077614D01*
X95133742Y-52077614D02*
X95062314Y-52220471D01*
X95062314Y-52220471D02*
X94990885Y-52291900D01*
X94990885Y-52291900D02*
X94848028Y-52363328D01*
X94848028Y-52363328D02*
X94562314Y-52363328D01*
X94562314Y-52363328D02*
X94419456Y-52291900D01*
X96419457Y-52291900D02*
X96276599Y-52363328D01*
X96276599Y-52363328D02*
X95990885Y-52363328D01*
X95990885Y-52363328D02*
X95848028Y-52291900D01*
X95848028Y-52291900D02*
X95776599Y-52220471D01*
X95776599Y-52220471D02*
X95705171Y-52077614D01*
X95705171Y-52077614D02*
X95705171Y-51649042D01*
X95705171Y-51649042D02*
X95776599Y-51506185D01*
X95776599Y-51506185D02*
X95848028Y-51434757D01*
X95848028Y-51434757D02*
X95990885Y-51363328D01*
X95990885Y-51363328D02*
X96276599Y-51363328D01*
X96276599Y-51363328D02*
X96419457Y-51434757D01*
X97062313Y-52363328D02*
X97062313Y-50863328D01*
X97062313Y-51434757D02*
X97205171Y-51363328D01*
X97205171Y-51363328D02*
X97490885Y-51363328D01*
X97490885Y-51363328D02*
X97633742Y-51434757D01*
X97633742Y-51434757D02*
X97705171Y-51506185D01*
X97705171Y-51506185D02*
X97776599Y-51649042D01*
X97776599Y-51649042D02*
X97776599Y-52077614D01*
X97776599Y-52077614D02*
X97705171Y-52220471D01*
X97705171Y-52220471D02*
X97633742Y-52291900D01*
X97633742Y-52291900D02*
X97490885Y-52363328D01*
X97490885Y-52363328D02*
X97205171Y-52363328D01*
X97205171Y-52363328D02*
X97062313Y-52291900D01*
D10*
D11*
X64892200Y-47477200D02*
X172892200Y-47477200D01*
D10*
D11*
X66276598Y-49591900D02*
X66490884Y-49663328D01*
X66490884Y-49663328D02*
X66848026Y-49663328D01*
X66848026Y-49663328D02*
X66990884Y-49591900D01*
X66990884Y-49591900D02*
X67062312Y-49520471D01*
X67062312Y-49520471D02*
X67133741Y-49377614D01*
X67133741Y-49377614D02*
X67133741Y-49234757D01*
X67133741Y-49234757D02*
X67062312Y-49091900D01*
X67062312Y-49091900D02*
X66990884Y-49020471D01*
X66990884Y-49020471D02*
X66848026Y-48949042D01*
X66848026Y-48949042D02*
X66562312Y-48877614D01*
X66562312Y-48877614D02*
X66419455Y-48806185D01*
X66419455Y-48806185D02*
X66348026Y-48734757D01*
X66348026Y-48734757D02*
X66276598Y-48591900D01*
X66276598Y-48591900D02*
X66276598Y-48449042D01*
X66276598Y-48449042D02*
X66348026Y-48306185D01*
X66348026Y-48306185D02*
X66419455Y-48234757D01*
X66419455Y-48234757D02*
X66562312Y-48163328D01*
X66562312Y-48163328D02*
X66919455Y-48163328D01*
X66919455Y-48163328D02*
X67133741Y-48234757D01*
X67776597Y-49663328D02*
X67776597Y-48163328D01*
X68419455Y-49663328D02*
X68419455Y-48877614D01*
X68419455Y-48877614D02*
X68348026Y-48734757D01*
X68348026Y-48734757D02*
X68205169Y-48663328D01*
X68205169Y-48663328D02*
X67990883Y-48663328D01*
X67990883Y-48663328D02*
X67848026Y-48734757D01*
X67848026Y-48734757D02*
X67776597Y-48806185D01*
X69705169Y-49591900D02*
X69562312Y-49663328D01*
X69562312Y-49663328D02*
X69276598Y-49663328D01*
X69276598Y-49663328D02*
X69133740Y-49591900D01*
X69133740Y-49591900D02*
X69062312Y-49449042D01*
X69062312Y-49449042D02*
X69062312Y-48877614D01*
X69062312Y-48877614D02*
X69133740Y-48734757D01*
X69133740Y-48734757D02*
X69276598Y-48663328D01*
X69276598Y-48663328D02*
X69562312Y-48663328D01*
X69562312Y-48663328D02*
X69705169Y-48734757D01*
X69705169Y-48734757D02*
X69776598Y-48877614D01*
X69776598Y-48877614D02*
X69776598Y-49020471D01*
X69776598Y-49020471D02*
X69062312Y-49163328D01*
X70990883Y-49591900D02*
X70848026Y-49663328D01*
X70848026Y-49663328D02*
X70562312Y-49663328D01*
X70562312Y-49663328D02*
X70419454Y-49591900D01*
X70419454Y-49591900D02*
X70348026Y-49449042D01*
X70348026Y-49449042D02*
X70348026Y-48877614D01*
X70348026Y-48877614D02*
X70419454Y-48734757D01*
X70419454Y-48734757D02*
X70562312Y-48663328D01*
X70562312Y-48663328D02*
X70848026Y-48663328D01*
X70848026Y-48663328D02*
X70990883Y-48734757D01*
X70990883Y-48734757D02*
X71062312Y-48877614D01*
X71062312Y-48877614D02*
X71062312Y-49020471D01*
X71062312Y-49020471D02*
X70348026Y-49163328D01*
X71490883Y-48663328D02*
X72062311Y-48663328D01*
X71705168Y-48163328D02*
X71705168Y-49449042D01*
X71705168Y-49449042D02*
X71776597Y-49591900D01*
X71776597Y-49591900D02*
X71919454Y-49663328D01*
X71919454Y-49663328D02*
X72062311Y-49663328D01*
X72562311Y-49520471D02*
X72633740Y-49591900D01*
X72633740Y-49591900D02*
X72562311Y-49663328D01*
X72562311Y-49663328D02*
X72490883Y-49591900D01*
X72490883Y-49591900D02*
X72562311Y-49520471D01*
X72562311Y-49520471D02*
X72562311Y-49663328D01*
X72562311Y-48734757D02*
X72633740Y-48806185D01*
X72633740Y-48806185D02*
X72562311Y-48877614D01*
X72562311Y-48877614D02*
X72490883Y-48806185D01*
X72490883Y-48806185D02*
X72562311Y-48734757D01*
X72562311Y-48734757D02*
X72562311Y-48877614D01*
D10*
D12*
X66446710Y-46655528D02*
X66446710Y-45155528D01*
X66446710Y-45155528D02*
X66803853Y-45155528D01*
X66803853Y-45155528D02*
X67018139Y-45226957D01*
X67018139Y-45226957D02*
X67160996Y-45369814D01*
X67160996Y-45369814D02*
X67232425Y-45512671D01*
X67232425Y-45512671D02*
X67303853Y-45798385D01*
X67303853Y-45798385D02*
X67303853Y-46012671D01*
X67303853Y-46012671D02*
X67232425Y-46298385D01*
X67232425Y-46298385D02*
X67160996Y-46441242D01*
X67160996Y-46441242D02*
X67018139Y-46584100D01*
X67018139Y-46584100D02*
X66803853Y-46655528D01*
X66803853Y-46655528D02*
X66446710Y-46655528D01*
X68803853Y-46512671D02*
X68732425Y-46584100D01*
X68732425Y-46584100D02*
X68518139Y-46655528D01*
X68518139Y-46655528D02*
X68375282Y-46655528D01*
X68375282Y-46655528D02*
X68160996Y-46584100D01*
X68160996Y-46584100D02*
X68018139Y-46441242D01*
X68018139Y-46441242D02*
X67946710Y-46298385D01*
X67946710Y-46298385D02*
X67875282Y-46012671D01*
X67875282Y-46012671D02*
X67875282Y-45798385D01*
X67875282Y-45798385D02*
X67946710Y-45512671D01*
X67946710Y-45512671D02*
X68018139Y-45369814D01*
X68018139Y-45369814D02*
X68160996Y-45226957D01*
X68160996Y-45226957D02*
X68375282Y-45155528D01*
X68375282Y-45155528D02*
X68518139Y-45155528D01*
X68518139Y-45155528D02*
X68732425Y-45226957D01*
X68732425Y-45226957D02*
X68803853Y-45298385D01*
X69303853Y-45155528D02*
X70303853Y-45155528D01*
X70303853Y-45155528D02*
X69303853Y-46655528D01*
X69303853Y-46655528D02*
X70303853Y-46655528D01*
X70875281Y-46655528D02*
X70875281Y-45655528D01*
X70875281Y-45155528D02*
X70803853Y-45226957D01*
X70803853Y-45226957D02*
X70875281Y-45298385D01*
X70875281Y-45298385D02*
X70946710Y-45226957D01*
X70946710Y-45226957D02*
X70875281Y-45155528D01*
X70875281Y-45155528D02*
X70875281Y-45298385D01*
X72232425Y-46655528D02*
X72232425Y-45869814D01*
X72232425Y-45869814D02*
X72160996Y-45726957D01*
X72160996Y-45726957D02*
X72018139Y-45655528D01*
X72018139Y-45655528D02*
X71732425Y-45655528D01*
X71732425Y-45655528D02*
X71589567Y-45726957D01*
X72232425Y-46584100D02*
X72089567Y-46655528D01*
X72089567Y-46655528D02*
X71732425Y-46655528D01*
X71732425Y-46655528D02*
X71589567Y-46584100D01*
X71589567Y-46584100D02*
X71518139Y-46441242D01*
X71518139Y-46441242D02*
X71518139Y-46298385D01*
X71518139Y-46298385D02*
X71589567Y-46155528D01*
X71589567Y-46155528D02*
X71732425Y-46084100D01*
X71732425Y-46084100D02*
X72089567Y-46084100D01*
X72089567Y-46084100D02*
X72232425Y-46012671D01*
D10*
D11*
X66348026Y-43663328D02*
X66348026Y-42163328D01*
X66348026Y-42163328D02*
X66919455Y-42163328D01*
X66919455Y-42163328D02*
X67062312Y-42234757D01*
X67062312Y-42234757D02*
X67133741Y-42306185D01*
X67133741Y-42306185D02*
X67205169Y-42449042D01*
X67205169Y-42449042D02*
X67205169Y-42663328D01*
X67205169Y-42663328D02*
X67133741Y-42806185D01*
X67133741Y-42806185D02*
X67062312Y-42877614D01*
X67062312Y-42877614D02*
X66919455Y-42949042D01*
X66919455Y-42949042D02*
X66348026Y-42949042D01*
X67848026Y-43663328D02*
X67848026Y-42663328D01*
X67848026Y-42949042D02*
X67919455Y-42806185D01*
X67919455Y-42806185D02*
X67990884Y-42734757D01*
X67990884Y-42734757D02*
X68133741Y-42663328D01*
X68133741Y-42663328D02*
X68276598Y-42663328D01*
X68990883Y-43663328D02*
X68848026Y-43591900D01*
X68848026Y-43591900D02*
X68776597Y-43520471D01*
X68776597Y-43520471D02*
X68705169Y-43377614D01*
X68705169Y-43377614D02*
X68705169Y-42949042D01*
X68705169Y-42949042D02*
X68776597Y-42806185D01*
X68776597Y-42806185D02*
X68848026Y-42734757D01*
X68848026Y-42734757D02*
X68990883Y-42663328D01*
X68990883Y-42663328D02*
X69205169Y-42663328D01*
X69205169Y-42663328D02*
X69348026Y-42734757D01*
X69348026Y-42734757D02*
X69419455Y-42806185D01*
X69419455Y-42806185D02*
X69490883Y-42949042D01*
X69490883Y-42949042D02*
X69490883Y-43377614D01*
X69490883Y-43377614D02*
X69419455Y-43520471D01*
X69419455Y-43520471D02*
X69348026Y-43591900D01*
X69348026Y-43591900D02*
X69205169Y-43663328D01*
X69205169Y-43663328D02*
X68990883Y-43663328D01*
X69919455Y-42663328D02*
X70490883Y-42663328D01*
X70133740Y-42163328D02*
X70133740Y-43449042D01*
X70133740Y-43449042D02*
X70205169Y-43591900D01*
X70205169Y-43591900D02*
X70348026Y-43663328D01*
X70348026Y-43663328D02*
X70490883Y-43663328D01*
X71205169Y-43663328D02*
X71062312Y-43591900D01*
X71062312Y-43591900D02*
X70990883Y-43520471D01*
X70990883Y-43520471D02*
X70919455Y-43377614D01*
X70919455Y-43377614D02*
X70919455Y-42949042D01*
X70919455Y-42949042D02*
X70990883Y-42806185D01*
X70990883Y-42806185D02*
X71062312Y-42734757D01*
X71062312Y-42734757D02*
X71205169Y-42663328D01*
X71205169Y-42663328D02*
X71419455Y-42663328D01*
X71419455Y-42663328D02*
X71562312Y-42734757D01*
X71562312Y-42734757D02*
X71633741Y-42806185D01*
X71633741Y-42806185D02*
X71705169Y-42949042D01*
X71705169Y-42949042D02*
X71705169Y-43377614D01*
X71705169Y-43377614D02*
X71633741Y-43520471D01*
X71633741Y-43520471D02*
X71562312Y-43591900D01*
X71562312Y-43591900D02*
X71419455Y-43663328D01*
X71419455Y-43663328D02*
X71205169Y-43663328D01*
X73490883Y-43663328D02*
X73490883Y-42163328D01*
X73490883Y-42163328D02*
X73848026Y-42163328D01*
X73848026Y-42163328D02*
X74062312Y-42234757D01*
X74062312Y-42234757D02*
X74205169Y-42377614D01*
X74205169Y-42377614D02*
X74276598Y-42520471D01*
X74276598Y-42520471D02*
X74348026Y-42806185D01*
X74348026Y-42806185D02*
X74348026Y-43020471D01*
X74348026Y-43020471D02*
X74276598Y-43306185D01*
X74276598Y-43306185D02*
X74205169Y-43449042D01*
X74205169Y-43449042D02*
X74062312Y-43591900D01*
X74062312Y-43591900D02*
X73848026Y-43663328D01*
X73848026Y-43663328D02*
X73490883Y-43663328D01*
X75205169Y-43663328D02*
X75062312Y-43591900D01*
X75062312Y-43591900D02*
X74990883Y-43520471D01*
X74990883Y-43520471D02*
X74919455Y-43377614D01*
X74919455Y-43377614D02*
X74919455Y-42949042D01*
X74919455Y-42949042D02*
X74990883Y-42806185D01*
X74990883Y-42806185D02*
X75062312Y-42734757D01*
X75062312Y-42734757D02*
X75205169Y-42663328D01*
X75205169Y-42663328D02*
X75419455Y-42663328D01*
X75419455Y-42663328D02*
X75562312Y-42734757D01*
X75562312Y-42734757D02*
X75633741Y-42806185D01*
X75633741Y-42806185D02*
X75705169Y-42949042D01*
X75705169Y-42949042D02*
X75705169Y-43377614D01*
X75705169Y-43377614D02*
X75633741Y-43520471D01*
X75633741Y-43520471D02*
X75562312Y-43591900D01*
X75562312Y-43591900D02*
X75419455Y-43663328D01*
X75419455Y-43663328D02*
X75205169Y-43663328D01*
X76276598Y-43591900D02*
X76419455Y-43663328D01*
X76419455Y-43663328D02*
X76705169Y-43663328D01*
X76705169Y-43663328D02*
X76848026Y-43591900D01*
X76848026Y-43591900D02*
X76919455Y-43449042D01*
X76919455Y-43449042D02*
X76919455Y-43377614D01*
X76919455Y-43377614D02*
X76848026Y-43234757D01*
X76848026Y-43234757D02*
X76705169Y-43163328D01*
X76705169Y-43163328D02*
X76490884Y-43163328D01*
X76490884Y-43163328D02*
X76348026Y-43091900D01*
X76348026Y-43091900D02*
X76276598Y-42949042D01*
X76276598Y-42949042D02*
X76276598Y-42877614D01*
X76276598Y-42877614D02*
X76348026Y-42734757D01*
X76348026Y-42734757D02*
X76490884Y-42663328D01*
X76490884Y-42663328D02*
X76705169Y-42663328D01*
X76705169Y-42663328D02*
X76848026Y-42734757D01*
D10*
D11*
X84892200Y-57477200D02*
X84892200Y-60477200D01*
D10*
D11*
X148892200Y-57477200D02*
X148892200Y-63977200D01*
X19351904Y62265181D02*
X18780476Y62265181D01*
X19066190Y61265181D02*
X19066190Y62265181D01*
X18447142Y61265181D02*
X18447142Y62265181D01*
X18447142Y62265181D02*
X18066190Y62265181D01*
X18066190Y62265181D02*
X17970952Y62217562D01*
X17970952Y62217562D02*
X17923333Y62169943D01*
X17923333Y62169943D02*
X17875714Y62074705D01*
X17875714Y62074705D02*
X17875714Y61931848D01*
X17875714Y61931848D02*
X17923333Y61836610D01*
X17923333Y61836610D02*
X17970952Y61788991D01*
X17970952Y61788991D02*
X18066190Y61741372D01*
X18066190Y61741372D02*
X18447142Y61741372D01*
X17494761Y62169943D02*
X17447142Y62217562D01*
X17447142Y62217562D02*
X17351904Y62265181D01*
X17351904Y62265181D02*
X17113809Y62265181D01*
X17113809Y62265181D02*
X17018571Y62217562D01*
X17018571Y62217562D02*
X16970952Y62169943D01*
X16970952Y62169943D02*
X16923333Y62074705D01*
X16923333Y62074705D02*
X16923333Y61979467D01*
X16923333Y61979467D02*
X16970952Y61836610D01*
X16970952Y61836610D02*
X17542380Y61265181D01*
X17542380Y61265181D02*
X16923333Y61265181D01*
X19351904Y56385181D02*
X18780476Y56385181D01*
X19066190Y55385181D02*
X19066190Y56385181D01*
X18447142Y55385181D02*
X18447142Y56385181D01*
X18447142Y56385181D02*
X18066190Y56385181D01*
X18066190Y56385181D02*
X17970952Y56337562D01*
X17970952Y56337562D02*
X17923333Y56289943D01*
X17923333Y56289943D02*
X17875714Y56194705D01*
X17875714Y56194705D02*
X17875714Y56051848D01*
X17875714Y56051848D02*
X17923333Y55956610D01*
X17923333Y55956610D02*
X17970952Y55908991D01*
X17970952Y55908991D02*
X18066190Y55861372D01*
X18066190Y55861372D02*
X18447142Y55861372D01*
X16923333Y55385181D02*
X17494761Y55385181D01*
X17209047Y55385181D02*
X17209047Y56385181D01*
X17209047Y56385181D02*
X17304285Y56242324D01*
X17304285Y56242324D02*
X17399523Y56147086D01*
X17399523Y56147086D02*
X17494761Y56099467D01*
M02*
