%TF.GenerationSoftware,KiCad,Pcbnew,9.0.1*%
%TF.CreationDate,2025-06-23T00:24:10-06:00*%
%TF.ProjectId,zippy-badge,7a697070-792d-4626-9164-67652e6b6963,1.1*%
%TF.SameCoordinates,PX6aea9b0PY7fd22b0*%
%TF.FileFunction,Copper,L1,Top*%
%TF.FilePolarity,Positive*%
%FSLAX46Y46*%
G04 Gerber Fmt 4.6, Leading zero omitted, Abs format (unit mm)*
G04 Created by KiCad (PCBNEW 9.0.1) date 2025-06-23 00:24:10*
%MOMM*%
%LPD*%
G01*
G04 APERTURE LIST*
G04 Aperture macros list*
%AMRoundRect*
0 Rectangle with rounded corners*
0 $1 Rounding radius*
0 $2 $3 $4 $5 $6 $7 $8 $9 X,Y pos of 4 corners*
0 Add a 4 corners polygon primitive as box body*
4,1,4,$2,$3,$4,$5,$6,$7,$8,$9,$2,$3,0*
0 Add four circle primitives for the rounded corners*
1,1,$1+$1,$2,$3*
1,1,$1+$1,$4,$5*
1,1,$1+$1,$6,$7*
1,1,$1+$1,$8,$9*
0 Add four rect primitives between the rounded corners*
20,1,$1+$1,$2,$3,$4,$5,0*
20,1,$1+$1,$4,$5,$6,$7,0*
20,1,$1+$1,$6,$7,$8,$9,0*
20,1,$1+$1,$8,$9,$2,$3,0*%
%AMRotRect*
0 Rectangle, with rotation*
0 The origin of the aperture is its center*
0 $1 length*
0 $2 width*
0 $3 Rotation angle, in degrees counterclockwise*
0 Add horizontal line*
21,1,$1,$2,0,0,$3*%
%AMFreePoly0*
4,1,23,0.500000,-0.750000,0.000000,-0.750000,0.000000,-0.745722,-0.065263,-0.745722,-0.191342,-0.711940,-0.304381,-0.646677,-0.396677,-0.554381,-0.461940,-0.441342,-0.495722,-0.315263,-0.495722,-0.250000,-0.500000,-0.250000,-0.500000,0.250000,-0.495722,0.250000,-0.495722,0.315263,-0.461940,0.441342,-0.396677,0.554381,-0.304381,0.646677,-0.191342,0.711940,-0.065263,0.745722,0.000000,0.745722,
0.000000,0.750000,0.500000,0.750000,0.500000,-0.750000,0.500000,-0.750000,$1*%
%AMFreePoly1*
4,1,23,0.000000,0.745722,0.065263,0.745722,0.191342,0.711940,0.304381,0.646677,0.396677,0.554381,0.461940,0.441342,0.495722,0.315263,0.495722,0.250000,0.500000,0.250000,0.500000,-0.250000,0.495722,-0.250000,0.495722,-0.315263,0.461940,-0.441342,0.396677,-0.554381,0.304381,-0.646677,0.191342,-0.711940,0.065263,-0.745722,0.000000,-0.745722,0.000000,-0.750000,-0.500000,-0.750000,
-0.500000,0.750000,0.000000,0.750000,0.000000,0.745722,0.000000,0.745722,$1*%
%AMFreePoly2*
4,1,64,0.235856,1.440014,0.383010,1.379061,0.515445,1.290571,0.628071,1.177945,0.716561,1.045510,0.777514,0.898356,0.808588,0.742139,0.808588,0.582861,0.777514,0.426644,0.716561,0.279490,0.628071,0.147055,0.515445,0.034429,0.383010,-0.054061,0.235856,-0.115014,0.079639,-0.146088,0.031751,-0.146088,0.029264,-0.147118,-0.029264,-0.147118,-0.031751,-0.146088,-0.079639,-0.146088,
-0.235856,-0.115014,-0.383010,-0.054061,-0.515445,0.034429,-0.628071,0.147055,-0.716561,0.279490,-0.777514,0.426644,-0.808588,0.582861,-0.808588,0.729972,-0.512500,0.729972,-0.512500,0.595028,-0.477574,0.464683,-0.410102,0.347818,-0.314682,0.252398,-0.197817,0.184926,-0.067472,0.150000,0.067472,0.150000,0.197817,0.184926,0.314682,0.252398,0.410102,0.347818,0.477574,0.464683,
0.512500,0.595028,0.512500,0.729972,0.477574,0.860317,0.410102,0.977182,0.314682,1.072602,0.197817,1.140074,0.067472,1.175000,-0.067472,1.175000,-0.197817,1.140074,-0.314682,1.072602,-0.410102,0.977182,-0.477574,0.860317,-0.512500,0.729972,-0.808588,0.729972,-0.808588,0.742139,-0.777514,0.898356,-0.716561,1.045510,-0.628071,1.177945,-0.515445,1.290571,-0.383010,1.379061,
-0.235856,1.440014,-0.079639,1.471088,0.079639,1.471088,0.235856,1.440014,0.235856,1.440014,$1*%
G04 Aperture macros list end*
%ADD10C,0.100000*%
%ADD11C,0.150000*%
%ADD12C,0.300000*%
%ADD13C,0.400000*%
%TA.AperFunction,SMDPad,CuDef*%
%ADD14RoundRect,0.250000X-0.300000X0.300000X-0.300000X-0.300000X0.300000X-0.300000X0.300000X0.300000X0*%
%TD*%
%TA.AperFunction,SMDPad,CuDef*%
%ADD15RoundRect,0.090000X0.660000X0.360000X-0.660000X0.360000X-0.660000X-0.360000X0.660000X-0.360000X0*%
%TD*%
%TA.AperFunction,SMDPad,CuDef*%
%ADD16RoundRect,0.225000X-0.225000X-0.250000X0.225000X-0.250000X0.225000X0.250000X-0.225000X0.250000X0*%
%TD*%
%TA.AperFunction,SMDPad,CuDef*%
%ADD17C,1.000000*%
%TD*%
%TA.AperFunction,SMDPad,CuDef*%
%ADD18RoundRect,0.225000X0.225000X0.250000X-0.225000X0.250000X-0.225000X-0.250000X0.225000X-0.250000X0*%
%TD*%
%TA.AperFunction,SMDPad,CuDef*%
%ADD19RoundRect,0.150000X-0.150000X-0.500000X0.150000X-0.500000X0.150000X0.500000X-0.150000X0.500000X0*%
%TD*%
%TA.AperFunction,SMDPad,CuDef*%
%ADD20RoundRect,0.075000X-0.075000X-0.575000X0.075000X-0.575000X0.075000X0.575000X-0.075000X0.575000X0*%
%TD*%
%TA.AperFunction,HeatsinkPad*%
%ADD21O,1.000000X2.100000*%
%TD*%
%TA.AperFunction,HeatsinkPad*%
%ADD22O,1.000000X1.600000*%
%TD*%
%TA.AperFunction,SMDPad,CuDef*%
%ADD23RoundRect,0.150000X0.150000X-0.512500X0.150000X0.512500X-0.150000X0.512500X-0.150000X-0.512500X0*%
%TD*%
%TA.AperFunction,SMDPad,CuDef*%
%ADD24RoundRect,0.150000X0.512500X0.150000X-0.512500X0.150000X-0.512500X-0.150000X0.512500X-0.150000X0*%
%TD*%
%TA.AperFunction,SMDPad,CuDef*%
%ADD25RoundRect,0.200000X-0.200000X-0.275000X0.200000X-0.275000X0.200000X0.275000X-0.200000X0.275000X0*%
%TD*%
%TA.AperFunction,SMDPad,CuDef*%
%ADD26RotRect,2.000000X1.800000X225.000000*%
%TD*%
%TA.AperFunction,SMDPad,CuDef*%
%ADD27RotRect,1.350000X1.000000X225.000000*%
%TD*%
%TA.AperFunction,SMDPad,CuDef*%
%ADD28RoundRect,0.200000X0.200000X0.275000X-0.200000X0.275000X-0.200000X-0.275000X0.200000X-0.275000X0*%
%TD*%
%TA.AperFunction,SMDPad,CuDef*%
%ADD29RoundRect,0.225000X0.250000X-0.225000X0.250000X0.225000X-0.250000X0.225000X-0.250000X-0.225000X0*%
%TD*%
%TA.AperFunction,SMDPad,CuDef*%
%ADD30RoundRect,0.200000X-0.275000X0.200000X-0.275000X-0.200000X0.275000X-0.200000X0.275000X0.200000X0*%
%TD*%
%TA.AperFunction,SMDPad,CuDef*%
%ADD31R,1.250000X2.500000*%
%TD*%
%TA.AperFunction,SMDPad,CuDef*%
%ADD32R,1.200000X1.400000*%
%TD*%
%TA.AperFunction,SMDPad,CuDef*%
%ADD33RoundRect,0.225000X-0.250000X0.225000X-0.250000X-0.225000X0.250000X-0.225000X0.250000X0.225000X0*%
%TD*%
%TA.AperFunction,SMDPad,CuDef*%
%ADD34R,0.812800X0.254000*%
%TD*%
%TA.AperFunction,SMDPad,CuDef*%
%ADD35R,0.203200X1.600200*%
%TD*%
%TA.AperFunction,SMDPad,CuDef*%
%ADD36RoundRect,0.250000X0.300000X-0.300000X0.300000X0.300000X-0.300000X0.300000X-0.300000X-0.300000X0*%
%TD*%
%TA.AperFunction,WasherPad*%
%ADD37C,1.200000*%
%TD*%
%TA.AperFunction,SMDPad,CuDef*%
%ADD38R,0.700000X1.600000*%
%TD*%
%TA.AperFunction,SMDPad,CuDef*%
%ADD39R,1.200000X2.200000*%
%TD*%
%TA.AperFunction,SMDPad,CuDef*%
%ADD40R,1.600000X1.400000*%
%TD*%
%TA.AperFunction,ComponentPad*%
%ADD41O,1.700000X1.700000*%
%TD*%
%TA.AperFunction,ComponentPad*%
%ADD42C,1.700000*%
%TD*%
%TA.AperFunction,ComponentPad*%
%ADD43R,1.700000X1.700000*%
%TD*%
%TA.AperFunction,SMDPad,CuDef*%
%ADD44FreePoly0,180.000000*%
%TD*%
%TA.AperFunction,SMDPad,CuDef*%
%ADD45FreePoly1,180.000000*%
%TD*%
%TA.AperFunction,SMDPad,CuDef*%
%ADD46RoundRect,0.200000X0.275000X-0.200000X0.275000X0.200000X-0.275000X0.200000X-0.275000X-0.200000X0*%
%TD*%
%TA.AperFunction,SMDPad,CuDef*%
%ADD47RoundRect,0.050000X0.387500X0.050000X-0.387500X0.050000X-0.387500X-0.050000X0.387500X-0.050000X0*%
%TD*%
%TA.AperFunction,SMDPad,CuDef*%
%ADD48RoundRect,0.050000X0.050000X0.387500X-0.050000X0.387500X-0.050000X-0.387500X0.050000X-0.387500X0*%
%TD*%
%TA.AperFunction,HeatsinkPad*%
%ADD49R,3.200000X3.200000*%
%TD*%
%TA.AperFunction,SMDPad,CuDef*%
%ADD50RoundRect,0.250000X-0.450000X-0.275000X0.450000X-0.275000X0.450000X0.275000X-0.450000X0.275000X0*%
%TD*%
%TA.AperFunction,SMDPad,CuDef*%
%ADD51R,0.522000X0.600000*%
%TD*%
%TA.AperFunction,SMDPad,CuDef*%
%ADD52FreePoly2,180.000000*%
%TD*%
%TA.AperFunction,SMDPad,CuDef*%
%ADD53R,0.275000X0.250000*%
%TD*%
%TA.AperFunction,SMDPad,CuDef*%
%ADD54R,0.250000X0.275000*%
%TD*%
%TA.AperFunction,ViaPad*%
%ADD55C,0.600000*%
%TD*%
%TA.AperFunction,Conductor*%
%ADD56C,0.203200*%
%TD*%
%TA.AperFunction,Conductor*%
%ADD57C,0.508000*%
%TD*%
%TA.AperFunction,Conductor*%
%ADD58C,0.254000*%
%TD*%
%TA.AperFunction,Conductor*%
%ADD59C,0.304800*%
%TD*%
%TA.AperFunction,Conductor*%
%ADD60C,0.177800*%
%TD*%
%TA.AperFunction,Conductor*%
%ADD61C,0.200000*%
%TD*%
G04 APERTURE END LIST*
D10*
D11*
X64892200Y-31977200D02*
X172892200Y-31977200D01*
X172892200Y-63977200D01*
X64892200Y-63977200D01*
X64892200Y-31977200D01*
D10*
D11*
X-102110000Y124030000D02*
X174892200Y124030000D01*
X174892200Y-65977200D01*
X-102110000Y-65977200D01*
X-102110000Y124030000D01*
D10*
D11*
X-100110000Y122030000D02*
X172892200Y122030000D01*
X172892200Y-63977200D01*
X-100110000Y-63977200D01*
X-100110000Y122030000D01*
D10*
D11*
X-52110000Y122030000D02*
X-52110000Y124030000D01*
D10*
D11*
X-2110000Y122030000D02*
X-2110000Y124030000D01*
D10*
D11*
X47890000Y122030000D02*
X47890000Y124030000D01*
D10*
D11*
X97890000Y122030000D02*
X97890000Y124030000D01*
D10*
D11*
X147890000Y122030000D02*
X147890000Y124030000D01*
D10*
D11*
X-76020840Y122436396D02*
X-76763697Y122436396D01*
X-76392269Y122436396D02*
X-76392269Y123736396D01*
X-76392269Y123736396D02*
X-76516078Y123550681D01*
X-76516078Y123550681D02*
X-76639888Y123426872D01*
X-76639888Y123426872D02*
X-76763697Y123364967D01*
D10*
D11*
X-26763697Y123612586D02*
X-26701793Y123674491D01*
X-26701793Y123674491D02*
X-26577983Y123736396D01*
X-26577983Y123736396D02*
X-26268459Y123736396D01*
X-26268459Y123736396D02*
X-26144650Y123674491D01*
X-26144650Y123674491D02*
X-26082745Y123612586D01*
X-26082745Y123612586D02*
X-26020840Y123488777D01*
X-26020840Y123488777D02*
X-26020840Y123364967D01*
X-26020840Y123364967D02*
X-26082745Y123179253D01*
X-26082745Y123179253D02*
X-26825602Y122436396D01*
X-26825602Y122436396D02*
X-26020840Y122436396D01*
D10*
D11*
X23174398Y123736396D02*
X23979160Y123736396D01*
X23979160Y123736396D02*
X23545826Y123241158D01*
X23545826Y123241158D02*
X23731541Y123241158D01*
X23731541Y123241158D02*
X23855350Y123179253D01*
X23855350Y123179253D02*
X23917255Y123117348D01*
X23917255Y123117348D02*
X23979160Y122993539D01*
X23979160Y122993539D02*
X23979160Y122684015D01*
X23979160Y122684015D02*
X23917255Y122560205D01*
X23917255Y122560205D02*
X23855350Y122498300D01*
X23855350Y122498300D02*
X23731541Y122436396D01*
X23731541Y122436396D02*
X23360112Y122436396D01*
X23360112Y122436396D02*
X23236303Y122498300D01*
X23236303Y122498300D02*
X23174398Y122560205D01*
D10*
D11*
X73855350Y123303062D02*
X73855350Y122436396D01*
X73545826Y123798300D02*
X73236303Y122869729D01*
X73236303Y122869729D02*
X74041064Y122869729D01*
D10*
D11*
X123917255Y123736396D02*
X123298207Y123736396D01*
X123298207Y123736396D02*
X123236303Y123117348D01*
X123236303Y123117348D02*
X123298207Y123179253D01*
X123298207Y123179253D02*
X123422017Y123241158D01*
X123422017Y123241158D02*
X123731541Y123241158D01*
X123731541Y123241158D02*
X123855350Y123179253D01*
X123855350Y123179253D02*
X123917255Y123117348D01*
X123917255Y123117348D02*
X123979160Y122993539D01*
X123979160Y122993539D02*
X123979160Y122684015D01*
X123979160Y122684015D02*
X123917255Y122560205D01*
X123917255Y122560205D02*
X123855350Y122498300D01*
X123855350Y122498300D02*
X123731541Y122436396D01*
X123731541Y122436396D02*
X123422017Y122436396D01*
X123422017Y122436396D02*
X123298207Y122498300D01*
X123298207Y122498300D02*
X123236303Y122560205D01*
D10*
D11*
X173855350Y123736396D02*
X173607731Y123736396D01*
X173607731Y123736396D02*
X173483922Y123674491D01*
X173483922Y123674491D02*
X173422017Y123612586D01*
X173422017Y123612586D02*
X173298207Y123426872D01*
X173298207Y123426872D02*
X173236303Y123179253D01*
X173236303Y123179253D02*
X173236303Y122684015D01*
X173236303Y122684015D02*
X173298207Y122560205D01*
X173298207Y122560205D02*
X173360112Y122498300D01*
X173360112Y122498300D02*
X173483922Y122436396D01*
X173483922Y122436396D02*
X173731541Y122436396D01*
X173731541Y122436396D02*
X173855350Y122498300D01*
X173855350Y122498300D02*
X173917255Y122560205D01*
X173917255Y122560205D02*
X173979160Y122684015D01*
X173979160Y122684015D02*
X173979160Y122993539D01*
X173979160Y122993539D02*
X173917255Y123117348D01*
X173917255Y123117348D02*
X173855350Y123179253D01*
X173855350Y123179253D02*
X173731541Y123241158D01*
X173731541Y123241158D02*
X173483922Y123241158D01*
X173483922Y123241158D02*
X173360112Y123179253D01*
X173360112Y123179253D02*
X173298207Y123117348D01*
X173298207Y123117348D02*
X173236303Y122993539D01*
D10*
D11*
X-52110000Y-63977200D02*
X-52110000Y-65977200D01*
D10*
D11*
X-2110000Y-63977200D02*
X-2110000Y-65977200D01*
D10*
D11*
X47890000Y-63977200D02*
X47890000Y-65977200D01*
D10*
D11*
X97890000Y-63977200D02*
X97890000Y-65977200D01*
D10*
D11*
X147890000Y-63977200D02*
X147890000Y-65977200D01*
D10*
D11*
X-76020840Y-65570804D02*
X-76763697Y-65570804D01*
X-76392269Y-65570804D02*
X-76392269Y-64270804D01*
X-76392269Y-64270804D02*
X-76516078Y-64456519D01*
X-76516078Y-64456519D02*
X-76639888Y-64580328D01*
X-76639888Y-64580328D02*
X-76763697Y-64642233D01*
D10*
D11*
X-26763697Y-64394614D02*
X-26701793Y-64332709D01*
X-26701793Y-64332709D02*
X-26577983Y-64270804D01*
X-26577983Y-64270804D02*
X-26268459Y-64270804D01*
X-26268459Y-64270804D02*
X-26144650Y-64332709D01*
X-26144650Y-64332709D02*
X-26082745Y-64394614D01*
X-26082745Y-64394614D02*
X-26020840Y-64518423D01*
X-26020840Y-64518423D02*
X-26020840Y-64642233D01*
X-26020840Y-64642233D02*
X-26082745Y-64827947D01*
X-26082745Y-64827947D02*
X-26825602Y-65570804D01*
X-26825602Y-65570804D02*
X-26020840Y-65570804D01*
D10*
D11*
X23174398Y-64270804D02*
X23979160Y-64270804D01*
X23979160Y-64270804D02*
X23545826Y-64766042D01*
X23545826Y-64766042D02*
X23731541Y-64766042D01*
X23731541Y-64766042D02*
X23855350Y-64827947D01*
X23855350Y-64827947D02*
X23917255Y-64889852D01*
X23917255Y-64889852D02*
X23979160Y-65013661D01*
X23979160Y-65013661D02*
X23979160Y-65323185D01*
X23979160Y-65323185D02*
X23917255Y-65446995D01*
X23917255Y-65446995D02*
X23855350Y-65508900D01*
X23855350Y-65508900D02*
X23731541Y-65570804D01*
X23731541Y-65570804D02*
X23360112Y-65570804D01*
X23360112Y-65570804D02*
X23236303Y-65508900D01*
X23236303Y-65508900D02*
X23174398Y-65446995D01*
D10*
D11*
X73855350Y-64704138D02*
X73855350Y-65570804D01*
X73545826Y-64208900D02*
X73236303Y-65137471D01*
X73236303Y-65137471D02*
X74041064Y-65137471D01*
D10*
D11*
X123917255Y-64270804D02*
X123298207Y-64270804D01*
X123298207Y-64270804D02*
X123236303Y-64889852D01*
X123236303Y-64889852D02*
X123298207Y-64827947D01*
X123298207Y-64827947D02*
X123422017Y-64766042D01*
X123422017Y-64766042D02*
X123731541Y-64766042D01*
X123731541Y-64766042D02*
X123855350Y-64827947D01*
X123855350Y-64827947D02*
X123917255Y-64889852D01*
X123917255Y-64889852D02*
X123979160Y-65013661D01*
X123979160Y-65013661D02*
X123979160Y-65323185D01*
X123979160Y-65323185D02*
X123917255Y-65446995D01*
X123917255Y-65446995D02*
X123855350Y-65508900D01*
X123855350Y-65508900D02*
X123731541Y-65570804D01*
X123731541Y-65570804D02*
X123422017Y-65570804D01*
X123422017Y-65570804D02*
X123298207Y-65508900D01*
X123298207Y-65508900D02*
X123236303Y-65446995D01*
D10*
D11*
X173855350Y-64270804D02*
X173607731Y-64270804D01*
X173607731Y-64270804D02*
X173483922Y-64332709D01*
X173483922Y-64332709D02*
X173422017Y-64394614D01*
X173422017Y-64394614D02*
X173298207Y-64580328D01*
X173298207Y-64580328D02*
X173236303Y-64827947D01*
X173236303Y-64827947D02*
X173236303Y-65323185D01*
X173236303Y-65323185D02*
X173298207Y-65446995D01*
X173298207Y-65446995D02*
X173360112Y-65508900D01*
X173360112Y-65508900D02*
X173483922Y-65570804D01*
X173483922Y-65570804D02*
X173731541Y-65570804D01*
X173731541Y-65570804D02*
X173855350Y-65508900D01*
X173855350Y-65508900D02*
X173917255Y-65446995D01*
X173917255Y-65446995D02*
X173979160Y-65323185D01*
X173979160Y-65323185D02*
X173979160Y-65013661D01*
X173979160Y-65013661D02*
X173917255Y-64889852D01*
X173917255Y-64889852D02*
X173855350Y-64827947D01*
X173855350Y-64827947D02*
X173731541Y-64766042D01*
X173731541Y-64766042D02*
X173483922Y-64766042D01*
X173483922Y-64766042D02*
X173360112Y-64827947D01*
X173360112Y-64827947D02*
X173298207Y-64889852D01*
X173298207Y-64889852D02*
X173236303Y-65013661D01*
D10*
D11*
X-102110000Y74030000D02*
X-100110000Y74030000D01*
D10*
D11*
X-102110000Y24030000D02*
X-100110000Y24030000D01*
D10*
D11*
X-102110000Y-25970000D02*
X-100110000Y-25970000D01*
D10*
D11*
X-101419524Y98807824D02*
X-100800477Y98807824D01*
X-101543334Y98436396D02*
X-101110001Y99736396D01*
X-101110001Y99736396D02*
X-100676667Y98436396D01*
D10*
D11*
X-101017143Y49117348D02*
X-100831429Y49055443D01*
X-100831429Y49055443D02*
X-100769524Y48993539D01*
X-100769524Y48993539D02*
X-100707620Y48869729D01*
X-100707620Y48869729D02*
X-100707620Y48684015D01*
X-100707620Y48684015D02*
X-100769524Y48560205D01*
X-100769524Y48560205D02*
X-100831429Y48498300D01*
X-100831429Y48498300D02*
X-100955239Y48436396D01*
X-100955239Y48436396D02*
X-101450477Y48436396D01*
X-101450477Y48436396D02*
X-101450477Y49736396D01*
X-101450477Y49736396D02*
X-101017143Y49736396D01*
X-101017143Y49736396D02*
X-100893334Y49674491D01*
X-100893334Y49674491D02*
X-100831429Y49612586D01*
X-100831429Y49612586D02*
X-100769524Y49488777D01*
X-100769524Y49488777D02*
X-100769524Y49364967D01*
X-100769524Y49364967D02*
X-100831429Y49241158D01*
X-100831429Y49241158D02*
X-100893334Y49179253D01*
X-100893334Y49179253D02*
X-101017143Y49117348D01*
X-101017143Y49117348D02*
X-101450477Y49117348D01*
D10*
D11*
X-100707620Y-1439795D02*
X-100769524Y-1501700D01*
X-100769524Y-1501700D02*
X-100955239Y-1563604D01*
X-100955239Y-1563604D02*
X-101079048Y-1563604D01*
X-101079048Y-1563604D02*
X-101264762Y-1501700D01*
X-101264762Y-1501700D02*
X-101388572Y-1377890D01*
X-101388572Y-1377890D02*
X-101450477Y-1254080D01*
X-101450477Y-1254080D02*
X-101512381Y-1006461D01*
X-101512381Y-1006461D02*
X-101512381Y-820747D01*
X-101512381Y-820747D02*
X-101450477Y-573128D01*
X-101450477Y-573128D02*
X-101388572Y-449319D01*
X-101388572Y-449319D02*
X-101264762Y-325509D01*
X-101264762Y-325509D02*
X-101079048Y-263604D01*
X-101079048Y-263604D02*
X-100955239Y-263604D01*
X-100955239Y-263604D02*
X-100769524Y-325509D01*
X-100769524Y-325509D02*
X-100707620Y-387414D01*
D10*
D11*
X-101450477Y-51563604D02*
X-101450477Y-50263604D01*
X-101450477Y-50263604D02*
X-101140953Y-50263604D01*
X-101140953Y-50263604D02*
X-100955239Y-50325509D01*
X-100955239Y-50325509D02*
X-100831429Y-50449319D01*
X-100831429Y-50449319D02*
X-100769524Y-50573128D01*
X-100769524Y-50573128D02*
X-100707620Y-50820747D01*
X-100707620Y-50820747D02*
X-100707620Y-51006461D01*
X-100707620Y-51006461D02*
X-100769524Y-51254080D01*
X-100769524Y-51254080D02*
X-100831429Y-51377890D01*
X-100831429Y-51377890D02*
X-100955239Y-51501700D01*
X-100955239Y-51501700D02*
X-101140953Y-51563604D01*
X-101140953Y-51563604D02*
X-101450477Y-51563604D01*
D10*
D11*
X174892200Y74030000D02*
X172892200Y74030000D01*
D10*
D11*
X174892200Y24030000D02*
X172892200Y24030000D01*
D10*
D11*
X174892200Y-25970000D02*
X172892200Y-25970000D01*
D10*
D11*
X173582676Y98807824D02*
X174201723Y98807824D01*
X173458866Y98436396D02*
X173892199Y99736396D01*
X173892199Y99736396D02*
X174325533Y98436396D01*
D10*
D11*
X173985057Y49117348D02*
X174170771Y49055443D01*
X174170771Y49055443D02*
X174232676Y48993539D01*
X174232676Y48993539D02*
X174294580Y48869729D01*
X174294580Y48869729D02*
X174294580Y48684015D01*
X174294580Y48684015D02*
X174232676Y48560205D01*
X174232676Y48560205D02*
X174170771Y48498300D01*
X174170771Y48498300D02*
X174046961Y48436396D01*
X174046961Y48436396D02*
X173551723Y48436396D01*
X173551723Y48436396D02*
X173551723Y49736396D01*
X173551723Y49736396D02*
X173985057Y49736396D01*
X173985057Y49736396D02*
X174108866Y49674491D01*
X174108866Y49674491D02*
X174170771Y49612586D01*
X174170771Y49612586D02*
X174232676Y49488777D01*
X174232676Y49488777D02*
X174232676Y49364967D01*
X174232676Y49364967D02*
X174170771Y49241158D01*
X174170771Y49241158D02*
X174108866Y49179253D01*
X174108866Y49179253D02*
X173985057Y49117348D01*
X173985057Y49117348D02*
X173551723Y49117348D01*
D10*
D11*
X174294580Y-1439795D02*
X174232676Y-1501700D01*
X174232676Y-1501700D02*
X174046961Y-1563604D01*
X174046961Y-1563604D02*
X173923152Y-1563604D01*
X173923152Y-1563604D02*
X173737438Y-1501700D01*
X173737438Y-1501700D02*
X173613628Y-1377890D01*
X173613628Y-1377890D02*
X173551723Y-1254080D01*
X173551723Y-1254080D02*
X173489819Y-1006461D01*
X173489819Y-1006461D02*
X173489819Y-820747D01*
X173489819Y-820747D02*
X173551723Y-573128D01*
X173551723Y-573128D02*
X173613628Y-449319D01*
X173613628Y-449319D02*
X173737438Y-325509D01*
X173737438Y-325509D02*
X173923152Y-263604D01*
X173923152Y-263604D02*
X174046961Y-263604D01*
X174046961Y-263604D02*
X174232676Y-325509D01*
X174232676Y-325509D02*
X174294580Y-387414D01*
D10*
D11*
X173551723Y-51563604D02*
X173551723Y-50263604D01*
X173551723Y-50263604D02*
X173861247Y-50263604D01*
X173861247Y-50263604D02*
X174046961Y-50325509D01*
X174046961Y-50325509D02*
X174170771Y-50449319D01*
X174170771Y-50449319D02*
X174232676Y-50573128D01*
X174232676Y-50573128D02*
X174294580Y-50820747D01*
X174294580Y-50820747D02*
X174294580Y-51006461D01*
X174294580Y-51006461D02*
X174232676Y-51254080D01*
X174232676Y-51254080D02*
X174170771Y-51377890D01*
X174170771Y-51377890D02*
X174046961Y-51501700D01*
X174046961Y-51501700D02*
X173861247Y-51563604D01*
X173861247Y-51563604D02*
X173551723Y-51563604D01*
D10*
D11*
X88348026Y-59763328D02*
X88348026Y-58263328D01*
X88348026Y-58263328D02*
X88705169Y-58263328D01*
X88705169Y-58263328D02*
X88919455Y-58334757D01*
X88919455Y-58334757D02*
X89062312Y-58477614D01*
X89062312Y-58477614D02*
X89133741Y-58620471D01*
X89133741Y-58620471D02*
X89205169Y-58906185D01*
X89205169Y-58906185D02*
X89205169Y-59120471D01*
X89205169Y-59120471D02*
X89133741Y-59406185D01*
X89133741Y-59406185D02*
X89062312Y-59549042D01*
X89062312Y-59549042D02*
X88919455Y-59691900D01*
X88919455Y-59691900D02*
X88705169Y-59763328D01*
X88705169Y-59763328D02*
X88348026Y-59763328D01*
X90490884Y-59763328D02*
X90490884Y-58977614D01*
X90490884Y-58977614D02*
X90419455Y-58834757D01*
X90419455Y-58834757D02*
X90276598Y-58763328D01*
X90276598Y-58763328D02*
X89990884Y-58763328D01*
X89990884Y-58763328D02*
X89848026Y-58834757D01*
X90490884Y-59691900D02*
X90348026Y-59763328D01*
X90348026Y-59763328D02*
X89990884Y-59763328D01*
X89990884Y-59763328D02*
X89848026Y-59691900D01*
X89848026Y-59691900D02*
X89776598Y-59549042D01*
X89776598Y-59549042D02*
X89776598Y-59406185D01*
X89776598Y-59406185D02*
X89848026Y-59263328D01*
X89848026Y-59263328D02*
X89990884Y-59191900D01*
X89990884Y-59191900D02*
X90348026Y-59191900D01*
X90348026Y-59191900D02*
X90490884Y-59120471D01*
X90990884Y-58763328D02*
X91562312Y-58763328D01*
X91205169Y-58263328D02*
X91205169Y-59549042D01*
X91205169Y-59549042D02*
X91276598Y-59691900D01*
X91276598Y-59691900D02*
X91419455Y-59763328D01*
X91419455Y-59763328D02*
X91562312Y-59763328D01*
X92633741Y-59691900D02*
X92490884Y-59763328D01*
X92490884Y-59763328D02*
X92205170Y-59763328D01*
X92205170Y-59763328D02*
X92062312Y-59691900D01*
X92062312Y-59691900D02*
X91990884Y-59549042D01*
X91990884Y-59549042D02*
X91990884Y-58977614D01*
X91990884Y-58977614D02*
X92062312Y-58834757D01*
X92062312Y-58834757D02*
X92205170Y-58763328D01*
X92205170Y-58763328D02*
X92490884Y-58763328D01*
X92490884Y-58763328D02*
X92633741Y-58834757D01*
X92633741Y-58834757D02*
X92705170Y-58977614D01*
X92705170Y-58977614D02*
X92705170Y-59120471D01*
X92705170Y-59120471D02*
X91990884Y-59263328D01*
X93348026Y-59620471D02*
X93419455Y-59691900D01*
X93419455Y-59691900D02*
X93348026Y-59763328D01*
X93348026Y-59763328D02*
X93276598Y-59691900D01*
X93276598Y-59691900D02*
X93348026Y-59620471D01*
X93348026Y-59620471D02*
X93348026Y-59763328D01*
X93348026Y-58834757D02*
X93419455Y-58906185D01*
X93419455Y-58906185D02*
X93348026Y-58977614D01*
X93348026Y-58977614D02*
X93276598Y-58906185D01*
X93276598Y-58906185D02*
X93348026Y-58834757D01*
X93348026Y-58834757D02*
X93348026Y-58977614D01*
X95133741Y-58406185D02*
X95205169Y-58334757D01*
X95205169Y-58334757D02*
X95348027Y-58263328D01*
X95348027Y-58263328D02*
X95705169Y-58263328D01*
X95705169Y-58263328D02*
X95848027Y-58334757D01*
X95848027Y-58334757D02*
X95919455Y-58406185D01*
X95919455Y-58406185D02*
X95990884Y-58549042D01*
X95990884Y-58549042D02*
X95990884Y-58691900D01*
X95990884Y-58691900D02*
X95919455Y-58906185D01*
X95919455Y-58906185D02*
X95062312Y-59763328D01*
X95062312Y-59763328D02*
X95990884Y-59763328D01*
X96919455Y-58263328D02*
X97062312Y-58263328D01*
X97062312Y-58263328D02*
X97205169Y-58334757D01*
X97205169Y-58334757D02*
X97276598Y-58406185D01*
X97276598Y-58406185D02*
X97348026Y-58549042D01*
X97348026Y-58549042D02*
X97419455Y-58834757D01*
X97419455Y-58834757D02*
X97419455Y-59191900D01*
X97419455Y-59191900D02*
X97348026Y-59477614D01*
X97348026Y-59477614D02*
X97276598Y-59620471D01*
X97276598Y-59620471D02*
X97205169Y-59691900D01*
X97205169Y-59691900D02*
X97062312Y-59763328D01*
X97062312Y-59763328D02*
X96919455Y-59763328D01*
X96919455Y-59763328D02*
X96776598Y-59691900D01*
X96776598Y-59691900D02*
X96705169Y-59620471D01*
X96705169Y-59620471D02*
X96633740Y-59477614D01*
X96633740Y-59477614D02*
X96562312Y-59191900D01*
X96562312Y-59191900D02*
X96562312Y-58834757D01*
X96562312Y-58834757D02*
X96633740Y-58549042D01*
X96633740Y-58549042D02*
X96705169Y-58406185D01*
X96705169Y-58406185D02*
X96776598Y-58334757D01*
X96776598Y-58334757D02*
X96919455Y-58263328D01*
X97990883Y-58406185D02*
X98062311Y-58334757D01*
X98062311Y-58334757D02*
X98205169Y-58263328D01*
X98205169Y-58263328D02*
X98562311Y-58263328D01*
X98562311Y-58263328D02*
X98705169Y-58334757D01*
X98705169Y-58334757D02*
X98776597Y-58406185D01*
X98776597Y-58406185D02*
X98848026Y-58549042D01*
X98848026Y-58549042D02*
X98848026Y-58691900D01*
X98848026Y-58691900D02*
X98776597Y-58906185D01*
X98776597Y-58906185D02*
X97919454Y-59763328D01*
X97919454Y-59763328D02*
X98848026Y-59763328D01*
X100205168Y-58263328D02*
X99490882Y-58263328D01*
X99490882Y-58263328D02*
X99419454Y-58977614D01*
X99419454Y-58977614D02*
X99490882Y-58906185D01*
X99490882Y-58906185D02*
X99633740Y-58834757D01*
X99633740Y-58834757D02*
X99990882Y-58834757D01*
X99990882Y-58834757D02*
X100133740Y-58906185D01*
X100133740Y-58906185D02*
X100205168Y-58977614D01*
X100205168Y-58977614D02*
X100276597Y-59120471D01*
X100276597Y-59120471D02*
X100276597Y-59477614D01*
X100276597Y-59477614D02*
X100205168Y-59620471D01*
X100205168Y-59620471D02*
X100133740Y-59691900D01*
X100133740Y-59691900D02*
X99990882Y-59763328D01*
X99990882Y-59763328D02*
X99633740Y-59763328D01*
X99633740Y-59763328D02*
X99490882Y-59691900D01*
X99490882Y-59691900D02*
X99419454Y-59620471D01*
X100919453Y-59191900D02*
X102062311Y-59191900D01*
X103062311Y-58263328D02*
X103205168Y-58263328D01*
X103205168Y-58263328D02*
X103348025Y-58334757D01*
X103348025Y-58334757D02*
X103419454Y-58406185D01*
X103419454Y-58406185D02*
X103490882Y-58549042D01*
X103490882Y-58549042D02*
X103562311Y-58834757D01*
X103562311Y-58834757D02*
X103562311Y-59191900D01*
X103562311Y-59191900D02*
X103490882Y-59477614D01*
X103490882Y-59477614D02*
X103419454Y-59620471D01*
X103419454Y-59620471D02*
X103348025Y-59691900D01*
X103348025Y-59691900D02*
X103205168Y-59763328D01*
X103205168Y-59763328D02*
X103062311Y-59763328D01*
X103062311Y-59763328D02*
X102919454Y-59691900D01*
X102919454Y-59691900D02*
X102848025Y-59620471D01*
X102848025Y-59620471D02*
X102776596Y-59477614D01*
X102776596Y-59477614D02*
X102705168Y-59191900D01*
X102705168Y-59191900D02*
X102705168Y-58834757D01*
X102705168Y-58834757D02*
X102776596Y-58549042D01*
X102776596Y-58549042D02*
X102848025Y-58406185D01*
X102848025Y-58406185D02*
X102919454Y-58334757D01*
X102919454Y-58334757D02*
X103062311Y-58263328D01*
X104848025Y-58763328D02*
X104848025Y-59763328D01*
X104490882Y-58191900D02*
X104133739Y-59263328D01*
X104133739Y-59263328D02*
X105062310Y-59263328D01*
X105633738Y-59191900D02*
X106776596Y-59191900D01*
X107419453Y-58406185D02*
X107490881Y-58334757D01*
X107490881Y-58334757D02*
X107633739Y-58263328D01*
X107633739Y-58263328D02*
X107990881Y-58263328D01*
X107990881Y-58263328D02*
X108133739Y-58334757D01*
X108133739Y-58334757D02*
X108205167Y-58406185D01*
X108205167Y-58406185D02*
X108276596Y-58549042D01*
X108276596Y-58549042D02*
X108276596Y-58691900D01*
X108276596Y-58691900D02*
X108205167Y-58906185D01*
X108205167Y-58906185D02*
X107348024Y-59763328D01*
X107348024Y-59763328D02*
X108276596Y-59763328D01*
X109133738Y-58906185D02*
X108990881Y-58834757D01*
X108990881Y-58834757D02*
X108919452Y-58763328D01*
X108919452Y-58763328D02*
X108848024Y-58620471D01*
X108848024Y-58620471D02*
X108848024Y-58549042D01*
X108848024Y-58549042D02*
X108919452Y-58406185D01*
X108919452Y-58406185D02*
X108990881Y-58334757D01*
X108990881Y-58334757D02*
X109133738Y-58263328D01*
X109133738Y-58263328D02*
X109419452Y-58263328D01*
X109419452Y-58263328D02*
X109562310Y-58334757D01*
X109562310Y-58334757D02*
X109633738Y-58406185D01*
X109633738Y-58406185D02*
X109705167Y-58549042D01*
X109705167Y-58549042D02*
X109705167Y-58620471D01*
X109705167Y-58620471D02*
X109633738Y-58763328D01*
X109633738Y-58763328D02*
X109562310Y-58834757D01*
X109562310Y-58834757D02*
X109419452Y-58906185D01*
X109419452Y-58906185D02*
X109133738Y-58906185D01*
X109133738Y-58906185D02*
X108990881Y-58977614D01*
X108990881Y-58977614D02*
X108919452Y-59049042D01*
X108919452Y-59049042D02*
X108848024Y-59191900D01*
X108848024Y-59191900D02*
X108848024Y-59477614D01*
X108848024Y-59477614D02*
X108919452Y-59620471D01*
X108919452Y-59620471D02*
X108990881Y-59691900D01*
X108990881Y-59691900D02*
X109133738Y-59763328D01*
X109133738Y-59763328D02*
X109419452Y-59763328D01*
X109419452Y-59763328D02*
X109562310Y-59691900D01*
X109562310Y-59691900D02*
X109633738Y-59620471D01*
X109633738Y-59620471D02*
X109705167Y-59477614D01*
X109705167Y-59477614D02*
X109705167Y-59191900D01*
X109705167Y-59191900D02*
X109633738Y-59049042D01*
X109633738Y-59049042D02*
X109562310Y-58977614D01*
X109562310Y-58977614D02*
X109419452Y-58906185D01*
D10*
D11*
X64892200Y-60477200D02*
X172892200Y-60477200D01*
D10*
D11*
X66348026Y-62563328D02*
X66348026Y-61063328D01*
X67205169Y-62563328D02*
X66562312Y-61706185D01*
X67205169Y-61063328D02*
X66348026Y-61920471D01*
X67848026Y-62563328D02*
X67848026Y-61563328D01*
X67848026Y-61063328D02*
X67776598Y-61134757D01*
X67776598Y-61134757D02*
X67848026Y-61206185D01*
X67848026Y-61206185D02*
X67919455Y-61134757D01*
X67919455Y-61134757D02*
X67848026Y-61063328D01*
X67848026Y-61063328D02*
X67848026Y-61206185D01*
X69419455Y-62420471D02*
X69348027Y-62491900D01*
X69348027Y-62491900D02*
X69133741Y-62563328D01*
X69133741Y-62563328D02*
X68990884Y-62563328D01*
X68990884Y-62563328D02*
X68776598Y-62491900D01*
X68776598Y-62491900D02*
X68633741Y-62349042D01*
X68633741Y-62349042D02*
X68562312Y-62206185D01*
X68562312Y-62206185D02*
X68490884Y-61920471D01*
X68490884Y-61920471D02*
X68490884Y-61706185D01*
X68490884Y-61706185D02*
X68562312Y-61420471D01*
X68562312Y-61420471D02*
X68633741Y-61277614D01*
X68633741Y-61277614D02*
X68776598Y-61134757D01*
X68776598Y-61134757D02*
X68990884Y-61063328D01*
X68990884Y-61063328D02*
X69133741Y-61063328D01*
X69133741Y-61063328D02*
X69348027Y-61134757D01*
X69348027Y-61134757D02*
X69419455Y-61206185D01*
X70705170Y-62563328D02*
X70705170Y-61777614D01*
X70705170Y-61777614D02*
X70633741Y-61634757D01*
X70633741Y-61634757D02*
X70490884Y-61563328D01*
X70490884Y-61563328D02*
X70205170Y-61563328D01*
X70205170Y-61563328D02*
X70062312Y-61634757D01*
X70705170Y-62491900D02*
X70562312Y-62563328D01*
X70562312Y-62563328D02*
X70205170Y-62563328D01*
X70205170Y-62563328D02*
X70062312Y-62491900D01*
X70062312Y-62491900D02*
X69990884Y-62349042D01*
X69990884Y-62349042D02*
X69990884Y-62206185D01*
X69990884Y-62206185D02*
X70062312Y-62063328D01*
X70062312Y-62063328D02*
X70205170Y-61991900D01*
X70205170Y-61991900D02*
X70562312Y-61991900D01*
X70562312Y-61991900D02*
X70705170Y-61920471D01*
X72062313Y-62563328D02*
X72062313Y-61063328D01*
X72062313Y-62491900D02*
X71919455Y-62563328D01*
X71919455Y-62563328D02*
X71633741Y-62563328D01*
X71633741Y-62563328D02*
X71490884Y-62491900D01*
X71490884Y-62491900D02*
X71419455Y-62420471D01*
X71419455Y-62420471D02*
X71348027Y-62277614D01*
X71348027Y-62277614D02*
X71348027Y-61849042D01*
X71348027Y-61849042D02*
X71419455Y-61706185D01*
X71419455Y-61706185D02*
X71490884Y-61634757D01*
X71490884Y-61634757D02*
X71633741Y-61563328D01*
X71633741Y-61563328D02*
X71919455Y-61563328D01*
X71919455Y-61563328D02*
X72062313Y-61634757D01*
X73919455Y-61777614D02*
X74419455Y-61777614D01*
X74633741Y-62563328D02*
X73919455Y-62563328D01*
X73919455Y-62563328D02*
X73919455Y-61063328D01*
X73919455Y-61063328D02*
X74633741Y-61063328D01*
X75276598Y-62420471D02*
X75348027Y-62491900D01*
X75348027Y-62491900D02*
X75276598Y-62563328D01*
X75276598Y-62563328D02*
X75205170Y-62491900D01*
X75205170Y-62491900D02*
X75276598Y-62420471D01*
X75276598Y-62420471D02*
X75276598Y-62563328D01*
X75990884Y-62563328D02*
X75990884Y-61063328D01*
X75990884Y-61063328D02*
X76348027Y-61063328D01*
X76348027Y-61063328D02*
X76562313Y-61134757D01*
X76562313Y-61134757D02*
X76705170Y-61277614D01*
X76705170Y-61277614D02*
X76776599Y-61420471D01*
X76776599Y-61420471D02*
X76848027Y-61706185D01*
X76848027Y-61706185D02*
X76848027Y-61920471D01*
X76848027Y-61920471D02*
X76776599Y-62206185D01*
X76776599Y-62206185D02*
X76705170Y-62349042D01*
X76705170Y-62349042D02*
X76562313Y-62491900D01*
X76562313Y-62491900D02*
X76348027Y-62563328D01*
X76348027Y-62563328D02*
X75990884Y-62563328D01*
X77490884Y-62420471D02*
X77562313Y-62491900D01*
X77562313Y-62491900D02*
X77490884Y-62563328D01*
X77490884Y-62563328D02*
X77419456Y-62491900D01*
X77419456Y-62491900D02*
X77490884Y-62420471D01*
X77490884Y-62420471D02*
X77490884Y-62563328D01*
X78133742Y-62134757D02*
X78848028Y-62134757D01*
X77990885Y-62563328D02*
X78490885Y-61063328D01*
X78490885Y-61063328D02*
X78990885Y-62563328D01*
X79490884Y-62420471D02*
X79562313Y-62491900D01*
X79562313Y-62491900D02*
X79490884Y-62563328D01*
X79490884Y-62563328D02*
X79419456Y-62491900D01*
X79419456Y-62491900D02*
X79490884Y-62420471D01*
X79490884Y-62420471D02*
X79490884Y-62563328D01*
X81419456Y-62563328D02*
X81705170Y-62563328D01*
X81705170Y-62563328D02*
X81848027Y-62491900D01*
X81848027Y-62491900D02*
X81919456Y-62420471D01*
X81919456Y-62420471D02*
X82062313Y-62206185D01*
X82062313Y-62206185D02*
X82133742Y-61920471D01*
X82133742Y-61920471D02*
X82133742Y-61349042D01*
X82133742Y-61349042D02*
X82062313Y-61206185D01*
X82062313Y-61206185D02*
X81990885Y-61134757D01*
X81990885Y-61134757D02*
X81848027Y-61063328D01*
X81848027Y-61063328D02*
X81562313Y-61063328D01*
X81562313Y-61063328D02*
X81419456Y-61134757D01*
X81419456Y-61134757D02*
X81348027Y-61206185D01*
X81348027Y-61206185D02*
X81276599Y-61349042D01*
X81276599Y-61349042D02*
X81276599Y-61706185D01*
X81276599Y-61706185D02*
X81348027Y-61849042D01*
X81348027Y-61849042D02*
X81419456Y-61920471D01*
X81419456Y-61920471D02*
X81562313Y-61991900D01*
X81562313Y-61991900D02*
X81848027Y-61991900D01*
X81848027Y-61991900D02*
X81990885Y-61920471D01*
X81990885Y-61920471D02*
X82062313Y-61849042D01*
X82062313Y-61849042D02*
X82133742Y-61706185D01*
X82776598Y-62420471D02*
X82848027Y-62491900D01*
X82848027Y-62491900D02*
X82776598Y-62563328D01*
X82776598Y-62563328D02*
X82705170Y-62491900D01*
X82705170Y-62491900D02*
X82776598Y-62420471D01*
X82776598Y-62420471D02*
X82776598Y-62563328D01*
X83776599Y-61063328D02*
X83919456Y-61063328D01*
X83919456Y-61063328D02*
X84062313Y-61134757D01*
X84062313Y-61134757D02*
X84133742Y-61206185D01*
X84133742Y-61206185D02*
X84205170Y-61349042D01*
X84205170Y-61349042D02*
X84276599Y-61634757D01*
X84276599Y-61634757D02*
X84276599Y-61991900D01*
X84276599Y-61991900D02*
X84205170Y-62277614D01*
X84205170Y-62277614D02*
X84133742Y-62420471D01*
X84133742Y-62420471D02*
X84062313Y-62491900D01*
X84062313Y-62491900D02*
X83919456Y-62563328D01*
X83919456Y-62563328D02*
X83776599Y-62563328D01*
X83776599Y-62563328D02*
X83633742Y-62491900D01*
X83633742Y-62491900D02*
X83562313Y-62420471D01*
X83562313Y-62420471D02*
X83490884Y-62277614D01*
X83490884Y-62277614D02*
X83419456Y-61991900D01*
X83419456Y-61991900D02*
X83419456Y-61634757D01*
X83419456Y-61634757D02*
X83490884Y-61349042D01*
X83490884Y-61349042D02*
X83562313Y-61206185D01*
X83562313Y-61206185D02*
X83633742Y-61134757D01*
X83633742Y-61134757D02*
X83776599Y-61063328D01*
X84919455Y-62420471D02*
X84990884Y-62491900D01*
X84990884Y-62491900D02*
X84919455Y-62563328D01*
X84919455Y-62563328D02*
X84848027Y-62491900D01*
X84848027Y-62491900D02*
X84919455Y-62420471D01*
X84919455Y-62420471D02*
X84919455Y-62563328D01*
X86419456Y-62563328D02*
X85562313Y-62563328D01*
X85990884Y-62563328D02*
X85990884Y-61063328D01*
X85990884Y-61063328D02*
X85848027Y-61277614D01*
X85848027Y-61277614D02*
X85705170Y-61420471D01*
X85705170Y-61420471D02*
X85562313Y-61491900D01*
D10*
D11*
X64892200Y-57477200D02*
X172892200Y-57477200D01*
D10*
D12*
X152303853Y-59755528D02*
X151803853Y-59041242D01*
X151446710Y-59755528D02*
X151446710Y-58255528D01*
X151446710Y-58255528D02*
X152018139Y-58255528D01*
X152018139Y-58255528D02*
X152160996Y-58326957D01*
X152160996Y-58326957D02*
X152232425Y-58398385D01*
X152232425Y-58398385D02*
X152303853Y-58541242D01*
X152303853Y-58541242D02*
X152303853Y-58755528D01*
X152303853Y-58755528D02*
X152232425Y-58898385D01*
X152232425Y-58898385D02*
X152160996Y-58969814D01*
X152160996Y-58969814D02*
X152018139Y-59041242D01*
X152018139Y-59041242D02*
X151446710Y-59041242D01*
X153518139Y-59684100D02*
X153375282Y-59755528D01*
X153375282Y-59755528D02*
X153089568Y-59755528D01*
X153089568Y-59755528D02*
X152946710Y-59684100D01*
X152946710Y-59684100D02*
X152875282Y-59541242D01*
X152875282Y-59541242D02*
X152875282Y-58969814D01*
X152875282Y-58969814D02*
X152946710Y-58826957D01*
X152946710Y-58826957D02*
X153089568Y-58755528D01*
X153089568Y-58755528D02*
X153375282Y-58755528D01*
X153375282Y-58755528D02*
X153518139Y-58826957D01*
X153518139Y-58826957D02*
X153589568Y-58969814D01*
X153589568Y-58969814D02*
X153589568Y-59112671D01*
X153589568Y-59112671D02*
X152875282Y-59255528D01*
X154089567Y-58755528D02*
X154446710Y-59755528D01*
X154446710Y-59755528D02*
X154803853Y-58755528D01*
X155375281Y-59612671D02*
X155446710Y-59684100D01*
X155446710Y-59684100D02*
X155375281Y-59755528D01*
X155375281Y-59755528D02*
X155303853Y-59684100D01*
X155303853Y-59684100D02*
X155375281Y-59612671D01*
X155375281Y-59612671D02*
X155375281Y-59755528D01*
X155375281Y-58826957D02*
X155446710Y-58898385D01*
X155446710Y-58898385D02*
X155375281Y-58969814D01*
X155375281Y-58969814D02*
X155303853Y-58898385D01*
X155303853Y-58898385D02*
X155375281Y-58826957D01*
X155375281Y-58826957D02*
X155375281Y-58969814D01*
X158018139Y-59755528D02*
X157160996Y-59755528D01*
X157589567Y-59755528D02*
X157589567Y-58255528D01*
X157589567Y-58255528D02*
X157446710Y-58469814D01*
X157446710Y-58469814D02*
X157303853Y-58612671D01*
X157303853Y-58612671D02*
X157160996Y-58684100D01*
X158660995Y-59612671D02*
X158732424Y-59684100D01*
X158732424Y-59684100D02*
X158660995Y-59755528D01*
X158660995Y-59755528D02*
X158589567Y-59684100D01*
X158589567Y-59684100D02*
X158660995Y-59612671D01*
X158660995Y-59612671D02*
X158660995Y-59755528D01*
X160160996Y-59755528D02*
X159303853Y-59755528D01*
X159732424Y-59755528D02*
X159732424Y-58255528D01*
X159732424Y-58255528D02*
X159589567Y-58469814D01*
X159589567Y-58469814D02*
X159446710Y-58612671D01*
X159446710Y-58612671D02*
X159303853Y-58684100D01*
D10*
D11*
X66276598Y-59691900D02*
X66490884Y-59763328D01*
X66490884Y-59763328D02*
X66848026Y-59763328D01*
X66848026Y-59763328D02*
X66990884Y-59691900D01*
X66990884Y-59691900D02*
X67062312Y-59620471D01*
X67062312Y-59620471D02*
X67133741Y-59477614D01*
X67133741Y-59477614D02*
X67133741Y-59334757D01*
X67133741Y-59334757D02*
X67062312Y-59191900D01*
X67062312Y-59191900D02*
X66990884Y-59120471D01*
X66990884Y-59120471D02*
X66848026Y-59049042D01*
X66848026Y-59049042D02*
X66562312Y-58977614D01*
X66562312Y-58977614D02*
X66419455Y-58906185D01*
X66419455Y-58906185D02*
X66348026Y-58834757D01*
X66348026Y-58834757D02*
X66276598Y-58691900D01*
X66276598Y-58691900D02*
X66276598Y-58549042D01*
X66276598Y-58549042D02*
X66348026Y-58406185D01*
X66348026Y-58406185D02*
X66419455Y-58334757D01*
X66419455Y-58334757D02*
X66562312Y-58263328D01*
X66562312Y-58263328D02*
X66919455Y-58263328D01*
X66919455Y-58263328D02*
X67133741Y-58334757D01*
X67776597Y-59763328D02*
X67776597Y-58763328D01*
X67776597Y-58263328D02*
X67705169Y-58334757D01*
X67705169Y-58334757D02*
X67776597Y-58406185D01*
X67776597Y-58406185D02*
X67848026Y-58334757D01*
X67848026Y-58334757D02*
X67776597Y-58263328D01*
X67776597Y-58263328D02*
X67776597Y-58406185D01*
X68348026Y-58763328D02*
X69133741Y-58763328D01*
X69133741Y-58763328D02*
X68348026Y-59763328D01*
X68348026Y-59763328D02*
X69133741Y-59763328D01*
X70276598Y-59691900D02*
X70133741Y-59763328D01*
X70133741Y-59763328D02*
X69848027Y-59763328D01*
X69848027Y-59763328D02*
X69705169Y-59691900D01*
X69705169Y-59691900D02*
X69633741Y-59549042D01*
X69633741Y-59549042D02*
X69633741Y-58977614D01*
X69633741Y-58977614D02*
X69705169Y-58834757D01*
X69705169Y-58834757D02*
X69848027Y-58763328D01*
X69848027Y-58763328D02*
X70133741Y-58763328D01*
X70133741Y-58763328D02*
X70276598Y-58834757D01*
X70276598Y-58834757D02*
X70348027Y-58977614D01*
X70348027Y-58977614D02*
X70348027Y-59120471D01*
X70348027Y-59120471D02*
X69633741Y-59263328D01*
X70990883Y-59620471D02*
X71062312Y-59691900D01*
X71062312Y-59691900D02*
X70990883Y-59763328D01*
X70990883Y-59763328D02*
X70919455Y-59691900D01*
X70919455Y-59691900D02*
X70990883Y-59620471D01*
X70990883Y-59620471D02*
X70990883Y-59763328D01*
X70990883Y-58834757D02*
X71062312Y-58906185D01*
X71062312Y-58906185D02*
X70990883Y-58977614D01*
X70990883Y-58977614D02*
X70919455Y-58906185D01*
X70919455Y-58906185D02*
X70990883Y-58834757D01*
X70990883Y-58834757D02*
X70990883Y-58977614D01*
X72776598Y-59334757D02*
X73490884Y-59334757D01*
X72633741Y-59763328D02*
X73133741Y-58263328D01*
X73133741Y-58263328D02*
X73633741Y-59763328D01*
X74776598Y-58763328D02*
X74776598Y-59763328D01*
X74419455Y-58191900D02*
X74062312Y-59263328D01*
X74062312Y-59263328D02*
X74990883Y-59263328D01*
D10*
D11*
X151348026Y-62563328D02*
X151348026Y-61063328D01*
X152705170Y-62563328D02*
X152705170Y-61063328D01*
X152705170Y-62491900D02*
X152562312Y-62563328D01*
X152562312Y-62563328D02*
X152276598Y-62563328D01*
X152276598Y-62563328D02*
X152133741Y-62491900D01*
X152133741Y-62491900D02*
X152062312Y-62420471D01*
X152062312Y-62420471D02*
X151990884Y-62277614D01*
X151990884Y-62277614D02*
X151990884Y-61849042D01*
X151990884Y-61849042D02*
X152062312Y-61706185D01*
X152062312Y-61706185D02*
X152133741Y-61634757D01*
X152133741Y-61634757D02*
X152276598Y-61563328D01*
X152276598Y-61563328D02*
X152562312Y-61563328D01*
X152562312Y-61563328D02*
X152705170Y-61634757D01*
X153419455Y-62420471D02*
X153490884Y-62491900D01*
X153490884Y-62491900D02*
X153419455Y-62563328D01*
X153419455Y-62563328D02*
X153348027Y-62491900D01*
X153348027Y-62491900D02*
X153419455Y-62420471D01*
X153419455Y-62420471D02*
X153419455Y-62563328D01*
X153419455Y-61634757D02*
X153490884Y-61706185D01*
X153490884Y-61706185D02*
X153419455Y-61777614D01*
X153419455Y-61777614D02*
X153348027Y-61706185D01*
X153348027Y-61706185D02*
X153419455Y-61634757D01*
X153419455Y-61634757D02*
X153419455Y-61777614D01*
X156062313Y-62563328D02*
X155205170Y-62563328D01*
X155633741Y-62563328D02*
X155633741Y-61063328D01*
X155633741Y-61063328D02*
X155490884Y-61277614D01*
X155490884Y-61277614D02*
X155348027Y-61420471D01*
X155348027Y-61420471D02*
X155205170Y-61491900D01*
X157776598Y-60991900D02*
X156490884Y-62920471D01*
X159062313Y-62563328D02*
X158205170Y-62563328D01*
X158633741Y-62563328D02*
X158633741Y-61063328D01*
X158633741Y-61063328D02*
X158490884Y-61277614D01*
X158490884Y-61277614D02*
X158348027Y-61420471D01*
X158348027Y-61420471D02*
X158205170Y-61491900D01*
X160490884Y-62563328D02*
X159633741Y-62563328D01*
X160062312Y-62563328D02*
X160062312Y-61063328D01*
X160062312Y-61063328D02*
X159919455Y-61277614D01*
X159919455Y-61277614D02*
X159776598Y-61420471D01*
X159776598Y-61420471D02*
X159633741Y-61491900D01*
D10*
D11*
X64892200Y-53477200D02*
X172892200Y-53477200D01*
D10*
D13*
X66583928Y-54181638D02*
X67726785Y-54181638D01*
X66905357Y-56181638D02*
X67155357Y-54181638D01*
X68143452Y-56181638D02*
X68310119Y-54848304D01*
X68393452Y-54181638D02*
X68286309Y-54276876D01*
X68286309Y-54276876D02*
X68369643Y-54372114D01*
X68369643Y-54372114D02*
X68476786Y-54276876D01*
X68476786Y-54276876D02*
X68393452Y-54181638D01*
X68393452Y-54181638D02*
X68369643Y-54372114D01*
X68976786Y-54848304D02*
X69738690Y-54848304D01*
X69345833Y-54181638D02*
X69131548Y-55895923D01*
X69131548Y-55895923D02*
X69202976Y-56086400D01*
X69202976Y-56086400D02*
X69381548Y-56181638D01*
X69381548Y-56181638D02*
X69572024Y-56181638D01*
X70524405Y-56181638D02*
X70345833Y-56086400D01*
X70345833Y-56086400D02*
X70274405Y-55895923D01*
X70274405Y-55895923D02*
X70488690Y-54181638D01*
X72060119Y-56086400D02*
X71857738Y-56181638D01*
X71857738Y-56181638D02*
X71476785Y-56181638D01*
X71476785Y-56181638D02*
X71298214Y-56086400D01*
X71298214Y-56086400D02*
X71226785Y-55895923D01*
X71226785Y-55895923D02*
X71322024Y-55134019D01*
X71322024Y-55134019D02*
X71441071Y-54943542D01*
X71441071Y-54943542D02*
X71643452Y-54848304D01*
X71643452Y-54848304D02*
X72024404Y-54848304D01*
X72024404Y-54848304D02*
X72202976Y-54943542D01*
X72202976Y-54943542D02*
X72274404Y-55134019D01*
X72274404Y-55134019D02*
X72250595Y-55324495D01*
X72250595Y-55324495D02*
X71274404Y-55514971D01*
X73024405Y-55991161D02*
X73107738Y-56086400D01*
X73107738Y-56086400D02*
X73000595Y-56181638D01*
X73000595Y-56181638D02*
X72917262Y-56086400D01*
X72917262Y-56086400D02*
X73024405Y-55991161D01*
X73024405Y-55991161D02*
X73000595Y-56181638D01*
X73155357Y-54943542D02*
X73238690Y-55038780D01*
X73238690Y-55038780D02*
X73131548Y-55134019D01*
X73131548Y-55134019D02*
X73048214Y-55038780D01*
X73048214Y-55038780D02*
X73155357Y-54943542D01*
X73155357Y-54943542D02*
X73131548Y-55134019D01*
X75536310Y-54181638D02*
X76869643Y-54181638D01*
X76869643Y-54181638D02*
X75286310Y-56181638D01*
X75286310Y-56181638D02*
X76619643Y-56181638D01*
X77381548Y-56181638D02*
X77548215Y-54848304D01*
X77631548Y-54181638D02*
X77524405Y-54276876D01*
X77524405Y-54276876D02*
X77607739Y-54372114D01*
X77607739Y-54372114D02*
X77714882Y-54276876D01*
X77714882Y-54276876D02*
X77631548Y-54181638D01*
X77631548Y-54181638D02*
X77607739Y-54372114D01*
X78500596Y-54848304D02*
X78250596Y-56848304D01*
X78488691Y-54943542D02*
X78691072Y-54848304D01*
X78691072Y-54848304D02*
X79072024Y-54848304D01*
X79072024Y-54848304D02*
X79250596Y-54943542D01*
X79250596Y-54943542D02*
X79333929Y-55038780D01*
X79333929Y-55038780D02*
X79405358Y-55229257D01*
X79405358Y-55229257D02*
X79333929Y-55800685D01*
X79333929Y-55800685D02*
X79214882Y-55991161D01*
X79214882Y-55991161D02*
X79107739Y-56086400D01*
X79107739Y-56086400D02*
X78905358Y-56181638D01*
X78905358Y-56181638D02*
X78524405Y-56181638D01*
X78524405Y-56181638D02*
X78345834Y-56086400D01*
X80310120Y-54848304D02*
X80060120Y-56848304D01*
X80298215Y-54943542D02*
X80500596Y-54848304D01*
X80500596Y-54848304D02*
X80881548Y-54848304D01*
X80881548Y-54848304D02*
X81060120Y-54943542D01*
X81060120Y-54943542D02*
X81143453Y-55038780D01*
X81143453Y-55038780D02*
X81214882Y-55229257D01*
X81214882Y-55229257D02*
X81143453Y-55800685D01*
X81143453Y-55800685D02*
X81024406Y-55991161D01*
X81024406Y-55991161D02*
X80917263Y-56086400D01*
X80917263Y-56086400D02*
X80714882Y-56181638D01*
X80714882Y-56181638D02*
X80333929Y-56181638D01*
X80333929Y-56181638D02*
X80155358Y-56086400D01*
X81929168Y-54848304D02*
X82238692Y-56181638D01*
X82881549Y-54848304D02*
X82238692Y-56181638D01*
X82238692Y-56181638D02*
X81988692Y-56657828D01*
X81988692Y-56657828D02*
X81881549Y-56753066D01*
X81881549Y-56753066D02*
X81679168Y-56848304D01*
X85798216Y-55134019D02*
X86072026Y-55229257D01*
X86072026Y-55229257D02*
X86155359Y-55324495D01*
X86155359Y-55324495D02*
X86226788Y-55514971D01*
X86226788Y-55514971D02*
X86191073Y-55800685D01*
X86191073Y-55800685D02*
X86072026Y-55991161D01*
X86072026Y-55991161D02*
X85964883Y-56086400D01*
X85964883Y-56086400D02*
X85762502Y-56181638D01*
X85762502Y-56181638D02*
X85000597Y-56181638D01*
X85000597Y-56181638D02*
X85250597Y-54181638D01*
X85250597Y-54181638D02*
X85917264Y-54181638D01*
X85917264Y-54181638D02*
X86095835Y-54276876D01*
X86095835Y-54276876D02*
X86179169Y-54372114D01*
X86179169Y-54372114D02*
X86250597Y-54562590D01*
X86250597Y-54562590D02*
X86226788Y-54753066D01*
X86226788Y-54753066D02*
X86107740Y-54943542D01*
X86107740Y-54943542D02*
X86000597Y-55038780D01*
X86000597Y-55038780D02*
X85798216Y-55134019D01*
X85798216Y-55134019D02*
X85131550Y-55134019D01*
X87857740Y-56181638D02*
X87988692Y-55134019D01*
X87988692Y-55134019D02*
X87917264Y-54943542D01*
X87917264Y-54943542D02*
X87738692Y-54848304D01*
X87738692Y-54848304D02*
X87357740Y-54848304D01*
X87357740Y-54848304D02*
X87155359Y-54943542D01*
X87869645Y-56086400D02*
X87667264Y-56181638D01*
X87667264Y-56181638D02*
X87191073Y-56181638D01*
X87191073Y-56181638D02*
X87012502Y-56086400D01*
X87012502Y-56086400D02*
X86941073Y-55895923D01*
X86941073Y-55895923D02*
X86964883Y-55705447D01*
X86964883Y-55705447D02*
X87083931Y-55514971D01*
X87083931Y-55514971D02*
X87286312Y-55419733D01*
X87286312Y-55419733D02*
X87762502Y-55419733D01*
X87762502Y-55419733D02*
X87964883Y-55324495D01*
X89667264Y-56181638D02*
X89917264Y-54181638D01*
X89679169Y-56086400D02*
X89476788Y-56181638D01*
X89476788Y-56181638D02*
X89095836Y-56181638D01*
X89095836Y-56181638D02*
X88917264Y-56086400D01*
X88917264Y-56086400D02*
X88833931Y-55991161D01*
X88833931Y-55991161D02*
X88762502Y-55800685D01*
X88762502Y-55800685D02*
X88833931Y-55229257D01*
X88833931Y-55229257D02*
X88952978Y-55038780D01*
X88952978Y-55038780D02*
X89060121Y-54943542D01*
X89060121Y-54943542D02*
X89262502Y-54848304D01*
X89262502Y-54848304D02*
X89643455Y-54848304D01*
X89643455Y-54848304D02*
X89822026Y-54943542D01*
X91643455Y-54848304D02*
X91441074Y-56467352D01*
X91441074Y-56467352D02*
X91322026Y-56657828D01*
X91322026Y-56657828D02*
X91214883Y-56753066D01*
X91214883Y-56753066D02*
X91012502Y-56848304D01*
X91012502Y-56848304D02*
X90726788Y-56848304D01*
X90726788Y-56848304D02*
X90548217Y-56753066D01*
X91488693Y-56086400D02*
X91286312Y-56181638D01*
X91286312Y-56181638D02*
X90905360Y-56181638D01*
X90905360Y-56181638D02*
X90726788Y-56086400D01*
X90726788Y-56086400D02*
X90643455Y-55991161D01*
X90643455Y-55991161D02*
X90572026Y-55800685D01*
X90572026Y-55800685D02*
X90643455Y-55229257D01*
X90643455Y-55229257D02*
X90762502Y-55038780D01*
X90762502Y-55038780D02*
X90869645Y-54943542D01*
X90869645Y-54943542D02*
X91072026Y-54848304D01*
X91072026Y-54848304D02*
X91452979Y-54848304D01*
X91452979Y-54848304D02*
X91631550Y-54943542D01*
X93202979Y-56086400D02*
X93000598Y-56181638D01*
X93000598Y-56181638D02*
X92619645Y-56181638D01*
X92619645Y-56181638D02*
X92441074Y-56086400D01*
X92441074Y-56086400D02*
X92369645Y-55895923D01*
X92369645Y-55895923D02*
X92464884Y-55134019D01*
X92464884Y-55134019D02*
X92583931Y-54943542D01*
X92583931Y-54943542D02*
X92786312Y-54848304D01*
X92786312Y-54848304D02*
X93167264Y-54848304D01*
X93167264Y-54848304D02*
X93345836Y-54943542D01*
X93345836Y-54943542D02*
X93417264Y-55134019D01*
X93417264Y-55134019D02*
X93393455Y-55324495D01*
X93393455Y-55324495D02*
X92417264Y-55514971D01*
D10*
D11*
X66848026Y-51577614D02*
X66348026Y-51577614D01*
X66348026Y-52363328D02*
X66348026Y-50863328D01*
X66348026Y-50863328D02*
X67062312Y-50863328D01*
X67633740Y-52363328D02*
X67633740Y-51363328D01*
X67633740Y-50863328D02*
X67562312Y-50934757D01*
X67562312Y-50934757D02*
X67633740Y-51006185D01*
X67633740Y-51006185D02*
X67705169Y-50934757D01*
X67705169Y-50934757D02*
X67633740Y-50863328D01*
X67633740Y-50863328D02*
X67633740Y-51006185D01*
X68562312Y-52363328D02*
X68419455Y-52291900D01*
X68419455Y-52291900D02*
X68348026Y-52149042D01*
X68348026Y-52149042D02*
X68348026Y-50863328D01*
X69705169Y-52291900D02*
X69562312Y-52363328D01*
X69562312Y-52363328D02*
X69276598Y-52363328D01*
X69276598Y-52363328D02*
X69133740Y-52291900D01*
X69133740Y-52291900D02*
X69062312Y-52149042D01*
X69062312Y-52149042D02*
X69062312Y-51577614D01*
X69062312Y-51577614D02*
X69133740Y-51434757D01*
X69133740Y-51434757D02*
X69276598Y-51363328D01*
X69276598Y-51363328D02*
X69562312Y-51363328D01*
X69562312Y-51363328D02*
X69705169Y-51434757D01*
X69705169Y-51434757D02*
X69776598Y-51577614D01*
X69776598Y-51577614D02*
X69776598Y-51720471D01*
X69776598Y-51720471D02*
X69062312Y-51863328D01*
X70419454Y-52220471D02*
X70490883Y-52291900D01*
X70490883Y-52291900D02*
X70419454Y-52363328D01*
X70419454Y-52363328D02*
X70348026Y-52291900D01*
X70348026Y-52291900D02*
X70419454Y-52220471D01*
X70419454Y-52220471D02*
X70419454Y-52363328D01*
X70419454Y-51434757D02*
X70490883Y-51506185D01*
X70490883Y-51506185D02*
X70419454Y-51577614D01*
X70419454Y-51577614D02*
X70348026Y-51506185D01*
X70348026Y-51506185D02*
X70419454Y-51434757D01*
X70419454Y-51434757D02*
X70419454Y-51577614D01*
X72133740Y-51363328D02*
X72919455Y-51363328D01*
X72919455Y-51363328D02*
X72133740Y-52363328D01*
X72133740Y-52363328D02*
X72919455Y-52363328D01*
X73490883Y-52363328D02*
X73490883Y-51363328D01*
X73490883Y-50863328D02*
X73419455Y-50934757D01*
X73419455Y-50934757D02*
X73490883Y-51006185D01*
X73490883Y-51006185D02*
X73562312Y-50934757D01*
X73562312Y-50934757D02*
X73490883Y-50863328D01*
X73490883Y-50863328D02*
X73490883Y-51006185D01*
X74205169Y-51363328D02*
X74205169Y-52863328D01*
X74205169Y-51434757D02*
X74348027Y-51363328D01*
X74348027Y-51363328D02*
X74633741Y-51363328D01*
X74633741Y-51363328D02*
X74776598Y-51434757D01*
X74776598Y-51434757D02*
X74848027Y-51506185D01*
X74848027Y-51506185D02*
X74919455Y-51649042D01*
X74919455Y-51649042D02*
X74919455Y-52077614D01*
X74919455Y-52077614D02*
X74848027Y-52220471D01*
X74848027Y-52220471D02*
X74776598Y-52291900D01*
X74776598Y-52291900D02*
X74633741Y-52363328D01*
X74633741Y-52363328D02*
X74348027Y-52363328D01*
X74348027Y-52363328D02*
X74205169Y-52291900D01*
X75562312Y-51363328D02*
X75562312Y-52863328D01*
X75562312Y-51434757D02*
X75705170Y-51363328D01*
X75705170Y-51363328D02*
X75990884Y-51363328D01*
X75990884Y-51363328D02*
X76133741Y-51434757D01*
X76133741Y-51434757D02*
X76205170Y-51506185D01*
X76205170Y-51506185D02*
X76276598Y-51649042D01*
X76276598Y-51649042D02*
X76276598Y-52077614D01*
X76276598Y-52077614D02*
X76205170Y-52220471D01*
X76205170Y-52220471D02*
X76133741Y-52291900D01*
X76133741Y-52291900D02*
X75990884Y-52363328D01*
X75990884Y-52363328D02*
X75705170Y-52363328D01*
X75705170Y-52363328D02*
X75562312Y-52291900D01*
X76776598Y-51363328D02*
X77133741Y-52363328D01*
X77490884Y-51363328D02*
X77133741Y-52363328D01*
X77133741Y-52363328D02*
X76990884Y-52720471D01*
X76990884Y-52720471D02*
X76919455Y-52791900D01*
X76919455Y-52791900D02*
X76776598Y-52863328D01*
X78062312Y-51791900D02*
X79205170Y-51791900D01*
X79919455Y-52363328D02*
X79919455Y-50863328D01*
X79919455Y-51434757D02*
X80062313Y-51363328D01*
X80062313Y-51363328D02*
X80348027Y-51363328D01*
X80348027Y-51363328D02*
X80490884Y-51434757D01*
X80490884Y-51434757D02*
X80562313Y-51506185D01*
X80562313Y-51506185D02*
X80633741Y-51649042D01*
X80633741Y-51649042D02*
X80633741Y-52077614D01*
X80633741Y-52077614D02*
X80562313Y-52220471D01*
X80562313Y-52220471D02*
X80490884Y-52291900D01*
X80490884Y-52291900D02*
X80348027Y-52363328D01*
X80348027Y-52363328D02*
X80062313Y-52363328D01*
X80062313Y-52363328D02*
X79919455Y-52291900D01*
X81919456Y-52363328D02*
X81919456Y-51577614D01*
X81919456Y-51577614D02*
X81848027Y-51434757D01*
X81848027Y-51434757D02*
X81705170Y-51363328D01*
X81705170Y-51363328D02*
X81419456Y-51363328D01*
X81419456Y-51363328D02*
X81276598Y-51434757D01*
X81919456Y-52291900D02*
X81776598Y-52363328D01*
X81776598Y-52363328D02*
X81419456Y-52363328D01*
X81419456Y-52363328D02*
X81276598Y-52291900D01*
X81276598Y-52291900D02*
X81205170Y-52149042D01*
X81205170Y-52149042D02*
X81205170Y-52006185D01*
X81205170Y-52006185D02*
X81276598Y-51863328D01*
X81276598Y-51863328D02*
X81419456Y-51791900D01*
X81419456Y-51791900D02*
X81776598Y-51791900D01*
X81776598Y-51791900D02*
X81919456Y-51720471D01*
X83276599Y-52363328D02*
X83276599Y-50863328D01*
X83276599Y-52291900D02*
X83133741Y-52363328D01*
X83133741Y-52363328D02*
X82848027Y-52363328D01*
X82848027Y-52363328D02*
X82705170Y-52291900D01*
X82705170Y-52291900D02*
X82633741Y-52220471D01*
X82633741Y-52220471D02*
X82562313Y-52077614D01*
X82562313Y-52077614D02*
X82562313Y-51649042D01*
X82562313Y-51649042D02*
X82633741Y-51506185D01*
X82633741Y-51506185D02*
X82705170Y-51434757D01*
X82705170Y-51434757D02*
X82848027Y-51363328D01*
X82848027Y-51363328D02*
X83133741Y-51363328D01*
X83133741Y-51363328D02*
X83276599Y-51434757D01*
X84633742Y-51363328D02*
X84633742Y-52577614D01*
X84633742Y-52577614D02*
X84562313Y-52720471D01*
X84562313Y-52720471D02*
X84490884Y-52791900D01*
X84490884Y-52791900D02*
X84348027Y-52863328D01*
X84348027Y-52863328D02*
X84133742Y-52863328D01*
X84133742Y-52863328D02*
X83990884Y-52791900D01*
X84633742Y-52291900D02*
X84490884Y-52363328D01*
X84490884Y-52363328D02*
X84205170Y-52363328D01*
X84205170Y-52363328D02*
X84062313Y-52291900D01*
X84062313Y-52291900D02*
X83990884Y-52220471D01*
X83990884Y-52220471D02*
X83919456Y-52077614D01*
X83919456Y-52077614D02*
X83919456Y-51649042D01*
X83919456Y-51649042D02*
X83990884Y-51506185D01*
X83990884Y-51506185D02*
X84062313Y-51434757D01*
X84062313Y-51434757D02*
X84205170Y-51363328D01*
X84205170Y-51363328D02*
X84490884Y-51363328D01*
X84490884Y-51363328D02*
X84633742Y-51434757D01*
X85919456Y-52291900D02*
X85776599Y-52363328D01*
X85776599Y-52363328D02*
X85490885Y-52363328D01*
X85490885Y-52363328D02*
X85348027Y-52291900D01*
X85348027Y-52291900D02*
X85276599Y-52149042D01*
X85276599Y-52149042D02*
X85276599Y-51577614D01*
X85276599Y-51577614D02*
X85348027Y-51434757D01*
X85348027Y-51434757D02*
X85490885Y-51363328D01*
X85490885Y-51363328D02*
X85776599Y-51363328D01*
X85776599Y-51363328D02*
X85919456Y-51434757D01*
X85919456Y-51434757D02*
X85990885Y-51577614D01*
X85990885Y-51577614D02*
X85990885Y-51720471D01*
X85990885Y-51720471D02*
X85276599Y-51863328D01*
X86633741Y-52220471D02*
X86705170Y-52291900D01*
X86705170Y-52291900D02*
X86633741Y-52363328D01*
X86633741Y-52363328D02*
X86562313Y-52291900D01*
X86562313Y-52291900D02*
X86633741Y-52220471D01*
X86633741Y-52220471D02*
X86633741Y-52363328D01*
X87348027Y-52363328D02*
X87348027Y-50863328D01*
X87490885Y-51791900D02*
X87919456Y-52363328D01*
X87919456Y-51363328D02*
X87348027Y-51934757D01*
X88562313Y-52363328D02*
X88562313Y-51363328D01*
X88562313Y-50863328D02*
X88490885Y-50934757D01*
X88490885Y-50934757D02*
X88562313Y-51006185D01*
X88562313Y-51006185D02*
X88633742Y-50934757D01*
X88633742Y-50934757D02*
X88562313Y-50863328D01*
X88562313Y-50863328D02*
X88562313Y-51006185D01*
X89919457Y-52291900D02*
X89776599Y-52363328D01*
X89776599Y-52363328D02*
X89490885Y-52363328D01*
X89490885Y-52363328D02*
X89348028Y-52291900D01*
X89348028Y-52291900D02*
X89276599Y-52220471D01*
X89276599Y-52220471D02*
X89205171Y-52077614D01*
X89205171Y-52077614D02*
X89205171Y-51649042D01*
X89205171Y-51649042D02*
X89276599Y-51506185D01*
X89276599Y-51506185D02*
X89348028Y-51434757D01*
X89348028Y-51434757D02*
X89490885Y-51363328D01*
X89490885Y-51363328D02*
X89776599Y-51363328D01*
X89776599Y-51363328D02*
X89919457Y-51434757D01*
X91205171Y-52363328D02*
X91205171Y-51577614D01*
X91205171Y-51577614D02*
X91133742Y-51434757D01*
X91133742Y-51434757D02*
X90990885Y-51363328D01*
X90990885Y-51363328D02*
X90705171Y-51363328D01*
X90705171Y-51363328D02*
X90562313Y-51434757D01*
X91205171Y-52291900D02*
X91062313Y-52363328D01*
X91062313Y-52363328D02*
X90705171Y-52363328D01*
X90705171Y-52363328D02*
X90562313Y-52291900D01*
X90562313Y-52291900D02*
X90490885Y-52149042D01*
X90490885Y-52149042D02*
X90490885Y-52006185D01*
X90490885Y-52006185D02*
X90562313Y-51863328D01*
X90562313Y-51863328D02*
X90705171Y-51791900D01*
X90705171Y-51791900D02*
X91062313Y-51791900D01*
X91062313Y-51791900D02*
X91205171Y-51720471D01*
X92562314Y-52363328D02*
X92562314Y-50863328D01*
X92562314Y-52291900D02*
X92419456Y-52363328D01*
X92419456Y-52363328D02*
X92133742Y-52363328D01*
X92133742Y-52363328D02*
X91990885Y-52291900D01*
X91990885Y-52291900D02*
X91919456Y-52220471D01*
X91919456Y-52220471D02*
X91848028Y-52077614D01*
X91848028Y-52077614D02*
X91848028Y-51649042D01*
X91848028Y-51649042D02*
X91919456Y-51506185D01*
X91919456Y-51506185D02*
X91990885Y-51434757D01*
X91990885Y-51434757D02*
X92133742Y-51363328D01*
X92133742Y-51363328D02*
X92419456Y-51363328D01*
X92419456Y-51363328D02*
X92562314Y-51434757D01*
X92919457Y-52506185D02*
X94062314Y-52506185D01*
X94419456Y-51363328D02*
X94419456Y-52863328D01*
X94419456Y-51434757D02*
X94562314Y-51363328D01*
X94562314Y-51363328D02*
X94848028Y-51363328D01*
X94848028Y-51363328D02*
X94990885Y-51434757D01*
X94990885Y-51434757D02*
X95062314Y-51506185D01*
X95062314Y-51506185D02*
X95133742Y-51649042D01*
X95133742Y-51649042D02*
X95133742Y-52077614D01*
X95133742Y-52077614D02*
X95062314Y-52220471D01*
X95062314Y-52220471D02*
X94990885Y-52291900D01*
X94990885Y-52291900D02*
X94848028Y-52363328D01*
X94848028Y-52363328D02*
X94562314Y-52363328D01*
X94562314Y-52363328D02*
X94419456Y-52291900D01*
X96419457Y-52291900D02*
X96276599Y-52363328D01*
X96276599Y-52363328D02*
X95990885Y-52363328D01*
X95990885Y-52363328D02*
X95848028Y-52291900D01*
X95848028Y-52291900D02*
X95776599Y-52220471D01*
X95776599Y-52220471D02*
X95705171Y-52077614D01*
X95705171Y-52077614D02*
X95705171Y-51649042D01*
X95705171Y-51649042D02*
X95776599Y-51506185D01*
X95776599Y-51506185D02*
X95848028Y-51434757D01*
X95848028Y-51434757D02*
X95990885Y-51363328D01*
X95990885Y-51363328D02*
X96276599Y-51363328D01*
X96276599Y-51363328D02*
X96419457Y-51434757D01*
X97062313Y-52363328D02*
X97062313Y-50863328D01*
X97062313Y-51434757D02*
X97205171Y-51363328D01*
X97205171Y-51363328D02*
X97490885Y-51363328D01*
X97490885Y-51363328D02*
X97633742Y-51434757D01*
X97633742Y-51434757D02*
X97705171Y-51506185D01*
X97705171Y-51506185D02*
X97776599Y-51649042D01*
X97776599Y-51649042D02*
X97776599Y-52077614D01*
X97776599Y-52077614D02*
X97705171Y-52220471D01*
X97705171Y-52220471D02*
X97633742Y-52291900D01*
X97633742Y-52291900D02*
X97490885Y-52363328D01*
X97490885Y-52363328D02*
X97205171Y-52363328D01*
X97205171Y-52363328D02*
X97062313Y-52291900D01*
D10*
D11*
X64892200Y-47477200D02*
X172892200Y-47477200D01*
D10*
D11*
X66276598Y-49591900D02*
X66490884Y-49663328D01*
X66490884Y-49663328D02*
X66848026Y-49663328D01*
X66848026Y-49663328D02*
X66990884Y-49591900D01*
X66990884Y-49591900D02*
X67062312Y-49520471D01*
X67062312Y-49520471D02*
X67133741Y-49377614D01*
X67133741Y-49377614D02*
X67133741Y-49234757D01*
X67133741Y-49234757D02*
X67062312Y-49091900D01*
X67062312Y-49091900D02*
X66990884Y-49020471D01*
X66990884Y-49020471D02*
X66848026Y-48949042D01*
X66848026Y-48949042D02*
X66562312Y-48877614D01*
X66562312Y-48877614D02*
X66419455Y-48806185D01*
X66419455Y-48806185D02*
X66348026Y-48734757D01*
X66348026Y-48734757D02*
X66276598Y-48591900D01*
X66276598Y-48591900D02*
X66276598Y-48449042D01*
X66276598Y-48449042D02*
X66348026Y-48306185D01*
X66348026Y-48306185D02*
X66419455Y-48234757D01*
X66419455Y-48234757D02*
X66562312Y-48163328D01*
X66562312Y-48163328D02*
X66919455Y-48163328D01*
X66919455Y-48163328D02*
X67133741Y-48234757D01*
X67776597Y-49663328D02*
X67776597Y-48163328D01*
X68419455Y-49663328D02*
X68419455Y-48877614D01*
X68419455Y-48877614D02*
X68348026Y-48734757D01*
X68348026Y-48734757D02*
X68205169Y-48663328D01*
X68205169Y-48663328D02*
X67990883Y-48663328D01*
X67990883Y-48663328D02*
X67848026Y-48734757D01*
X67848026Y-48734757D02*
X67776597Y-48806185D01*
X69705169Y-49591900D02*
X69562312Y-49663328D01*
X69562312Y-49663328D02*
X69276598Y-49663328D01*
X69276598Y-49663328D02*
X69133740Y-49591900D01*
X69133740Y-49591900D02*
X69062312Y-49449042D01*
X69062312Y-49449042D02*
X69062312Y-48877614D01*
X69062312Y-48877614D02*
X69133740Y-48734757D01*
X69133740Y-48734757D02*
X69276598Y-48663328D01*
X69276598Y-48663328D02*
X69562312Y-48663328D01*
X69562312Y-48663328D02*
X69705169Y-48734757D01*
X69705169Y-48734757D02*
X69776598Y-48877614D01*
X69776598Y-48877614D02*
X69776598Y-49020471D01*
X69776598Y-49020471D02*
X69062312Y-49163328D01*
X70990883Y-49591900D02*
X70848026Y-49663328D01*
X70848026Y-49663328D02*
X70562312Y-49663328D01*
X70562312Y-49663328D02*
X70419454Y-49591900D01*
X70419454Y-49591900D02*
X70348026Y-49449042D01*
X70348026Y-49449042D02*
X70348026Y-48877614D01*
X70348026Y-48877614D02*
X70419454Y-48734757D01*
X70419454Y-48734757D02*
X70562312Y-48663328D01*
X70562312Y-48663328D02*
X70848026Y-48663328D01*
X70848026Y-48663328D02*
X70990883Y-48734757D01*
X70990883Y-48734757D02*
X71062312Y-48877614D01*
X71062312Y-48877614D02*
X71062312Y-49020471D01*
X71062312Y-49020471D02*
X70348026Y-49163328D01*
X71490883Y-48663328D02*
X72062311Y-48663328D01*
X71705168Y-48163328D02*
X71705168Y-49449042D01*
X71705168Y-49449042D02*
X71776597Y-49591900D01*
X71776597Y-49591900D02*
X71919454Y-49663328D01*
X71919454Y-49663328D02*
X72062311Y-49663328D01*
X72562311Y-49520471D02*
X72633740Y-49591900D01*
X72633740Y-49591900D02*
X72562311Y-49663328D01*
X72562311Y-49663328D02*
X72490883Y-49591900D01*
X72490883Y-49591900D02*
X72562311Y-49520471D01*
X72562311Y-49520471D02*
X72562311Y-49663328D01*
X72562311Y-48734757D02*
X72633740Y-48806185D01*
X72633740Y-48806185D02*
X72562311Y-48877614D01*
X72562311Y-48877614D02*
X72490883Y-48806185D01*
X72490883Y-48806185D02*
X72562311Y-48734757D01*
X72562311Y-48734757D02*
X72562311Y-48877614D01*
D10*
D12*
X66446710Y-46655528D02*
X66446710Y-45155528D01*
X66446710Y-45155528D02*
X66803853Y-45155528D01*
X66803853Y-45155528D02*
X67018139Y-45226957D01*
X67018139Y-45226957D02*
X67160996Y-45369814D01*
X67160996Y-45369814D02*
X67232425Y-45512671D01*
X67232425Y-45512671D02*
X67303853Y-45798385D01*
X67303853Y-45798385D02*
X67303853Y-46012671D01*
X67303853Y-46012671D02*
X67232425Y-46298385D01*
X67232425Y-46298385D02*
X67160996Y-46441242D01*
X67160996Y-46441242D02*
X67018139Y-46584100D01*
X67018139Y-46584100D02*
X66803853Y-46655528D01*
X66803853Y-46655528D02*
X66446710Y-46655528D01*
X68803853Y-46512671D02*
X68732425Y-46584100D01*
X68732425Y-46584100D02*
X68518139Y-46655528D01*
X68518139Y-46655528D02*
X68375282Y-46655528D01*
X68375282Y-46655528D02*
X68160996Y-46584100D01*
X68160996Y-46584100D02*
X68018139Y-46441242D01*
X68018139Y-46441242D02*
X67946710Y-46298385D01*
X67946710Y-46298385D02*
X67875282Y-46012671D01*
X67875282Y-46012671D02*
X67875282Y-45798385D01*
X67875282Y-45798385D02*
X67946710Y-45512671D01*
X67946710Y-45512671D02*
X68018139Y-45369814D01*
X68018139Y-45369814D02*
X68160996Y-45226957D01*
X68160996Y-45226957D02*
X68375282Y-45155528D01*
X68375282Y-45155528D02*
X68518139Y-45155528D01*
X68518139Y-45155528D02*
X68732425Y-45226957D01*
X68732425Y-45226957D02*
X68803853Y-45298385D01*
X69303853Y-45155528D02*
X70303853Y-45155528D01*
X70303853Y-45155528D02*
X69303853Y-46655528D01*
X69303853Y-46655528D02*
X70303853Y-46655528D01*
X70875281Y-46655528D02*
X70875281Y-45655528D01*
X70875281Y-45155528D02*
X70803853Y-45226957D01*
X70803853Y-45226957D02*
X70875281Y-45298385D01*
X70875281Y-45298385D02*
X70946710Y-45226957D01*
X70946710Y-45226957D02*
X70875281Y-45155528D01*
X70875281Y-45155528D02*
X70875281Y-45298385D01*
X72232425Y-46655528D02*
X72232425Y-45869814D01*
X72232425Y-45869814D02*
X72160996Y-45726957D01*
X72160996Y-45726957D02*
X72018139Y-45655528D01*
X72018139Y-45655528D02*
X71732425Y-45655528D01*
X71732425Y-45655528D02*
X71589567Y-45726957D01*
X72232425Y-46584100D02*
X72089567Y-46655528D01*
X72089567Y-46655528D02*
X71732425Y-46655528D01*
X71732425Y-46655528D02*
X71589567Y-46584100D01*
X71589567Y-46584100D02*
X71518139Y-46441242D01*
X71518139Y-46441242D02*
X71518139Y-46298385D01*
X71518139Y-46298385D02*
X71589567Y-46155528D01*
X71589567Y-46155528D02*
X71732425Y-46084100D01*
X71732425Y-46084100D02*
X72089567Y-46084100D01*
X72089567Y-46084100D02*
X72232425Y-46012671D01*
D10*
D11*
X66348026Y-43663328D02*
X66348026Y-42163328D01*
X66348026Y-42163328D02*
X66919455Y-42163328D01*
X66919455Y-42163328D02*
X67062312Y-42234757D01*
X67062312Y-42234757D02*
X67133741Y-42306185D01*
X67133741Y-42306185D02*
X67205169Y-42449042D01*
X67205169Y-42449042D02*
X67205169Y-42663328D01*
X67205169Y-42663328D02*
X67133741Y-42806185D01*
X67133741Y-42806185D02*
X67062312Y-42877614D01*
X67062312Y-42877614D02*
X66919455Y-42949042D01*
X66919455Y-42949042D02*
X66348026Y-42949042D01*
X67848026Y-43663328D02*
X67848026Y-42663328D01*
X67848026Y-42949042D02*
X67919455Y-42806185D01*
X67919455Y-42806185D02*
X67990884Y-42734757D01*
X67990884Y-42734757D02*
X68133741Y-42663328D01*
X68133741Y-42663328D02*
X68276598Y-42663328D01*
X68990883Y-43663328D02*
X68848026Y-43591900D01*
X68848026Y-43591900D02*
X68776597Y-43520471D01*
X68776597Y-43520471D02*
X68705169Y-43377614D01*
X68705169Y-43377614D02*
X68705169Y-42949042D01*
X68705169Y-42949042D02*
X68776597Y-42806185D01*
X68776597Y-42806185D02*
X68848026Y-42734757D01*
X68848026Y-42734757D02*
X68990883Y-42663328D01*
X68990883Y-42663328D02*
X69205169Y-42663328D01*
X69205169Y-42663328D02*
X69348026Y-42734757D01*
X69348026Y-42734757D02*
X69419455Y-42806185D01*
X69419455Y-42806185D02*
X69490883Y-42949042D01*
X69490883Y-42949042D02*
X69490883Y-43377614D01*
X69490883Y-43377614D02*
X69419455Y-43520471D01*
X69419455Y-43520471D02*
X69348026Y-43591900D01*
X69348026Y-43591900D02*
X69205169Y-43663328D01*
X69205169Y-43663328D02*
X68990883Y-43663328D01*
X69919455Y-42663328D02*
X70490883Y-42663328D01*
X70133740Y-42163328D02*
X70133740Y-43449042D01*
X70133740Y-43449042D02*
X70205169Y-43591900D01*
X70205169Y-43591900D02*
X70348026Y-43663328D01*
X70348026Y-43663328D02*
X70490883Y-43663328D01*
X71205169Y-43663328D02*
X71062312Y-43591900D01*
X71062312Y-43591900D02*
X70990883Y-43520471D01*
X70990883Y-43520471D02*
X70919455Y-43377614D01*
X70919455Y-43377614D02*
X70919455Y-42949042D01*
X70919455Y-42949042D02*
X70990883Y-42806185D01*
X70990883Y-42806185D02*
X71062312Y-42734757D01*
X71062312Y-42734757D02*
X71205169Y-42663328D01*
X71205169Y-42663328D02*
X71419455Y-42663328D01*
X71419455Y-42663328D02*
X71562312Y-42734757D01*
X71562312Y-42734757D02*
X71633741Y-42806185D01*
X71633741Y-42806185D02*
X71705169Y-42949042D01*
X71705169Y-42949042D02*
X71705169Y-43377614D01*
X71705169Y-43377614D02*
X71633741Y-43520471D01*
X71633741Y-43520471D02*
X71562312Y-43591900D01*
X71562312Y-43591900D02*
X71419455Y-43663328D01*
X71419455Y-43663328D02*
X71205169Y-43663328D01*
X73490883Y-43663328D02*
X73490883Y-42163328D01*
X73490883Y-42163328D02*
X73848026Y-42163328D01*
X73848026Y-42163328D02*
X74062312Y-42234757D01*
X74062312Y-42234757D02*
X74205169Y-42377614D01*
X74205169Y-42377614D02*
X74276598Y-42520471D01*
X74276598Y-42520471D02*
X74348026Y-42806185D01*
X74348026Y-42806185D02*
X74348026Y-43020471D01*
X74348026Y-43020471D02*
X74276598Y-43306185D01*
X74276598Y-43306185D02*
X74205169Y-43449042D01*
X74205169Y-43449042D02*
X74062312Y-43591900D01*
X74062312Y-43591900D02*
X73848026Y-43663328D01*
X73848026Y-43663328D02*
X73490883Y-43663328D01*
X75205169Y-43663328D02*
X75062312Y-43591900D01*
X75062312Y-43591900D02*
X74990883Y-43520471D01*
X74990883Y-43520471D02*
X74919455Y-43377614D01*
X74919455Y-43377614D02*
X74919455Y-42949042D01*
X74919455Y-42949042D02*
X74990883Y-42806185D01*
X74990883Y-42806185D02*
X75062312Y-42734757D01*
X75062312Y-42734757D02*
X75205169Y-42663328D01*
X75205169Y-42663328D02*
X75419455Y-42663328D01*
X75419455Y-42663328D02*
X75562312Y-42734757D01*
X75562312Y-42734757D02*
X75633741Y-42806185D01*
X75633741Y-42806185D02*
X75705169Y-42949042D01*
X75705169Y-42949042D02*
X75705169Y-43377614D01*
X75705169Y-43377614D02*
X75633741Y-43520471D01*
X75633741Y-43520471D02*
X75562312Y-43591900D01*
X75562312Y-43591900D02*
X75419455Y-43663328D01*
X75419455Y-43663328D02*
X75205169Y-43663328D01*
X76276598Y-43591900D02*
X76419455Y-43663328D01*
X76419455Y-43663328D02*
X76705169Y-43663328D01*
X76705169Y-43663328D02*
X76848026Y-43591900D01*
X76848026Y-43591900D02*
X76919455Y-43449042D01*
X76919455Y-43449042D02*
X76919455Y-43377614D01*
X76919455Y-43377614D02*
X76848026Y-43234757D01*
X76848026Y-43234757D02*
X76705169Y-43163328D01*
X76705169Y-43163328D02*
X76490884Y-43163328D01*
X76490884Y-43163328D02*
X76348026Y-43091900D01*
X76348026Y-43091900D02*
X76276598Y-42949042D01*
X76276598Y-42949042D02*
X76276598Y-42877614D01*
X76276598Y-42877614D02*
X76348026Y-42734757D01*
X76348026Y-42734757D02*
X76490884Y-42663328D01*
X76490884Y-42663328D02*
X76705169Y-42663328D01*
X76705169Y-42663328D02*
X76848026Y-42734757D01*
D10*
D11*
X84892200Y-57477200D02*
X84892200Y-60477200D01*
D10*
D11*
X148892200Y-57477200D02*
X148892200Y-63977200D01*
D14*
%TO.P,D45,1,K*%
%TO.N,VCC*%
X40380000Y10037500D03*
%TO.P,D45,2,A*%
%TO.N,VBUS*%
X40380000Y7237500D03*
%TD*%
D15*
%TO.P,D5,1,VDD*%
%TO.N,VCC*%
X69992000Y64640000D03*
%TO.P,D5,2,DOUT*%
%TO.N,Net-(D5-DOUT)*%
X69992000Y67940000D03*
%TO.P,D5,3,VSS*%
%TO.N,GND*%
X65092000Y67940000D03*
%TO.P,D5,4,DIN*%
%TO.N,Net-(D4-DOUT)*%
X65092000Y64640000D03*
%TD*%
%TO.P,D23,1,VDD*%
%TO.N,VCC*%
X45632000Y44780000D03*
%TO.P,D23,2,DOUT*%
%TO.N,Net-(D23-DOUT)*%
X45632000Y48080000D03*
%TO.P,D23,3,VSS*%
%TO.N,GND*%
X40732000Y48080000D03*
%TO.P,D23,4,DIN*%
%TO.N,Net-(D22-DOUT)*%
X40732000Y44780000D03*
%TD*%
%TO.P,D18,1,VDD*%
%TO.N,VCC*%
X53752000Y58020000D03*
%TO.P,D18,2,DOUT*%
%TO.N,Net-(D18-DOUT)*%
X53752000Y61320000D03*
%TO.P,D18,3,VSS*%
%TO.N,GND*%
X48852000Y61320000D03*
%TO.P,D18,4,DIN*%
%TO.N,Net-(D17-DOUT)*%
X48852000Y58020000D03*
%TD*%
%TO.P,D36,1,VDD*%
%TO.N,VCC*%
X37512000Y84500000D03*
%TO.P,D36,2,DOUT*%
%TO.N,Net-(D36-DOUT)*%
X37512000Y87800000D03*
%TO.P,D36,3,VSS*%
%TO.N,GND*%
X32612000Y87800000D03*
%TO.P,D36,4,DIN*%
%TO.N,Net-(D35-DOUT)*%
X32612000Y84500000D03*
%TD*%
D16*
%TO.P,C17,1*%
%TO.N,GND*%
X50512000Y89870000D03*
%TO.P,C17,2*%
%TO.N,VCC*%
X52062000Y89870000D03*
%TD*%
D15*
%TO.P,D24,1,VDD*%
%TO.N,VCC*%
X45632000Y51400000D03*
%TO.P,D24,2,DOUT*%
%TO.N,Net-(D24-DOUT)*%
X45632000Y54700000D03*
%TO.P,D24,3,VSS*%
%TO.N,GND*%
X40732000Y54700000D03*
%TO.P,D24,4,DIN*%
%TO.N,Net-(D23-DOUT)*%
X40732000Y51400000D03*
%TD*%
D17*
%TO.P,FID2,*%
%TO.N,*%
X12070000Y7440000D03*
%TD*%
D18*
%TO.P,C22,1*%
%TO.N,GND*%
X20370000Y34550000D03*
%TO.P,C22,2*%
%TO.N,+3.3V*%
X18820000Y34550000D03*
%TD*%
D15*
%TO.P,D7,1,VDD*%
%TO.N,VCC*%
X69992000Y77880000D03*
%TO.P,D7,2,DOUT*%
%TO.N,Net-(D7-DOUT)*%
X69992000Y81180000D03*
%TO.P,D7,3,VSS*%
%TO.N,GND*%
X65092000Y81180000D03*
%TO.P,D7,4,DIN*%
%TO.N,Net-(D6-DOUT)*%
X65092000Y77880000D03*
%TD*%
D19*
%TO.P,J2,A1,GND*%
%TO.N,GND*%
X43972000Y6770000D03*
%TO.P,J2,A4,VBUS*%
%TO.N,VBUS*%
X44772000Y6770000D03*
D20*
%TO.P,J2,A5,CC1*%
%TO.N,Net-(J2-CC1)*%
X45922000Y6770000D03*
%TO.P,J2,A6,D+*%
%TO.N,Net-(D44-K-Pad2)*%
X46922000Y6770000D03*
%TO.P,J2,A7,D-*%
%TO.N,Net-(D44-K-Pad1)*%
X47422000Y6770000D03*
%TO.P,J2,A8,SBU1*%
%TO.N,unconnected-(J2-SBU1-PadA8)*%
X48422000Y6770000D03*
D19*
%TO.P,J2,A9,VBUS*%
%TO.N,VBUS*%
X49572000Y6770000D03*
%TO.P,J2,A12,GND*%
%TO.N,GND*%
X50372000Y6770000D03*
%TO.P,J2,B1,GND*%
X50372000Y6770000D03*
%TO.P,J2,B4,VBUS*%
%TO.N,VBUS*%
X49572000Y6770000D03*
D20*
%TO.P,J2,B5,CC2*%
%TO.N,Net-(J2-CC2)*%
X48922000Y6770000D03*
%TO.P,J2,B6,D+*%
%TO.N,Net-(D44-K-Pad2)*%
X47922000Y6770000D03*
%TO.P,J2,B7,D-*%
%TO.N,Net-(D44-K-Pad1)*%
X46422000Y6770000D03*
%TO.P,J2,B8,SBU2*%
%TO.N,unconnected-(J2-SBU2-PadB8)*%
X45422000Y6770000D03*
D19*
%TO.P,J2,B9,VBUS*%
%TO.N,VBUS*%
X44772000Y6770000D03*
%TO.P,J2,B12,GND*%
%TO.N,GND*%
X43972000Y6770000D03*
D21*
%TO.P,J2,S1,SHIELD*%
X42852000Y6130000D03*
D22*
X42852000Y1950000D03*
D21*
X51492000Y6130000D03*
D22*
X51492000Y1950000D03*
%TD*%
D15*
%TO.P,D13,1,VDD*%
%TO.N,VCC*%
X61872000Y71260000D03*
%TO.P,D13,2,DOUT*%
%TO.N,Net-(D13-DOUT)*%
X61872000Y74560000D03*
%TO.P,D13,3,VSS*%
%TO.N,GND*%
X56972000Y74560000D03*
%TO.P,D13,4,DIN*%
%TO.N,Net-(D12-DOUT)*%
X56972000Y71260000D03*
%TD*%
%TO.P,D42,1,VDD*%
%TO.N,VCC*%
X29392000Y77880000D03*
%TO.P,D42,2,DOUT*%
%TO.N,Net-(D42-DOUT)*%
X29392000Y81180000D03*
%TO.P,D42,3,VSS*%
%TO.N,GND*%
X24492000Y81180000D03*
%TO.P,D42,4,DIN*%
%TO.N,Net-(D41-DOUT)*%
X24492000Y77880000D03*
%TD*%
%TO.P,D8,1,VDD*%
%TO.N,VCC*%
X69992000Y84500000D03*
%TO.P,D8,2,DOUT*%
%TO.N,Net-(D8-DOUT)*%
X69992000Y87800000D03*
%TO.P,D8,3,VSS*%
%TO.N,GND*%
X65092000Y87800000D03*
%TO.P,D8,4,DIN*%
%TO.N,Net-(D7-DOUT)*%
X65092000Y84500000D03*
%TD*%
D23*
%TO.P,D44,1,K*%
%TO.N,Net-(D44-K-Pad1)*%
X46282000Y13282500D03*
%TO.P,D44,2,K*%
%TO.N,Net-(D44-K-Pad2)*%
X48182000Y13282500D03*
%TO.P,D44,3,A*%
%TO.N,GND*%
X47232000Y15557500D03*
%TD*%
D15*
%TO.P,D2,1,VDD*%
%TO.N,VCC*%
X69992000Y44780000D03*
%TO.P,D2,2,DOUT*%
%TO.N,Net-(D2-DOUT)*%
X69992000Y48080000D03*
%TO.P,D2,3,VSS*%
%TO.N,GND*%
X65092000Y48080000D03*
%TO.P,D2,4,DIN*%
%TO.N,Net-(D2-DIN)*%
X65092000Y44780000D03*
%TD*%
D24*
%TO.P,U1,1,IN*%
%TO.N,VCC*%
X38017000Y8150000D03*
%TO.P,U1,2,GND*%
%TO.N,GND*%
X38017000Y9100000D03*
%TO.P,U1,3,EN*%
%TO.N,VCC*%
X38017000Y10050000D03*
%TO.P,U1,4,NC*%
%TO.N,unconnected-(U1-NC-Pad4)*%
X35742000Y10050000D03*
%TO.P,U1,5,OUT*%
%TO.N,+3.3V*%
X35742000Y8150000D03*
%TD*%
D15*
%TO.P,D21,1,VDD*%
%TO.N,VCC*%
X53752000Y77880000D03*
%TO.P,D21,2,DOUT*%
%TO.N,Net-(D21-DOUT)*%
X53752000Y81180000D03*
%TO.P,D21,3,VSS*%
%TO.N,GND*%
X48852000Y81180000D03*
%TO.P,D21,4,DIN*%
%TO.N,Net-(D20-DOUT)*%
X48852000Y77880000D03*
%TD*%
D25*
%TO.P,R1,1*%
%TO.N,Net-(R1-Pad1)*%
X28142000Y6990000D03*
%TO.P,R1,2*%
%TO.N,SS*%
X29792000Y6990000D03*
%TD*%
D16*
%TO.P,C9,1*%
%TO.N,GND*%
X36082000Y6330000D03*
%TO.P,C9,2*%
%TO.N,VCC*%
X37632000Y6330000D03*
%TD*%
D26*
%TO.P,SW3,*%
%TO.N,*%
X88740279Y77819721D03*
X83012715Y83547285D03*
D27*
%TO.P,SW3,1,A*%
%TO.N,DPAD_A*%
X89412031Y82203783D03*
%TO.P,SW3,2,Center*%
%TO.N,DPAD_CTR*%
X88404404Y83211410D03*
%TO.P,SW3,3,C*%
%TO.N,DPAD_C*%
X87396777Y84219037D03*
%TO.P,SW3,4,B*%
%TO.N,DPAD_B*%
X84356217Y77147969D03*
%TO.P,SW3,5,Common*%
%TO.N,GND*%
X83348590Y78155596D03*
%TO.P,SW3,6,D*%
%TO.N,DPAD_D*%
X82340963Y79163223D03*
%TD*%
D28*
%TO.P,R8,1*%
%TO.N,Net-(C13-Pad2)*%
X29270000Y32370000D03*
%TO.P,R8,2*%
%TO.N,XTAL_OUT*%
X27620000Y32370000D03*
%TD*%
D29*
%TO.P,C14,1*%
%TO.N,GND*%
X22120000Y14510000D03*
%TO.P,C14,2*%
%TO.N,+3.3V*%
X22120000Y16060000D03*
%TD*%
D15*
%TO.P,D43,1,VDD*%
%TO.N,VCC*%
X29392000Y84500000D03*
%TO.P,D43,2,DOUT*%
%TO.N,unconnected-(D43-DOUT-Pad2)*%
X29392000Y87800000D03*
%TO.P,D43,3,VSS*%
%TO.N,GND*%
X24492000Y87800000D03*
%TO.P,D43,4,DIN*%
%TO.N,Net-(D42-DOUT)*%
X24492000Y84500000D03*
%TD*%
D30*
%TO.P,R9,1*%
%TO.N,Net-(D2-DIN)*%
X41770000Y31930000D03*
%TO.P,R9,2*%
%TO.N,RGB*%
X41770000Y30280000D03*
%TD*%
D15*
%TO.P,D15,1,VDD*%
%TO.N,VCC*%
X61872000Y84500000D03*
%TO.P,D15,2,DOUT*%
%TO.N,Net-(D15-DOUT)*%
X61872000Y87800000D03*
%TO.P,D15,3,VSS*%
%TO.N,GND*%
X56972000Y87800000D03*
%TO.P,D15,4,DIN*%
%TO.N,Net-(D14-DOUT)*%
X56972000Y84500000D03*
%TD*%
%TO.P,D11,1,VDD*%
%TO.N,VCC*%
X61872000Y58020000D03*
%TO.P,D11,2,DOUT*%
%TO.N,Net-(D11-DOUT)*%
X61872000Y61320000D03*
%TO.P,D11,3,VSS*%
%TO.N,GND*%
X56972000Y61320000D03*
%TO.P,D11,4,DIN*%
%TO.N,Net-(D10-DOUT)*%
X56972000Y58020000D03*
%TD*%
D29*
%TO.P,C11,1*%
%TO.N,GND*%
X31170000Y29310000D03*
%TO.P,C11,2*%
%TO.N,XTAL_IN*%
X31170000Y30860000D03*
%TD*%
D31*
%TO.P,SW2,1,A*%
%TO.N,unconnected-(SW2-A-Pad1)*%
X17372000Y5700000D03*
%TO.P,SW2,2,B*%
%TO.N,Net-(D1-K)*%
X19872000Y5700000D03*
%TO.P,SW2,3,C*%
%TO.N,VCC*%
X22372000Y5700000D03*
%TD*%
D15*
%TO.P,D14,1,VDD*%
%TO.N,VCC*%
X61872000Y77880000D03*
%TO.P,D14,2,DOUT*%
%TO.N,Net-(D14-DOUT)*%
X61872000Y81180000D03*
%TO.P,D14,3,VSS*%
%TO.N,GND*%
X56972000Y81180000D03*
%TO.P,D14,4,DIN*%
%TO.N,Net-(D13-DOUT)*%
X56972000Y77880000D03*
%TD*%
D16*
%TO.P,C5,1*%
%TO.N,GND*%
X16510000Y24300000D03*
%TO.P,C5,2*%
%TO.N,+3.3V*%
X18060000Y24300000D03*
%TD*%
D15*
%TO.P,D34,1,VDD*%
%TO.N,VCC*%
X37512000Y71260000D03*
%TO.P,D34,2,DOUT*%
%TO.N,Net-(D34-DOUT)*%
X37512000Y74560000D03*
%TO.P,D34,3,VSS*%
%TO.N,GND*%
X32612000Y74560000D03*
%TO.P,D34,4,DIN*%
%TO.N,Net-(D33-DOUT)*%
X32612000Y71260000D03*
%TD*%
D16*
%TO.P,C12,1*%
%TO.N,GND*%
X30240000Y13400000D03*
%TO.P,C12,2*%
%TO.N,+3.3V*%
X31790000Y13400000D03*
%TD*%
D32*
%TO.P,Y1,1,1*%
%TO.N,Net-(C13-Pad2)*%
X34320000Y32270000D03*
%TO.P,Y1,2,2*%
%TO.N,GND*%
X34320000Y30070000D03*
%TO.P,Y1,3,3*%
%TO.N,XTAL_IN*%
X36020000Y30070000D03*
%TO.P,Y1,4,4*%
%TO.N,GND*%
X36020000Y32270000D03*
%TD*%
D15*
%TO.P,D25,1,VDD*%
%TO.N,VCC*%
X45632000Y58020000D03*
%TO.P,D25,2,DOUT*%
%TO.N,Net-(D25-DOUT)*%
X45632000Y61320000D03*
%TO.P,D25,3,VSS*%
%TO.N,GND*%
X40732000Y61320000D03*
%TO.P,D25,4,DIN*%
%TO.N,Net-(D24-DOUT)*%
X40732000Y58020000D03*
%TD*%
%TO.P,D26,1,VDD*%
%TO.N,VCC*%
X45632000Y64640000D03*
%TO.P,D26,2,DOUT*%
%TO.N,Net-(D26-DOUT)*%
X45632000Y67940000D03*
%TO.P,D26,3,VSS*%
%TO.N,GND*%
X40732000Y67940000D03*
%TO.P,D26,4,DIN*%
%TO.N,Net-(D25-DOUT)*%
X40732000Y64640000D03*
%TD*%
%TO.P,D22,1,VDD*%
%TO.N,VCC*%
X53752000Y84500000D03*
%TO.P,D22,2,DOUT*%
%TO.N,Net-(D22-DOUT)*%
X53752000Y87800000D03*
%TO.P,D22,3,VSS*%
%TO.N,GND*%
X48852000Y87800000D03*
%TO.P,D22,4,DIN*%
%TO.N,Net-(D21-DOUT)*%
X48852000Y84500000D03*
%TD*%
%TO.P,D41,1,VDD*%
%TO.N,VCC*%
X29392000Y71260000D03*
%TO.P,D41,2,DOUT*%
%TO.N,Net-(D41-DOUT)*%
X29392000Y74560000D03*
%TO.P,D41,3,VSS*%
%TO.N,GND*%
X24492000Y74560000D03*
%TO.P,D41,4,DIN*%
%TO.N,Net-(D40-DOUT)*%
X24492000Y71260000D03*
%TD*%
D16*
%TO.P,C16,1*%
%TO.N,GND*%
X58662000Y89890000D03*
%TO.P,C16,2*%
%TO.N,VCC*%
X60212000Y89890000D03*
%TD*%
D15*
%TO.P,D32,1,VDD*%
%TO.N,VCC*%
X37512000Y58020000D03*
%TO.P,D32,2,DOUT*%
%TO.N,Net-(D32-DOUT)*%
X37512000Y61320000D03*
%TO.P,D32,3,VSS*%
%TO.N,GND*%
X32612000Y61320000D03*
%TO.P,D32,4,DIN*%
%TO.N,Net-(D31-DOUT)*%
X32612000Y58020000D03*
%TD*%
D33*
%TO.P,C6,1*%
%TO.N,GND*%
X25800000Y32390000D03*
%TO.P,C6,2*%
%TO.N,Net-(U2-VREG_VOUT)*%
X25800000Y30840000D03*
%TD*%
D34*
%TO.P,U3,1,~{CS}*%
%TO.N,SS*%
X34201500Y14949999D03*
%TO.P,U3,2,DO(IO1)*%
%TO.N,DS1*%
X34201500Y15450000D03*
%TO.P,U3,3,IO2*%
%TO.N,DS2*%
X34201500Y15950000D03*
%TO.P,U3,4,GND*%
%TO.N,GND*%
X34201500Y16450001D03*
%TO.P,U3,5,DI(IO0)*%
%TO.N,DS0*%
X31404700Y16450001D03*
%TO.P,U3,6,CLK*%
%TO.N,CLK*%
X31404700Y15950000D03*
%TO.P,U3,7,IO3*%
%TO.N,DS3*%
X31404700Y15450000D03*
%TO.P,U3,8,VCC*%
%TO.N,+3.3V*%
X31404700Y14949999D03*
D35*
%TO.P,U3,9*%
%TO.N,N/C*%
X32803100Y15700000D03*
%TD*%
D36*
%TO.P,D1,1,K*%
%TO.N,Net-(D1-K)*%
X16540000Y13192500D03*
%TO.P,D1,2,A*%
%TO.N,Net-(D1-A)*%
X16540000Y15992500D03*
%TD*%
D37*
%TO.P,J1,*%
%TO.N,*%
X64912000Y6160000D03*
X72892000Y6160000D03*
D38*
%TO.P,J1,1,NC*%
%TO.N,unconnected-(J1-NC-Pad1)*%
X72042000Y16660000D03*
%TO.P,J1,2,/CS*%
%TO.N,SD_CS*%
X70942000Y16660000D03*
%TO.P,J1,3,DI*%
%TO.N,SPI0_MOSI*%
X69842000Y16660000D03*
%TO.P,J1,4,VDD*%
%TO.N,+3.3V*%
X68742000Y16660000D03*
%TO.P,J1,5,CLK*%
%TO.N,SPI0_SCK*%
X67642000Y16660000D03*
%TO.P,J1,6,VSS*%
%TO.N,GND*%
X66542000Y16660000D03*
%TO.P,J1,7,DO*%
%TO.N,SPI0_MISO*%
X65442000Y16660000D03*
%TO.P,J1,8,RSV*%
%TO.N,unconnected-(J1-RSV-Pad8)*%
X64342000Y16660000D03*
%TO.P,J1,9,Cd*%
%TO.N,unconnected-(J1-Cd-Pad9)*%
X63242000Y16660000D03*
D32*
%TO.P,J1,10,SHIELD*%
%TO.N,GND*%
X62092000Y16160000D03*
D39*
X62092000Y6560000D03*
D40*
X76692000Y16160000D03*
D39*
X77592000Y6560000D03*
%TD*%
D41*
%TO.P,X1,1,VCC*%
%TO.N,+3.3V*%
X8650000Y81880000D03*
%TO.P,X1,2,GND*%
%TO.N,GND*%
X8650000Y79340000D03*
D42*
%TO.P,X1,3,SDA*%
%TO.N,SDA*%
X11190000Y81880000D03*
D41*
%TO.P,X1,4,SCL*%
%TO.N,SCL*%
X11190000Y79340000D03*
D42*
%TO.P,X1,5,GPIO1*%
%TO.N,SAO1*%
X13730000Y81880000D03*
D41*
%TO.P,X1,6,GPIO2*%
%TO.N,SAO2*%
X13730000Y79340000D03*
%TD*%
D15*
%TO.P,D3,1,VDD*%
%TO.N,VCC*%
X69992000Y51400000D03*
%TO.P,D3,2,DOUT*%
%TO.N,Net-(D3-DOUT)*%
X69992000Y54700000D03*
%TO.P,D3,3,VSS*%
%TO.N,GND*%
X65092000Y54700000D03*
%TO.P,D3,4,DIN*%
%TO.N,Net-(D2-DOUT)*%
X65092000Y51400000D03*
%TD*%
D18*
%TO.P,C21,1*%
%TO.N,GND*%
X44220000Y18520000D03*
%TO.P,C21,2*%
%TO.N,+3.3V*%
X42670000Y18520000D03*
%TD*%
D15*
%TO.P,D37,1,VDD*%
%TO.N,VCC*%
X29392000Y44780000D03*
%TO.P,D37,2,DOUT*%
%TO.N,Net-(D37-DOUT)*%
X29392000Y48080000D03*
%TO.P,D37,3,VSS*%
%TO.N,GND*%
X24492000Y48080000D03*
%TO.P,D37,4,DIN*%
%TO.N,Net-(D36-DOUT)*%
X24492000Y44780000D03*
%TD*%
D43*
%TO.P,J4,1,Pin_1*%
%TO.N,+3.3V*%
X2522000Y36856750D03*
D42*
%TO.P,J4,2,Pin_2*%
%TO.N,SWCLK*%
X2522000Y34316750D03*
%TO.P,J4,3,Pin_3*%
%TO.N,GND*%
X2522000Y31776750D03*
%TO.P,J4,4,Pin_4*%
%TO.N,SWD*%
X2522000Y29236750D03*
%TO.P,J4,5,Pin_5*%
%TO.N,GPIO24*%
X2522000Y26696750D03*
%TO.P,J4,6,Pin_6*%
%TO.N,GPIO25*%
X2522000Y24156750D03*
%TO.P,J4,7,Pin_7*%
%TO.N,GPIO26*%
X2522000Y21616750D03*
%TO.P,J4,8,Pin_8*%
%TO.N,GPIO27*%
X2522000Y19076750D03*
%TO.P,J4,9,Pin_9*%
%TO.N,GPIO28*%
X2522000Y16536750D03*
%TO.P,J4,10,Pin_10*%
%TO.N,GND*%
X2522000Y13996750D03*
%TD*%
D29*
%TO.P,C10,1*%
%TO.N,GND*%
X33600000Y6420000D03*
%TO.P,C10,2*%
%TO.N,+3.3V*%
X33600000Y7970000D03*
%TD*%
D44*
%TO.P,JP2,1,A*%
%TO.N,VBUS*%
X7750000Y72560000D03*
D45*
%TO.P,JP2,2,B*%
%TO.N,Net-(J3-Pin_1)*%
X6450000Y72560000D03*
%TD*%
D15*
%TO.P,D6,1,VDD*%
%TO.N,VCC*%
X69992000Y71260000D03*
%TO.P,D6,2,DOUT*%
%TO.N,Net-(D6-DOUT)*%
X69992000Y74560000D03*
%TO.P,D6,3,VSS*%
%TO.N,GND*%
X65092000Y74560000D03*
%TO.P,D6,4,DIN*%
%TO.N,Net-(D5-DOUT)*%
X65092000Y71260000D03*
%TD*%
D28*
%TO.P,R3,1*%
%TO.N,Net-(J2-CC1)*%
X44267000Y11820000D03*
%TO.P,R3,2*%
%TO.N,GND*%
X42617000Y11820000D03*
%TD*%
D15*
%TO.P,D17,1,VDD*%
%TO.N,VCC*%
X53752000Y51400000D03*
%TO.P,D17,2,DOUT*%
%TO.N,Net-(D17-DOUT)*%
X53752000Y54700000D03*
%TO.P,D17,3,VSS*%
%TO.N,GND*%
X48852000Y54700000D03*
%TO.P,D17,4,DIN*%
%TO.N,Net-(D16-DOUT)*%
X48852000Y51400000D03*
%TD*%
%TO.P,D33,1,VDD*%
%TO.N,VCC*%
X37512000Y64640000D03*
%TO.P,D33,2,DOUT*%
%TO.N,Net-(D33-DOUT)*%
X37512000Y67940000D03*
%TO.P,D33,3,VSS*%
%TO.N,GND*%
X32612000Y67940000D03*
%TO.P,D33,4,DIN*%
%TO.N,Net-(D32-DOUT)*%
X32612000Y64640000D03*
%TD*%
D46*
%TO.P,R2,1*%
%TO.N,Net-(U2-RUN)*%
X23130000Y30790000D03*
%TO.P,R2,2*%
%TO.N,+3.3V*%
X23130000Y32440000D03*
%TD*%
D15*
%TO.P,D28,1,VDD*%
%TO.N,VCC*%
X45632000Y77880000D03*
%TO.P,D28,2,DOUT*%
%TO.N,Net-(D28-DOUT)*%
X45632000Y81180000D03*
%TO.P,D28,3,VSS*%
%TO.N,GND*%
X40732000Y81180000D03*
%TO.P,D28,4,DIN*%
%TO.N,Net-(D27-DOUT)*%
X40732000Y77880000D03*
%TD*%
%TO.P,D35,1,VDD*%
%TO.N,VCC*%
X37512000Y77880000D03*
%TO.P,D35,2,DOUT*%
%TO.N,Net-(D35-DOUT)*%
X37512000Y81180000D03*
%TO.P,D35,3,VSS*%
%TO.N,GND*%
X32612000Y81180000D03*
%TO.P,D35,4,DIN*%
%TO.N,Net-(D34-DOUT)*%
X32612000Y77880000D03*
%TD*%
D47*
%TO.P,U2,1,IOVDD*%
%TO.N,+3.3V*%
X29822500Y20702500D03*
%TO.P,U2,2,GPIO0*%
%TO.N,I2S_BCLK*%
X29822500Y21102500D03*
%TO.P,U2,3,GPIO1*%
%TO.N,I2S_LRCLK*%
X29822500Y21502500D03*
%TO.P,U2,4,GPIO2*%
%TO.N,unconnected-(U2-GPIO2-Pad4)*%
X29822500Y21902500D03*
%TO.P,U2,5,GPIO3*%
%TO.N,I2S_DOUT*%
X29822500Y22302500D03*
%TO.P,U2,6,GPIO4*%
%TO.N,SPI0_MISO*%
X29822500Y22702500D03*
%TO.P,U2,7,GPIO5*%
%TO.N,SD_CS*%
X29822500Y23102500D03*
%TO.P,U2,8,GPIO6*%
%TO.N,SPI0_SCK*%
X29822500Y23502500D03*
%TO.P,U2,9,GPIO7*%
%TO.N,SPI0_MOSI*%
X29822500Y23902500D03*
%TO.P,U2,10,IOVDD*%
%TO.N,+3.3V*%
X29822500Y24302500D03*
%TO.P,U2,11,GPIO8*%
%TO.N,DPAD_C*%
X29822500Y24702500D03*
%TO.P,U2,12,GPIO9*%
%TO.N,DPAD_CTR*%
X29822500Y25102500D03*
%TO.P,U2,13,GPIO10*%
%TO.N,DPAD_A*%
X29822500Y25502500D03*
%TO.P,U2,14,GPIO11*%
%TO.N,DPAD_D*%
X29822500Y25902500D03*
D48*
%TO.P,U2,15,GPIO12*%
%TO.N,DPAD_B*%
X28985000Y26740000D03*
%TO.P,U2,16,GPIO13*%
%TO.N,RGB*%
X28585000Y26740000D03*
%TO.P,U2,17,GPIO14*%
%TO.N,unconnected-(U2-GPIO14-Pad17)*%
X28185000Y26740000D03*
%TO.P,U2,18,GPIO15*%
%TO.N,unconnected-(U2-GPIO15-Pad18)*%
X27785000Y26740000D03*
%TO.P,U2,19,TESTEN*%
%TO.N,GND*%
X27385000Y26740000D03*
%TO.P,U2,20,XIN*%
%TO.N,XTAL_IN*%
X26985000Y26740000D03*
%TO.P,U2,21,XOUT*%
%TO.N,XTAL_OUT*%
X26585000Y26740000D03*
%TO.P,U2,22,IOVDD*%
%TO.N,+3.3V*%
X26185000Y26740000D03*
%TO.P,U2,23,DVDD*%
%TO.N,Net-(U2-VREG_VOUT)*%
X25785000Y26740000D03*
%TO.P,U2,24,SWCLK*%
%TO.N,SWCLK*%
X25385000Y26740000D03*
%TO.P,U2,25,SWD*%
%TO.N,SWD*%
X24985000Y26740000D03*
%TO.P,U2,26,RUN*%
%TO.N,Net-(U2-RUN)*%
X24585000Y26740000D03*
%TO.P,U2,27,GPIO16*%
%TO.N,SDA*%
X24185000Y26740000D03*
%TO.P,U2,28,GPIO17*%
%TO.N,SCL*%
X23785000Y26740000D03*
D47*
%TO.P,U2,29,GPIO18*%
%TO.N,GPIO18*%
X22947500Y25902500D03*
%TO.P,U2,30,GPIO19*%
%TO.N,GPIO19*%
X22947500Y25502500D03*
%TO.P,U2,31,GPIO20*%
%TO.N,GPIO20*%
X22947500Y25102500D03*
%TO.P,U2,32,GPIO21*%
%TO.N,GPIO21*%
X22947500Y24702500D03*
%TO.P,U2,33,IOVDD*%
%TO.N,+3.3V*%
X22947500Y24302500D03*
%TO.P,U2,34,GPIO22*%
%TO.N,GPIO22*%
X22947500Y23902500D03*
%TO.P,U2,35,GPIO23*%
%TO.N,GPIO23*%
X22947500Y23502500D03*
%TO.P,U2,36,GPIO24*%
%TO.N,GPIO24*%
X22947500Y23102500D03*
%TO.P,U2,37,GPIO25*%
%TO.N,GPIO25*%
X22947500Y22702500D03*
%TO.P,U2,38,GPIO26_ADC0*%
%TO.N,GPIO26*%
X22947500Y22302500D03*
%TO.P,U2,39,GPIO27_ADC1*%
%TO.N,GPIO27*%
X22947500Y21902500D03*
%TO.P,U2,40,GPIO28_ADC2*%
%TO.N,GPIO28*%
X22947500Y21502500D03*
%TO.P,U2,41,GPIO29_ADC3*%
%TO.N,unconnected-(U2-GPIO29_ADC3-Pad41)*%
X22947500Y21102500D03*
%TO.P,U2,42,IOVDD*%
%TO.N,+3.3V*%
X22947500Y20702500D03*
D48*
%TO.P,U2,43,ADC_AVDD*%
X23785000Y19865000D03*
%TO.P,U2,44,VREG_IN*%
X24185000Y19865000D03*
%TO.P,U2,45,VREG_VOUT*%
%TO.N,Net-(U2-VREG_VOUT)*%
X24585000Y19865000D03*
%TO.P,U2,46,USB_DM*%
%TO.N,USB_N*%
X24985000Y19865000D03*
%TO.P,U2,47,USB_DP*%
%TO.N,USB_P*%
X25385000Y19865000D03*
%TO.P,U2,48,USB_VDD*%
%TO.N,+3.3V*%
X25785000Y19865000D03*
%TO.P,U2,49,IOVDD*%
X26185000Y19865000D03*
%TO.P,U2,50,DVDD*%
%TO.N,Net-(U2-VREG_VOUT)*%
X26585000Y19865000D03*
%TO.P,U2,51,QSPI_SD3*%
%TO.N,DS3*%
X26985000Y19865000D03*
%TO.P,U2,52,QSPI_SCLK*%
%TO.N,CLK*%
X27385000Y19865000D03*
%TO.P,U2,53,QSPI_SD0*%
%TO.N,DS0*%
X27785000Y19865000D03*
%TO.P,U2,54,QSPI_SD2*%
%TO.N,DS2*%
X28185000Y19865000D03*
%TO.P,U2,55,QSPI_SD1*%
%TO.N,DS1*%
X28585000Y19865000D03*
%TO.P,U2,56,QSPI_SS*%
%TO.N,SS*%
X28985000Y19865000D03*
D49*
%TO.P,U2,57,GND*%
%TO.N,GND*%
X26385000Y23302500D03*
%TD*%
D28*
%TO.P,R5,1*%
%TO.N,Net-(D44-K-Pad2)*%
X44267000Y15070000D03*
%TO.P,R5,2*%
%TO.N,USB_P*%
X42617000Y15070000D03*
%TD*%
D29*
%TO.P,C7,1*%
%TO.N,GND*%
X28290000Y14510000D03*
%TO.P,C7,2*%
%TO.N,Net-(U2-VREG_VOUT)*%
X28290000Y16060000D03*
%TD*%
D15*
%TO.P,D10,1,VDD*%
%TO.N,VCC*%
X61872000Y51400000D03*
%TO.P,D10,2,DOUT*%
%TO.N,Net-(D10-DOUT)*%
X61872000Y54700000D03*
%TO.P,D10,3,VSS*%
%TO.N,GND*%
X56972000Y54700000D03*
%TO.P,D10,4,DIN*%
%TO.N,Net-(D10-DIN)*%
X56972000Y51400000D03*
%TD*%
D29*
%TO.P,C3,1*%
%TO.N,GND*%
X26705000Y14510000D03*
%TO.P,C3,2*%
%TO.N,+3.3V*%
X26705000Y16060000D03*
%TD*%
D28*
%TO.P,R7,1*%
%TO.N,SS*%
X35430000Y13400000D03*
%TO.P,R7,2*%
%TO.N,+3.3V*%
X33780000Y13400000D03*
%TD*%
D16*
%TO.P,C15,1*%
%TO.N,GND*%
X66782000Y89800000D03*
%TO.P,C15,2*%
%TO.N,VCC*%
X68332000Y89800000D03*
%TD*%
D33*
%TO.P,C13,1*%
%TO.N,GND*%
X31170000Y33920000D03*
%TO.P,C13,2*%
%TO.N,Net-(C13-Pad2)*%
X31170000Y32370000D03*
%TD*%
D29*
%TO.P,C4,1*%
%TO.N,GND*%
X20530000Y14510000D03*
%TO.P,C4,2*%
%TO.N,+3.3V*%
X20530000Y16060000D03*
%TD*%
D15*
%TO.P,D9,1,VDD*%
%TO.N,VCC*%
X61872000Y44780000D03*
%TO.P,D9,2,DOUT*%
%TO.N,Net-(D10-DIN)*%
X61872000Y48080000D03*
%TO.P,D9,3,VSS*%
%TO.N,GND*%
X56972000Y48080000D03*
%TO.P,D9,4,DIN*%
%TO.N,Net-(D8-DOUT)*%
X56972000Y44780000D03*
%TD*%
D18*
%TO.P,C2,1*%
%TO.N,GND*%
X35930000Y24760000D03*
%TO.P,C2,2*%
%TO.N,+3.3V*%
X34380000Y24760000D03*
%TD*%
D15*
%TO.P,D38,1,VDD*%
%TO.N,VCC*%
X29392000Y51400000D03*
%TO.P,D38,2,DOUT*%
%TO.N,Net-(D38-DOUT)*%
X29392000Y54700000D03*
%TO.P,D38,3,VSS*%
%TO.N,GND*%
X24492000Y54700000D03*
%TO.P,D38,4,DIN*%
%TO.N,Net-(D37-DOUT)*%
X24492000Y51400000D03*
%TD*%
D50*
%TO.P,SW1,1,1*%
%TO.N,GND*%
X27182000Y2730000D03*
X30782000Y2730000D03*
%TO.P,SW1,2,2*%
%TO.N,Net-(R1-Pad1)*%
X27182000Y1290000D03*
X30782000Y1290000D03*
%TD*%
D17*
%TO.P,FID3,*%
%TO.N,*%
X81720000Y89880000D03*
%TD*%
D15*
%TO.P,D16,1,VDD*%
%TO.N,VCC*%
X53752000Y44780000D03*
%TO.P,D16,2,DOUT*%
%TO.N,Net-(D16-DOUT)*%
X53752000Y48080000D03*
%TO.P,D16,3,VSS*%
%TO.N,GND*%
X48852000Y48080000D03*
%TO.P,D16,4,DIN*%
%TO.N,Net-(D15-DOUT)*%
X48852000Y44780000D03*
%TD*%
D29*
%TO.P,C8,1*%
%TO.N,GND*%
X23705000Y14510000D03*
%TO.P,C8,2*%
%TO.N,Net-(U2-VREG_VOUT)*%
X23705000Y16060000D03*
%TD*%
D17*
%TO.P,FID1,*%
%TO.N,*%
X77150000Y23390000D03*
%TD*%
D15*
%TO.P,D4,1,VDD*%
%TO.N,VCC*%
X69992000Y58020000D03*
%TO.P,D4,2,DOUT*%
%TO.N,Net-(D4-DOUT)*%
X69992000Y61320000D03*
%TO.P,D4,3,VSS*%
%TO.N,GND*%
X65092000Y61320000D03*
%TO.P,D4,4,DIN*%
%TO.N,Net-(D3-DOUT)*%
X65092000Y58020000D03*
%TD*%
%TO.P,D20,1,VDD*%
%TO.N,VCC*%
X53752000Y71260000D03*
%TO.P,D20,2,DOUT*%
%TO.N,Net-(D20-DOUT)*%
X53752000Y74560000D03*
%TO.P,D20,3,VSS*%
%TO.N,GND*%
X48852000Y74560000D03*
%TO.P,D20,4,DIN*%
%TO.N,Net-(D19-DOUT)*%
X48852000Y71260000D03*
%TD*%
D16*
%TO.P,C18,1*%
%TO.N,GND*%
X42492000Y89930000D03*
%TO.P,C18,2*%
%TO.N,VCC*%
X44042000Y89930000D03*
%TD*%
D17*
%TO.P,FID4,*%
%TO.N,*%
X12380000Y89880000D03*
%TD*%
D25*
%TO.P,R4,1*%
%TO.N,Net-(J2-CC2)*%
X50067000Y11840000D03*
%TO.P,R4,2*%
%TO.N,GND*%
X51717000Y11840000D03*
%TD*%
D15*
%TO.P,D12,1,VDD*%
%TO.N,VCC*%
X61872000Y64640000D03*
%TO.P,D12,2,DOUT*%
%TO.N,Net-(D12-DOUT)*%
X61872000Y67940000D03*
%TO.P,D12,3,VSS*%
%TO.N,GND*%
X56972000Y67940000D03*
%TO.P,D12,4,DIN*%
%TO.N,Net-(D11-DOUT)*%
X56972000Y64640000D03*
%TD*%
D16*
%TO.P,C19,1*%
%TO.N,GND*%
X34322000Y89910000D03*
%TO.P,C19,2*%
%TO.N,VCC*%
X35872000Y89910000D03*
%TD*%
D25*
%TO.P,R6,1*%
%TO.N,USB_N*%
X42617000Y13445000D03*
%TO.P,R6,2*%
%TO.N,Net-(D44-K-Pad1)*%
X44267000Y13445000D03*
%TD*%
D15*
%TO.P,D40,1,VDD*%
%TO.N,VCC*%
X29392000Y64640000D03*
%TO.P,D40,2,DOUT*%
%TO.N,Net-(D40-DOUT)*%
X29392000Y67940000D03*
%TO.P,D40,3,VSS*%
%TO.N,GND*%
X24492000Y67940000D03*
%TO.P,D40,4,DIN*%
%TO.N,Net-(D39-DOUT)*%
X24492000Y64640000D03*
%TD*%
D18*
%TO.P,C1,1*%
%TO.N,GND*%
X70060000Y22600000D03*
%TO.P,C1,2*%
%TO.N,+3.3V*%
X68510000Y22600000D03*
%TD*%
D15*
%TO.P,D19,1,VDD*%
%TO.N,VCC*%
X53752000Y64640000D03*
%TO.P,D19,2,DOUT*%
%TO.N,Net-(D19-DOUT)*%
X53752000Y67940000D03*
%TO.P,D19,3,VSS*%
%TO.N,GND*%
X48852000Y67940000D03*
%TO.P,D19,4,DIN*%
%TO.N,Net-(D18-DOUT)*%
X48852000Y64640000D03*
%TD*%
%TO.P,D30,1,VDD*%
%TO.N,VCC*%
X37512000Y44780000D03*
%TO.P,D30,2,DOUT*%
%TO.N,Net-(D30-DOUT)*%
X37512000Y48080000D03*
%TO.P,D30,3,VSS*%
%TO.N,GND*%
X32612000Y48080000D03*
%TO.P,D30,4,DIN*%
%TO.N,Net-(D29-DOUT)*%
X32612000Y44780000D03*
%TD*%
D51*
%TO.P,MK1,1,WS*%
%TO.N,I2S_LRCLK*%
X41626000Y20767500D03*
%TO.P,MK1,2,LR*%
%TO.N,+3.3V*%
X42448000Y20767500D03*
D52*
%TO.P,MK1,3,GND*%
%TO.N,GND*%
X43700000Y22330000D03*
D51*
%TO.P,MK1,4,SCK*%
%TO.N,I2S_BCLK*%
X42448000Y22567500D03*
%TO.P,MK1,5,VDD*%
%TO.N,+3.3V*%
X41626000Y22567500D03*
%TO.P,MK1,6,SD*%
%TO.N,I2S_DOUT*%
X41626000Y21667500D03*
%TD*%
D15*
%TO.P,D27,1,VDD*%
%TO.N,VCC*%
X45632000Y71260000D03*
%TO.P,D27,2,DOUT*%
%TO.N,Net-(D27-DOUT)*%
X45632000Y74560000D03*
%TO.P,D27,3,VSS*%
%TO.N,GND*%
X40732000Y74560000D03*
%TO.P,D27,4,DIN*%
%TO.N,Net-(D26-DOUT)*%
X40732000Y71260000D03*
%TD*%
D53*
%TO.P,U4,1,SA0*%
%TO.N,GND*%
X20400000Y31140000D03*
%TO.P,U4,2,SDA*%
%TO.N,SDA*%
X20400000Y31640000D03*
%TO.P,U4,3,VDD_IO*%
%TO.N,+3.3V*%
X20400000Y32140000D03*
%TO.P,U4,4,NC*%
%TO.N,unconnected-(U4-NC-Pad4)*%
X20400000Y32640000D03*
D54*
%TO.P,U4,5,INT1*%
%TO.N,unconnected-(U4-INT1-Pad5)*%
X19887500Y32652500D03*
%TO.P,U4,6,INT2*%
%TO.N,unconnected-(U4-INT2-Pad6)*%
X19387500Y32652500D03*
D53*
%TO.P,U4,7,VDD*%
%TO.N,+3.3V*%
X18875000Y32640000D03*
%TO.P,U4,8,GND_IO*%
%TO.N,GND*%
X18875000Y32140000D03*
%TO.P,U4,9,GND*%
X18875000Y31640000D03*
%TO.P,U4,10,NC*%
%TO.N,unconnected-(U4-NC-Pad10)*%
X18875000Y31140000D03*
D54*
%TO.P,U4,11,NC*%
%TO.N,unconnected-(U4-NC-Pad11)*%
X19387500Y31127500D03*
%TO.P,U4,12,SCL*%
%TO.N,SCL*%
X19887500Y31127500D03*
%TD*%
D43*
%TO.P,J3,1,Pin_1*%
%TO.N,Net-(J3-Pin_1)*%
X2522000Y72416750D03*
D42*
%TO.P,J3,2,Pin_2*%
%TO.N,GPIO19*%
X2522000Y69876750D03*
%TO.P,J3,3,Pin_3*%
%TO.N,GPIO20*%
X2522000Y67336750D03*
%TO.P,J3,4,Pin_4*%
%TO.N,GPIO18*%
X2522000Y64796750D03*
%TO.P,J3,5,Pin_5*%
%TO.N,GPIO22*%
X2522000Y62256750D03*
%TO.P,J3,6,Pin_6*%
%TO.N,GPIO23*%
X2522000Y59716750D03*
%TO.P,J3,7,Pin_7*%
%TO.N,GPIO21*%
X2522000Y57176750D03*
%TO.P,J3,8,Pin_8*%
%TO.N,GND*%
X2522000Y54636750D03*
%TD*%
D15*
%TO.P,D29,1,VDD*%
%TO.N,VCC*%
X45632000Y84500000D03*
%TO.P,D29,2,DOUT*%
%TO.N,Net-(D29-DOUT)*%
X45632000Y87800000D03*
%TO.P,D29,3,VSS*%
%TO.N,GND*%
X40732000Y87800000D03*
%TO.P,D29,4,DIN*%
%TO.N,Net-(D28-DOUT)*%
X40732000Y84500000D03*
%TD*%
%TO.P,D31,1,VDD*%
%TO.N,VCC*%
X37512000Y51400000D03*
%TO.P,D31,2,DOUT*%
%TO.N,Net-(D31-DOUT)*%
X37512000Y54700000D03*
%TO.P,D31,3,VSS*%
%TO.N,GND*%
X32612000Y54700000D03*
%TO.P,D31,4,DIN*%
%TO.N,Net-(D30-DOUT)*%
X32612000Y51400000D03*
%TD*%
D16*
%TO.P,C20,1*%
%TO.N,GND*%
X26282000Y89930000D03*
%TO.P,C20,2*%
%TO.N,VCC*%
X27832000Y89930000D03*
%TD*%
D15*
%TO.P,D39,1,VDD*%
%TO.N,VCC*%
X29392000Y58020000D03*
%TO.P,D39,2,DOUT*%
%TO.N,Net-(D39-DOUT)*%
X29392000Y61320000D03*
%TO.P,D39,3,VSS*%
%TO.N,GND*%
X24492000Y61320000D03*
%TO.P,D39,4,DIN*%
%TO.N,Net-(D38-DOUT)*%
X24492000Y58020000D03*
%TD*%
D55*
%TO.N,VCC*%
X22372000Y8080000D03*
X44040000Y91150000D03*
X35870000Y91150000D03*
X52060000Y91150000D03*
X28020000Y91150000D03*
X60220000Y91150000D03*
X68350000Y91150000D03*
%TO.N,GND*%
X33210000Y5120000D03*
%TO.N,VBUS*%
X40420000Y3970000D03*
%TO.N,GND*%
X76692000Y13410000D03*
X36020000Y33710000D03*
X65102000Y62910000D03*
X25810000Y24190000D03*
X24492000Y82800000D03*
X65092000Y69540000D03*
X40732000Y76180000D03*
X48862000Y62930000D03*
X45340000Y18530000D03*
X24492000Y89420000D03*
X32612000Y69550000D03*
X65092000Y89400000D03*
X48852000Y82800000D03*
X32670000Y30070000D03*
X40732000Y82800000D03*
X66530000Y21060000D03*
X20476400Y30160000D03*
X24492000Y49700000D03*
X32612000Y49690000D03*
X27280000Y24190000D03*
X59420000Y8310000D03*
X17880000Y31860000D03*
X59430000Y17910000D03*
X24502000Y62930000D03*
X32612000Y89410000D03*
X30080000Y33920000D03*
X65092000Y76160000D03*
X48250000Y15570000D03*
X43972000Y10020000D03*
X56972000Y69550000D03*
X48852000Y89420000D03*
X56972000Y76170000D03*
X56972000Y89410000D03*
X65092000Y56310000D03*
X20370000Y35720000D03*
X82250000Y77050000D03*
X70050000Y23740000D03*
X32622000Y62920000D03*
X32612000Y76170000D03*
X24492000Y69560000D03*
X27500000Y14510000D03*
X32612000Y82790000D03*
X65092000Y82780000D03*
X50372000Y10040000D03*
X32612000Y56320000D03*
X40732000Y69560000D03*
X40732000Y89420000D03*
X24492000Y56330000D03*
X21330000Y14510000D03*
X24492000Y76180000D03*
X25800000Y33830000D03*
X56972000Y82790000D03*
X33423109Y16411100D03*
X22920000Y14510000D03*
X15260000Y24840000D03*
X39172000Y9100000D03*
X40742000Y62930000D03*
X48852000Y69560000D03*
X37100000Y24760000D03*
X27839268Y29930732D03*
X56982000Y62920000D03*
X48852000Y76180000D03*
X65092000Y49680000D03*
%TO.N,+3.3V*%
X32520000Y8020000D03*
X40380000Y22560000D03*
X32810000Y12560000D03*
X24120000Y23490000D03*
X23991100Y32450000D03*
X41430000Y18500000D03*
X33440000Y24720000D03*
X17580000Y33210000D03*
X13290000Y33200000D03*
%TO.N,Net-(U2-VREG_VOUT)*%
X24210000Y17220000D03*
X27125000Y17225000D03*
X26933584Y31226416D03*
%TO.N,VBUS*%
X10690000Y72560000D03*
%TO.N,Net-(D1-A)*%
X13400000Y15980000D03*
%TO.N,SPI0_MOSI*%
X69780000Y21080000D03*
X66530000Y26190000D03*
%TO.N,SPI0_SCK*%
X67610000Y24290000D03*
X67610000Y25890000D03*
%TO.N,SS*%
X29780000Y8010000D03*
X36490000Y13390000D03*
%TO.N,SWCLK*%
X12630000Y34316750D03*
X24590000Y34240000D03*
%TO.N,SWD*%
X24556416Y29266416D03*
X13290000Y29236750D03*
%TO.N,GPIO21*%
X12820000Y57176750D03*
X14850000Y57180000D03*
%TO.N,I2S_BCLK*%
X42430000Y23990000D03*
X40200000Y19720000D03*
%TO.N,GPIO18*%
X20271416Y26821416D03*
X15820000Y26830000D03*
%TD*%
D56*
%TO.N,GND*%
X30820000Y2730000D02*
X33210000Y5120000D01*
X30782000Y2730000D02*
X30820000Y2730000D01*
D57*
%TO.N,VCC*%
X22372000Y8342000D02*
X22372000Y8080000D01*
D58*
X44042000Y89930000D02*
X44042000Y91148000D01*
X44042000Y91148000D02*
X44040000Y91150000D01*
X46012000Y89930000D02*
X44042000Y89930000D01*
X47062000Y88880000D02*
X46012000Y89930000D01*
X35872000Y89910000D02*
X35872000Y91148000D01*
X35872000Y91148000D02*
X35870000Y91150000D01*
X52062000Y89870000D02*
X52062000Y91148000D01*
X52062000Y91148000D02*
X52060000Y91150000D01*
X47062000Y86300000D02*
X47062000Y88880000D01*
X27832000Y90962000D02*
X28020000Y91150000D01*
X27832000Y89930000D02*
X27832000Y90962000D01*
X37902000Y89910000D02*
X35872000Y89910000D01*
X60212000Y91142000D02*
X60220000Y91150000D01*
X60212000Y89890000D02*
X60212000Y91142000D01*
X54192000Y89870000D02*
X52062000Y89870000D01*
X47062000Y80190000D02*
X47062000Y86300000D01*
X47062000Y85950000D02*
X47062000Y86300000D01*
X29772000Y89930000D02*
X27832000Y89930000D01*
X38942000Y88870000D02*
X37902000Y89910000D01*
X62282000Y89890000D02*
X60212000Y89890000D01*
X68332000Y91132000D02*
X68350000Y91150000D01*
X68332000Y89800000D02*
X68332000Y91132000D01*
X55182000Y88880000D02*
X54192000Y89870000D01*
X45632000Y84520000D02*
X47062000Y85950000D01*
X47062000Y73640000D02*
X47062000Y80190000D01*
X47062000Y79330000D02*
X47062000Y80190000D01*
X30822000Y88880000D02*
X29772000Y89930000D01*
X38942000Y86290000D02*
X38942000Y88870000D01*
X63302000Y88870000D02*
X62282000Y89890000D01*
X70482000Y89800000D02*
X68332000Y89800000D01*
X55182000Y86300000D02*
X55182000Y88880000D01*
X45632000Y77900000D02*
X47062000Y79330000D01*
X47062000Y72710000D02*
X47062000Y73640000D01*
X47062000Y67210000D02*
X47062000Y73640000D01*
X30822000Y86300000D02*
X30822000Y88880000D01*
X38942000Y85940000D02*
X38942000Y86290000D01*
X38942000Y80180000D02*
X38942000Y86290000D01*
X63302000Y86290000D02*
X63302000Y88870000D01*
X71422000Y88860000D02*
X70482000Y89800000D01*
X55182000Y80190000D02*
X55182000Y86300000D01*
X55182000Y85950000D02*
X55182000Y86300000D01*
X45632000Y71280000D02*
X47062000Y72710000D01*
X47062000Y66090000D02*
X47062000Y67210000D01*
X47062000Y60040000D02*
X47062000Y67210000D01*
X30822000Y80190000D02*
X30822000Y86300000D01*
X30822000Y85950000D02*
X30822000Y86300000D01*
X37512000Y84510000D02*
X38942000Y85940000D01*
X38942000Y79320000D02*
X38942000Y80180000D01*
X38942000Y73630000D02*
X38942000Y80180000D01*
X63302000Y80180000D02*
X63302000Y86290000D01*
X63302000Y85940000D02*
X63302000Y86290000D01*
X71422000Y86280000D02*
X71422000Y88860000D01*
X55182000Y79330000D02*
X55182000Y80190000D01*
X55182000Y73640000D02*
X55182000Y80190000D01*
X53752000Y84520000D02*
X55182000Y85950000D01*
X45632000Y64660000D02*
X47062000Y66090000D01*
X47062000Y59470000D02*
X47062000Y60040000D01*
X29392000Y84520000D02*
X30822000Y85950000D01*
X30822000Y73640000D02*
X30822000Y80190000D01*
X30822000Y79330000D02*
X30822000Y80190000D01*
X37512000Y77890000D02*
X38942000Y79320000D01*
X38942000Y72700000D02*
X38942000Y73630000D01*
X38942000Y67200000D02*
X38942000Y73630000D01*
X63302000Y79320000D02*
X63302000Y80180000D01*
X61872000Y84510000D02*
X63302000Y85940000D01*
X63302000Y73630000D02*
X63302000Y80180000D01*
X71422000Y80170000D02*
X71422000Y86280000D01*
X71422000Y85930000D02*
X71422000Y86280000D01*
X53752000Y77900000D02*
X55182000Y79330000D01*
X55182000Y72710000D02*
X55182000Y73640000D01*
X55182000Y67210000D02*
X55182000Y73640000D01*
X46631000Y59039000D02*
X47062000Y59470000D01*
X29392000Y77900000D02*
X30822000Y79330000D01*
X30822000Y72710000D02*
X30822000Y73640000D01*
X30822000Y67210000D02*
X30822000Y73640000D01*
X37512000Y71270000D02*
X38942000Y72700000D01*
X38942000Y66080000D02*
X38942000Y67200000D01*
X38942000Y60030000D02*
X38942000Y67200000D01*
X61872000Y77890000D02*
X63302000Y79320000D01*
X63302000Y67200000D02*
X63302000Y73630000D01*
X63302000Y72700000D02*
X63302000Y73630000D01*
X69992000Y84500000D02*
X71422000Y85930000D01*
X71422000Y73620000D02*
X71422000Y80170000D01*
X71422000Y79310000D02*
X71422000Y80170000D01*
X53752000Y71280000D02*
X55182000Y72710000D01*
X55182000Y66090000D02*
X55182000Y67210000D01*
X55182000Y60040000D02*
X55182000Y67210000D01*
X46710000Y52800000D02*
X46710000Y58960000D01*
X46710000Y58960000D02*
X46631000Y59039000D01*
X45632000Y58040000D02*
X46631000Y59039000D01*
X29392000Y71280000D02*
X30822000Y72710000D01*
X30822000Y60040000D02*
X30822000Y67210000D01*
X30822000Y66090000D02*
X30822000Y67210000D01*
X37512000Y64650000D02*
X38942000Y66080000D01*
X38942000Y59460000D02*
X38942000Y60030000D01*
X61872000Y71270000D02*
X63302000Y72700000D01*
X63302000Y66080000D02*
X63302000Y67200000D01*
X63302000Y60030000D02*
X63302000Y67200000D01*
X69992000Y77880000D02*
X71422000Y79310000D01*
X71422000Y72690000D02*
X71422000Y73620000D01*
X71422000Y67190000D02*
X71422000Y73620000D01*
X53752000Y64660000D02*
X55182000Y66090000D01*
X55182000Y59470000D02*
X55182000Y60040000D01*
X46710000Y52478000D02*
X46710000Y52800000D01*
X46710000Y45858000D02*
X46710000Y52800000D01*
X29392000Y64660000D02*
X30822000Y66090000D01*
X30822000Y59470000D02*
X30822000Y60040000D01*
X30822000Y53480000D02*
X30822000Y60040000D01*
X38466000Y58984000D02*
X38942000Y59460000D01*
X61872000Y64650000D02*
X63302000Y66080000D01*
X63302000Y53470000D02*
X63302000Y60030000D01*
X63302000Y59460000D02*
X63302000Y60030000D01*
X69992000Y71260000D02*
X71422000Y72690000D01*
X71422000Y60020000D02*
X71422000Y67190000D01*
X71422000Y66070000D02*
X71422000Y67190000D01*
X54706000Y58994000D02*
X55182000Y59470000D01*
X45632000Y51400000D02*
X46710000Y52478000D01*
X45632000Y44780000D02*
X46710000Y45858000D01*
X29392000Y58040000D02*
X30822000Y59470000D01*
X30822000Y46230000D02*
X30822000Y53480000D01*
X30822000Y52850000D02*
X30822000Y53480000D01*
X38590000Y58860000D02*
X38466000Y58984000D01*
X38590000Y52740000D02*
X38590000Y58860000D01*
X37512000Y58030000D02*
X38466000Y58984000D01*
X61872000Y58030000D02*
X63302000Y59460000D01*
X63302000Y52840000D02*
X63302000Y53470000D01*
X63302000Y46220000D02*
X63302000Y53470000D01*
X69992000Y64640000D02*
X71422000Y66070000D01*
X71422000Y53460000D02*
X71422000Y60020000D01*
X71422000Y59450000D02*
X71422000Y60020000D01*
X53752000Y58040000D02*
X54706000Y58994000D01*
X54830000Y58870000D02*
X54706000Y58994000D01*
X54830000Y52630000D02*
X54830000Y58870000D01*
X29392000Y51420000D02*
X30822000Y52850000D01*
X29392000Y44800000D02*
X30822000Y46230000D01*
X38590000Y45858000D02*
X38590000Y52740000D01*
X38590000Y52478000D02*
X38590000Y52740000D01*
X61872000Y51410000D02*
X63302000Y52840000D01*
X61872000Y44790000D02*
X63302000Y46220000D01*
X71422000Y52830000D02*
X71422000Y53460000D01*
X71422000Y46210000D02*
X71422000Y53460000D01*
X69992000Y58020000D02*
X71422000Y59450000D01*
X53752000Y51400000D02*
X54830000Y52478000D01*
X54830000Y45858000D02*
X54830000Y52630000D01*
X54830000Y52478000D02*
X54830000Y52630000D01*
X37512000Y44780000D02*
X38590000Y45858000D01*
X37512000Y51400000D02*
X38590000Y52478000D01*
X69992000Y51400000D02*
X71422000Y52830000D01*
X69992000Y44780000D02*
X71422000Y46210000D01*
X53752000Y44780000D02*
X54830000Y45858000D01*
D59*
X69982000Y44790000D02*
X69992000Y44780000D01*
D57*
X22372000Y8080000D02*
X22372000Y5700000D01*
X23325000Y9295000D02*
X22372000Y8342000D01*
X36689744Y9295000D02*
X23325000Y9295000D01*
X36689744Y8724512D02*
X36689744Y9295000D01*
X37264256Y8150000D02*
X36689744Y8724512D01*
X38017000Y8150000D02*
X37264256Y8150000D01*
X38029500Y10037500D02*
X38017000Y10050000D01*
X40380000Y10037500D02*
X38029500Y10037500D01*
%TO.N,VBUS*%
X40380000Y4010000D02*
X40420000Y3970000D01*
X40380000Y7237500D02*
X40380000Y4010000D01*
X40440000Y3990000D02*
X45280000Y3990000D01*
X40420000Y3970000D02*
X40440000Y3990000D01*
D60*
%TO.N,Net-(D44-K-Pad2)*%
X47650224Y5830100D02*
X47922000Y6101876D01*
X47193776Y5830100D02*
X47650224Y5830100D01*
X46922000Y6101876D02*
X47193776Y5830100D01*
X46922000Y6770000D02*
X46922000Y6101876D01*
X47922000Y6101876D02*
X47922000Y6770000D01*
D56*
%TO.N,GND*%
X40732000Y54700000D02*
X39450000Y55982000D01*
D61*
X56982000Y61320000D02*
X56982000Y62920000D01*
D59*
X70060000Y22600000D02*
X70060000Y23730000D01*
D61*
X58662000Y89890000D02*
X57452000Y89890000D01*
D60*
X27691900Y2999900D02*
X27182000Y2490000D01*
D61*
X40732000Y87820000D02*
X40732000Y89420000D01*
X32612000Y74570000D02*
X32612000Y76170000D01*
D60*
X36020000Y32270000D02*
X36020000Y33710000D01*
X16510000Y24300000D02*
X15800000Y24300000D01*
X35930000Y24760000D02*
X37100000Y24760000D01*
D61*
X51717000Y11385000D02*
X50372000Y10040000D01*
D56*
X47799400Y56070000D02*
X47799400Y58808174D01*
X39450000Y49362000D02*
X39450000Y56110000D01*
D61*
X25002000Y89930000D02*
X26282000Y89930000D01*
D56*
X44220000Y18520000D02*
X45330000Y18520000D01*
X56972000Y48080000D02*
X55800000Y49252000D01*
D61*
X27182000Y2730000D02*
X28063000Y3611000D01*
D56*
X48852000Y54700000D02*
X47799400Y55752600D01*
D61*
X56972000Y67950000D02*
X56972000Y69550000D01*
X48852000Y81200000D02*
X48852000Y82800000D01*
D56*
X48852000Y48080000D02*
X47799400Y49132600D01*
D61*
X48852000Y67960000D02*
X48852000Y69560000D01*
X24492000Y74580000D02*
X24492000Y76180000D01*
D56*
X43889705Y22330000D02*
X44302600Y21917105D01*
X45330000Y18520000D02*
X45340000Y18530000D01*
D60*
X34201500Y16450001D02*
X33462010Y16450001D01*
D59*
X50372000Y10040000D02*
X50372000Y6770000D01*
D60*
X31930000Y30070000D02*
X31170000Y29310000D01*
D61*
X65092000Y81180000D02*
X65092000Y82780000D01*
X25800000Y32390000D02*
X25800000Y33830000D01*
D56*
X47799400Y55752600D02*
X47799400Y56070000D01*
X39450000Y55982000D02*
X39450000Y56110000D01*
D60*
X27182000Y2490000D02*
X26926540Y2490000D01*
X62092000Y16160000D02*
X61180000Y16160000D01*
D61*
X32612000Y48090000D02*
X32612000Y49690000D01*
D60*
X76692000Y13410000D02*
X76692000Y9210000D01*
D56*
X55800000Y56240000D02*
X55800000Y58851775D01*
D60*
X62092000Y6560000D02*
X61170000Y6560000D01*
X76692000Y16160000D02*
X76692000Y13410000D01*
D61*
X24502000Y61330000D02*
X24502000Y62930000D01*
D56*
X39450000Y56110000D02*
X39450000Y58788828D01*
X55800000Y58851775D02*
X56972000Y60023775D01*
D61*
X48852000Y74580000D02*
X48852000Y76180000D01*
X49302000Y89870000D02*
X48852000Y89420000D01*
D60*
X21330000Y14510000D02*
X20530000Y14510000D01*
D61*
X32612000Y81190000D02*
X32612000Y82790000D01*
D60*
X33462010Y16450001D02*
X33423109Y16411100D01*
X28290000Y14510000D02*
X27500000Y14510000D01*
X66542000Y21238000D02*
X66530000Y21250000D01*
D61*
X65492000Y89800000D02*
X65092000Y89400000D01*
X65092000Y54710000D02*
X65092000Y56310000D01*
X65092000Y87800000D02*
X65092000Y89400000D01*
D56*
X47232000Y15557500D02*
X48237500Y15557500D01*
D61*
X24492000Y54730000D02*
X24492000Y56330000D01*
D60*
X20370000Y34550000D02*
X20370000Y35720000D01*
D61*
X40732000Y67960000D02*
X40732000Y69560000D01*
D56*
X44302600Y18602600D02*
X44220000Y18520000D01*
D61*
X42617000Y11375000D02*
X43972000Y10020000D01*
D60*
X61180000Y16160000D02*
X59430000Y17910000D01*
D61*
X41242000Y89930000D02*
X40732000Y89420000D01*
X65092000Y67940000D02*
X65092000Y69540000D01*
D60*
X34320000Y30070000D02*
X32670000Y30070000D01*
D58*
X33600000Y5510000D02*
X33210000Y5120000D01*
D61*
X48852000Y87820000D02*
X48852000Y89420000D01*
X56972000Y74570000D02*
X56972000Y76170000D01*
D56*
X39450000Y58788828D02*
X40732000Y60070828D01*
D60*
X77592000Y8310000D02*
X77592000Y6560000D01*
D56*
X47799400Y49132600D02*
X47799400Y56070000D01*
D61*
X65102000Y61310000D02*
X65102000Y62910000D01*
X32622000Y61320000D02*
X32622000Y62920000D01*
D60*
X31170000Y33920000D02*
X30080000Y33920000D01*
D58*
X33690000Y6330000D02*
X33600000Y6420000D01*
D61*
X32612000Y87810000D02*
X32612000Y89410000D01*
D60*
X22120000Y14510000D02*
X21330000Y14510000D01*
X66542000Y16660000D02*
X66542000Y21238000D01*
D61*
X66782000Y89800000D02*
X65492000Y89800000D01*
X34322000Y89910000D02*
X33112000Y89910000D01*
X24492000Y89420000D02*
X25002000Y89930000D01*
D56*
X40732000Y48080000D02*
X39450000Y49362000D01*
D61*
X83348590Y78155596D02*
X83348590Y78148590D01*
X32612000Y67950000D02*
X32612000Y69550000D01*
X33112000Y89910000D02*
X32612000Y89410000D01*
X56972000Y87810000D02*
X56972000Y89410000D01*
X65092000Y48080000D02*
X65092000Y49680000D01*
D56*
X56972000Y54700000D02*
X55800000Y55872000D01*
D61*
X40732000Y81200000D02*
X40732000Y82800000D01*
D60*
X27500000Y14510000D02*
X26705000Y14510000D01*
D61*
X32612000Y54720000D02*
X32612000Y56320000D01*
X27385000Y26740000D02*
X27385000Y29476464D01*
D56*
X48237500Y15557500D02*
X48250000Y15570000D01*
D60*
X18160000Y32140000D02*
X17880000Y31860000D01*
D61*
X28063000Y3611000D02*
X29901000Y3611000D01*
X24492000Y48100000D02*
X24492000Y49700000D01*
X51717000Y11840000D02*
X51717000Y11385000D01*
D58*
X36082000Y6330000D02*
X33690000Y6330000D01*
D60*
X20400000Y30236400D02*
X20476400Y30160000D01*
D56*
X48852000Y59860774D02*
X48852000Y61320000D01*
D58*
X33600000Y6420000D02*
X33600000Y5510000D01*
D60*
X22920000Y14510000D02*
X22120000Y14510000D01*
D61*
X56972000Y81190000D02*
X56972000Y82790000D01*
D56*
X55800000Y55872000D02*
X55800000Y56240000D01*
X43700000Y22330000D02*
X43889705Y22330000D01*
D61*
X29901000Y3611000D02*
X30782000Y2730000D01*
D56*
X40732000Y60070828D02*
X40732000Y61320000D01*
D60*
X18875000Y32140000D02*
X18160000Y32140000D01*
X32670000Y30070000D02*
X31930000Y30070000D01*
D56*
X56972000Y60023775D02*
X56972000Y61320000D01*
D61*
X42492000Y89930000D02*
X41242000Y89930000D01*
D60*
X27740000Y13400000D02*
X30240000Y13400000D01*
X20400000Y31140000D02*
X20400000Y30236400D01*
X15800000Y24300000D02*
X15260000Y24840000D01*
D61*
X50512000Y89870000D02*
X49302000Y89870000D01*
X83348590Y78148590D02*
X82250000Y77050000D01*
D59*
X38017000Y9100000D02*
X39172000Y9100000D01*
D60*
X27500000Y14510000D02*
X27500000Y13640000D01*
D61*
X40732000Y74580000D02*
X40732000Y76180000D01*
D56*
X55800000Y49252000D02*
X55800000Y56240000D01*
D61*
X40742000Y61330000D02*
X40742000Y62930000D01*
D59*
X43972000Y10020000D02*
X43972000Y6770000D01*
D60*
X18100000Y31640000D02*
X17880000Y31860000D01*
X61170000Y6560000D02*
X59420000Y8310000D01*
D61*
X57452000Y89890000D02*
X56972000Y89410000D01*
D60*
X30782000Y2490000D02*
X30272100Y2999900D01*
X27500000Y13640000D02*
X27740000Y13400000D01*
X76692000Y9210000D02*
X77592000Y8310000D01*
D61*
X42617000Y11820000D02*
X42617000Y11375000D01*
X24492000Y67960000D02*
X24492000Y69560000D01*
X24492000Y81200000D02*
X24492000Y82800000D01*
X24492000Y87820000D02*
X24492000Y89420000D01*
D59*
X70060000Y23730000D02*
X70050000Y23740000D01*
D61*
X48862000Y61330000D02*
X48862000Y62930000D01*
D56*
X47799400Y58808174D02*
X48852000Y59860774D01*
D60*
X18875000Y31640000D02*
X18100000Y31640000D01*
D56*
X44302600Y21917105D02*
X44302600Y18602600D01*
D60*
X23705000Y14510000D02*
X22920000Y14510000D01*
D61*
X65092000Y74560000D02*
X65092000Y76160000D01*
X27385000Y29476464D02*
X27839268Y29930732D01*
D60*
%TO.N,+3.3V*%
X18875000Y32640000D02*
X18875000Y33450000D01*
X22947500Y20702500D02*
X23812500Y20702500D01*
D59*
X41430000Y18500000D02*
X42650000Y18500000D01*
X28320000Y25560000D02*
X28270000Y25610000D01*
D60*
X26185000Y19865000D02*
X26185000Y20985000D01*
X20530000Y16060000D02*
X20530000Y16065000D01*
X33922500Y24302500D02*
X34380000Y24760000D01*
D59*
X42448000Y20767500D02*
X42448000Y18742000D01*
X12413250Y36856750D02*
X2522000Y36856750D01*
D60*
X24185000Y19865000D02*
X24185000Y20945000D01*
D59*
X28290000Y21010000D02*
X28510000Y21230000D01*
X68750000Y18418000D02*
X68742000Y18410000D01*
D60*
X32830000Y12580000D02*
X32810000Y12560000D01*
D59*
X34340000Y24720000D02*
X34380000Y24760000D01*
X41618500Y22560000D02*
X41626000Y22567500D01*
X33440000Y24720000D02*
X34340000Y24720000D01*
X28660000Y24300000D02*
X28660000Y24820000D01*
D60*
X24185000Y20945000D02*
X24120000Y21010000D01*
X21040000Y32140000D02*
X20400000Y32140000D01*
D59*
X24110000Y25220000D02*
X24080000Y25190000D01*
D60*
X26185000Y25615000D02*
X26180000Y25610000D01*
X22947500Y24302500D02*
X24062500Y24302500D01*
D59*
X42448000Y18742000D02*
X42670000Y18520000D01*
X68750000Y21050000D02*
X68750000Y18418000D01*
X68742000Y14942000D02*
X68742000Y16660000D01*
X68190000Y14390000D02*
X68742000Y14942000D01*
X26210000Y21010000D02*
X28290000Y21010000D01*
D60*
X29822500Y20702500D02*
X29037500Y20702500D01*
D59*
X57220000Y16640000D02*
X59470000Y14390000D01*
X28660000Y25220000D02*
X28320000Y25560000D01*
D60*
X23785000Y18255000D02*
X22120000Y16590000D01*
D59*
X42650000Y18500000D02*
X42670000Y18520000D01*
D60*
X26185000Y26740000D02*
X26185000Y25615000D01*
D59*
X24500000Y25610000D02*
X24110000Y25220000D01*
D60*
X23785000Y19865000D02*
X23785000Y19320000D01*
X31404700Y13785300D02*
X31790000Y13400000D01*
X23785000Y19320000D02*
X23785000Y18255000D01*
X20530000Y16065000D02*
X23785000Y19320000D01*
X26185000Y16580000D02*
X26705000Y16060000D01*
D59*
X28660000Y24820000D02*
X28660000Y25220000D01*
D60*
X32830000Y13400000D02*
X33780000Y13400000D01*
X21070000Y33450000D02*
X21240000Y33280000D01*
X18062500Y24302500D02*
X18060000Y24300000D01*
X25794900Y19855100D02*
X25794900Y16970100D01*
D59*
X32520000Y8020000D02*
X33550000Y8020000D01*
D60*
X24185000Y18125000D02*
X22120000Y16060000D01*
D59*
X24080000Y25180000D02*
X24120000Y23490000D01*
X13290000Y35980000D02*
X12413250Y36856750D01*
X17580000Y33310000D02*
X18820000Y34550000D01*
X24120000Y21010000D02*
X26210000Y21010000D01*
D60*
X21240000Y32340000D02*
X21040000Y32140000D01*
D59*
X28510000Y21230000D02*
X28620000Y21340000D01*
X68750000Y22360000D02*
X68510000Y22600000D01*
D60*
X29822500Y24302500D02*
X33922500Y24302500D01*
X24185000Y19865000D02*
X24185000Y18125000D01*
D59*
X43290000Y16640000D02*
X41430000Y18500000D01*
X68750000Y21050000D02*
X68750000Y22360000D01*
D60*
X23812500Y20702500D02*
X24120000Y21010000D01*
X18875000Y33450000D02*
X18875000Y34495000D01*
D59*
X23140000Y32450000D02*
X23130000Y32440000D01*
X33780000Y8150000D02*
X33600000Y7970000D01*
D60*
X26185000Y19865000D02*
X26185000Y16580000D01*
D59*
X35742000Y8150000D02*
X33780000Y8150000D01*
D60*
X18875000Y34495000D02*
X18820000Y34550000D01*
D59*
X40380000Y22560000D02*
X41618500Y22560000D01*
X13290000Y33200000D02*
X13290000Y35980000D01*
D60*
X26185000Y20985000D02*
X26210000Y21010000D01*
X18875000Y33450000D02*
X21070000Y33450000D01*
D59*
X57220000Y16640000D02*
X43290000Y16640000D01*
D60*
X31790000Y13400000D02*
X32830000Y13400000D01*
D59*
X68742000Y18410000D02*
X68742000Y17305200D01*
X23991100Y32450000D02*
X23140000Y32450000D01*
D60*
X23785000Y20675000D02*
X24120000Y21010000D01*
X22120000Y16590000D02*
X22120000Y16060000D01*
X29037500Y20702500D02*
X28510000Y21230000D01*
D59*
X59470000Y14390000D02*
X68190000Y14390000D01*
X33550000Y8020000D02*
X33600000Y7970000D01*
D60*
X28662500Y24302500D02*
X28660000Y24300000D01*
X25794900Y16970100D02*
X26185000Y16580000D01*
D59*
X28270000Y25610000D02*
X26180000Y25610000D01*
X25540000Y25610000D02*
X24500000Y25610000D01*
D60*
X32830000Y13400000D02*
X32830000Y12580000D01*
D59*
X26180000Y25610000D02*
X25540000Y25610000D01*
D60*
X25785000Y19865000D02*
X25794900Y19855100D01*
X22947500Y24302500D02*
X18062500Y24302500D01*
X31404700Y14949999D02*
X31404700Y13785300D01*
X21240000Y33280000D02*
X21240000Y32340000D01*
D59*
X17580000Y33210000D02*
X17580000Y33310000D01*
X28660000Y21380000D02*
X28660000Y24300000D01*
D60*
X23785000Y19865000D02*
X23785000Y20675000D01*
X29822500Y24302500D02*
X28662500Y24302500D01*
D59*
X28620000Y21340000D02*
X28660000Y21380000D01*
D60*
%TO.N,Net-(U2-VREG_VOUT)*%
X25785000Y26740000D02*
X25785000Y28080000D01*
X25785000Y28080000D02*
X25800000Y28095000D01*
X24210000Y17220000D02*
X23830000Y17220000D01*
X25800000Y30092832D02*
X26933584Y31226416D01*
X24585000Y17989296D02*
X23822852Y17227148D01*
X25800000Y28810000D02*
X25800000Y30092832D01*
X25800000Y28095000D02*
X25800000Y28810000D01*
X25800000Y28810000D02*
X25800000Y30840000D01*
X26585000Y17765000D02*
X27125000Y17225000D01*
X24585000Y19865000D02*
X24585000Y17989296D01*
X23830000Y17220000D02*
X23822852Y17227148D01*
X26585000Y19865000D02*
X26585000Y17765000D01*
X27125000Y17225000D02*
X28290000Y16060000D01*
X23822852Y17227148D02*
X23705000Y17109296D01*
X23705000Y17109296D02*
X23705000Y16060000D01*
D59*
%TO.N,VCC*%
X37632000Y7765000D02*
X38017000Y8150000D01*
%TO.N,VBUS*%
X44772000Y6770000D02*
X44918600Y6623400D01*
X47430000Y3990000D02*
X45280000Y3990000D01*
X49425400Y5985400D02*
X47430000Y3990000D01*
D57*
%TO.N,VCC*%
X36689744Y9295000D02*
X37444744Y10050000D01*
D59*
%TO.N,VBUS*%
X44918600Y6015472D02*
X45280000Y5654072D01*
X45280000Y5654072D02*
X45280000Y3990000D01*
X44918600Y6623400D02*
X44918600Y6015472D01*
D57*
%TO.N,VCC*%
X37444744Y10050000D02*
X38017000Y10050000D01*
X22372000Y5682000D02*
X22372000Y5700000D01*
D59*
X37632000Y6330000D02*
X37632000Y7765000D01*
%TO.N,VBUS*%
X49425400Y6623400D02*
X49425400Y5985400D01*
X49572000Y6770000D02*
X49425400Y6623400D01*
D57*
X10690000Y72560000D02*
X7750000Y72560000D01*
D60*
%TO.N,XTAL_IN*%
X36020000Y30680000D02*
X35540000Y31160000D01*
X32860000Y31160000D02*
X32560000Y30860000D01*
X32560000Y30860000D02*
X31170000Y30860000D01*
X27935704Y30860000D02*
X31170000Y30860000D01*
X35540000Y31160000D02*
X32860000Y31160000D01*
X36020000Y30070000D02*
X36020000Y30680000D01*
X26985000Y29909296D02*
X27935704Y30860000D01*
X26985000Y26740000D02*
X26985000Y29909296D01*
%TO.N,Net-(C13-Pad2)*%
X34320000Y32270000D02*
X31270000Y32270000D01*
X31270000Y32270000D02*
X31170000Y32370000D01*
X29270000Y32370000D02*
X31170000Y32370000D01*
D57*
%TO.N,Net-(D1-K)*%
X16540000Y13192500D02*
X19872000Y9860500D01*
X19872000Y9860500D02*
X19872000Y5700000D01*
%TO.N,Net-(D1-A)*%
X13412500Y15992500D02*
X13400000Y15980000D01*
X16540000Y15992500D02*
X13412500Y15992500D01*
D60*
%TO.N,Net-(D2-DIN)*%
X65092000Y34082000D02*
X65092000Y44780000D01*
X62940000Y31930000D02*
X65092000Y34082000D01*
X41770000Y31930000D02*
X62940000Y31930000D01*
D61*
%TO.N,Net-(D2-DOUT)*%
X68412000Y48080000D02*
X65092000Y51400000D01*
X69992000Y48080000D02*
X68412000Y48080000D01*
%TO.N,Net-(D3-DOUT)*%
X69992000Y54700000D02*
X68412000Y54700000D01*
X68412000Y54700000D02*
X65092000Y58020000D01*
%TO.N,Net-(D4-DOUT)*%
X69992000Y61320000D02*
X68412000Y61320000D01*
X68412000Y61320000D02*
X65092000Y64640000D01*
%TO.N,Net-(D5-DOUT)*%
X68412000Y67940000D02*
X65092000Y71260000D01*
X69992000Y67940000D02*
X68412000Y67940000D01*
%TO.N,Net-(D6-DOUT)*%
X69992000Y74560000D02*
X68412000Y74560000D01*
X68412000Y74560000D02*
X65092000Y77880000D01*
%TO.N,Net-(D7-DOUT)*%
X68412000Y81180000D02*
X65092000Y84500000D01*
X69992000Y81180000D02*
X68412000Y81180000D01*
D56*
%TO.N,Net-(D8-DOUT)*%
X63731600Y44419600D02*
X63731600Y85309600D01*
X58402000Y43350000D02*
X62662000Y43350000D01*
X63731600Y85309600D02*
X64742000Y86320000D01*
X62662000Y43350000D02*
X63731600Y44419600D01*
X67522000Y87800000D02*
X69992000Y87800000D01*
X64742000Y86320000D02*
X66042000Y86320000D01*
X56972000Y44780000D02*
X58402000Y43350000D01*
X66042000Y86320000D02*
X67522000Y87800000D01*
D61*
%TO.N,Net-(D10-DIN)*%
X61872000Y48090000D02*
X60292000Y48090000D01*
X60292000Y48090000D02*
X56972000Y51410000D01*
%TO.N,Net-(D10-DOUT)*%
X61872000Y54710000D02*
X60292000Y54710000D01*
X60292000Y54710000D02*
X56972000Y58030000D01*
%TO.N,Net-(D11-DOUT)*%
X60292000Y61330000D02*
X56972000Y64650000D01*
X61872000Y61330000D02*
X60292000Y61330000D01*
%TO.N,Net-(D12-DOUT)*%
X60292000Y67950000D02*
X56972000Y71270000D01*
X61872000Y67950000D02*
X60292000Y67950000D01*
%TO.N,Net-(D13-DOUT)*%
X61872000Y74570000D02*
X60292000Y74570000D01*
X60292000Y74570000D02*
X56972000Y77890000D01*
%TO.N,Net-(D14-DOUT)*%
X60292000Y81190000D02*
X56972000Y84510000D01*
X61872000Y81190000D02*
X60292000Y81190000D01*
D56*
%TO.N,Net-(D15-DOUT)*%
X54557000Y43345000D02*
X55259600Y44047600D01*
X55259600Y44047600D02*
X55259600Y58883000D01*
X55626600Y85304600D02*
X56637000Y86315000D01*
X59417000Y87795000D02*
X61887000Y87795000D01*
X50297000Y43345000D02*
X54557000Y43345000D01*
X55626600Y59250000D02*
X55626600Y85304600D01*
X56637000Y86315000D02*
X57937000Y86315000D01*
X55259600Y58883000D02*
X55626600Y59250000D01*
X57937000Y86315000D02*
X59417000Y87795000D01*
X48867000Y44775000D02*
X50297000Y43345000D01*
D61*
%TO.N,Net-(D16-DOUT)*%
X53752000Y48100000D02*
X52172000Y48100000D01*
X52172000Y48100000D02*
X48852000Y51420000D01*
%TO.N,Net-(D17-DOUT)*%
X53752000Y54720000D02*
X52172000Y54720000D01*
X52172000Y54720000D02*
X48852000Y58040000D01*
%TO.N,Net-(D18-DOUT)*%
X52172000Y61340000D02*
X48852000Y64660000D01*
X53752000Y61340000D02*
X52172000Y61340000D01*
%TO.N,Net-(D19-DOUT)*%
X52172000Y67960000D02*
X48852000Y71280000D01*
X53752000Y67960000D02*
X52172000Y67960000D01*
%TO.N,Net-(D20-DOUT)*%
X53752000Y74580000D02*
X52172000Y74580000D01*
X52172000Y74580000D02*
X48852000Y77900000D01*
%TO.N,Net-(D21-DOUT)*%
X53752000Y81200000D02*
X52172000Y81200000D01*
X52172000Y81200000D02*
X48852000Y84520000D01*
D56*
%TO.N,Net-(D22-DOUT)*%
X46427000Y43315000D02*
X47139600Y44027600D01*
X48507000Y86285000D02*
X49807000Y86285000D01*
X42167000Y43315000D02*
X46427000Y43315000D01*
X49807000Y86285000D02*
X51287000Y87765000D01*
X40737000Y44745000D02*
X42167000Y43315000D01*
X47496600Y59077000D02*
X47496600Y85274600D01*
X47496600Y85274600D02*
X48507000Y86285000D01*
X47139600Y58720000D02*
X47496600Y59077000D01*
X47139600Y44027600D02*
X47139600Y58720000D01*
X51287000Y87765000D02*
X53757000Y87765000D01*
D61*
%TO.N,Net-(D23-DOUT)*%
X44052000Y48100000D02*
X40732000Y51420000D01*
X45632000Y48100000D02*
X44052000Y48100000D01*
%TO.N,Net-(D24-DOUT)*%
X45632000Y54720000D02*
X44052000Y54720000D01*
X44052000Y54720000D02*
X40732000Y58040000D01*
%TO.N,Net-(D25-DOUT)*%
X44052000Y61340000D02*
X40732000Y64660000D01*
X45632000Y61340000D02*
X44052000Y61340000D01*
%TO.N,Net-(D26-DOUT)*%
X44052000Y67960000D02*
X40732000Y71280000D01*
X45632000Y67960000D02*
X44052000Y67960000D01*
%TO.N,Net-(D27-DOUT)*%
X45632000Y74580000D02*
X44052000Y74580000D01*
X44052000Y74580000D02*
X40732000Y77900000D01*
%TO.N,Net-(D28-DOUT)*%
X45632000Y81200000D02*
X44052000Y81200000D01*
X44052000Y81200000D02*
X40732000Y84520000D01*
D56*
%TO.N,Net-(D29-DOUT)*%
X40407000Y86315000D02*
X41707000Y86315000D01*
X41707000Y86315000D02*
X43187000Y87795000D01*
X43187000Y87795000D02*
X45657000Y87795000D01*
X39019600Y44037600D02*
X39019600Y58930054D01*
X34067000Y43345000D02*
X38327000Y43345000D01*
X32637000Y44775000D02*
X34067000Y43345000D01*
X39396600Y85304600D02*
X40407000Y86315000D01*
X38327000Y43345000D02*
X39019600Y44037600D01*
X39396600Y59307054D02*
X39396600Y85304600D01*
X39019600Y58930054D02*
X39396600Y59307054D01*
D61*
%TO.N,Net-(D30-DOUT)*%
X37512000Y48090000D02*
X35932000Y48090000D01*
X35932000Y48090000D02*
X32612000Y51410000D01*
%TO.N,Net-(D31-DOUT)*%
X35932000Y54710000D02*
X32612000Y58030000D01*
X37512000Y54710000D02*
X35932000Y54710000D01*
%TO.N,Net-(D32-DOUT)*%
X37512000Y61330000D02*
X35932000Y61330000D01*
X35932000Y61330000D02*
X32612000Y64650000D01*
%TO.N,Net-(D33-DOUT)*%
X37512000Y67950000D02*
X35932000Y67950000D01*
X35932000Y67950000D02*
X32612000Y71270000D01*
%TO.N,Net-(D34-DOUT)*%
X37512000Y74570000D02*
X35932000Y74570000D01*
X35932000Y74570000D02*
X32612000Y77890000D01*
%TO.N,Net-(D35-DOUT)*%
X37512000Y81190000D02*
X35932000Y81190000D01*
X35932000Y81190000D02*
X32612000Y84510000D01*
D56*
%TO.N,Net-(D36-DOUT)*%
X35057000Y87775000D02*
X37527000Y87775000D01*
X30197000Y43325000D02*
X31266600Y44394600D01*
X33577000Y86295000D02*
X35057000Y87775000D01*
X31266600Y85284600D02*
X32277000Y86295000D01*
X24507000Y44755000D02*
X25937000Y43325000D01*
X25937000Y43325000D02*
X30197000Y43325000D01*
X32277000Y86295000D02*
X33577000Y86295000D01*
X31266600Y44394600D02*
X31266600Y85284600D01*
D61*
%TO.N,Net-(D37-DOUT)*%
X29392000Y48100000D02*
X27812000Y48100000D01*
X27812000Y48100000D02*
X24492000Y51420000D01*
%TO.N,Net-(D38-DOUT)*%
X27812000Y54720000D02*
X24492000Y58040000D01*
X29392000Y54720000D02*
X27812000Y54720000D01*
%TO.N,Net-(D39-DOUT)*%
X29392000Y61340000D02*
X27812000Y61340000D01*
X27812000Y61340000D02*
X24492000Y64660000D01*
%TO.N,Net-(D40-DOUT)*%
X27812000Y67960000D02*
X24492000Y71280000D01*
X29392000Y67960000D02*
X27812000Y67960000D01*
%TO.N,Net-(D41-DOUT)*%
X27812000Y74580000D02*
X24492000Y77900000D01*
X29392000Y74580000D02*
X27812000Y74580000D01*
%TO.N,Net-(D42-DOUT)*%
X29392000Y81200000D02*
X27812000Y81200000D01*
X27812000Y81200000D02*
X24492000Y84520000D01*
D60*
%TO.N,SPI0_MISO*%
X64710000Y24630000D02*
X41200000Y24630000D01*
X41200000Y24630000D02*
X39272500Y22702500D01*
X39272500Y22702500D02*
X29822500Y22702500D01*
X65442000Y23898000D02*
X64710000Y24630000D01*
X65442000Y16660000D02*
X65442000Y23898000D01*
%TO.N,SPI0_MOSI*%
X69842000Y21018000D02*
X69780000Y21080000D01*
X29822500Y23902500D02*
X38865388Y23902500D01*
X42980000Y25820000D02*
X66180000Y25820000D01*
X38865388Y23902500D02*
X40782888Y25820000D01*
X40782888Y25820000D02*
X42980000Y25820000D01*
X66180000Y25820000D02*
X66530000Y26170000D01*
X69842000Y16660000D02*
X69842000Y21018000D01*
X66530000Y26170000D02*
X66530000Y26190000D01*
%TO.N,SD_CS*%
X70942000Y23918000D02*
X69830000Y25030000D01*
X70942000Y16660000D02*
X70942000Y23918000D01*
X41064296Y25030000D02*
X39136796Y23102500D01*
X69830000Y25030000D02*
X41064296Y25030000D01*
X39136796Y23102500D02*
X29822500Y23102500D01*
%TO.N,SPI0_SCK*%
X39834296Y24335704D02*
X40918592Y25420000D01*
X67642000Y16660000D02*
X67642000Y24258000D01*
X39001092Y23502500D02*
X39834296Y24335704D01*
X42400000Y25420000D02*
X67140000Y25420000D01*
X40918592Y25420000D02*
X42400000Y25420000D01*
X67642000Y24258000D02*
X67610000Y24290000D01*
X67140000Y25420000D02*
X67610000Y25890000D01*
X29822500Y23502500D02*
X39001092Y23502500D01*
D56*
%TO.N,Net-(J2-CC2)*%
X48922000Y10770000D02*
X49992000Y11840000D01*
D61*
X48922000Y6770000D02*
X48922000Y10770000D01*
D56*
X49992000Y11840000D02*
X50382000Y11840000D01*
%TO.N,Net-(J2-CC1)*%
X43952000Y11820000D02*
X44582000Y11820000D01*
D61*
X45922000Y7520000D02*
X45872000Y7570000D01*
X45922000Y6770000D02*
X45922000Y7520000D01*
D56*
X44582000Y11820000D02*
X45872000Y10530000D01*
D61*
X45872000Y7570000D02*
X45872000Y10530000D01*
D60*
%TO.N,SS*%
X28985000Y19865000D02*
X28985000Y19257816D01*
X29780000Y8010000D02*
X29780000Y7002000D01*
X28985000Y19257816D02*
X30485216Y17757600D01*
X35907600Y15247600D02*
X35907600Y13902400D01*
X35907600Y15247600D02*
X35609999Y14949999D01*
X35430000Y13420000D02*
X35430000Y13400000D01*
X36480000Y13400000D02*
X36490000Y13390000D01*
X35213808Y17757600D02*
X35907600Y17063808D01*
X35430000Y13400000D02*
X36480000Y13400000D01*
X30485216Y17757600D02*
X35213808Y17757600D01*
X35910000Y13900000D02*
X35430000Y13420000D01*
X29780000Y7002000D02*
X29792000Y6990000D01*
X35609999Y14949999D02*
X34201500Y14949999D01*
X35907600Y13902400D02*
X35910000Y13900000D01*
X35907600Y17063808D02*
X35907600Y15247600D01*
D61*
%TO.N,Net-(R1-Pad1)*%
X27182000Y1290000D02*
X27702000Y1810000D01*
X26482000Y1290000D02*
X27182000Y1290000D01*
X30262000Y1810000D02*
X30782000Y1290000D01*
X27702000Y1810000D02*
X30262000Y1810000D01*
X28457000Y6990000D02*
X26922000Y6990000D01*
X26162100Y1609900D02*
X26482000Y1290000D01*
X26922000Y6990000D02*
X26162100Y6230100D01*
X26162100Y6230100D02*
X26162100Y1609900D01*
D60*
%TO.N,Net-(U2-RUN)*%
X23130000Y29860000D02*
X23130000Y30790000D01*
X24585000Y26740000D02*
X24585000Y28405000D01*
X24585000Y28405000D02*
X23130000Y29860000D01*
%TO.N,GPIO24*%
X20112500Y23102500D02*
X22947500Y23102500D01*
X6422852Y25447148D02*
X6422852Y23772852D01*
X5173250Y26696750D02*
X6422852Y25447148D01*
X6422852Y23772852D02*
X7425704Y22770000D01*
X7425704Y22770000D02*
X19780000Y22770000D01*
X2522000Y26696750D02*
X5173250Y26696750D01*
X19780000Y22770000D02*
X20112500Y23102500D01*
%TO.N,RGB*%
X41770000Y30084128D02*
X41770000Y30280000D01*
X28585000Y26740000D02*
X28585000Y27265000D01*
X39275872Y27590000D02*
X41770000Y30084128D01*
X28585000Y27265000D02*
X28910000Y27590000D01*
X28910000Y27590000D02*
X39275872Y27590000D01*
%TO.N,GPIO28*%
X5326750Y16536750D02*
X2522000Y16536750D01*
X20655316Y21502500D02*
X20382816Y21230000D01*
X6407852Y20252148D02*
X6407852Y17617852D01*
X22947500Y21502500D02*
X20655316Y21502500D01*
X7385704Y21230000D02*
X6407852Y20252148D01*
X6407852Y17617852D02*
X5326750Y16536750D01*
X20382816Y21230000D02*
X7385704Y21230000D01*
%TO.N,GPIO27*%
X20238312Y21621200D02*
X7241200Y21621200D01*
X5730000Y20110000D02*
X5730000Y20106750D01*
X5730000Y20106750D02*
X4700000Y19076750D01*
X20519612Y21902500D02*
X20238312Y21621200D01*
X7241200Y21621200D02*
X5730000Y20110000D01*
X4700000Y19076750D02*
X2522000Y19076750D01*
X22947500Y21902500D02*
X20519612Y21902500D01*
%TO.N,DS2*%
X34940000Y15950000D02*
X34201500Y15950000D01*
X28185000Y19865000D02*
X28185000Y18986408D01*
X30171408Y17000000D02*
X34900000Y17000000D01*
X28185000Y18986408D02*
X30171408Y17000000D01*
X34900000Y17000000D02*
X35150000Y16750000D01*
X35150000Y16750000D02*
X35150000Y16160000D01*
X35150000Y16160000D02*
X34940000Y15950000D01*
%TO.N,GPIO26*%
X2522000Y21616750D02*
X6656750Y21616750D01*
X7040000Y22000000D02*
X20081408Y22000000D01*
X6656750Y21616750D02*
X7040000Y22000000D01*
X20383908Y22302500D02*
X22947500Y22302500D01*
X20081408Y22000000D02*
X20383908Y22302500D01*
D57*
%TO.N,Net-(J3-Pin_1)*%
X2665250Y72560000D02*
X2522000Y72416750D01*
X6450000Y72560000D02*
X2665250Y72560000D01*
D60*
%TO.N,GPIO25*%
X19936904Y22391200D02*
X7268800Y22391200D01*
X7268800Y22391200D02*
X5503250Y24156750D01*
X5503250Y24156750D02*
X2522000Y24156750D01*
X22947500Y22702500D02*
X20248204Y22702500D01*
X20248204Y22702500D02*
X19936904Y22391200D01*
%TO.N,DS0*%
X30185703Y16450001D02*
X31404700Y16450001D01*
X27785000Y18850704D02*
X30185703Y16450001D01*
X27785000Y19865000D02*
X27785000Y18850704D01*
%TO.N,SWCLK*%
X25385000Y26740000D02*
X25385000Y29275000D01*
X24580000Y34230000D02*
X24590000Y34240000D01*
X25385000Y29275000D02*
X24610000Y30050000D01*
X24610000Y30050000D02*
X24580000Y30050000D01*
X24580000Y30050000D02*
X24580000Y34230000D01*
X2522000Y34316750D02*
X12630000Y34316750D01*
%TO.N,GPIO20*%
X16050000Y29670000D02*
X16050000Y65940000D01*
X14653250Y67336750D02*
X2522000Y67336750D01*
X22947500Y25102500D02*
X20617500Y25102500D01*
X16050000Y65940000D02*
X14653250Y67336750D01*
X20617500Y25102500D02*
X16050000Y29670000D01*
%TO.N,SWD*%
X2522000Y29236750D02*
X13290000Y29236750D01*
X24985000Y28837832D02*
X24556416Y29266416D01*
X24985000Y26740000D02*
X24985000Y28837832D01*
%TO.N,Net-(D44-K-Pad1)*%
X46119500Y13445000D02*
X46282000Y13282500D01*
D56*
X46282000Y13282500D02*
X46299500Y13265000D01*
X46299500Y10292500D02*
X46402000Y10190000D01*
D61*
X46422000Y10170000D02*
X46402000Y10190000D01*
D56*
X47072000Y10190000D02*
X47422000Y9840000D01*
D60*
X44267000Y13445000D02*
X46119500Y13445000D01*
D61*
X46422000Y6770000D02*
X46422000Y10170000D01*
D56*
X46299500Y13265000D02*
X46299500Y10292500D01*
X46402000Y10190000D02*
X47072000Y10190000D01*
D61*
X47422000Y6770000D02*
X47422000Y9840000D01*
D60*
%TO.N,SDA*%
X24185000Y26740000D02*
X24185000Y28197300D01*
X17220000Y40960000D02*
X17220000Y70745704D01*
X17220000Y70745704D02*
X12450000Y75515704D01*
X21636150Y30746150D02*
X20742300Y31640000D01*
X24185000Y28197300D02*
X21636150Y30746150D01*
X21636150Y36543850D02*
X17220000Y40960000D01*
X12450000Y80620000D02*
X11190000Y81880000D01*
X20742300Y31640000D02*
X20400000Y31640000D01*
X12450000Y75515704D02*
X12450000Y80620000D01*
X21636150Y30746150D02*
X21636150Y36543850D01*
%TO.N,CLK*%
X27385000Y18710118D02*
X30145118Y15950000D01*
X27385000Y18710118D02*
X27385000Y19865000D01*
X30145118Y15950000D02*
X31404700Y15950000D01*
%TO.N,unconnected-(U2-GPIO15-Pad18)*%
X27785000Y26740000D02*
X27785000Y28685000D01*
X27785000Y28685000D02*
X28810000Y29710000D01*
%TO.N,GPIO21*%
X14850000Y26680000D02*
X15890000Y25640000D01*
X18880000Y25640000D02*
X19817500Y24702500D01*
X2522000Y57176750D02*
X12820000Y57176750D01*
X15890000Y25640000D02*
X18880000Y25640000D01*
X19817500Y24702500D02*
X22947500Y24702500D01*
X14850000Y57180000D02*
X14850000Y26680000D01*
%TO.N,I2S_DOUT*%
X41626000Y21667500D02*
X35252500Y21667500D01*
X34617500Y22302500D02*
X29822500Y22302500D01*
X35252500Y21667500D02*
X34617500Y22302500D01*
%TO.N,DS3*%
X30109414Y15450000D02*
X31404700Y15450000D01*
X26985000Y18574414D02*
X30109414Y15450000D01*
X26985000Y19865000D02*
X26985000Y18574414D01*
%TO.N,I2S_LRCLK*%
X34507500Y21502500D02*
X29822500Y21502500D01*
X41626000Y20767500D02*
X35242500Y20767500D01*
X35242500Y20767500D02*
X34507500Y21502500D01*
%TO.N,I2S_BCLK*%
X42430000Y22585500D02*
X42448000Y22567500D01*
X39540000Y20380000D02*
X40200000Y19720000D01*
X29822500Y21102500D02*
X34371796Y21102500D01*
X35094296Y20380000D02*
X38590000Y20380000D01*
X34371796Y21102500D02*
X35094296Y20380000D01*
X42430000Y23990000D02*
X42430000Y22585500D01*
X38590000Y20380000D02*
X39540000Y20380000D01*
D61*
%TO.N,USB_N*%
X24985000Y16572300D02*
X24952700Y16540000D01*
X41628397Y13445000D02*
X39658397Y11475000D01*
X24985000Y19865000D02*
X24985000Y16572300D01*
X39658397Y11475000D02*
X25806802Y11475000D01*
X25806802Y11475000D02*
X24952700Y12329102D01*
X42617000Y13445000D02*
X41628397Y13445000D01*
X24952700Y16540000D02*
X24952700Y12329102D01*
%TO.N,USB_P*%
X42617000Y15070000D02*
X39472000Y11925000D01*
X25385000Y19865000D02*
X25385000Y16557700D01*
X25993198Y11925000D02*
X25402700Y12515498D01*
X39472000Y11925000D02*
X25993198Y11925000D01*
X25385000Y16557700D02*
X25402700Y16540000D01*
X25402700Y16540000D02*
X25402700Y12515498D01*
D60*
%TO.N,DS1*%
X35056904Y17378800D02*
X35528800Y16906904D01*
X28585000Y19122112D02*
X30328312Y17378800D01*
X35220000Y15450000D02*
X34201500Y15450000D01*
X28585000Y19865000D02*
X28585000Y19122112D01*
X35528800Y16906904D02*
X35528800Y15758800D01*
X35528800Y15758800D02*
X35220000Y15450000D01*
X30328312Y17378800D02*
X35056904Y17378800D01*
%TO.N,SCL*%
X20740000Y28090000D02*
X18705704Y28090000D01*
X16813800Y70616200D02*
X11190000Y76240000D01*
X18705704Y28090000D02*
X16813800Y29981904D01*
X23785000Y27485000D02*
X23180000Y28090000D01*
X20740000Y28090000D02*
X19887500Y28942500D01*
X23785000Y26740000D02*
X23785000Y27485000D01*
X19887500Y28942500D02*
X19887500Y31127500D01*
X11190000Y76240000D02*
X11190000Y79340000D01*
X16813800Y29981904D02*
X16813800Y70616200D01*
X23180000Y28090000D02*
X20740000Y28090000D01*
%TO.N,XTAL_OUT*%
X26585000Y26740000D02*
X26585000Y30045000D01*
X27620000Y31080000D02*
X27620000Y32370000D01*
X26585000Y30045000D02*
X27620000Y31080000D01*
D61*
%TO.N,DPAD_A*%
X90652000Y79908000D02*
X89412031Y81147969D01*
D60*
X88036200Y27790000D02*
X90651000Y30404800D01*
D61*
X89412031Y81147969D02*
X89412031Y82203783D01*
D60*
X39754380Y26430000D02*
X41114380Y27790000D01*
X32141098Y25502500D02*
X33068598Y26430000D01*
D61*
X90652000Y38700000D02*
X90652000Y79908000D01*
D60*
X90651000Y30404800D02*
X90651000Y39280000D01*
X33068598Y26430000D02*
X39754380Y26430000D01*
X41114380Y27790000D02*
X88036200Y27790000D01*
X29822500Y25502500D02*
X32141098Y25502500D01*
D61*
%TO.N,DPAD_B*%
X89850000Y73250000D02*
X85340000Y77760000D01*
D60*
X89850000Y30738000D02*
X89850000Y68170000D01*
D61*
X89850000Y68170000D02*
X89850000Y73250000D01*
D60*
X29454800Y27209800D02*
X39431376Y27209800D01*
X28985000Y26740000D02*
X29454800Y27209800D01*
D61*
X85340000Y77760000D02*
X84968248Y77760000D01*
D60*
X39431376Y27209800D02*
X40791576Y28570000D01*
X87682000Y28570000D02*
X89850000Y30738000D01*
D61*
X84968248Y77760000D02*
X84356217Y77147969D01*
D60*
X40791576Y28570000D02*
X87682000Y28570000D01*
D56*
%TO.N,Net-(D44-K-Pad2)*%
X48182000Y13282500D02*
X48199500Y13265000D01*
D60*
X48182000Y14180000D02*
X47952000Y14410000D01*
X48182000Y13282500D02*
X48182000Y14180000D01*
X44267000Y15070000D02*
X44267000Y15055000D01*
D61*
X47922000Y6770000D02*
X47922000Y10210000D01*
D60*
X44267000Y15055000D02*
X44912000Y14410000D01*
D61*
X47922000Y6836176D02*
X47922000Y6770000D01*
D56*
X48199500Y13265000D02*
X48199500Y10487500D01*
X48199500Y10487500D02*
X47922000Y10210000D01*
D60*
X44912000Y14410000D02*
X47952000Y14410000D01*
%TO.N,DPAD_C*%
X89860000Y84520000D02*
X87697740Y84520000D01*
X91453000Y82927000D02*
X89860000Y84520000D01*
X33420000Y25650000D02*
X40077184Y25650000D01*
X88380400Y27000000D02*
X91453000Y30072600D01*
X41427184Y27000000D02*
X88380400Y27000000D01*
X40077184Y25650000D02*
X41427184Y27000000D01*
X87697740Y84520000D02*
X87396777Y84219037D01*
X29822500Y24702500D02*
X32472500Y24702500D01*
X32472500Y24702500D02*
X33420000Y25650000D01*
X91453000Y30072600D02*
X91453000Y82927000D01*
D61*
%TO.N,DPAD_CTR*%
X89864300Y29051000D02*
X91052000Y30238700D01*
X91052000Y82778000D02*
X90220000Y83610000D01*
X39915682Y26039900D02*
X41265682Y27389900D01*
X33229900Y26039900D02*
X39915682Y26039900D01*
X41265682Y27389900D02*
X88199900Y27389900D01*
X89861000Y29051000D02*
X89864300Y29051000D01*
X29822500Y25102500D02*
X32292500Y25102500D01*
X88802994Y83610000D02*
X88404404Y83211410D01*
X88199900Y27389900D02*
X89861000Y29051000D01*
X90220000Y83610000D02*
X88802994Y83610000D01*
X32292500Y25102500D02*
X33229900Y26039900D01*
X91052000Y30238700D02*
X91052000Y82778000D01*
%TO.N,DPAD_D*%
X31982500Y25902500D02*
X32899900Y26819900D01*
X40952878Y28179900D02*
X87859900Y28179900D01*
X89532100Y29852100D02*
X89532100Y29853000D01*
X83177740Y80000000D02*
X82340963Y79163223D01*
X39592878Y26819900D02*
X40952878Y28179900D01*
X29822500Y25902500D02*
X31982500Y25902500D01*
X90251000Y73499000D02*
X83750000Y80000000D01*
X89532100Y29853000D02*
X90251000Y30571900D01*
X90251000Y30571900D02*
X90251000Y73499000D01*
X83750000Y80000000D02*
X83177740Y80000000D01*
X32899900Y26819900D02*
X39592878Y26819900D01*
X87859900Y28179900D02*
X89532100Y29852100D01*
D60*
%TO.N,GPIO19*%
X16435000Y29825000D02*
X16435000Y68385000D01*
X14943250Y69876750D02*
X2522000Y69876750D01*
X22947500Y25502500D02*
X20757500Y25502500D01*
X16435000Y68385000D02*
X14943250Y69876750D01*
X20757500Y25502500D02*
X16435000Y29825000D01*
%TO.N,GPIO18*%
X21190332Y25902500D02*
X20271416Y26821416D01*
X15671200Y64095550D02*
X14970000Y64796750D01*
X22947500Y25902500D02*
X21557500Y25902500D01*
X15820000Y26830000D02*
X15671200Y26978800D01*
X2522000Y64796750D02*
X14970000Y64796750D01*
X21557500Y25902500D02*
X21190332Y25902500D01*
X15671200Y26978800D02*
X15671200Y64095550D01*
%TO.N,unconnected-(U2-GPIO14-Pad17)*%
X28185000Y26740000D02*
X28185000Y28545000D01*
X28185000Y28545000D02*
X28820000Y29180000D01*
%TO.N,GPIO22*%
X15300000Y23530000D02*
X14258800Y24571200D01*
X14258800Y61447950D02*
X13450000Y62256750D01*
X22947500Y23902500D02*
X19832500Y23902500D01*
X13450000Y62256750D02*
X2522000Y62256750D01*
X19832500Y23902500D02*
X19460000Y23530000D01*
X14258800Y24571200D02*
X14258800Y61447950D01*
X19460000Y23530000D02*
X15300000Y23530000D01*
%TO.N,GPIO23*%
X13880000Y58676750D02*
X12840000Y59716750D01*
X22947500Y23502500D02*
X19968204Y23502500D01*
X15143096Y23151200D02*
X13880000Y24414296D01*
X13880000Y24414296D02*
X13880000Y58676750D01*
X19616904Y23151200D02*
X15143096Y23151200D01*
X12840000Y59716750D02*
X2522000Y59716750D01*
X19968204Y23502500D02*
X19616904Y23151200D01*
%TO.N,unconnected-(U2-GPIO29_ADC3-Pad41)*%
X20791020Y21102500D02*
X20240000Y20551480D01*
X20240000Y20551480D02*
X20240000Y20550000D01*
X22947500Y21102500D02*
X20791020Y21102500D01*
%TD*%
M02*
