%TF.GenerationSoftware,KiCad,Pcbnew,9.0.1*%
%TF.CreationDate,2025-04-15T01:11:24-06:00*%
%TF.ProjectId,zippy-badge,7a697070-792d-4626-9164-67652e6b6963,rev?*%
%TF.SameCoordinates,PX4d8ff50PY83b6430*%
%TF.FileFunction,Drillmap*%
%TF.FilePolarity,Positive*%
%FSLAX45Y45*%
G04 Gerber Fmt 4.5, Leading zero omitted, Abs format (unit mm)*
G04 Created by KiCad (PCBNEW 9.0.1) date 2025-04-15 01:11:24*
%MOMM*%
%LPD*%
G01*
G04 APERTURE LIST*
%ADD10C,0.250000*%
%ADD11C,0.200000*%
%ADD12C,0.100000*%
G04 APERTURE END LIST*
D10*
X9800200Y8894400D02*
X9806085Y9556287D01*
X8155550Y-85874D02*
X1653150Y-85874D01*
D11*
X9414000Y578000D02*
G75*
G02*
X9184000Y578000I-115000J0D01*
G01*
X9184000Y578000D02*
G75*
G02*
X9414000Y578000I115000J0D01*
G01*
D10*
X83156Y102560D02*
X82649Y103067D01*
X82144Y103574D01*
X81641Y104083D01*
X81139Y104593D01*
X80640Y105105D01*
X80141Y105617D01*
X79644Y106131D01*
X79149Y106646D01*
X78656Y107162D01*
X78163Y107679D01*
X77673Y108198D01*
X77184Y108718D01*
X76697Y109239D01*
X76212Y109761D01*
X75728Y110284D01*
X75245Y110809D01*
X74764Y111335D01*
X74285Y111862D01*
X73807Y112391D01*
X73331Y112920D01*
X72857Y113451D01*
X72384Y113983D01*
X71912Y114517D01*
X71443Y115051D01*
X70974Y115587D01*
X70508Y116124D01*
X70043Y116662D01*
X69579Y117202D01*
X69117Y117743D01*
X68657Y118285D01*
X68198Y118828D01*
X67741Y119373D01*
X67285Y119919D01*
X66831Y120466D01*
X66378Y121014D01*
X65927Y121564D01*
X65477Y122115D01*
X65029Y122667D01*
X64583Y123221D01*
X64138Y123776D01*
X63694Y124332D01*
X63253Y124889D01*
X62812Y125448D01*
X62373Y126008D01*
X61936Y126569D01*
X61500Y127131D01*
X61066Y127695D01*
X60634Y128260D01*
X60202Y128827D01*
X59773Y129394D01*
X59345Y129963D01*
X58918Y130534D01*
X58493Y131105D01*
X58069Y131678D01*
X57647Y132253D01*
X57227Y132828D01*
X56808Y133405D01*
X56390Y133983D01*
X55974Y134563D01*
X55560Y135144D01*
X55147Y135726D01*
X54735Y136309D01*
X54325Y136894D01*
X53917Y137480D01*
X53510Y138068D01*
X53105Y138657D01*
X52701Y139247D01*
X52298Y139839D01*
X51601Y140872D01*
X8500Y8894400D02*
X2817Y9555986D01*
D11*
X674000Y8690000D02*
G75*
G02*
X444000Y8690000I-115000J0D01*
G01*
X444000Y8690000D02*
G75*
G02*
X674000Y8690000I115000J0D01*
G01*
D10*
X9800200Y8894400D02*
X9800200Y282426D01*
X51601Y140872D02*
X50814Y142051D01*
X50034Y143236D01*
X49259Y144426D01*
X48490Y145621D01*
X47728Y146822D01*
X46972Y148028D01*
X46222Y149238D01*
X45478Y150454D01*
X44741Y151675D01*
X44010Y152900D01*
X43286Y154130D01*
X42569Y155364D01*
X41858Y156603D01*
X41154Y157846D01*
X40457Y159093D01*
X39766Y160344D01*
X39083Y161600D01*
X38407Y162859D01*
X37737Y164122D01*
X37075Y165388D01*
X36420Y166659D01*
X35772Y167932D01*
X35451Y168570D01*
X35132Y169209D01*
X34814Y169849D01*
X34498Y170489D01*
X34184Y171130D01*
X33873Y171772D01*
X33562Y172415D01*
X33254Y173058D01*
X32948Y173703D01*
X32643Y174347D01*
X32341Y174993D01*
X32040Y175639D01*
X31741Y176286D01*
X31444Y176934D01*
X31149Y177582D01*
X30856Y178230D01*
X30565Y178880D01*
X30276Y179530D01*
X29988Y180180D01*
X29703Y180831D01*
X29420Y181483D01*
X29138Y182135D01*
X28859Y182788D01*
X28581Y183441D01*
X28306Y184095D01*
X28032Y184749D01*
X28000Y184825D01*
X9795311Y232831D02*
X9795031Y231446D01*
X9794743Y230060D01*
X9794447Y228674D01*
X9794142Y227288D01*
X9793830Y225902D01*
X9793509Y224517D01*
X9793180Y223131D01*
X9792843Y221746D01*
X9792498Y220362D01*
X9792144Y218979D01*
X9791783Y217597D01*
X9791414Y216216D01*
X9791037Y214836D01*
X9790652Y213458D01*
X9790457Y212770D01*
X9790259Y212082D01*
X9790060Y211394D01*
X9789859Y210707D01*
X9789656Y210021D01*
X9789451Y209335D01*
X9789244Y208650D01*
X9789035Y207965D01*
X9788824Y207281D01*
X9788611Y206597D01*
X9788397Y205914D01*
X9788180Y205232D01*
X9787962Y204550D01*
X9787741Y203869D01*
X9787519Y203189D01*
X9787295Y202509D01*
X9787069Y201830D01*
X9786842Y201152D01*
X9786612Y200475D01*
X9786381Y199799D01*
X9786147Y199123D01*
X9785912Y198449D01*
X9785675Y197775D01*
X9785437Y197102D01*
X9785196Y196430D01*
X9784954Y195759D01*
X9784710Y195089D01*
X9784464Y194419D01*
X9784216Y193751D01*
X9783967Y193084D01*
X9783716Y192418D01*
X9783463Y191753D01*
X9783208Y191089D01*
X9782952Y190426D01*
X9782694Y189764D01*
X9782434Y189103D01*
X9782173Y188444D01*
X9781910Y187785D01*
X9781645Y187128D01*
X9781378Y186472D01*
X9781110Y185817D01*
X9780840Y185163D01*
X9780786Y185032D01*
X8155550Y28426D02*
X8155550Y-85874D01*
X875902Y9865684D02*
G75*
G02*
X475902Y9865684I-200000J0D01*
G01*
X475902Y9865684D02*
G75*
G02*
X875902Y9865684I200000J0D01*
G01*
X165468Y47691D02*
X164806Y47965D01*
X164146Y48241D01*
X163487Y48519D01*
X162828Y48799D01*
X162171Y49080D01*
X161515Y49363D01*
X160860Y49648D01*
X160206Y49935D01*
X159552Y50223D01*
X158900Y50513D01*
X158249Y50805D01*
X157599Y51099D01*
X156950Y51394D01*
X156302Y51691D01*
X155654Y51990D01*
X155008Y52291D01*
X154363Y52593D01*
X153719Y52897D01*
X153076Y53203D01*
X152434Y53510D01*
X151792Y53820D01*
X151152Y54131D01*
X150513Y54443D01*
X149875Y54758D01*
X149237Y55074D01*
X148601Y55392D01*
X147966Y55712D01*
X147331Y56034D01*
X146698Y56357D01*
X146065Y56682D01*
X144803Y57337D01*
X143545Y58000D01*
X142290Y58669D01*
X141039Y59346D01*
X139792Y60029D01*
X138549Y60720D01*
X137309Y61418D01*
X136074Y62123D01*
X134841Y62835D01*
X133613Y63554D01*
X132388Y64280D01*
X131166Y65014D01*
X129948Y65754D01*
X128734Y66502D01*
X127523Y67257D01*
X126316Y68019D01*
X125113Y68789D01*
X123913Y69566D01*
X122716Y70350D01*
X121751Y70989D01*
X1636640Y9629626D02*
X8172060Y9629626D01*
X1653150Y28426D02*
X262500Y28426D01*
X121751Y70989D02*
X120580Y71773D01*
X119411Y72566D01*
X118244Y73366D01*
X117080Y74175D01*
X115919Y74991D01*
X114761Y75815D01*
X113606Y76647D01*
X112454Y77486D01*
X111306Y78333D01*
X110161Y79186D01*
X109020Y80047D01*
X107883Y80916D01*
X106750Y81790D01*
X105621Y82672D01*
X104497Y83561D01*
X103377Y84456D01*
X102262Y85357D01*
X101152Y86265D01*
X100599Y86721D01*
X100047Y87179D01*
X99497Y87638D01*
X98948Y88098D01*
X98400Y88561D01*
X97854Y89024D01*
X97309Y89489D01*
X96765Y89956D01*
X96223Y90424D01*
X95682Y90893D01*
X95143Y91363D01*
X94605Y91836D01*
X94069Y92309D01*
X93535Y92783D01*
X93002Y93259D01*
X92470Y93737D01*
X91940Y94215D01*
X91412Y94695D01*
X90885Y95176D01*
X90360Y95658D01*
X89837Y96141D01*
X89315Y96626D01*
X88795Y97111D01*
X88276Y97598D01*
X87760Y98086D01*
X87245Y98575D01*
X86732Y99065D01*
X86221Y99556D01*
X85711Y100048D01*
X85204Y100542D01*
X84698Y101036D01*
X84194Y101531D01*
X83692Y102027D01*
X83192Y102525D01*
X83156Y102560D01*
X9725671Y102687D02*
X9724672Y101695D01*
X9723667Y100708D01*
X9722654Y99726D01*
X9721636Y98748D01*
X9720611Y97775D01*
X9719579Y96808D01*
X9718541Y95845D01*
X9717497Y94887D01*
X9716446Y93934D01*
X9715389Y92987D01*
X9714326Y92044D01*
X9713257Y91107D01*
X9712182Y90175D01*
X9711100Y89249D01*
X9710013Y88328D01*
X9708920Y87413D01*
X9707822Y86503D01*
X9706717Y85599D01*
X9705607Y84701D01*
X9704491Y83808D01*
X9703370Y82921D01*
X9702243Y82040D01*
X9701111Y81165D01*
X9699974Y80296D01*
X9698831Y79433D01*
X9697683Y78576D01*
X9696530Y77725D01*
X9695372Y76881D01*
X9694209Y76043D01*
X9693041Y75211D01*
X9691868Y74385D01*
X9690691Y73566D01*
X9689509Y72753D01*
X9688322Y71947D01*
X9687131Y71148D01*
X9685935Y70355D01*
X9685335Y69961D01*
X9684735Y69569D01*
X9684133Y69178D01*
X9683530Y68790D01*
X9682926Y68402D01*
X9682321Y68017D01*
X9681716Y67633D01*
X9681109Y67251D01*
X9680501Y66871D01*
X9679892Y66492D01*
X9679282Y66115D01*
X9678671Y65740D01*
X9678059Y65367D01*
X9677446Y64995D01*
X9676832Y64626D01*
X9676217Y64257D01*
X9675602Y63891D01*
X9674985Y63527D01*
X9674367Y63164D01*
X9673749Y62803D01*
X9673130Y62444D01*
X9672509Y62086D01*
X9671888Y61731D01*
X9671266Y61377D01*
X9670643Y61025D01*
X9670020Y60675D01*
X9669395Y60327D01*
X9668770Y59980D01*
X9668143Y59636D01*
X9667516Y59293D01*
X9666889Y58952D01*
X9666260Y58613D01*
X9665631Y58276D01*
X9665000Y57940D01*
X9664370Y57607D01*
X9663738Y57275D01*
X9663106Y56945D01*
X9662472Y56617D01*
X9661839Y56291D01*
X9661204Y55967D01*
X9660569Y55645D01*
X9659933Y55324D01*
X9659296Y55006D01*
X9658659Y54689D01*
X9658021Y54375D01*
X9657383Y54062D01*
X9656744Y53751D01*
X9656104Y53442D01*
X9655463Y53135D01*
X9654822Y52830D01*
X9654181Y52527D01*
X9653538Y52226D01*
X9652896Y51927D01*
X9652252Y51630D01*
X9651608Y51334D01*
X9650964Y51041D01*
X9650319Y50749D01*
X9649673Y50460D01*
X9649027Y50172D01*
X9648381Y49887D01*
X9647734Y49603D01*
X9647086Y49322D01*
X9646438Y49042D01*
X9645790Y48764D01*
X9645141Y48489D01*
X9644491Y48215D01*
X9643441Y47777D01*
X9757349Y141245D02*
X9756562Y140074D01*
X9755766Y138907D01*
X9754963Y137741D01*
X9754152Y136579D01*
X9753333Y135419D01*
X9752507Y134263D01*
X9751673Y133109D01*
X9750831Y131959D01*
X9749983Y130812D01*
X9749126Y129669D01*
X9748263Y128530D01*
X9747393Y127395D01*
X9746516Y126264D01*
X9745632Y125138D01*
X9744742Y124016D01*
X9743845Y122898D01*
X9742942Y121786D01*
X9742032Y120678D01*
X9741116Y119575D01*
X9740656Y119026D01*
X9740194Y118478D01*
X9739731Y117931D01*
X9739267Y117386D01*
X9738801Y116842D01*
X9738333Y116300D01*
X9737864Y115759D01*
X9737394Y115219D01*
X9736922Y114681D01*
X9736449Y114145D01*
X9735975Y113610D01*
X9735499Y113076D01*
X9735022Y112544D01*
X9734544Y112013D01*
X9734065Y111485D01*
X9733584Y110957D01*
X9733102Y110432D01*
X9732619Y109907D01*
X9732134Y109385D01*
X9731649Y108864D01*
X9731162Y108345D01*
X9730674Y107828D01*
X9730185Y107312D01*
X9729695Y106798D01*
X9729204Y106286D01*
X9728711Y105776D01*
X9728218Y105267D01*
X9727723Y104760D01*
X9727228Y104255D01*
X9726731Y103752D01*
X9726234Y103251D01*
X9725735Y102751D01*
X9725671Y102687D01*
X1580500Y9784096D02*
X1636640Y9629626D01*
X8500Y282426D02*
X8500Y8894400D01*
X2817Y9555986D02*
G75*
G02*
X1580499Y9784095I814030J-60161D01*
G01*
X9643441Y47777D02*
X9642132Y47239D01*
X9640820Y46708D01*
X9639503Y46184D01*
X9638183Y45667D01*
X9636860Y45158D01*
X9635532Y44655D01*
X9634202Y44160D01*
X9632867Y43672D01*
X9631529Y43192D01*
X9630188Y42718D01*
X9628844Y42252D01*
X9627496Y41794D01*
X9626146Y41343D01*
X9624792Y40899D01*
X9623435Y40462D01*
X9622075Y40033D01*
X9620713Y39612D01*
X9619347Y39198D01*
X9617979Y38791D01*
X9616608Y38392D01*
X9615235Y38001D01*
X9613859Y37617D01*
X9613170Y37428D01*
X9612480Y37241D01*
X9611790Y37056D01*
X9611099Y36873D01*
X9610408Y36691D01*
X9609716Y36512D01*
X9609024Y36334D01*
X9608331Y36159D01*
X9607637Y35985D01*
X9606943Y35813D01*
X9606249Y35643D01*
X9605554Y35475D01*
X9604858Y35309D01*
X9604162Y35145D01*
X9603465Y34983D01*
X9602768Y34823D01*
X9602070Y34665D01*
X9601372Y34509D01*
X9600674Y34354D01*
X9599975Y34202D01*
X9599275Y34052D01*
X9598576Y33903D01*
X9597875Y33757D01*
X9597175Y33612D01*
X9596473Y33470D01*
X9595772Y33329D01*
X9595070Y33190D01*
X9594368Y33054D01*
X9593665Y32919D01*
X9592962Y32786D01*
X9592259Y32655D01*
X9591555Y32526D01*
X9590851Y32399D01*
X9590147Y32275D01*
X9589442Y32152D01*
X9588737Y32031D01*
X9588032Y31912D01*
X9587326Y31795D01*
X9586620Y31680D01*
X9585914Y31567D01*
X9585208Y31456D01*
X9584501Y31347D01*
X9583794Y31240D01*
X9583087Y31134D01*
X9582380Y31031D01*
X9581672Y30930D01*
X9580964Y30831D01*
X9580256Y30734D01*
X9579548Y30639D01*
X9578839Y30546D01*
X9578131Y30455D01*
X9577422Y30366D01*
X9576713Y30278D01*
X9576004Y30193D01*
X9575295Y30110D01*
X9574585Y30029D01*
X9573876Y29950D01*
X9573166Y29873D01*
X9572456Y29797D01*
X9571746Y29724D01*
X9571037Y29653D01*
X9570326Y29584D01*
X9569616Y29517D01*
X9568906Y29452D01*
X9568196Y29389D01*
X9567486Y29327D01*
X9566775Y29268D01*
X9566065Y29211D01*
X9565355Y29156D01*
X9564644Y29103D01*
X9563934Y29052D01*
X9563223Y29003D01*
X9562513Y28956D01*
X9561802Y28911D01*
X9561092Y28867D01*
X9560382Y28826D01*
X9559671Y28787D01*
X9558961Y28750D01*
X9558251Y28715D01*
X9557541Y28682D01*
X9556831Y28651D01*
X9556120Y28622D01*
X9555411Y28595D01*
X9554701Y28570D01*
X9553991Y28547D01*
X9553281Y28526D01*
X9552572Y28507D01*
X9551862Y28490D01*
X9551153Y28475D01*
X9550444Y28462D01*
X9549735Y28451D01*
X9549026Y28442D01*
X9548318Y28435D01*
X9547609Y28430D01*
X9546200Y28426D01*
X213106Y33275D02*
X211719Y33554D01*
X210332Y33841D01*
X208945Y34137D01*
X207558Y34440D01*
X206171Y34752D01*
X204785Y35072D01*
X203399Y35400D01*
X202014Y35736D01*
X200629Y36080D01*
X199246Y36432D01*
X197864Y36792D01*
X196483Y37160D01*
X195103Y37535D01*
X194414Y37726D01*
X193725Y37919D01*
X193037Y38114D01*
X192349Y38310D01*
X191661Y38509D01*
X190975Y38710D01*
X190288Y38912D01*
X189602Y39117D01*
X188917Y39323D01*
X188232Y39531D01*
X187548Y39742D01*
X186865Y39954D01*
X186182Y40168D01*
X185500Y40384D01*
X184818Y40601D01*
X184137Y40821D01*
X183457Y41043D01*
X182777Y41266D01*
X182099Y41491D01*
X181421Y41718D01*
X180744Y41947D01*
X180067Y42178D01*
X179392Y42411D01*
X178717Y42645D01*
X178043Y42882D01*
X177370Y43120D01*
X176698Y43360D01*
X176027Y43601D01*
X175357Y43845D01*
X174688Y44090D01*
X174019Y44337D01*
X173352Y44586D01*
X172686Y44837D01*
X172020Y45089D01*
X171356Y45343D01*
X170693Y45599D01*
X170031Y45857D01*
X169369Y46116D01*
X168709Y46377D01*
X168050Y46640D01*
X167393Y46904D01*
X166736Y47170D01*
X165468Y47691D01*
X28000Y184825D02*
X27461Y186132D01*
X26928Y187444D01*
X26402Y188759D01*
X25883Y190078D01*
X25372Y191401D01*
X24868Y192727D01*
X24371Y194057D01*
X23881Y195390D01*
X23398Y196727D01*
X22923Y198067D01*
X22455Y199411D01*
X21994Y200758D01*
X21541Y202108D01*
X21095Y203461D01*
X20656Y204817D01*
X20225Y206176D01*
X19802Y207538D01*
X19386Y208903D01*
X18977Y210270D01*
X18576Y211641D01*
X18183Y213014D01*
X17989Y213701D01*
X17797Y214389D01*
X17607Y215078D01*
X17418Y215767D01*
X17232Y216457D01*
X17048Y217148D01*
X16865Y217839D01*
X16685Y218530D01*
X16506Y219223D01*
X16329Y219915D01*
X16155Y220609D01*
X15982Y221303D01*
X15811Y221997D01*
X15642Y222692D01*
X15475Y223387D01*
X15310Y224083D01*
X15147Y224780D01*
X14985Y225477D01*
X14826Y226174D01*
X14669Y226872D01*
X14513Y227571D01*
X14360Y228270D01*
X14208Y228969D01*
X14059Y229669D01*
X13911Y230369D01*
X13765Y231069D01*
X13622Y231770D01*
X13480Y232472D01*
X13340Y233173D01*
X13202Y233876D01*
X13067Y234578D01*
X12933Y235281D01*
X12801Y235984D01*
X12671Y236688D01*
X12543Y237392D01*
X12417Y238096D01*
X12293Y238801D01*
X12171Y239506D01*
X12051Y240211D01*
X11933Y240917D01*
X11817Y241622D01*
X11703Y242328D01*
X11590Y243035D01*
X11480Y243741D01*
X11372Y244448D01*
X11266Y245155D01*
X11162Y245863D01*
X11060Y246570D01*
X10959Y247278D01*
X10861Y247986D01*
X10765Y248694D01*
X10671Y249403D01*
X10579Y250111D01*
X10488Y250820D01*
X10400Y251529D01*
X10314Y252238D01*
X10230Y252947D01*
X10147Y253656D01*
X10067Y254366D01*
X9989Y255076D01*
X9912Y255785D01*
X9838Y256495D01*
X9766Y257205D01*
X9696Y257915D01*
X9627Y258625D01*
X9561Y259335D01*
X9497Y260045D01*
X9435Y260756D01*
X9375Y261466D01*
X9316Y262176D01*
X9260Y262887D01*
X9206Y263597D01*
X9154Y264307D01*
X9103Y265018D01*
X9055Y265728D01*
X9009Y266439D01*
X8965Y267149D01*
X8923Y267859D01*
X8882Y268570D01*
X8844Y269280D01*
X8808Y269990D01*
X8774Y270700D01*
X8742Y271410D01*
X8712Y272120D01*
X8684Y272830D01*
X8657Y273540D01*
X8633Y274250D01*
X8611Y274959D01*
X8591Y275669D01*
X8573Y276378D01*
X8557Y277087D01*
X8543Y277796D01*
X8531Y278505D01*
X8521Y279214D01*
X8513Y279923D01*
X8506Y280631D01*
X8502Y281339D01*
X8500Y282047D01*
X8500Y282426D01*
X9333000Y9866000D02*
G75*
G02*
X8933000Y9866000I-200000J0D01*
G01*
X8933000Y9866000D02*
G75*
G02*
X9333000Y9866000I200000J0D01*
G01*
X8228402Y9784412D02*
G75*
G02*
X9806084Y9556302I763652J-288271D01*
G01*
X1653150Y28426D02*
X1653150Y-85874D01*
D11*
X625000Y577000D02*
G75*
G02*
X395000Y577000I-115000J0D01*
G01*
X395000Y577000D02*
G75*
G02*
X625000Y577000I115000J0D01*
G01*
D10*
X8172060Y9629626D02*
X8228402Y9784412D01*
X9546200Y28426D02*
X8155550Y28426D01*
X262500Y28426D02*
X261784Y28427D01*
X261068Y28430D01*
X260353Y28435D01*
X259638Y28442D01*
X258923Y28451D01*
X258208Y28462D01*
X257494Y28475D01*
X256780Y28490D01*
X256066Y28507D01*
X255353Y28526D01*
X253927Y28570D01*
X252502Y28622D01*
X251078Y28681D01*
X249655Y28749D01*
X248233Y28825D01*
X246812Y28909D01*
X245392Y29000D01*
X243972Y29100D01*
X242554Y29208D01*
X241137Y29323D01*
X239720Y29447D01*
X238305Y29578D01*
X236890Y29717D01*
X235476Y29865D01*
X234062Y30020D01*
X232650Y30183D01*
X231238Y30355D01*
X229827Y30534D01*
X228416Y30721D01*
X227006Y30916D01*
X225597Y31119D01*
X224188Y31330D01*
X222780Y31550D01*
X221372Y31777D01*
X219965Y32012D01*
X218559Y32255D01*
X217153Y32506D01*
X215747Y32766D01*
X214342Y33033D01*
X213106Y33275D01*
D11*
X9465000Y8690000D02*
G75*
G02*
X9235000Y8690000I-115000J0D01*
G01*
X9235000Y8690000D02*
G75*
G02*
X9465000Y8690000I115000J0D01*
G01*
D10*
X9800200Y282426D02*
X9800199Y281710D01*
X9800196Y280994D01*
X9800191Y280279D01*
X9800184Y279564D01*
X9800175Y278849D01*
X9800164Y278134D01*
X9800151Y277420D01*
X9800136Y276706D01*
X9800119Y275992D01*
X9800100Y275278D01*
X9800079Y274565D01*
X9800056Y273852D01*
X9800004Y272427D01*
X9799945Y271003D01*
X9799877Y269580D01*
X9799801Y268158D01*
X9799717Y266737D01*
X9799626Y265317D01*
X9799526Y263898D01*
X9799418Y262480D01*
X9799303Y261063D01*
X9799179Y259646D01*
X9799048Y258231D01*
X9798909Y256816D01*
X9798761Y255402D01*
X9798606Y253988D01*
X9798443Y252576D01*
X9798272Y251164D01*
X9798092Y249753D01*
X9797905Y248342D01*
X9797710Y246933D01*
X9797507Y245523D01*
X9797296Y244115D01*
X9797077Y242707D01*
X9796849Y241299D01*
X9796614Y239892D01*
X9796371Y238486D01*
X9796120Y237080D01*
X9795860Y235674D01*
X9795593Y234269D01*
X9795318Y232864D01*
X9795311Y232831D01*
X9780786Y185032D02*
X9780510Y184371D01*
X9780233Y183711D01*
X9779954Y183052D01*
X9779673Y182394D01*
X9779391Y181738D01*
X9779107Y181082D01*
X9778821Y180427D01*
X9778533Y179773D01*
X9778244Y179120D01*
X9777953Y178469D01*
X9777660Y177818D01*
X9777365Y177168D01*
X9777069Y176520D01*
X9776771Y175872D01*
X9776471Y175225D01*
X9776169Y174580D01*
X9775866Y173935D01*
X9775561Y173291D01*
X9775254Y172648D01*
X9774946Y172007D01*
X9774635Y171366D01*
X9774323Y170726D01*
X9774010Y170087D01*
X9773694Y169450D01*
X9773377Y168813D01*
X9773058Y168177D01*
X9772737Y167542D01*
X9772415Y166908D01*
X9772090Y166275D01*
X9771764Y165643D01*
X9771107Y164382D01*
X9770443Y163125D01*
X9769771Y161871D01*
X9769093Y160622D01*
X9768407Y159376D01*
X9767715Y158133D01*
X9767015Y156895D01*
X9766308Y155660D01*
X9765594Y154429D01*
X9764873Y153201D01*
X9764145Y151978D01*
X9763410Y150757D01*
X9762667Y149541D01*
X9761918Y148328D01*
X9761161Y147118D01*
X9760397Y145912D01*
X9759625Y144710D01*
X9758847Y143511D01*
X9758061Y142316D01*
X9757349Y141245D01*
D11*
D12*
X4576500Y9041500D02*
X4641500Y8976500D01*
X4641500Y9041500D02*
X4576500Y8976500D01*
X5154500Y9041500D02*
X5219500Y8976500D01*
X5219500Y9041500D02*
X5154500Y8976500D01*
X6752000Y9541000D02*
G75*
G02*
X6682000Y9541000I-35000J0D01*
G01*
X6682000Y9541000D02*
G75*
G02*
X6752000Y9541000I35000J0D01*
G01*
X6752000Y9361000D02*
G75*
G02*
X6682000Y9361000I-35000J0D01*
G01*
X6682000Y9361000D02*
G75*
G02*
X6752000Y9361000I35000J0D01*
G01*
X7288000Y9447000D02*
X7288000Y9357000D01*
X7243000Y9402000D02*
X7333000Y9402000D01*
X7968000Y9447000D02*
X7968000Y9357000D01*
X7923000Y9402000D02*
X8013000Y9402000D01*
X2366356Y9147644D02*
X2366356Y9218356D01*
X2295644Y9218356D01*
X2295644Y9147644D01*
X2366356Y9147644D01*
X3164356Y9147644D02*
X3164356Y9218356D01*
X3093644Y9218356D01*
X3093644Y9147644D01*
X3164356Y9147644D01*
D11*
X251093Y-409858D02*
X251093Y-209858D01*
X251093Y-209858D02*
X298713Y-209858D01*
X298713Y-209858D02*
X327284Y-219382D01*
X327284Y-219382D02*
X346332Y-238429D01*
X346332Y-238429D02*
X355855Y-257477D01*
X355855Y-257477D02*
X365379Y-295572D01*
X365379Y-295572D02*
X365379Y-324144D01*
X365379Y-324144D02*
X355855Y-362239D01*
X355855Y-362239D02*
X346332Y-381286D01*
X346332Y-381286D02*
X327284Y-400334D01*
X327284Y-400334D02*
X298713Y-409858D01*
X298713Y-409858D02*
X251093Y-409858D01*
X451093Y-409858D02*
X451093Y-276524D01*
X451093Y-314620D02*
X460617Y-295572D01*
X460617Y-295572D02*
X470141Y-286048D01*
X470141Y-286048D02*
X489189Y-276524D01*
X489189Y-276524D02*
X508236Y-276524D01*
X574903Y-409858D02*
X574903Y-276524D01*
X574903Y-209858D02*
X565379Y-219382D01*
X565379Y-219382D02*
X574903Y-228905D01*
X574903Y-228905D02*
X584427Y-219382D01*
X584427Y-219382D02*
X574903Y-209858D01*
X574903Y-209858D02*
X574903Y-228905D01*
X698713Y-409858D02*
X679665Y-400334D01*
X679665Y-400334D02*
X670141Y-381286D01*
X670141Y-381286D02*
X670141Y-209858D01*
X803474Y-409858D02*
X784427Y-400334D01*
X784427Y-400334D02*
X774903Y-381286D01*
X774903Y-381286D02*
X774903Y-209858D01*
X1032046Y-409858D02*
X1032046Y-209858D01*
X1032046Y-209858D02*
X1098713Y-352715D01*
X1098713Y-352715D02*
X1165379Y-209858D01*
X1165379Y-209858D02*
X1165379Y-409858D01*
X1346332Y-409858D02*
X1346332Y-305096D01*
X1346332Y-305096D02*
X1336808Y-286048D01*
X1336808Y-286048D02*
X1317760Y-276524D01*
X1317760Y-276524D02*
X1279665Y-276524D01*
X1279665Y-276524D02*
X1260617Y-286048D01*
X1346332Y-400334D02*
X1327284Y-409858D01*
X1327284Y-409858D02*
X1279665Y-409858D01*
X1279665Y-409858D02*
X1260617Y-400334D01*
X1260617Y-400334D02*
X1251094Y-381286D01*
X1251094Y-381286D02*
X1251094Y-362239D01*
X1251094Y-362239D02*
X1260617Y-343191D01*
X1260617Y-343191D02*
X1279665Y-333667D01*
X1279665Y-333667D02*
X1327284Y-333667D01*
X1327284Y-333667D02*
X1346332Y-324144D01*
X1441570Y-276524D02*
X1441570Y-476524D01*
X1441570Y-286048D02*
X1460617Y-276524D01*
X1460617Y-276524D02*
X1498713Y-276524D01*
X1498713Y-276524D02*
X1517760Y-286048D01*
X1517760Y-286048D02*
X1527284Y-295572D01*
X1527284Y-295572D02*
X1536808Y-314620D01*
X1536808Y-314620D02*
X1536808Y-371762D01*
X1536808Y-371762D02*
X1527284Y-390810D01*
X1527284Y-390810D02*
X1517760Y-400334D01*
X1517760Y-400334D02*
X1498713Y-409858D01*
X1498713Y-409858D02*
X1460617Y-409858D01*
X1460617Y-409858D02*
X1441570Y-400334D01*
X1622522Y-390810D02*
X1632046Y-400334D01*
X1632046Y-400334D02*
X1622522Y-409858D01*
X1622522Y-409858D02*
X1612998Y-400334D01*
X1612998Y-400334D02*
X1622522Y-390810D01*
X1622522Y-390810D02*
X1622522Y-409858D01*
X1622522Y-286048D02*
X1632046Y-295572D01*
X1632046Y-295572D02*
X1622522Y-305096D01*
X1622522Y-305096D02*
X1612998Y-295572D01*
X1612998Y-295572D02*
X1622522Y-286048D01*
X1622522Y-286048D02*
X1622522Y-305096D01*
D12*
X-74683Y-705874D02*
X-9683Y-770874D01*
X-9683Y-705874D02*
X-74683Y-770874D01*
D11*
X289189Y-629858D02*
X308236Y-629858D01*
X308236Y-629858D02*
X327284Y-639382D01*
X327284Y-639382D02*
X336808Y-648905D01*
X336808Y-648905D02*
X346332Y-667953D01*
X346332Y-667953D02*
X355855Y-706048D01*
X355855Y-706048D02*
X355855Y-753667D01*
X355855Y-753667D02*
X346332Y-791762D01*
X346332Y-791762D02*
X336808Y-810810D01*
X336808Y-810810D02*
X327284Y-820334D01*
X327284Y-820334D02*
X308236Y-829858D01*
X308236Y-829858D02*
X289189Y-829858D01*
X289189Y-829858D02*
X270141Y-820334D01*
X270141Y-820334D02*
X260617Y-810810D01*
X260617Y-810810D02*
X251093Y-791762D01*
X251093Y-791762D02*
X241570Y-753667D01*
X241570Y-753667D02*
X241570Y-706048D01*
X241570Y-706048D02*
X251093Y-667953D01*
X251093Y-667953D02*
X260617Y-648905D01*
X260617Y-648905D02*
X270141Y-639382D01*
X270141Y-639382D02*
X289189Y-629858D01*
X441570Y-810810D02*
X451093Y-820334D01*
X451093Y-820334D02*
X441570Y-829858D01*
X441570Y-829858D02*
X432046Y-820334D01*
X432046Y-820334D02*
X441570Y-810810D01*
X441570Y-810810D02*
X441570Y-829858D01*
X622522Y-629858D02*
X584427Y-629858D01*
X584427Y-629858D02*
X565379Y-639382D01*
X565379Y-639382D02*
X555855Y-648905D01*
X555855Y-648905D02*
X536808Y-677477D01*
X536808Y-677477D02*
X527284Y-715572D01*
X527284Y-715572D02*
X527284Y-791762D01*
X527284Y-791762D02*
X536808Y-810810D01*
X536808Y-810810D02*
X546332Y-820334D01*
X546332Y-820334D02*
X565379Y-829858D01*
X565379Y-829858D02*
X603475Y-829858D01*
X603475Y-829858D02*
X622522Y-820334D01*
X622522Y-820334D02*
X632046Y-810810D01*
X632046Y-810810D02*
X641570Y-791762D01*
X641570Y-791762D02*
X641570Y-744143D01*
X641570Y-744143D02*
X632046Y-725096D01*
X632046Y-725096D02*
X622522Y-715572D01*
X622522Y-715572D02*
X603475Y-706048D01*
X603475Y-706048D02*
X565379Y-706048D01*
X565379Y-706048D02*
X546332Y-715572D01*
X546332Y-715572D02*
X536808Y-725096D01*
X536808Y-725096D02*
X527284Y-744143D01*
X822522Y-629858D02*
X727284Y-629858D01*
X727284Y-629858D02*
X717760Y-725096D01*
X717760Y-725096D02*
X727284Y-715572D01*
X727284Y-715572D02*
X746332Y-706048D01*
X746332Y-706048D02*
X793951Y-706048D01*
X793951Y-706048D02*
X812998Y-715572D01*
X812998Y-715572D02*
X822522Y-725096D01*
X822522Y-725096D02*
X832046Y-744143D01*
X832046Y-744143D02*
X832046Y-791762D01*
X832046Y-791762D02*
X822522Y-810810D01*
X822522Y-810810D02*
X812998Y-820334D01*
X812998Y-820334D02*
X793951Y-829858D01*
X793951Y-829858D02*
X746332Y-829858D01*
X746332Y-829858D02*
X727284Y-820334D01*
X727284Y-820334D02*
X717760Y-810810D01*
X955855Y-629858D02*
X974903Y-629858D01*
X974903Y-629858D02*
X993951Y-639382D01*
X993951Y-639382D02*
X1003474Y-648905D01*
X1003474Y-648905D02*
X1012998Y-667953D01*
X1012998Y-667953D02*
X1022522Y-706048D01*
X1022522Y-706048D02*
X1022522Y-753667D01*
X1022522Y-753667D02*
X1012998Y-791762D01*
X1012998Y-791762D02*
X1003474Y-810810D01*
X1003474Y-810810D02*
X993951Y-820334D01*
X993951Y-820334D02*
X974903Y-829858D01*
X974903Y-829858D02*
X955855Y-829858D01*
X955855Y-829858D02*
X936808Y-820334D01*
X936808Y-820334D02*
X927284Y-810810D01*
X927284Y-810810D02*
X917760Y-791762D01*
X917760Y-791762D02*
X908236Y-753667D01*
X908236Y-753667D02*
X908236Y-706048D01*
X908236Y-706048D02*
X917760Y-667953D01*
X917760Y-667953D02*
X927284Y-648905D01*
X927284Y-648905D02*
X936808Y-639382D01*
X936808Y-639382D02*
X955855Y-629858D01*
X1108236Y-829858D02*
X1108236Y-696524D01*
X1108236Y-715572D02*
X1117760Y-706048D01*
X1117760Y-706048D02*
X1136808Y-696524D01*
X1136808Y-696524D02*
X1165379Y-696524D01*
X1165379Y-696524D02*
X1184427Y-706048D01*
X1184427Y-706048D02*
X1193951Y-725096D01*
X1193951Y-725096D02*
X1193951Y-829858D01*
X1193951Y-725096D02*
X1203475Y-706048D01*
X1203475Y-706048D02*
X1222522Y-696524D01*
X1222522Y-696524D02*
X1251094Y-696524D01*
X1251094Y-696524D02*
X1270141Y-706048D01*
X1270141Y-706048D02*
X1279665Y-725096D01*
X1279665Y-725096D02*
X1279665Y-829858D01*
X1374903Y-829858D02*
X1374903Y-696524D01*
X1374903Y-715572D02*
X1384427Y-706048D01*
X1384427Y-706048D02*
X1403474Y-696524D01*
X1403474Y-696524D02*
X1432046Y-696524D01*
X1432046Y-696524D02*
X1451094Y-706048D01*
X1451094Y-706048D02*
X1460617Y-725096D01*
X1460617Y-725096D02*
X1460617Y-829858D01*
X1460617Y-725096D02*
X1470141Y-706048D01*
X1470141Y-706048D02*
X1489189Y-696524D01*
X1489189Y-696524D02*
X1517760Y-696524D01*
X1517760Y-696524D02*
X1536808Y-706048D01*
X1536808Y-706048D02*
X1546332Y-725096D01*
X1546332Y-725096D02*
X1546332Y-829858D01*
X1936808Y-620334D02*
X1765379Y-877477D01*
X2193951Y-629858D02*
X2212999Y-629858D01*
X2212999Y-629858D02*
X2232046Y-639382D01*
X2232046Y-639382D02*
X2241570Y-648905D01*
X2241570Y-648905D02*
X2251094Y-667953D01*
X2251094Y-667953D02*
X2260618Y-706048D01*
X2260618Y-706048D02*
X2260618Y-753667D01*
X2260618Y-753667D02*
X2251094Y-791762D01*
X2251094Y-791762D02*
X2241570Y-810810D01*
X2241570Y-810810D02*
X2232046Y-820334D01*
X2232046Y-820334D02*
X2212999Y-829858D01*
X2212999Y-829858D02*
X2193951Y-829858D01*
X2193951Y-829858D02*
X2174903Y-820334D01*
X2174903Y-820334D02*
X2165379Y-810810D01*
X2165379Y-810810D02*
X2155856Y-791762D01*
X2155856Y-791762D02*
X2146332Y-753667D01*
X2146332Y-753667D02*
X2146332Y-706048D01*
X2146332Y-706048D02*
X2155856Y-667953D01*
X2155856Y-667953D02*
X2165379Y-648905D01*
X2165379Y-648905D02*
X2174903Y-639382D01*
X2174903Y-639382D02*
X2193951Y-629858D01*
X2346332Y-810810D02*
X2355856Y-820334D01*
X2355856Y-820334D02*
X2346332Y-829858D01*
X2346332Y-829858D02*
X2336808Y-820334D01*
X2336808Y-820334D02*
X2346332Y-810810D01*
X2346332Y-810810D02*
X2346332Y-829858D01*
X2479665Y-629858D02*
X2498713Y-629858D01*
X2498713Y-629858D02*
X2517760Y-639382D01*
X2517760Y-639382D02*
X2527284Y-648905D01*
X2527284Y-648905D02*
X2536808Y-667953D01*
X2536808Y-667953D02*
X2546332Y-706048D01*
X2546332Y-706048D02*
X2546332Y-753667D01*
X2546332Y-753667D02*
X2536808Y-791762D01*
X2536808Y-791762D02*
X2527284Y-810810D01*
X2527284Y-810810D02*
X2517760Y-820334D01*
X2517760Y-820334D02*
X2498713Y-829858D01*
X2498713Y-829858D02*
X2479665Y-829858D01*
X2479665Y-829858D02*
X2460618Y-820334D01*
X2460618Y-820334D02*
X2451094Y-810810D01*
X2451094Y-810810D02*
X2441570Y-791762D01*
X2441570Y-791762D02*
X2432046Y-753667D01*
X2432046Y-753667D02*
X2432046Y-706048D01*
X2432046Y-706048D02*
X2441570Y-667953D01*
X2441570Y-667953D02*
X2451094Y-648905D01*
X2451094Y-648905D02*
X2460618Y-639382D01*
X2460618Y-639382D02*
X2479665Y-629858D01*
X2622522Y-648905D02*
X2632046Y-639382D01*
X2632046Y-639382D02*
X2651094Y-629858D01*
X2651094Y-629858D02*
X2698713Y-629858D01*
X2698713Y-629858D02*
X2717760Y-639382D01*
X2717760Y-639382D02*
X2727284Y-648905D01*
X2727284Y-648905D02*
X2736808Y-667953D01*
X2736808Y-667953D02*
X2736808Y-687001D01*
X2736808Y-687001D02*
X2727284Y-715572D01*
X2727284Y-715572D02*
X2612999Y-829858D01*
X2612999Y-829858D02*
X2736808Y-829858D01*
X2917760Y-629858D02*
X2822522Y-629858D01*
X2822522Y-629858D02*
X2812998Y-725096D01*
X2812998Y-725096D02*
X2822522Y-715572D01*
X2822522Y-715572D02*
X2841570Y-706048D01*
X2841570Y-706048D02*
X2889189Y-706048D01*
X2889189Y-706048D02*
X2908237Y-715572D01*
X2908237Y-715572D02*
X2917760Y-725096D01*
X2917760Y-725096D02*
X2927284Y-744143D01*
X2927284Y-744143D02*
X2927284Y-791762D01*
X2927284Y-791762D02*
X2917760Y-810810D01*
X2917760Y-810810D02*
X2908237Y-820334D01*
X2908237Y-820334D02*
X2889189Y-829858D01*
X2889189Y-829858D02*
X2841570Y-829858D01*
X2841570Y-829858D02*
X2822522Y-820334D01*
X2822522Y-820334D02*
X2812998Y-810810D01*
X3098713Y-629858D02*
X3060617Y-629858D01*
X3060617Y-629858D02*
X3041570Y-639382D01*
X3041570Y-639382D02*
X3032046Y-648905D01*
X3032046Y-648905D02*
X3012998Y-677477D01*
X3012998Y-677477D02*
X3003475Y-715572D01*
X3003475Y-715572D02*
X3003475Y-791762D01*
X3003475Y-791762D02*
X3012998Y-810810D01*
X3012998Y-810810D02*
X3022522Y-820334D01*
X3022522Y-820334D02*
X3041570Y-829858D01*
X3041570Y-829858D02*
X3079665Y-829858D01*
X3079665Y-829858D02*
X3098713Y-820334D01*
X3098713Y-820334D02*
X3108237Y-810810D01*
X3108237Y-810810D02*
X3117760Y-791762D01*
X3117760Y-791762D02*
X3117760Y-744143D01*
X3117760Y-744143D02*
X3108237Y-725096D01*
X3108237Y-725096D02*
X3098713Y-715572D01*
X3098713Y-715572D02*
X3079665Y-706048D01*
X3079665Y-706048D02*
X3041570Y-706048D01*
X3041570Y-706048D02*
X3022522Y-715572D01*
X3022522Y-715572D02*
X3012998Y-725096D01*
X3012998Y-725096D02*
X3003475Y-744143D01*
X3193951Y-629858D02*
X3193951Y-667953D01*
X3270141Y-629858D02*
X3270141Y-667953D01*
X3565380Y-906048D02*
X3555856Y-896524D01*
X3555856Y-896524D02*
X3536808Y-867953D01*
X3536808Y-867953D02*
X3527284Y-848905D01*
X3527284Y-848905D02*
X3517760Y-820334D01*
X3517760Y-820334D02*
X3508237Y-772715D01*
X3508237Y-772715D02*
X3508237Y-734620D01*
X3508237Y-734620D02*
X3517760Y-687001D01*
X3517760Y-687001D02*
X3527284Y-658429D01*
X3527284Y-658429D02*
X3536808Y-639382D01*
X3536808Y-639382D02*
X3555856Y-610810D01*
X3555856Y-610810D02*
X3565380Y-601286D01*
X3632046Y-648905D02*
X3641570Y-639382D01*
X3641570Y-639382D02*
X3660618Y-629858D01*
X3660618Y-629858D02*
X3708237Y-629858D01*
X3708237Y-629858D02*
X3727284Y-639382D01*
X3727284Y-639382D02*
X3736808Y-648905D01*
X3736808Y-648905D02*
X3746332Y-667953D01*
X3746332Y-667953D02*
X3746332Y-687001D01*
X3746332Y-687001D02*
X3736808Y-715572D01*
X3736808Y-715572D02*
X3622522Y-829858D01*
X3622522Y-829858D02*
X3746332Y-829858D01*
X3984427Y-829858D02*
X3984427Y-629858D01*
X4070141Y-829858D02*
X4070141Y-725096D01*
X4070141Y-725096D02*
X4060618Y-706048D01*
X4060618Y-706048D02*
X4041570Y-696524D01*
X4041570Y-696524D02*
X4012999Y-696524D01*
X4012999Y-696524D02*
X3993951Y-706048D01*
X3993951Y-706048D02*
X3984427Y-715572D01*
X4193951Y-829858D02*
X4174903Y-820334D01*
X4174903Y-820334D02*
X4165380Y-810810D01*
X4165380Y-810810D02*
X4155856Y-791762D01*
X4155856Y-791762D02*
X4155856Y-734620D01*
X4155856Y-734620D02*
X4165380Y-715572D01*
X4165380Y-715572D02*
X4174903Y-706048D01*
X4174903Y-706048D02*
X4193951Y-696524D01*
X4193951Y-696524D02*
X4222523Y-696524D01*
X4222523Y-696524D02*
X4241570Y-706048D01*
X4241570Y-706048D02*
X4251094Y-715572D01*
X4251094Y-715572D02*
X4260618Y-734620D01*
X4260618Y-734620D02*
X4260618Y-791762D01*
X4260618Y-791762D02*
X4251094Y-810810D01*
X4251094Y-810810D02*
X4241570Y-820334D01*
X4241570Y-820334D02*
X4222523Y-829858D01*
X4222523Y-829858D02*
X4193951Y-829858D01*
X4374903Y-829858D02*
X4355856Y-820334D01*
X4355856Y-820334D02*
X4346332Y-801286D01*
X4346332Y-801286D02*
X4346332Y-629858D01*
X4527284Y-820334D02*
X4508237Y-829858D01*
X4508237Y-829858D02*
X4470142Y-829858D01*
X4470142Y-829858D02*
X4451094Y-820334D01*
X4451094Y-820334D02*
X4441570Y-801286D01*
X4441570Y-801286D02*
X4441570Y-725096D01*
X4441570Y-725096D02*
X4451094Y-706048D01*
X4451094Y-706048D02*
X4470142Y-696524D01*
X4470142Y-696524D02*
X4508237Y-696524D01*
X4508237Y-696524D02*
X4527284Y-706048D01*
X4527284Y-706048D02*
X4536808Y-725096D01*
X4536808Y-725096D02*
X4536808Y-744143D01*
X4536808Y-744143D02*
X4441570Y-763191D01*
X4612999Y-820334D02*
X4632046Y-829858D01*
X4632046Y-829858D02*
X4670142Y-829858D01*
X4670142Y-829858D02*
X4689189Y-820334D01*
X4689189Y-820334D02*
X4698713Y-801286D01*
X4698713Y-801286D02*
X4698713Y-791762D01*
X4698713Y-791762D02*
X4689189Y-772715D01*
X4689189Y-772715D02*
X4670142Y-763191D01*
X4670142Y-763191D02*
X4641570Y-763191D01*
X4641570Y-763191D02*
X4622523Y-753667D01*
X4622523Y-753667D02*
X4612999Y-734620D01*
X4612999Y-734620D02*
X4612999Y-725096D01*
X4612999Y-725096D02*
X4622523Y-706048D01*
X4622523Y-706048D02*
X4641570Y-696524D01*
X4641570Y-696524D02*
X4670142Y-696524D01*
X4670142Y-696524D02*
X4689189Y-706048D01*
X4765380Y-906048D02*
X4774904Y-896524D01*
X4774904Y-896524D02*
X4793951Y-867953D01*
X4793951Y-867953D02*
X4803475Y-848905D01*
X4803475Y-848905D02*
X4812999Y-820334D01*
X4812999Y-820334D02*
X4822523Y-772715D01*
X4822523Y-772715D02*
X4822523Y-734620D01*
X4822523Y-734620D02*
X4812999Y-687001D01*
X4812999Y-687001D02*
X4803475Y-658429D01*
X4803475Y-658429D02*
X4793951Y-639382D01*
X4793951Y-639382D02*
X4774904Y-610810D01*
X4774904Y-610810D02*
X4765380Y-601286D01*
X5127285Y-906048D02*
X5117761Y-896524D01*
X5117761Y-896524D02*
X5098713Y-867953D01*
X5098713Y-867953D02*
X5089189Y-848905D01*
X5089189Y-848905D02*
X5079665Y-820334D01*
X5079665Y-820334D02*
X5070142Y-772715D01*
X5070142Y-772715D02*
X5070142Y-734620D01*
X5070142Y-734620D02*
X5079665Y-687001D01*
X5079665Y-687001D02*
X5089189Y-658429D01*
X5089189Y-658429D02*
X5098713Y-639382D01*
X5098713Y-639382D02*
X5117761Y-610810D01*
X5117761Y-610810D02*
X5127285Y-601286D01*
X5203475Y-696524D02*
X5203475Y-829858D01*
X5203475Y-715572D02*
X5212999Y-706048D01*
X5212999Y-706048D02*
X5232046Y-696524D01*
X5232046Y-696524D02*
X5260618Y-696524D01*
X5260618Y-696524D02*
X5279665Y-706048D01*
X5279665Y-706048D02*
X5289189Y-725096D01*
X5289189Y-725096D02*
X5289189Y-829858D01*
X5412999Y-829858D02*
X5393951Y-820334D01*
X5393951Y-820334D02*
X5384427Y-810810D01*
X5384427Y-810810D02*
X5374904Y-791762D01*
X5374904Y-791762D02*
X5374904Y-734620D01*
X5374904Y-734620D02*
X5384427Y-715572D01*
X5384427Y-715572D02*
X5393951Y-706048D01*
X5393951Y-706048D02*
X5412999Y-696524D01*
X5412999Y-696524D02*
X5441570Y-696524D01*
X5441570Y-696524D02*
X5460618Y-706048D01*
X5460618Y-706048D02*
X5470142Y-715572D01*
X5470142Y-715572D02*
X5479665Y-734620D01*
X5479665Y-734620D02*
X5479665Y-791762D01*
X5479665Y-791762D02*
X5470142Y-810810D01*
X5470142Y-810810D02*
X5460618Y-820334D01*
X5460618Y-820334D02*
X5441570Y-829858D01*
X5441570Y-829858D02*
X5412999Y-829858D01*
X5536808Y-696524D02*
X5612999Y-696524D01*
X5565380Y-629858D02*
X5565380Y-801286D01*
X5565380Y-801286D02*
X5574904Y-820334D01*
X5574904Y-820334D02*
X5593951Y-829858D01*
X5593951Y-829858D02*
X5612999Y-829858D01*
X5832046Y-696524D02*
X5832046Y-896524D01*
X5832046Y-706048D02*
X5851094Y-696524D01*
X5851094Y-696524D02*
X5889189Y-696524D01*
X5889189Y-696524D02*
X5908237Y-706048D01*
X5908237Y-706048D02*
X5917761Y-715572D01*
X5917761Y-715572D02*
X5927284Y-734620D01*
X5927284Y-734620D02*
X5927284Y-791762D01*
X5927284Y-791762D02*
X5917761Y-810810D01*
X5917761Y-810810D02*
X5908237Y-820334D01*
X5908237Y-820334D02*
X5889189Y-829858D01*
X5889189Y-829858D02*
X5851094Y-829858D01*
X5851094Y-829858D02*
X5832046Y-820334D01*
X6041570Y-829858D02*
X6022523Y-820334D01*
X6022523Y-820334D02*
X6012999Y-801286D01*
X6012999Y-801286D02*
X6012999Y-629858D01*
X6203475Y-829858D02*
X6203475Y-725096D01*
X6203475Y-725096D02*
X6193951Y-706048D01*
X6193951Y-706048D02*
X6174904Y-696524D01*
X6174904Y-696524D02*
X6136808Y-696524D01*
X6136808Y-696524D02*
X6117761Y-706048D01*
X6203475Y-820334D02*
X6184427Y-829858D01*
X6184427Y-829858D02*
X6136808Y-829858D01*
X6136808Y-829858D02*
X6117761Y-820334D01*
X6117761Y-820334D02*
X6108237Y-801286D01*
X6108237Y-801286D02*
X6108237Y-782239D01*
X6108237Y-782239D02*
X6117761Y-763191D01*
X6117761Y-763191D02*
X6136808Y-753667D01*
X6136808Y-753667D02*
X6184427Y-753667D01*
X6184427Y-753667D02*
X6203475Y-744143D01*
X6270142Y-696524D02*
X6346332Y-696524D01*
X6298713Y-629858D02*
X6298713Y-801286D01*
X6298713Y-801286D02*
X6308237Y-820334D01*
X6308237Y-820334D02*
X6327284Y-829858D01*
X6327284Y-829858D02*
X6346332Y-829858D01*
X6489189Y-820334D02*
X6470142Y-829858D01*
X6470142Y-829858D02*
X6432046Y-829858D01*
X6432046Y-829858D02*
X6412999Y-820334D01*
X6412999Y-820334D02*
X6403475Y-801286D01*
X6403475Y-801286D02*
X6403475Y-725096D01*
X6403475Y-725096D02*
X6412999Y-706048D01*
X6412999Y-706048D02*
X6432046Y-696524D01*
X6432046Y-696524D02*
X6470142Y-696524D01*
X6470142Y-696524D02*
X6489189Y-706048D01*
X6489189Y-706048D02*
X6498713Y-725096D01*
X6498713Y-725096D02*
X6498713Y-744143D01*
X6498713Y-744143D02*
X6403475Y-763191D01*
X6670142Y-829858D02*
X6670142Y-629858D01*
X6670142Y-820334D02*
X6651094Y-829858D01*
X6651094Y-829858D02*
X6612999Y-829858D01*
X6612999Y-829858D02*
X6593951Y-820334D01*
X6593951Y-820334D02*
X6584427Y-810810D01*
X6584427Y-810810D02*
X6574904Y-791762D01*
X6574904Y-791762D02*
X6574904Y-734620D01*
X6574904Y-734620D02*
X6584427Y-715572D01*
X6584427Y-715572D02*
X6593951Y-706048D01*
X6593951Y-706048D02*
X6612999Y-696524D01*
X6612999Y-696524D02*
X6651094Y-696524D01*
X6651094Y-696524D02*
X6670142Y-706048D01*
X6746332Y-906048D02*
X6755856Y-896524D01*
X6755856Y-896524D02*
X6774904Y-867953D01*
X6774904Y-867953D02*
X6784427Y-848905D01*
X6784427Y-848905D02*
X6793951Y-820334D01*
X6793951Y-820334D02*
X6803475Y-772715D01*
X6803475Y-772715D02*
X6803475Y-734620D01*
X6803475Y-734620D02*
X6793951Y-687001D01*
X6793951Y-687001D02*
X6784427Y-658429D01*
X6784427Y-658429D02*
X6774904Y-639382D01*
X6774904Y-639382D02*
X6755856Y-610810D01*
X6755856Y-610810D02*
X6746332Y-601286D01*
D12*
X-9683Y-1002374D02*
G75*
G02*
X-79683Y-1002374I-35000J0D01*
G01*
X-79683Y-1002374D02*
G75*
G02*
X-9683Y-1002374I35000J0D01*
G01*
D11*
X289189Y-893858D02*
X308236Y-893858D01*
X308236Y-893858D02*
X327284Y-903382D01*
X327284Y-903382D02*
X336808Y-912905D01*
X336808Y-912905D02*
X346332Y-931953D01*
X346332Y-931953D02*
X355855Y-970048D01*
X355855Y-970048D02*
X355855Y-1017667D01*
X355855Y-1017667D02*
X346332Y-1055763D01*
X346332Y-1055763D02*
X336808Y-1074810D01*
X336808Y-1074810D02*
X327284Y-1084334D01*
X327284Y-1084334D02*
X308236Y-1093858D01*
X308236Y-1093858D02*
X289189Y-1093858D01*
X289189Y-1093858D02*
X270141Y-1084334D01*
X270141Y-1084334D02*
X260617Y-1074810D01*
X260617Y-1074810D02*
X251093Y-1055763D01*
X251093Y-1055763D02*
X241570Y-1017667D01*
X241570Y-1017667D02*
X241570Y-970048D01*
X241570Y-970048D02*
X251093Y-931953D01*
X251093Y-931953D02*
X260617Y-912905D01*
X260617Y-912905D02*
X270141Y-903382D01*
X270141Y-903382D02*
X289189Y-893858D01*
X441570Y-1074810D02*
X451093Y-1084334D01*
X451093Y-1084334D02*
X441570Y-1093858D01*
X441570Y-1093858D02*
X432046Y-1084334D01*
X432046Y-1084334D02*
X441570Y-1074810D01*
X441570Y-1074810D02*
X441570Y-1093858D01*
X517760Y-893858D02*
X651094Y-893858D01*
X651094Y-893858D02*
X565379Y-1093858D01*
X765379Y-893858D02*
X784427Y-893858D01*
X784427Y-893858D02*
X803474Y-903382D01*
X803474Y-903382D02*
X812998Y-912905D01*
X812998Y-912905D02*
X822522Y-931953D01*
X822522Y-931953D02*
X832046Y-970048D01*
X832046Y-970048D02*
X832046Y-1017667D01*
X832046Y-1017667D02*
X822522Y-1055763D01*
X822522Y-1055763D02*
X812998Y-1074810D01*
X812998Y-1074810D02*
X803474Y-1084334D01*
X803474Y-1084334D02*
X784427Y-1093858D01*
X784427Y-1093858D02*
X765379Y-1093858D01*
X765379Y-1093858D02*
X746332Y-1084334D01*
X746332Y-1084334D02*
X736808Y-1074810D01*
X736808Y-1074810D02*
X727284Y-1055763D01*
X727284Y-1055763D02*
X717760Y-1017667D01*
X717760Y-1017667D02*
X717760Y-970048D01*
X717760Y-970048D02*
X727284Y-931953D01*
X727284Y-931953D02*
X736808Y-912905D01*
X736808Y-912905D02*
X746332Y-903382D01*
X746332Y-903382D02*
X765379Y-893858D01*
X955855Y-893858D02*
X974903Y-893858D01*
X974903Y-893858D02*
X993951Y-903382D01*
X993951Y-903382D02*
X1003474Y-912905D01*
X1003474Y-912905D02*
X1012998Y-931953D01*
X1012998Y-931953D02*
X1022522Y-970048D01*
X1022522Y-970048D02*
X1022522Y-1017667D01*
X1022522Y-1017667D02*
X1012998Y-1055763D01*
X1012998Y-1055763D02*
X1003474Y-1074810D01*
X1003474Y-1074810D02*
X993951Y-1084334D01*
X993951Y-1084334D02*
X974903Y-1093858D01*
X974903Y-1093858D02*
X955855Y-1093858D01*
X955855Y-1093858D02*
X936808Y-1084334D01*
X936808Y-1084334D02*
X927284Y-1074810D01*
X927284Y-1074810D02*
X917760Y-1055763D01*
X917760Y-1055763D02*
X908236Y-1017667D01*
X908236Y-1017667D02*
X908236Y-970048D01*
X908236Y-970048D02*
X917760Y-931953D01*
X917760Y-931953D02*
X927284Y-912905D01*
X927284Y-912905D02*
X936808Y-903382D01*
X936808Y-903382D02*
X955855Y-893858D01*
X1108236Y-1093858D02*
X1108236Y-960524D01*
X1108236Y-979572D02*
X1117760Y-970048D01*
X1117760Y-970048D02*
X1136808Y-960524D01*
X1136808Y-960524D02*
X1165379Y-960524D01*
X1165379Y-960524D02*
X1184427Y-970048D01*
X1184427Y-970048D02*
X1193951Y-989096D01*
X1193951Y-989096D02*
X1193951Y-1093858D01*
X1193951Y-989096D02*
X1203475Y-970048D01*
X1203475Y-970048D02*
X1222522Y-960524D01*
X1222522Y-960524D02*
X1251094Y-960524D01*
X1251094Y-960524D02*
X1270141Y-970048D01*
X1270141Y-970048D02*
X1279665Y-989096D01*
X1279665Y-989096D02*
X1279665Y-1093858D01*
X1374903Y-1093858D02*
X1374903Y-960524D01*
X1374903Y-979572D02*
X1384427Y-970048D01*
X1384427Y-970048D02*
X1403474Y-960524D01*
X1403474Y-960524D02*
X1432046Y-960524D01*
X1432046Y-960524D02*
X1451094Y-970048D01*
X1451094Y-970048D02*
X1460617Y-989096D01*
X1460617Y-989096D02*
X1460617Y-1093858D01*
X1460617Y-989096D02*
X1470141Y-970048D01*
X1470141Y-970048D02*
X1489189Y-960524D01*
X1489189Y-960524D02*
X1517760Y-960524D01*
X1517760Y-960524D02*
X1536808Y-970048D01*
X1536808Y-970048D02*
X1546332Y-989096D01*
X1546332Y-989096D02*
X1546332Y-1093858D01*
X1936808Y-884334D02*
X1765379Y-1141477D01*
X2193951Y-893858D02*
X2212999Y-893858D01*
X2212999Y-893858D02*
X2232046Y-903382D01*
X2232046Y-903382D02*
X2241570Y-912905D01*
X2241570Y-912905D02*
X2251094Y-931953D01*
X2251094Y-931953D02*
X2260618Y-970048D01*
X2260618Y-970048D02*
X2260618Y-1017667D01*
X2260618Y-1017667D02*
X2251094Y-1055763D01*
X2251094Y-1055763D02*
X2241570Y-1074810D01*
X2241570Y-1074810D02*
X2232046Y-1084334D01*
X2232046Y-1084334D02*
X2212999Y-1093858D01*
X2212999Y-1093858D02*
X2193951Y-1093858D01*
X2193951Y-1093858D02*
X2174903Y-1084334D01*
X2174903Y-1084334D02*
X2165379Y-1074810D01*
X2165379Y-1074810D02*
X2155856Y-1055763D01*
X2155856Y-1055763D02*
X2146332Y-1017667D01*
X2146332Y-1017667D02*
X2146332Y-970048D01*
X2146332Y-970048D02*
X2155856Y-931953D01*
X2155856Y-931953D02*
X2165379Y-912905D01*
X2165379Y-912905D02*
X2174903Y-903382D01*
X2174903Y-903382D02*
X2193951Y-893858D01*
X2346332Y-1074810D02*
X2355856Y-1084334D01*
X2355856Y-1084334D02*
X2346332Y-1093858D01*
X2346332Y-1093858D02*
X2336808Y-1084334D01*
X2336808Y-1084334D02*
X2346332Y-1074810D01*
X2346332Y-1074810D02*
X2346332Y-1093858D01*
X2479665Y-893858D02*
X2498713Y-893858D01*
X2498713Y-893858D02*
X2517760Y-903382D01*
X2517760Y-903382D02*
X2527284Y-912905D01*
X2527284Y-912905D02*
X2536808Y-931953D01*
X2536808Y-931953D02*
X2546332Y-970048D01*
X2546332Y-970048D02*
X2546332Y-1017667D01*
X2546332Y-1017667D02*
X2536808Y-1055763D01*
X2536808Y-1055763D02*
X2527284Y-1074810D01*
X2527284Y-1074810D02*
X2517760Y-1084334D01*
X2517760Y-1084334D02*
X2498713Y-1093858D01*
X2498713Y-1093858D02*
X2479665Y-1093858D01*
X2479665Y-1093858D02*
X2460618Y-1084334D01*
X2460618Y-1084334D02*
X2451094Y-1074810D01*
X2451094Y-1074810D02*
X2441570Y-1055763D01*
X2441570Y-1055763D02*
X2432046Y-1017667D01*
X2432046Y-1017667D02*
X2432046Y-970048D01*
X2432046Y-970048D02*
X2441570Y-931953D01*
X2441570Y-931953D02*
X2451094Y-912905D01*
X2451094Y-912905D02*
X2460618Y-903382D01*
X2460618Y-903382D02*
X2479665Y-893858D01*
X2622522Y-912905D02*
X2632046Y-903382D01*
X2632046Y-903382D02*
X2651094Y-893858D01*
X2651094Y-893858D02*
X2698713Y-893858D01*
X2698713Y-893858D02*
X2717760Y-903382D01*
X2717760Y-903382D02*
X2727284Y-912905D01*
X2727284Y-912905D02*
X2736808Y-931953D01*
X2736808Y-931953D02*
X2736808Y-951001D01*
X2736808Y-951001D02*
X2727284Y-979572D01*
X2727284Y-979572D02*
X2612999Y-1093858D01*
X2612999Y-1093858D02*
X2736808Y-1093858D01*
X2803475Y-893858D02*
X2936808Y-893858D01*
X2936808Y-893858D02*
X2851094Y-1093858D01*
X3098713Y-893858D02*
X3060617Y-893858D01*
X3060617Y-893858D02*
X3041570Y-903382D01*
X3041570Y-903382D02*
X3032046Y-912905D01*
X3032046Y-912905D02*
X3012998Y-941477D01*
X3012998Y-941477D02*
X3003475Y-979572D01*
X3003475Y-979572D02*
X3003475Y-1055763D01*
X3003475Y-1055763D02*
X3012998Y-1074810D01*
X3012998Y-1074810D02*
X3022522Y-1084334D01*
X3022522Y-1084334D02*
X3041570Y-1093858D01*
X3041570Y-1093858D02*
X3079665Y-1093858D01*
X3079665Y-1093858D02*
X3098713Y-1084334D01*
X3098713Y-1084334D02*
X3108237Y-1074810D01*
X3108237Y-1074810D02*
X3117760Y-1055763D01*
X3117760Y-1055763D02*
X3117760Y-1008143D01*
X3117760Y-1008143D02*
X3108237Y-989096D01*
X3108237Y-989096D02*
X3098713Y-979572D01*
X3098713Y-979572D02*
X3079665Y-970048D01*
X3079665Y-970048D02*
X3041570Y-970048D01*
X3041570Y-970048D02*
X3022522Y-979572D01*
X3022522Y-979572D02*
X3012998Y-989096D01*
X3012998Y-989096D02*
X3003475Y-1008143D01*
X3193951Y-893858D02*
X3193951Y-931953D01*
X3270141Y-893858D02*
X3270141Y-931953D01*
X3565380Y-1170048D02*
X3555856Y-1160524D01*
X3555856Y-1160524D02*
X3536808Y-1131953D01*
X3536808Y-1131953D02*
X3527284Y-1112905D01*
X3527284Y-1112905D02*
X3517760Y-1084334D01*
X3517760Y-1084334D02*
X3508237Y-1036715D01*
X3508237Y-1036715D02*
X3508237Y-998620D01*
X3508237Y-998620D02*
X3517760Y-951001D01*
X3517760Y-951001D02*
X3527284Y-922429D01*
X3527284Y-922429D02*
X3536808Y-903382D01*
X3536808Y-903382D02*
X3555856Y-874810D01*
X3555856Y-874810D02*
X3565380Y-865286D01*
X3632046Y-912905D02*
X3641570Y-903382D01*
X3641570Y-903382D02*
X3660618Y-893858D01*
X3660618Y-893858D02*
X3708237Y-893858D01*
X3708237Y-893858D02*
X3727284Y-903382D01*
X3727284Y-903382D02*
X3736808Y-912905D01*
X3736808Y-912905D02*
X3746332Y-931953D01*
X3746332Y-931953D02*
X3746332Y-951001D01*
X3746332Y-951001D02*
X3736808Y-979572D01*
X3736808Y-979572D02*
X3622522Y-1093858D01*
X3622522Y-1093858D02*
X3746332Y-1093858D01*
X3984427Y-1093858D02*
X3984427Y-893858D01*
X4070141Y-1093858D02*
X4070141Y-989096D01*
X4070141Y-989096D02*
X4060618Y-970048D01*
X4060618Y-970048D02*
X4041570Y-960524D01*
X4041570Y-960524D02*
X4012999Y-960524D01*
X4012999Y-960524D02*
X3993951Y-970048D01*
X3993951Y-970048D02*
X3984427Y-979572D01*
X4193951Y-1093858D02*
X4174903Y-1084334D01*
X4174903Y-1084334D02*
X4165380Y-1074810D01*
X4165380Y-1074810D02*
X4155856Y-1055763D01*
X4155856Y-1055763D02*
X4155856Y-998620D01*
X4155856Y-998620D02*
X4165380Y-979572D01*
X4165380Y-979572D02*
X4174903Y-970048D01*
X4174903Y-970048D02*
X4193951Y-960524D01*
X4193951Y-960524D02*
X4222523Y-960524D01*
X4222523Y-960524D02*
X4241570Y-970048D01*
X4241570Y-970048D02*
X4251094Y-979572D01*
X4251094Y-979572D02*
X4260618Y-998620D01*
X4260618Y-998620D02*
X4260618Y-1055763D01*
X4260618Y-1055763D02*
X4251094Y-1074810D01*
X4251094Y-1074810D02*
X4241570Y-1084334D01*
X4241570Y-1084334D02*
X4222523Y-1093858D01*
X4222523Y-1093858D02*
X4193951Y-1093858D01*
X4374903Y-1093858D02*
X4355856Y-1084334D01*
X4355856Y-1084334D02*
X4346332Y-1065286D01*
X4346332Y-1065286D02*
X4346332Y-893858D01*
X4527284Y-1084334D02*
X4508237Y-1093858D01*
X4508237Y-1093858D02*
X4470142Y-1093858D01*
X4470142Y-1093858D02*
X4451094Y-1084334D01*
X4451094Y-1084334D02*
X4441570Y-1065286D01*
X4441570Y-1065286D02*
X4441570Y-989096D01*
X4441570Y-989096D02*
X4451094Y-970048D01*
X4451094Y-970048D02*
X4470142Y-960524D01*
X4470142Y-960524D02*
X4508237Y-960524D01*
X4508237Y-960524D02*
X4527284Y-970048D01*
X4527284Y-970048D02*
X4536808Y-989096D01*
X4536808Y-989096D02*
X4536808Y-1008143D01*
X4536808Y-1008143D02*
X4441570Y-1027191D01*
X4612999Y-1084334D02*
X4632046Y-1093858D01*
X4632046Y-1093858D02*
X4670142Y-1093858D01*
X4670142Y-1093858D02*
X4689189Y-1084334D01*
X4689189Y-1084334D02*
X4698713Y-1065286D01*
X4698713Y-1065286D02*
X4698713Y-1055763D01*
X4698713Y-1055763D02*
X4689189Y-1036715D01*
X4689189Y-1036715D02*
X4670142Y-1027191D01*
X4670142Y-1027191D02*
X4641570Y-1027191D01*
X4641570Y-1027191D02*
X4622523Y-1017667D01*
X4622523Y-1017667D02*
X4612999Y-998620D01*
X4612999Y-998620D02*
X4612999Y-989096D01*
X4612999Y-989096D02*
X4622523Y-970048D01*
X4622523Y-970048D02*
X4641570Y-960524D01*
X4641570Y-960524D02*
X4670142Y-960524D01*
X4670142Y-960524D02*
X4689189Y-970048D01*
X4765380Y-1170048D02*
X4774904Y-1160524D01*
X4774904Y-1160524D02*
X4793951Y-1131953D01*
X4793951Y-1131953D02*
X4803475Y-1112905D01*
X4803475Y-1112905D02*
X4812999Y-1084334D01*
X4812999Y-1084334D02*
X4822523Y-1036715D01*
X4822523Y-1036715D02*
X4822523Y-998620D01*
X4822523Y-998620D02*
X4812999Y-951001D01*
X4812999Y-951001D02*
X4803475Y-922429D01*
X4803475Y-922429D02*
X4793951Y-903382D01*
X4793951Y-903382D02*
X4774904Y-874810D01*
X4774904Y-874810D02*
X4765380Y-865286D01*
X5127285Y-1170048D02*
X5117761Y-1160524D01*
X5117761Y-1160524D02*
X5098713Y-1131953D01*
X5098713Y-1131953D02*
X5089189Y-1112905D01*
X5089189Y-1112905D02*
X5079665Y-1084334D01*
X5079665Y-1084334D02*
X5070142Y-1036715D01*
X5070142Y-1036715D02*
X5070142Y-998620D01*
X5070142Y-998620D02*
X5079665Y-951001D01*
X5079665Y-951001D02*
X5089189Y-922429D01*
X5089189Y-922429D02*
X5098713Y-903382D01*
X5098713Y-903382D02*
X5117761Y-874810D01*
X5117761Y-874810D02*
X5127285Y-865286D01*
X5203475Y-960524D02*
X5203475Y-1093858D01*
X5203475Y-979572D02*
X5212999Y-970048D01*
X5212999Y-970048D02*
X5232046Y-960524D01*
X5232046Y-960524D02*
X5260618Y-960524D01*
X5260618Y-960524D02*
X5279665Y-970048D01*
X5279665Y-970048D02*
X5289189Y-989096D01*
X5289189Y-989096D02*
X5289189Y-1093858D01*
X5412999Y-1093858D02*
X5393951Y-1084334D01*
X5393951Y-1084334D02*
X5384427Y-1074810D01*
X5384427Y-1074810D02*
X5374904Y-1055763D01*
X5374904Y-1055763D02*
X5374904Y-998620D01*
X5374904Y-998620D02*
X5384427Y-979572D01*
X5384427Y-979572D02*
X5393951Y-970048D01*
X5393951Y-970048D02*
X5412999Y-960524D01*
X5412999Y-960524D02*
X5441570Y-960524D01*
X5441570Y-960524D02*
X5460618Y-970048D01*
X5460618Y-970048D02*
X5470142Y-979572D01*
X5470142Y-979572D02*
X5479665Y-998620D01*
X5479665Y-998620D02*
X5479665Y-1055763D01*
X5479665Y-1055763D02*
X5470142Y-1074810D01*
X5470142Y-1074810D02*
X5460618Y-1084334D01*
X5460618Y-1084334D02*
X5441570Y-1093858D01*
X5441570Y-1093858D02*
X5412999Y-1093858D01*
X5536808Y-960524D02*
X5612999Y-960524D01*
X5565380Y-893858D02*
X5565380Y-1065286D01*
X5565380Y-1065286D02*
X5574904Y-1084334D01*
X5574904Y-1084334D02*
X5593951Y-1093858D01*
X5593951Y-1093858D02*
X5612999Y-1093858D01*
X5832046Y-960524D02*
X5832046Y-1160524D01*
X5832046Y-970048D02*
X5851094Y-960524D01*
X5851094Y-960524D02*
X5889189Y-960524D01*
X5889189Y-960524D02*
X5908237Y-970048D01*
X5908237Y-970048D02*
X5917761Y-979572D01*
X5917761Y-979572D02*
X5927284Y-998620D01*
X5927284Y-998620D02*
X5927284Y-1055763D01*
X5927284Y-1055763D02*
X5917761Y-1074810D01*
X5917761Y-1074810D02*
X5908237Y-1084334D01*
X5908237Y-1084334D02*
X5889189Y-1093858D01*
X5889189Y-1093858D02*
X5851094Y-1093858D01*
X5851094Y-1093858D02*
X5832046Y-1084334D01*
X6041570Y-1093858D02*
X6022523Y-1084334D01*
X6022523Y-1084334D02*
X6012999Y-1065286D01*
X6012999Y-1065286D02*
X6012999Y-893858D01*
X6203475Y-1093858D02*
X6203475Y-989096D01*
X6203475Y-989096D02*
X6193951Y-970048D01*
X6193951Y-970048D02*
X6174904Y-960524D01*
X6174904Y-960524D02*
X6136808Y-960524D01*
X6136808Y-960524D02*
X6117761Y-970048D01*
X6203475Y-1084334D02*
X6184427Y-1093858D01*
X6184427Y-1093858D02*
X6136808Y-1093858D01*
X6136808Y-1093858D02*
X6117761Y-1084334D01*
X6117761Y-1084334D02*
X6108237Y-1065286D01*
X6108237Y-1065286D02*
X6108237Y-1046239D01*
X6108237Y-1046239D02*
X6117761Y-1027191D01*
X6117761Y-1027191D02*
X6136808Y-1017667D01*
X6136808Y-1017667D02*
X6184427Y-1017667D01*
X6184427Y-1017667D02*
X6203475Y-1008143D01*
X6270142Y-960524D02*
X6346332Y-960524D01*
X6298713Y-893858D02*
X6298713Y-1065286D01*
X6298713Y-1065286D02*
X6308237Y-1084334D01*
X6308237Y-1084334D02*
X6327284Y-1093858D01*
X6327284Y-1093858D02*
X6346332Y-1093858D01*
X6489189Y-1084334D02*
X6470142Y-1093858D01*
X6470142Y-1093858D02*
X6432046Y-1093858D01*
X6432046Y-1093858D02*
X6412999Y-1084334D01*
X6412999Y-1084334D02*
X6403475Y-1065286D01*
X6403475Y-1065286D02*
X6403475Y-989096D01*
X6403475Y-989096D02*
X6412999Y-970048D01*
X6412999Y-970048D02*
X6432046Y-960524D01*
X6432046Y-960524D02*
X6470142Y-960524D01*
X6470142Y-960524D02*
X6489189Y-970048D01*
X6489189Y-970048D02*
X6498713Y-989096D01*
X6498713Y-989096D02*
X6498713Y-1008143D01*
X6498713Y-1008143D02*
X6403475Y-1027191D01*
X6670142Y-1093858D02*
X6670142Y-893858D01*
X6670142Y-1084334D02*
X6651094Y-1093858D01*
X6651094Y-1093858D02*
X6612999Y-1093858D01*
X6612999Y-1093858D02*
X6593951Y-1084334D01*
X6593951Y-1084334D02*
X6584427Y-1074810D01*
X6584427Y-1074810D02*
X6574904Y-1055763D01*
X6574904Y-1055763D02*
X6574904Y-998620D01*
X6574904Y-998620D02*
X6584427Y-979572D01*
X6584427Y-979572D02*
X6593951Y-970048D01*
X6593951Y-970048D02*
X6612999Y-960524D01*
X6612999Y-960524D02*
X6651094Y-960524D01*
X6651094Y-960524D02*
X6670142Y-970048D01*
X6746332Y-1170048D02*
X6755856Y-1160524D01*
X6755856Y-1160524D02*
X6774904Y-1131953D01*
X6774904Y-1131953D02*
X6784427Y-1112905D01*
X6784427Y-1112905D02*
X6793951Y-1084334D01*
X6793951Y-1084334D02*
X6803475Y-1036715D01*
X6803475Y-1036715D02*
X6803475Y-998620D01*
X6803475Y-998620D02*
X6793951Y-951001D01*
X6793951Y-951001D02*
X6784427Y-922429D01*
X6784427Y-922429D02*
X6774904Y-903382D01*
X6774904Y-903382D02*
X6755856Y-874810D01*
X6755856Y-874810D02*
X6746332Y-865286D01*
D12*
X-54683Y-1221374D02*
X-54683Y-1311374D01*
X-99683Y-1266374D02*
X-9683Y-1266374D01*
D11*
X289189Y-1157858D02*
X308236Y-1157858D01*
X308236Y-1157858D02*
X327284Y-1167382D01*
X327284Y-1167382D02*
X336808Y-1176905D01*
X336808Y-1176905D02*
X346332Y-1195953D01*
X346332Y-1195953D02*
X355855Y-1234048D01*
X355855Y-1234048D02*
X355855Y-1281667D01*
X355855Y-1281667D02*
X346332Y-1319763D01*
X346332Y-1319763D02*
X336808Y-1338810D01*
X336808Y-1338810D02*
X327284Y-1348334D01*
X327284Y-1348334D02*
X308236Y-1357858D01*
X308236Y-1357858D02*
X289189Y-1357858D01*
X289189Y-1357858D02*
X270141Y-1348334D01*
X270141Y-1348334D02*
X260617Y-1338810D01*
X260617Y-1338810D02*
X251093Y-1319763D01*
X251093Y-1319763D02*
X241570Y-1281667D01*
X241570Y-1281667D02*
X241570Y-1234048D01*
X241570Y-1234048D02*
X251093Y-1195953D01*
X251093Y-1195953D02*
X260617Y-1176905D01*
X260617Y-1176905D02*
X270141Y-1167382D01*
X270141Y-1167382D02*
X289189Y-1157858D01*
X441570Y-1338810D02*
X451093Y-1348334D01*
X451093Y-1348334D02*
X441570Y-1357858D01*
X441570Y-1357858D02*
X432046Y-1348334D01*
X432046Y-1348334D02*
X441570Y-1338810D01*
X441570Y-1338810D02*
X441570Y-1357858D01*
X546332Y-1357858D02*
X584427Y-1357858D01*
X584427Y-1357858D02*
X603475Y-1348334D01*
X603475Y-1348334D02*
X612998Y-1338810D01*
X612998Y-1338810D02*
X632046Y-1310239D01*
X632046Y-1310239D02*
X641570Y-1272144D01*
X641570Y-1272144D02*
X641570Y-1195953D01*
X641570Y-1195953D02*
X632046Y-1176905D01*
X632046Y-1176905D02*
X622522Y-1167382D01*
X622522Y-1167382D02*
X603475Y-1157858D01*
X603475Y-1157858D02*
X565379Y-1157858D01*
X565379Y-1157858D02*
X546332Y-1167382D01*
X546332Y-1167382D02*
X536808Y-1176905D01*
X536808Y-1176905D02*
X527284Y-1195953D01*
X527284Y-1195953D02*
X527284Y-1243572D01*
X527284Y-1243572D02*
X536808Y-1262620D01*
X536808Y-1262620D02*
X546332Y-1272144D01*
X546332Y-1272144D02*
X565379Y-1281667D01*
X565379Y-1281667D02*
X603475Y-1281667D01*
X603475Y-1281667D02*
X622522Y-1272144D01*
X622522Y-1272144D02*
X632046Y-1262620D01*
X632046Y-1262620D02*
X641570Y-1243572D01*
X765379Y-1157858D02*
X784427Y-1157858D01*
X784427Y-1157858D02*
X803474Y-1167382D01*
X803474Y-1167382D02*
X812998Y-1176905D01*
X812998Y-1176905D02*
X822522Y-1195953D01*
X822522Y-1195953D02*
X832046Y-1234048D01*
X832046Y-1234048D02*
X832046Y-1281667D01*
X832046Y-1281667D02*
X822522Y-1319763D01*
X822522Y-1319763D02*
X812998Y-1338810D01*
X812998Y-1338810D02*
X803474Y-1348334D01*
X803474Y-1348334D02*
X784427Y-1357858D01*
X784427Y-1357858D02*
X765379Y-1357858D01*
X765379Y-1357858D02*
X746332Y-1348334D01*
X746332Y-1348334D02*
X736808Y-1338810D01*
X736808Y-1338810D02*
X727284Y-1319763D01*
X727284Y-1319763D02*
X717760Y-1281667D01*
X717760Y-1281667D02*
X717760Y-1234048D01*
X717760Y-1234048D02*
X727284Y-1195953D01*
X727284Y-1195953D02*
X736808Y-1176905D01*
X736808Y-1176905D02*
X746332Y-1167382D01*
X746332Y-1167382D02*
X765379Y-1157858D01*
X955855Y-1157858D02*
X974903Y-1157858D01*
X974903Y-1157858D02*
X993951Y-1167382D01*
X993951Y-1167382D02*
X1003474Y-1176905D01*
X1003474Y-1176905D02*
X1012998Y-1195953D01*
X1012998Y-1195953D02*
X1022522Y-1234048D01*
X1022522Y-1234048D02*
X1022522Y-1281667D01*
X1022522Y-1281667D02*
X1012998Y-1319763D01*
X1012998Y-1319763D02*
X1003474Y-1338810D01*
X1003474Y-1338810D02*
X993951Y-1348334D01*
X993951Y-1348334D02*
X974903Y-1357858D01*
X974903Y-1357858D02*
X955855Y-1357858D01*
X955855Y-1357858D02*
X936808Y-1348334D01*
X936808Y-1348334D02*
X927284Y-1338810D01*
X927284Y-1338810D02*
X917760Y-1319763D01*
X917760Y-1319763D02*
X908236Y-1281667D01*
X908236Y-1281667D02*
X908236Y-1234048D01*
X908236Y-1234048D02*
X917760Y-1195953D01*
X917760Y-1195953D02*
X927284Y-1176905D01*
X927284Y-1176905D02*
X936808Y-1167382D01*
X936808Y-1167382D02*
X955855Y-1157858D01*
X1108236Y-1357858D02*
X1108236Y-1224524D01*
X1108236Y-1243572D02*
X1117760Y-1234048D01*
X1117760Y-1234048D02*
X1136808Y-1224524D01*
X1136808Y-1224524D02*
X1165379Y-1224524D01*
X1165379Y-1224524D02*
X1184427Y-1234048D01*
X1184427Y-1234048D02*
X1193951Y-1253096D01*
X1193951Y-1253096D02*
X1193951Y-1357858D01*
X1193951Y-1253096D02*
X1203475Y-1234048D01*
X1203475Y-1234048D02*
X1222522Y-1224524D01*
X1222522Y-1224524D02*
X1251094Y-1224524D01*
X1251094Y-1224524D02*
X1270141Y-1234048D01*
X1270141Y-1234048D02*
X1279665Y-1253096D01*
X1279665Y-1253096D02*
X1279665Y-1357858D01*
X1374903Y-1357858D02*
X1374903Y-1224524D01*
X1374903Y-1243572D02*
X1384427Y-1234048D01*
X1384427Y-1234048D02*
X1403474Y-1224524D01*
X1403474Y-1224524D02*
X1432046Y-1224524D01*
X1432046Y-1224524D02*
X1451094Y-1234048D01*
X1451094Y-1234048D02*
X1460617Y-1253096D01*
X1460617Y-1253096D02*
X1460617Y-1357858D01*
X1460617Y-1253096D02*
X1470141Y-1234048D01*
X1470141Y-1234048D02*
X1489189Y-1224524D01*
X1489189Y-1224524D02*
X1517760Y-1224524D01*
X1517760Y-1224524D02*
X1536808Y-1234048D01*
X1536808Y-1234048D02*
X1546332Y-1253096D01*
X1546332Y-1253096D02*
X1546332Y-1357858D01*
X1936808Y-1148334D02*
X1765379Y-1405477D01*
X2193951Y-1157858D02*
X2212999Y-1157858D01*
X2212999Y-1157858D02*
X2232046Y-1167382D01*
X2232046Y-1167382D02*
X2241570Y-1176905D01*
X2241570Y-1176905D02*
X2251094Y-1195953D01*
X2251094Y-1195953D02*
X2260618Y-1234048D01*
X2260618Y-1234048D02*
X2260618Y-1281667D01*
X2260618Y-1281667D02*
X2251094Y-1319763D01*
X2251094Y-1319763D02*
X2241570Y-1338810D01*
X2241570Y-1338810D02*
X2232046Y-1348334D01*
X2232046Y-1348334D02*
X2212999Y-1357858D01*
X2212999Y-1357858D02*
X2193951Y-1357858D01*
X2193951Y-1357858D02*
X2174903Y-1348334D01*
X2174903Y-1348334D02*
X2165379Y-1338810D01*
X2165379Y-1338810D02*
X2155856Y-1319763D01*
X2155856Y-1319763D02*
X2146332Y-1281667D01*
X2146332Y-1281667D02*
X2146332Y-1234048D01*
X2146332Y-1234048D02*
X2155856Y-1195953D01*
X2155856Y-1195953D02*
X2165379Y-1176905D01*
X2165379Y-1176905D02*
X2174903Y-1167382D01*
X2174903Y-1167382D02*
X2193951Y-1157858D01*
X2346332Y-1338810D02*
X2355856Y-1348334D01*
X2355856Y-1348334D02*
X2346332Y-1357858D01*
X2346332Y-1357858D02*
X2336808Y-1348334D01*
X2336808Y-1348334D02*
X2346332Y-1338810D01*
X2346332Y-1338810D02*
X2346332Y-1357858D01*
X2479665Y-1157858D02*
X2498713Y-1157858D01*
X2498713Y-1157858D02*
X2517760Y-1167382D01*
X2517760Y-1167382D02*
X2527284Y-1176905D01*
X2527284Y-1176905D02*
X2536808Y-1195953D01*
X2536808Y-1195953D02*
X2546332Y-1234048D01*
X2546332Y-1234048D02*
X2546332Y-1281667D01*
X2546332Y-1281667D02*
X2536808Y-1319763D01*
X2536808Y-1319763D02*
X2527284Y-1338810D01*
X2527284Y-1338810D02*
X2517760Y-1348334D01*
X2517760Y-1348334D02*
X2498713Y-1357858D01*
X2498713Y-1357858D02*
X2479665Y-1357858D01*
X2479665Y-1357858D02*
X2460618Y-1348334D01*
X2460618Y-1348334D02*
X2451094Y-1338810D01*
X2451094Y-1338810D02*
X2441570Y-1319763D01*
X2441570Y-1319763D02*
X2432046Y-1281667D01*
X2432046Y-1281667D02*
X2432046Y-1234048D01*
X2432046Y-1234048D02*
X2441570Y-1195953D01*
X2441570Y-1195953D02*
X2451094Y-1176905D01*
X2451094Y-1176905D02*
X2460618Y-1167382D01*
X2460618Y-1167382D02*
X2479665Y-1157858D01*
X2612999Y-1157858D02*
X2736808Y-1157858D01*
X2736808Y-1157858D02*
X2670141Y-1234048D01*
X2670141Y-1234048D02*
X2698713Y-1234048D01*
X2698713Y-1234048D02*
X2717760Y-1243572D01*
X2717760Y-1243572D02*
X2727284Y-1253096D01*
X2727284Y-1253096D02*
X2736808Y-1272144D01*
X2736808Y-1272144D02*
X2736808Y-1319763D01*
X2736808Y-1319763D02*
X2727284Y-1338810D01*
X2727284Y-1338810D02*
X2717760Y-1348334D01*
X2717760Y-1348334D02*
X2698713Y-1357858D01*
X2698713Y-1357858D02*
X2641570Y-1357858D01*
X2641570Y-1357858D02*
X2622522Y-1348334D01*
X2622522Y-1348334D02*
X2612999Y-1338810D01*
X2917760Y-1157858D02*
X2822522Y-1157858D01*
X2822522Y-1157858D02*
X2812998Y-1253096D01*
X2812998Y-1253096D02*
X2822522Y-1243572D01*
X2822522Y-1243572D02*
X2841570Y-1234048D01*
X2841570Y-1234048D02*
X2889189Y-1234048D01*
X2889189Y-1234048D02*
X2908237Y-1243572D01*
X2908237Y-1243572D02*
X2917760Y-1253096D01*
X2917760Y-1253096D02*
X2927284Y-1272144D01*
X2927284Y-1272144D02*
X2927284Y-1319763D01*
X2927284Y-1319763D02*
X2917760Y-1338810D01*
X2917760Y-1338810D02*
X2908237Y-1348334D01*
X2908237Y-1348334D02*
X2889189Y-1357858D01*
X2889189Y-1357858D02*
X2841570Y-1357858D01*
X2841570Y-1357858D02*
X2822522Y-1348334D01*
X2822522Y-1348334D02*
X2812998Y-1338810D01*
X3098713Y-1224524D02*
X3098713Y-1357858D01*
X3051094Y-1148334D02*
X3003475Y-1291191D01*
X3003475Y-1291191D02*
X3127284Y-1291191D01*
X3193951Y-1157858D02*
X3193951Y-1195953D01*
X3270141Y-1157858D02*
X3270141Y-1195953D01*
X3565380Y-1434048D02*
X3555856Y-1424524D01*
X3555856Y-1424524D02*
X3536808Y-1395953D01*
X3536808Y-1395953D02*
X3527284Y-1376905D01*
X3527284Y-1376905D02*
X3517760Y-1348334D01*
X3517760Y-1348334D02*
X3508237Y-1300715D01*
X3508237Y-1300715D02*
X3508237Y-1262620D01*
X3508237Y-1262620D02*
X3517760Y-1215001D01*
X3517760Y-1215001D02*
X3527284Y-1186429D01*
X3527284Y-1186429D02*
X3536808Y-1167382D01*
X3536808Y-1167382D02*
X3555856Y-1138810D01*
X3555856Y-1138810D02*
X3565380Y-1129286D01*
X3632046Y-1176905D02*
X3641570Y-1167382D01*
X3641570Y-1167382D02*
X3660618Y-1157858D01*
X3660618Y-1157858D02*
X3708237Y-1157858D01*
X3708237Y-1157858D02*
X3727284Y-1167382D01*
X3727284Y-1167382D02*
X3736808Y-1176905D01*
X3736808Y-1176905D02*
X3746332Y-1195953D01*
X3746332Y-1195953D02*
X3746332Y-1215001D01*
X3746332Y-1215001D02*
X3736808Y-1243572D01*
X3736808Y-1243572D02*
X3622522Y-1357858D01*
X3622522Y-1357858D02*
X3746332Y-1357858D01*
X3984427Y-1357858D02*
X3984427Y-1157858D01*
X4070141Y-1357858D02*
X4070141Y-1253096D01*
X4070141Y-1253096D02*
X4060618Y-1234048D01*
X4060618Y-1234048D02*
X4041570Y-1224524D01*
X4041570Y-1224524D02*
X4012999Y-1224524D01*
X4012999Y-1224524D02*
X3993951Y-1234048D01*
X3993951Y-1234048D02*
X3984427Y-1243572D01*
X4193951Y-1357858D02*
X4174903Y-1348334D01*
X4174903Y-1348334D02*
X4165380Y-1338810D01*
X4165380Y-1338810D02*
X4155856Y-1319763D01*
X4155856Y-1319763D02*
X4155856Y-1262620D01*
X4155856Y-1262620D02*
X4165380Y-1243572D01*
X4165380Y-1243572D02*
X4174903Y-1234048D01*
X4174903Y-1234048D02*
X4193951Y-1224524D01*
X4193951Y-1224524D02*
X4222523Y-1224524D01*
X4222523Y-1224524D02*
X4241570Y-1234048D01*
X4241570Y-1234048D02*
X4251094Y-1243572D01*
X4251094Y-1243572D02*
X4260618Y-1262620D01*
X4260618Y-1262620D02*
X4260618Y-1319763D01*
X4260618Y-1319763D02*
X4251094Y-1338810D01*
X4251094Y-1338810D02*
X4241570Y-1348334D01*
X4241570Y-1348334D02*
X4222523Y-1357858D01*
X4222523Y-1357858D02*
X4193951Y-1357858D01*
X4374903Y-1357858D02*
X4355856Y-1348334D01*
X4355856Y-1348334D02*
X4346332Y-1329286D01*
X4346332Y-1329286D02*
X4346332Y-1157858D01*
X4527284Y-1348334D02*
X4508237Y-1357858D01*
X4508237Y-1357858D02*
X4470142Y-1357858D01*
X4470142Y-1357858D02*
X4451094Y-1348334D01*
X4451094Y-1348334D02*
X4441570Y-1329286D01*
X4441570Y-1329286D02*
X4441570Y-1253096D01*
X4441570Y-1253096D02*
X4451094Y-1234048D01*
X4451094Y-1234048D02*
X4470142Y-1224524D01*
X4470142Y-1224524D02*
X4508237Y-1224524D01*
X4508237Y-1224524D02*
X4527284Y-1234048D01*
X4527284Y-1234048D02*
X4536808Y-1253096D01*
X4536808Y-1253096D02*
X4536808Y-1272144D01*
X4536808Y-1272144D02*
X4441570Y-1291191D01*
X4612999Y-1348334D02*
X4632046Y-1357858D01*
X4632046Y-1357858D02*
X4670142Y-1357858D01*
X4670142Y-1357858D02*
X4689189Y-1348334D01*
X4689189Y-1348334D02*
X4698713Y-1329286D01*
X4698713Y-1329286D02*
X4698713Y-1319763D01*
X4698713Y-1319763D02*
X4689189Y-1300715D01*
X4689189Y-1300715D02*
X4670142Y-1291191D01*
X4670142Y-1291191D02*
X4641570Y-1291191D01*
X4641570Y-1291191D02*
X4622523Y-1281667D01*
X4622523Y-1281667D02*
X4612999Y-1262620D01*
X4612999Y-1262620D02*
X4612999Y-1253096D01*
X4612999Y-1253096D02*
X4622523Y-1234048D01*
X4622523Y-1234048D02*
X4641570Y-1224524D01*
X4641570Y-1224524D02*
X4670142Y-1224524D01*
X4670142Y-1224524D02*
X4689189Y-1234048D01*
X4765380Y-1434048D02*
X4774904Y-1424524D01*
X4774904Y-1424524D02*
X4793951Y-1395953D01*
X4793951Y-1395953D02*
X4803475Y-1376905D01*
X4803475Y-1376905D02*
X4812999Y-1348334D01*
X4812999Y-1348334D02*
X4822523Y-1300715D01*
X4822523Y-1300715D02*
X4822523Y-1262620D01*
X4822523Y-1262620D02*
X4812999Y-1215001D01*
X4812999Y-1215001D02*
X4803475Y-1186429D01*
X4803475Y-1186429D02*
X4793951Y-1167382D01*
X4793951Y-1167382D02*
X4774904Y-1138810D01*
X4774904Y-1138810D02*
X4765380Y-1129286D01*
X5127285Y-1434048D02*
X5117761Y-1424524D01*
X5117761Y-1424524D02*
X5098713Y-1395953D01*
X5098713Y-1395953D02*
X5089189Y-1376905D01*
X5089189Y-1376905D02*
X5079665Y-1348334D01*
X5079665Y-1348334D02*
X5070142Y-1300715D01*
X5070142Y-1300715D02*
X5070142Y-1262620D01*
X5070142Y-1262620D02*
X5079665Y-1215001D01*
X5079665Y-1215001D02*
X5089189Y-1186429D01*
X5089189Y-1186429D02*
X5098713Y-1167382D01*
X5098713Y-1167382D02*
X5117761Y-1138810D01*
X5117761Y-1138810D02*
X5127285Y-1129286D01*
X5203475Y-1224524D02*
X5203475Y-1357858D01*
X5203475Y-1243572D02*
X5212999Y-1234048D01*
X5212999Y-1234048D02*
X5232046Y-1224524D01*
X5232046Y-1224524D02*
X5260618Y-1224524D01*
X5260618Y-1224524D02*
X5279665Y-1234048D01*
X5279665Y-1234048D02*
X5289189Y-1253096D01*
X5289189Y-1253096D02*
X5289189Y-1357858D01*
X5412999Y-1357858D02*
X5393951Y-1348334D01*
X5393951Y-1348334D02*
X5384427Y-1338810D01*
X5384427Y-1338810D02*
X5374904Y-1319763D01*
X5374904Y-1319763D02*
X5374904Y-1262620D01*
X5374904Y-1262620D02*
X5384427Y-1243572D01*
X5384427Y-1243572D02*
X5393951Y-1234048D01*
X5393951Y-1234048D02*
X5412999Y-1224524D01*
X5412999Y-1224524D02*
X5441570Y-1224524D01*
X5441570Y-1224524D02*
X5460618Y-1234048D01*
X5460618Y-1234048D02*
X5470142Y-1243572D01*
X5470142Y-1243572D02*
X5479665Y-1262620D01*
X5479665Y-1262620D02*
X5479665Y-1319763D01*
X5479665Y-1319763D02*
X5470142Y-1338810D01*
X5470142Y-1338810D02*
X5460618Y-1348334D01*
X5460618Y-1348334D02*
X5441570Y-1357858D01*
X5441570Y-1357858D02*
X5412999Y-1357858D01*
X5536808Y-1224524D02*
X5612999Y-1224524D01*
X5565380Y-1157858D02*
X5565380Y-1329286D01*
X5565380Y-1329286D02*
X5574904Y-1348334D01*
X5574904Y-1348334D02*
X5593951Y-1357858D01*
X5593951Y-1357858D02*
X5612999Y-1357858D01*
X5832046Y-1224524D02*
X5832046Y-1424524D01*
X5832046Y-1234048D02*
X5851094Y-1224524D01*
X5851094Y-1224524D02*
X5889189Y-1224524D01*
X5889189Y-1224524D02*
X5908237Y-1234048D01*
X5908237Y-1234048D02*
X5917761Y-1243572D01*
X5917761Y-1243572D02*
X5927284Y-1262620D01*
X5927284Y-1262620D02*
X5927284Y-1319763D01*
X5927284Y-1319763D02*
X5917761Y-1338810D01*
X5917761Y-1338810D02*
X5908237Y-1348334D01*
X5908237Y-1348334D02*
X5889189Y-1357858D01*
X5889189Y-1357858D02*
X5851094Y-1357858D01*
X5851094Y-1357858D02*
X5832046Y-1348334D01*
X6041570Y-1357858D02*
X6022523Y-1348334D01*
X6022523Y-1348334D02*
X6012999Y-1329286D01*
X6012999Y-1329286D02*
X6012999Y-1157858D01*
X6203475Y-1357858D02*
X6203475Y-1253096D01*
X6203475Y-1253096D02*
X6193951Y-1234048D01*
X6193951Y-1234048D02*
X6174904Y-1224524D01*
X6174904Y-1224524D02*
X6136808Y-1224524D01*
X6136808Y-1224524D02*
X6117761Y-1234048D01*
X6203475Y-1348334D02*
X6184427Y-1357858D01*
X6184427Y-1357858D02*
X6136808Y-1357858D01*
X6136808Y-1357858D02*
X6117761Y-1348334D01*
X6117761Y-1348334D02*
X6108237Y-1329286D01*
X6108237Y-1329286D02*
X6108237Y-1310239D01*
X6108237Y-1310239D02*
X6117761Y-1291191D01*
X6117761Y-1291191D02*
X6136808Y-1281667D01*
X6136808Y-1281667D02*
X6184427Y-1281667D01*
X6184427Y-1281667D02*
X6203475Y-1272144D01*
X6270142Y-1224524D02*
X6346332Y-1224524D01*
X6298713Y-1157858D02*
X6298713Y-1329286D01*
X6298713Y-1329286D02*
X6308237Y-1348334D01*
X6308237Y-1348334D02*
X6327284Y-1357858D01*
X6327284Y-1357858D02*
X6346332Y-1357858D01*
X6489189Y-1348334D02*
X6470142Y-1357858D01*
X6470142Y-1357858D02*
X6432046Y-1357858D01*
X6432046Y-1357858D02*
X6412999Y-1348334D01*
X6412999Y-1348334D02*
X6403475Y-1329286D01*
X6403475Y-1329286D02*
X6403475Y-1253096D01*
X6403475Y-1253096D02*
X6412999Y-1234048D01*
X6412999Y-1234048D02*
X6432046Y-1224524D01*
X6432046Y-1224524D02*
X6470142Y-1224524D01*
X6470142Y-1224524D02*
X6489189Y-1234048D01*
X6489189Y-1234048D02*
X6498713Y-1253096D01*
X6498713Y-1253096D02*
X6498713Y-1272144D01*
X6498713Y-1272144D02*
X6403475Y-1291191D01*
X6670142Y-1357858D02*
X6670142Y-1157858D01*
X6670142Y-1348334D02*
X6651094Y-1357858D01*
X6651094Y-1357858D02*
X6612999Y-1357858D01*
X6612999Y-1357858D02*
X6593951Y-1348334D01*
X6593951Y-1348334D02*
X6584427Y-1338810D01*
X6584427Y-1338810D02*
X6574904Y-1319763D01*
X6574904Y-1319763D02*
X6574904Y-1262620D01*
X6574904Y-1262620D02*
X6584427Y-1243572D01*
X6584427Y-1243572D02*
X6593951Y-1234048D01*
X6593951Y-1234048D02*
X6612999Y-1224524D01*
X6612999Y-1224524D02*
X6651094Y-1224524D01*
X6651094Y-1224524D02*
X6670142Y-1234048D01*
X6746332Y-1434048D02*
X6755856Y-1424524D01*
X6755856Y-1424524D02*
X6774904Y-1395953D01*
X6774904Y-1395953D02*
X6784427Y-1376905D01*
X6784427Y-1376905D02*
X6793951Y-1348334D01*
X6793951Y-1348334D02*
X6803475Y-1300715D01*
X6803475Y-1300715D02*
X6803475Y-1262620D01*
X6803475Y-1262620D02*
X6793951Y-1215001D01*
X6793951Y-1215001D02*
X6784427Y-1186429D01*
X6784427Y-1186429D02*
X6774904Y-1167382D01*
X6774904Y-1167382D02*
X6755856Y-1138810D01*
X6755856Y-1138810D02*
X6746332Y-1129286D01*
D12*
X-24328Y-1565730D02*
X-24328Y-1495018D01*
X-95039Y-1495018D01*
X-95039Y-1565730D01*
X-24328Y-1565730D01*
D11*
X355855Y-1621858D02*
X241570Y-1621858D01*
X298713Y-1621858D02*
X298713Y-1421858D01*
X298713Y-1421858D02*
X279665Y-1450429D01*
X279665Y-1450429D02*
X260617Y-1469477D01*
X260617Y-1469477D02*
X241570Y-1479001D01*
X441570Y-1602810D02*
X451093Y-1612334D01*
X451093Y-1612334D02*
X441570Y-1621858D01*
X441570Y-1621858D02*
X432046Y-1612334D01*
X432046Y-1612334D02*
X441570Y-1602810D01*
X441570Y-1602810D02*
X441570Y-1621858D01*
X574903Y-1421858D02*
X593951Y-1421858D01*
X593951Y-1421858D02*
X612998Y-1431382D01*
X612998Y-1431382D02*
X622522Y-1440905D01*
X622522Y-1440905D02*
X632046Y-1459953D01*
X632046Y-1459953D02*
X641570Y-1498048D01*
X641570Y-1498048D02*
X641570Y-1545667D01*
X641570Y-1545667D02*
X632046Y-1583762D01*
X632046Y-1583762D02*
X622522Y-1602810D01*
X622522Y-1602810D02*
X612998Y-1612334D01*
X612998Y-1612334D02*
X593951Y-1621858D01*
X593951Y-1621858D02*
X574903Y-1621858D01*
X574903Y-1621858D02*
X555855Y-1612334D01*
X555855Y-1612334D02*
X546332Y-1602810D01*
X546332Y-1602810D02*
X536808Y-1583762D01*
X536808Y-1583762D02*
X527284Y-1545667D01*
X527284Y-1545667D02*
X527284Y-1498048D01*
X527284Y-1498048D02*
X536808Y-1459953D01*
X536808Y-1459953D02*
X546332Y-1440905D01*
X546332Y-1440905D02*
X555855Y-1431382D01*
X555855Y-1431382D02*
X574903Y-1421858D01*
X765379Y-1421858D02*
X784427Y-1421858D01*
X784427Y-1421858D02*
X803474Y-1431382D01*
X803474Y-1431382D02*
X812998Y-1440905D01*
X812998Y-1440905D02*
X822522Y-1459953D01*
X822522Y-1459953D02*
X832046Y-1498048D01*
X832046Y-1498048D02*
X832046Y-1545667D01*
X832046Y-1545667D02*
X822522Y-1583762D01*
X822522Y-1583762D02*
X812998Y-1602810D01*
X812998Y-1602810D02*
X803474Y-1612334D01*
X803474Y-1612334D02*
X784427Y-1621858D01*
X784427Y-1621858D02*
X765379Y-1621858D01*
X765379Y-1621858D02*
X746332Y-1612334D01*
X746332Y-1612334D02*
X736808Y-1602810D01*
X736808Y-1602810D02*
X727284Y-1583762D01*
X727284Y-1583762D02*
X717760Y-1545667D01*
X717760Y-1545667D02*
X717760Y-1498048D01*
X717760Y-1498048D02*
X727284Y-1459953D01*
X727284Y-1459953D02*
X736808Y-1440905D01*
X736808Y-1440905D02*
X746332Y-1431382D01*
X746332Y-1431382D02*
X765379Y-1421858D01*
X955855Y-1421858D02*
X974903Y-1421858D01*
X974903Y-1421858D02*
X993951Y-1431382D01*
X993951Y-1431382D02*
X1003474Y-1440905D01*
X1003474Y-1440905D02*
X1012998Y-1459953D01*
X1012998Y-1459953D02*
X1022522Y-1498048D01*
X1022522Y-1498048D02*
X1022522Y-1545667D01*
X1022522Y-1545667D02*
X1012998Y-1583762D01*
X1012998Y-1583762D02*
X1003474Y-1602810D01*
X1003474Y-1602810D02*
X993951Y-1612334D01*
X993951Y-1612334D02*
X974903Y-1621858D01*
X974903Y-1621858D02*
X955855Y-1621858D01*
X955855Y-1621858D02*
X936808Y-1612334D01*
X936808Y-1612334D02*
X927284Y-1602810D01*
X927284Y-1602810D02*
X917760Y-1583762D01*
X917760Y-1583762D02*
X908236Y-1545667D01*
X908236Y-1545667D02*
X908236Y-1498048D01*
X908236Y-1498048D02*
X917760Y-1459953D01*
X917760Y-1459953D02*
X927284Y-1440905D01*
X927284Y-1440905D02*
X936808Y-1431382D01*
X936808Y-1431382D02*
X955855Y-1421858D01*
X1108236Y-1621858D02*
X1108236Y-1488524D01*
X1108236Y-1507572D02*
X1117760Y-1498048D01*
X1117760Y-1498048D02*
X1136808Y-1488524D01*
X1136808Y-1488524D02*
X1165379Y-1488524D01*
X1165379Y-1488524D02*
X1184427Y-1498048D01*
X1184427Y-1498048D02*
X1193951Y-1517096D01*
X1193951Y-1517096D02*
X1193951Y-1621858D01*
X1193951Y-1517096D02*
X1203475Y-1498048D01*
X1203475Y-1498048D02*
X1222522Y-1488524D01*
X1222522Y-1488524D02*
X1251094Y-1488524D01*
X1251094Y-1488524D02*
X1270141Y-1498048D01*
X1270141Y-1498048D02*
X1279665Y-1517096D01*
X1279665Y-1517096D02*
X1279665Y-1621858D01*
X1374903Y-1621858D02*
X1374903Y-1488524D01*
X1374903Y-1507572D02*
X1384427Y-1498048D01*
X1384427Y-1498048D02*
X1403474Y-1488524D01*
X1403474Y-1488524D02*
X1432046Y-1488524D01*
X1432046Y-1488524D02*
X1451094Y-1498048D01*
X1451094Y-1498048D02*
X1460617Y-1517096D01*
X1460617Y-1517096D02*
X1460617Y-1621858D01*
X1460617Y-1517096D02*
X1470141Y-1498048D01*
X1470141Y-1498048D02*
X1489189Y-1488524D01*
X1489189Y-1488524D02*
X1517760Y-1488524D01*
X1517760Y-1488524D02*
X1536808Y-1498048D01*
X1536808Y-1498048D02*
X1546332Y-1517096D01*
X1546332Y-1517096D02*
X1546332Y-1621858D01*
X1936808Y-1412334D02*
X1765379Y-1669477D01*
X2193951Y-1421858D02*
X2212999Y-1421858D01*
X2212999Y-1421858D02*
X2232046Y-1431382D01*
X2232046Y-1431382D02*
X2241570Y-1440905D01*
X2241570Y-1440905D02*
X2251094Y-1459953D01*
X2251094Y-1459953D02*
X2260618Y-1498048D01*
X2260618Y-1498048D02*
X2260618Y-1545667D01*
X2260618Y-1545667D02*
X2251094Y-1583762D01*
X2251094Y-1583762D02*
X2241570Y-1602810D01*
X2241570Y-1602810D02*
X2232046Y-1612334D01*
X2232046Y-1612334D02*
X2212999Y-1621858D01*
X2212999Y-1621858D02*
X2193951Y-1621858D01*
X2193951Y-1621858D02*
X2174903Y-1612334D01*
X2174903Y-1612334D02*
X2165379Y-1602810D01*
X2165379Y-1602810D02*
X2155856Y-1583762D01*
X2155856Y-1583762D02*
X2146332Y-1545667D01*
X2146332Y-1545667D02*
X2146332Y-1498048D01*
X2146332Y-1498048D02*
X2155856Y-1459953D01*
X2155856Y-1459953D02*
X2165379Y-1440905D01*
X2165379Y-1440905D02*
X2174903Y-1431382D01*
X2174903Y-1431382D02*
X2193951Y-1421858D01*
X2346332Y-1602810D02*
X2355856Y-1612334D01*
X2355856Y-1612334D02*
X2346332Y-1621858D01*
X2346332Y-1621858D02*
X2336808Y-1612334D01*
X2336808Y-1612334D02*
X2346332Y-1602810D01*
X2346332Y-1602810D02*
X2346332Y-1621858D01*
X2479665Y-1421858D02*
X2498713Y-1421858D01*
X2498713Y-1421858D02*
X2517760Y-1431382D01*
X2517760Y-1431382D02*
X2527284Y-1440905D01*
X2527284Y-1440905D02*
X2536808Y-1459953D01*
X2536808Y-1459953D02*
X2546332Y-1498048D01*
X2546332Y-1498048D02*
X2546332Y-1545667D01*
X2546332Y-1545667D02*
X2536808Y-1583762D01*
X2536808Y-1583762D02*
X2527284Y-1602810D01*
X2527284Y-1602810D02*
X2517760Y-1612334D01*
X2517760Y-1612334D02*
X2498713Y-1621858D01*
X2498713Y-1621858D02*
X2479665Y-1621858D01*
X2479665Y-1621858D02*
X2460618Y-1612334D01*
X2460618Y-1612334D02*
X2451094Y-1602810D01*
X2451094Y-1602810D02*
X2441570Y-1583762D01*
X2441570Y-1583762D02*
X2432046Y-1545667D01*
X2432046Y-1545667D02*
X2432046Y-1498048D01*
X2432046Y-1498048D02*
X2441570Y-1459953D01*
X2441570Y-1459953D02*
X2451094Y-1440905D01*
X2451094Y-1440905D02*
X2460618Y-1431382D01*
X2460618Y-1431382D02*
X2479665Y-1421858D01*
X2612999Y-1421858D02*
X2736808Y-1421858D01*
X2736808Y-1421858D02*
X2670141Y-1498048D01*
X2670141Y-1498048D02*
X2698713Y-1498048D01*
X2698713Y-1498048D02*
X2717760Y-1507572D01*
X2717760Y-1507572D02*
X2727284Y-1517096D01*
X2727284Y-1517096D02*
X2736808Y-1536143D01*
X2736808Y-1536143D02*
X2736808Y-1583762D01*
X2736808Y-1583762D02*
X2727284Y-1602810D01*
X2727284Y-1602810D02*
X2717760Y-1612334D01*
X2717760Y-1612334D02*
X2698713Y-1621858D01*
X2698713Y-1621858D02*
X2641570Y-1621858D01*
X2641570Y-1621858D02*
X2622522Y-1612334D01*
X2622522Y-1612334D02*
X2612999Y-1602810D01*
X2832046Y-1621858D02*
X2870141Y-1621858D01*
X2870141Y-1621858D02*
X2889189Y-1612334D01*
X2889189Y-1612334D02*
X2898713Y-1602810D01*
X2898713Y-1602810D02*
X2917760Y-1574239D01*
X2917760Y-1574239D02*
X2927284Y-1536143D01*
X2927284Y-1536143D02*
X2927284Y-1459953D01*
X2927284Y-1459953D02*
X2917760Y-1440905D01*
X2917760Y-1440905D02*
X2908237Y-1431382D01*
X2908237Y-1431382D02*
X2889189Y-1421858D01*
X2889189Y-1421858D02*
X2851094Y-1421858D01*
X2851094Y-1421858D02*
X2832046Y-1431382D01*
X2832046Y-1431382D02*
X2822522Y-1440905D01*
X2822522Y-1440905D02*
X2812998Y-1459953D01*
X2812998Y-1459953D02*
X2812998Y-1507572D01*
X2812998Y-1507572D02*
X2822522Y-1526620D01*
X2822522Y-1526620D02*
X2832046Y-1536143D01*
X2832046Y-1536143D02*
X2851094Y-1545667D01*
X2851094Y-1545667D02*
X2889189Y-1545667D01*
X2889189Y-1545667D02*
X2908237Y-1536143D01*
X2908237Y-1536143D02*
X2917760Y-1526620D01*
X2917760Y-1526620D02*
X2927284Y-1507572D01*
X3098713Y-1488524D02*
X3098713Y-1621858D01*
X3051094Y-1412334D02*
X3003475Y-1555191D01*
X3003475Y-1555191D02*
X3127284Y-1555191D01*
X3193951Y-1421858D02*
X3193951Y-1459953D01*
X3270141Y-1421858D02*
X3270141Y-1459953D01*
X3565380Y-1698048D02*
X3555856Y-1688524D01*
X3555856Y-1688524D02*
X3536808Y-1659953D01*
X3536808Y-1659953D02*
X3527284Y-1640905D01*
X3527284Y-1640905D02*
X3517760Y-1612334D01*
X3517760Y-1612334D02*
X3508237Y-1564715D01*
X3508237Y-1564715D02*
X3508237Y-1526620D01*
X3508237Y-1526620D02*
X3517760Y-1479001D01*
X3517760Y-1479001D02*
X3527284Y-1450429D01*
X3527284Y-1450429D02*
X3536808Y-1431382D01*
X3536808Y-1431382D02*
X3555856Y-1402810D01*
X3555856Y-1402810D02*
X3565380Y-1393286D01*
X3632046Y-1440905D02*
X3641570Y-1431382D01*
X3641570Y-1431382D02*
X3660618Y-1421858D01*
X3660618Y-1421858D02*
X3708237Y-1421858D01*
X3708237Y-1421858D02*
X3727284Y-1431382D01*
X3727284Y-1431382D02*
X3736808Y-1440905D01*
X3736808Y-1440905D02*
X3746332Y-1459953D01*
X3746332Y-1459953D02*
X3746332Y-1479001D01*
X3746332Y-1479001D02*
X3736808Y-1507572D01*
X3736808Y-1507572D02*
X3622522Y-1621858D01*
X3622522Y-1621858D02*
X3746332Y-1621858D01*
X3984427Y-1621858D02*
X3984427Y-1421858D01*
X4070141Y-1621858D02*
X4070141Y-1517096D01*
X4070141Y-1517096D02*
X4060618Y-1498048D01*
X4060618Y-1498048D02*
X4041570Y-1488524D01*
X4041570Y-1488524D02*
X4012999Y-1488524D01*
X4012999Y-1488524D02*
X3993951Y-1498048D01*
X3993951Y-1498048D02*
X3984427Y-1507572D01*
X4193951Y-1621858D02*
X4174903Y-1612334D01*
X4174903Y-1612334D02*
X4165380Y-1602810D01*
X4165380Y-1602810D02*
X4155856Y-1583762D01*
X4155856Y-1583762D02*
X4155856Y-1526620D01*
X4155856Y-1526620D02*
X4165380Y-1507572D01*
X4165380Y-1507572D02*
X4174903Y-1498048D01*
X4174903Y-1498048D02*
X4193951Y-1488524D01*
X4193951Y-1488524D02*
X4222523Y-1488524D01*
X4222523Y-1488524D02*
X4241570Y-1498048D01*
X4241570Y-1498048D02*
X4251094Y-1507572D01*
X4251094Y-1507572D02*
X4260618Y-1526620D01*
X4260618Y-1526620D02*
X4260618Y-1583762D01*
X4260618Y-1583762D02*
X4251094Y-1602810D01*
X4251094Y-1602810D02*
X4241570Y-1612334D01*
X4241570Y-1612334D02*
X4222523Y-1621858D01*
X4222523Y-1621858D02*
X4193951Y-1621858D01*
X4374903Y-1621858D02*
X4355856Y-1612334D01*
X4355856Y-1612334D02*
X4346332Y-1593286D01*
X4346332Y-1593286D02*
X4346332Y-1421858D01*
X4527284Y-1612334D02*
X4508237Y-1621858D01*
X4508237Y-1621858D02*
X4470142Y-1621858D01*
X4470142Y-1621858D02*
X4451094Y-1612334D01*
X4451094Y-1612334D02*
X4441570Y-1593286D01*
X4441570Y-1593286D02*
X4441570Y-1517096D01*
X4441570Y-1517096D02*
X4451094Y-1498048D01*
X4451094Y-1498048D02*
X4470142Y-1488524D01*
X4470142Y-1488524D02*
X4508237Y-1488524D01*
X4508237Y-1488524D02*
X4527284Y-1498048D01*
X4527284Y-1498048D02*
X4536808Y-1517096D01*
X4536808Y-1517096D02*
X4536808Y-1536143D01*
X4536808Y-1536143D02*
X4441570Y-1555191D01*
X4612999Y-1612334D02*
X4632046Y-1621858D01*
X4632046Y-1621858D02*
X4670142Y-1621858D01*
X4670142Y-1621858D02*
X4689189Y-1612334D01*
X4689189Y-1612334D02*
X4698713Y-1593286D01*
X4698713Y-1593286D02*
X4698713Y-1583762D01*
X4698713Y-1583762D02*
X4689189Y-1564715D01*
X4689189Y-1564715D02*
X4670142Y-1555191D01*
X4670142Y-1555191D02*
X4641570Y-1555191D01*
X4641570Y-1555191D02*
X4622523Y-1545667D01*
X4622523Y-1545667D02*
X4612999Y-1526620D01*
X4612999Y-1526620D02*
X4612999Y-1517096D01*
X4612999Y-1517096D02*
X4622523Y-1498048D01*
X4622523Y-1498048D02*
X4641570Y-1488524D01*
X4641570Y-1488524D02*
X4670142Y-1488524D01*
X4670142Y-1488524D02*
X4689189Y-1498048D01*
X4765380Y-1698048D02*
X4774904Y-1688524D01*
X4774904Y-1688524D02*
X4793951Y-1659953D01*
X4793951Y-1659953D02*
X4803475Y-1640905D01*
X4803475Y-1640905D02*
X4812999Y-1612334D01*
X4812999Y-1612334D02*
X4822523Y-1564715D01*
X4822523Y-1564715D02*
X4822523Y-1526620D01*
X4822523Y-1526620D02*
X4812999Y-1479001D01*
X4812999Y-1479001D02*
X4803475Y-1450429D01*
X4803475Y-1450429D02*
X4793951Y-1431382D01*
X4793951Y-1431382D02*
X4774904Y-1402810D01*
X4774904Y-1402810D02*
X4765380Y-1393286D01*
X5127285Y-1698048D02*
X5117761Y-1688524D01*
X5117761Y-1688524D02*
X5098713Y-1659953D01*
X5098713Y-1659953D02*
X5089189Y-1640905D01*
X5089189Y-1640905D02*
X5079665Y-1612334D01*
X5079665Y-1612334D02*
X5070142Y-1564715D01*
X5070142Y-1564715D02*
X5070142Y-1526620D01*
X5070142Y-1526620D02*
X5079665Y-1479001D01*
X5079665Y-1479001D02*
X5089189Y-1450429D01*
X5089189Y-1450429D02*
X5098713Y-1431382D01*
X5098713Y-1431382D02*
X5117761Y-1402810D01*
X5117761Y-1402810D02*
X5127285Y-1393286D01*
X5203475Y-1488524D02*
X5203475Y-1621858D01*
X5203475Y-1507572D02*
X5212999Y-1498048D01*
X5212999Y-1498048D02*
X5232046Y-1488524D01*
X5232046Y-1488524D02*
X5260618Y-1488524D01*
X5260618Y-1488524D02*
X5279665Y-1498048D01*
X5279665Y-1498048D02*
X5289189Y-1517096D01*
X5289189Y-1517096D02*
X5289189Y-1621858D01*
X5412999Y-1621858D02*
X5393951Y-1612334D01*
X5393951Y-1612334D02*
X5384427Y-1602810D01*
X5384427Y-1602810D02*
X5374904Y-1583762D01*
X5374904Y-1583762D02*
X5374904Y-1526620D01*
X5374904Y-1526620D02*
X5384427Y-1507572D01*
X5384427Y-1507572D02*
X5393951Y-1498048D01*
X5393951Y-1498048D02*
X5412999Y-1488524D01*
X5412999Y-1488524D02*
X5441570Y-1488524D01*
X5441570Y-1488524D02*
X5460618Y-1498048D01*
X5460618Y-1498048D02*
X5470142Y-1507572D01*
X5470142Y-1507572D02*
X5479665Y-1526620D01*
X5479665Y-1526620D02*
X5479665Y-1583762D01*
X5479665Y-1583762D02*
X5470142Y-1602810D01*
X5470142Y-1602810D02*
X5460618Y-1612334D01*
X5460618Y-1612334D02*
X5441570Y-1621858D01*
X5441570Y-1621858D02*
X5412999Y-1621858D01*
X5536808Y-1488524D02*
X5612999Y-1488524D01*
X5565380Y-1421858D02*
X5565380Y-1593286D01*
X5565380Y-1593286D02*
X5574904Y-1612334D01*
X5574904Y-1612334D02*
X5593951Y-1621858D01*
X5593951Y-1621858D02*
X5612999Y-1621858D01*
X5832046Y-1488524D02*
X5832046Y-1688524D01*
X5832046Y-1498048D02*
X5851094Y-1488524D01*
X5851094Y-1488524D02*
X5889189Y-1488524D01*
X5889189Y-1488524D02*
X5908237Y-1498048D01*
X5908237Y-1498048D02*
X5917761Y-1507572D01*
X5917761Y-1507572D02*
X5927284Y-1526620D01*
X5927284Y-1526620D02*
X5927284Y-1583762D01*
X5927284Y-1583762D02*
X5917761Y-1602810D01*
X5917761Y-1602810D02*
X5908237Y-1612334D01*
X5908237Y-1612334D02*
X5889189Y-1621858D01*
X5889189Y-1621858D02*
X5851094Y-1621858D01*
X5851094Y-1621858D02*
X5832046Y-1612334D01*
X6041570Y-1621858D02*
X6022523Y-1612334D01*
X6022523Y-1612334D02*
X6012999Y-1593286D01*
X6012999Y-1593286D02*
X6012999Y-1421858D01*
X6203475Y-1621858D02*
X6203475Y-1517096D01*
X6203475Y-1517096D02*
X6193951Y-1498048D01*
X6193951Y-1498048D02*
X6174904Y-1488524D01*
X6174904Y-1488524D02*
X6136808Y-1488524D01*
X6136808Y-1488524D02*
X6117761Y-1498048D01*
X6203475Y-1612334D02*
X6184427Y-1621858D01*
X6184427Y-1621858D02*
X6136808Y-1621858D01*
X6136808Y-1621858D02*
X6117761Y-1612334D01*
X6117761Y-1612334D02*
X6108237Y-1593286D01*
X6108237Y-1593286D02*
X6108237Y-1574239D01*
X6108237Y-1574239D02*
X6117761Y-1555191D01*
X6117761Y-1555191D02*
X6136808Y-1545667D01*
X6136808Y-1545667D02*
X6184427Y-1545667D01*
X6184427Y-1545667D02*
X6203475Y-1536143D01*
X6270142Y-1488524D02*
X6346332Y-1488524D01*
X6298713Y-1421858D02*
X6298713Y-1593286D01*
X6298713Y-1593286D02*
X6308237Y-1612334D01*
X6308237Y-1612334D02*
X6327284Y-1621858D01*
X6327284Y-1621858D02*
X6346332Y-1621858D01*
X6489189Y-1612334D02*
X6470142Y-1621858D01*
X6470142Y-1621858D02*
X6432046Y-1621858D01*
X6432046Y-1621858D02*
X6412999Y-1612334D01*
X6412999Y-1612334D02*
X6403475Y-1593286D01*
X6403475Y-1593286D02*
X6403475Y-1517096D01*
X6403475Y-1517096D02*
X6412999Y-1498048D01*
X6412999Y-1498048D02*
X6432046Y-1488524D01*
X6432046Y-1488524D02*
X6470142Y-1488524D01*
X6470142Y-1488524D02*
X6489189Y-1498048D01*
X6489189Y-1498048D02*
X6498713Y-1517096D01*
X6498713Y-1517096D02*
X6498713Y-1536143D01*
X6498713Y-1536143D02*
X6403475Y-1555191D01*
X6670142Y-1621858D02*
X6670142Y-1421858D01*
X6670142Y-1612334D02*
X6651094Y-1621858D01*
X6651094Y-1621858D02*
X6612999Y-1621858D01*
X6612999Y-1621858D02*
X6593951Y-1612334D01*
X6593951Y-1612334D02*
X6584427Y-1602810D01*
X6584427Y-1602810D02*
X6574904Y-1583762D01*
X6574904Y-1583762D02*
X6574904Y-1526620D01*
X6574904Y-1526620D02*
X6584427Y-1507572D01*
X6584427Y-1507572D02*
X6593951Y-1498048D01*
X6593951Y-1498048D02*
X6612999Y-1488524D01*
X6612999Y-1488524D02*
X6651094Y-1488524D01*
X6651094Y-1488524D02*
X6670142Y-1498048D01*
X6746332Y-1698048D02*
X6755856Y-1688524D01*
X6755856Y-1688524D02*
X6774904Y-1659953D01*
X6774904Y-1659953D02*
X6784427Y-1640905D01*
X6784427Y-1640905D02*
X6793951Y-1612334D01*
X6793951Y-1612334D02*
X6803475Y-1564715D01*
X6803475Y-1564715D02*
X6803475Y-1526620D01*
X6803475Y-1526620D02*
X6793951Y-1479001D01*
X6793951Y-1479001D02*
X6784427Y-1450429D01*
X6784427Y-1450429D02*
X6774904Y-1431382D01*
X6774904Y-1431382D02*
X6755856Y-1402810D01*
X6755856Y-1402810D02*
X6746332Y-1393286D01*
M02*
