M48
; DRILL file {KiCad 9.0.1} date 2025-06-26T00:44:48-0600
; FORMAT={-:-/ absolute / metric / decimal}
; #@! TF.CreationDate,2025-06-26T00:44:48-06:00
; #@! TF.GenerationSoftware,Kicad,Pcbnew,9.0.1
; #@! TF.FileFunction,Plated,1,2,PTH
FMAT,2
METRIC
; #@! TA.AperFunction,Plated,PTH,ViaDrill
T1C0.300
; #@! TA.AperFunction,Plated,PTH,ComponentDrill
T2C0.600
; #@! TA.AperFunction,Plated,PTH,ComponentDrill
T3C1.000
%
G90
G05
T1
X10.69Y72.56
X12.63Y34.317
X12.82Y57.177
X13.29Y33.2
X13.29Y29.237
X13.4Y15.98
X14.85Y57.18
X15.26Y24.84
X15.82Y26.83
X17.58Y33.21
X17.88Y31.86
X20.271Y26.821
X20.37Y35.72
X20.476Y30.16
X21.33Y14.51
X22.372Y8.08
X22.92Y14.51
X23.991Y32.45
X24.12Y23.49
X24.21Y17.22
X24.492Y89.42
X24.492Y82.8
X24.492Y76.18
X24.492Y69.56
X24.492Y56.33
X24.492Y49.7
X24.502Y62.93
X24.556Y29.266
X24.59Y34.24
X25.8Y33.83
X25.81Y24.19
X26.934Y31.226
X27.125Y17.225
X27.28Y24.19
X27.5Y14.51
X27.839Y29.931
X28.02Y91.15
X29.78Y8.01
X30.08Y33.92
X32.52Y8.02
X32.612Y89.41
X32.612Y82.79
X32.612Y76.17
X32.612Y69.55
X32.612Y56.32
X32.612Y49.69
X32.622Y62.92
X32.67Y30.07
X32.81Y12.56
X33.21Y5.12
X33.44Y24.72
X34.62Y12.72
X35.87Y91.15
X36.02Y33.71
X36.49Y13.39
X37.1Y24.76
X39.172Y9.1
X40.2Y19.72
X40.38Y22.56
X40.42Y3.97
X40.732Y89.42
X40.732Y82.8
X40.732Y76.18
X40.732Y69.56
X40.742Y62.93
X41.43Y18.5
X42.43Y23.99
X43.972Y10.02
X44.04Y91.15
X45.34Y18.53
X48.25Y15.57
X48.852Y89.42
X48.852Y82.8
X48.852Y76.18
X48.852Y69.56
X48.862Y62.93
X50.372Y10.04
X52.06Y91.15
X56.972Y89.41
X56.972Y82.79
X56.972Y76.17
X56.972Y69.55
X56.982Y62.92
X59.42Y8.31
X59.43Y17.91
X60.22Y91.15
X65.092Y89.4
X65.092Y82.78
X65.092Y76.16
X65.092Y69.54
X65.092Y56.31
X65.092Y49.68
X65.102Y62.91
X66.51Y22.23
X66.53Y26.19
X67.61Y25.89
X67.61Y24.29
X68.35Y91.15
X69.78Y21.08
X70.05Y23.74
X76.692Y13.41
X82.25Y77.05
T3
X2.522Y72.417
X2.522Y69.877
X2.522Y67.337
X2.522Y64.797
X2.522Y62.257
X2.522Y59.717
X2.522Y57.177
X2.522Y54.637
X2.522Y36.857
X2.522Y34.317
X2.522Y31.777
X2.522Y29.237
X2.522Y26.697
X2.522Y24.157
X2.522Y21.617
X2.522Y19.077
X2.522Y16.537
X2.522Y13.997
X8.65Y81.88
X8.65Y79.34
X11.19Y81.88
X11.19Y79.34
X13.73Y81.88
X13.73Y79.34
T2
G00X42.852Y6.68
M15
G01X42.852Y5.58
M16
G05
G00X42.852Y2.25
M15
G01X42.852Y1.65
M16
G05
G00X51.492Y6.68
M15
G01X51.492Y5.58
M16
G05
G00X51.492Y2.25
M15
G01X51.492Y1.65
M16
G05
M30
