%TF.GenerationSoftware,KiCad,Pcbnew,9.0.1*%
%TF.CreationDate,2025-06-26T00:44:45-06:00*%
%TF.ProjectId,zippy-badge,7a697070-792d-4626-9164-67652e6b6963,1.1*%
%TF.SameCoordinates,PX6aea9b0PY7fd22b0*%
%TF.FileFunction,Soldermask,Bot*%
%TF.FilePolarity,Negative*%
%FSLAX46Y46*%
G04 Gerber Fmt 4.6, Leading zero omitted, Abs format (unit mm)*
G04 Created by KiCad (PCBNEW 9.0.1) date 2025-06-26 00:44:45*
%MOMM*%
%LPD*%
G01*
G04 APERTURE LIST*
%ADD10C,0.000000*%
%ADD11C,0.650000*%
%ADD12O,1.000000X2.100000*%
%ADD13O,1.000000X1.600000*%
%ADD14C,0.750000*%
%ADD15C,1.050000*%
%ADD16C,0.900000*%
%ADD17C,1.200000*%
%ADD18O,1.700000X1.700000*%
%ADD19C,1.700000*%
%ADD20R,1.700000X1.700000*%
%ADD21C,0.700000*%
%ADD22C,0.500000*%
%ADD23R,2.500000X2.500000*%
G04 APERTURE END LIST*
D10*
%TO.C,G\u002A\u002A\u002A*%
G36*
X31655468Y27315927D02*
G01*
X31867423Y27278513D01*
X32092375Y27215328D01*
X32196314Y27181077D01*
X32180445Y27110450D01*
X32141812Y26998787D01*
X32071030Y26879074D01*
X31974277Y26766796D01*
X31855605Y26667479D01*
X31771845Y26611855D01*
X31582236Y26510722D01*
X31371870Y26430305D01*
X31136529Y26368855D01*
X31063004Y26356014D01*
X30930765Y26342025D01*
X30789603Y26336493D01*
X30590504Y26335301D01*
X30590754Y26458150D01*
X30604991Y26625558D01*
X30646577Y26785431D01*
X30713316Y26930873D01*
X30803015Y27058073D01*
X30913479Y27163223D01*
X31042514Y27242513D01*
X31116961Y27273031D01*
X31278298Y27313236D01*
X31458447Y27327518D01*
X31655468Y27315927D01*
G37*
G36*
X26038898Y27923931D02*
G01*
X26126098Y27919900D01*
X26205669Y27913505D01*
X26269381Y27903869D01*
X26326985Y27889449D01*
X26388235Y27868704D01*
X26465413Y27837339D01*
X26618021Y27753172D01*
X26742799Y27649668D01*
X26839784Y27526775D01*
X26909014Y27384439D01*
X26950524Y27222607D01*
X26964353Y27041226D01*
X26964353Y26890095D01*
X26841504Y26902060D01*
X26648629Y26928278D01*
X26430730Y26975816D01*
X26221955Y27040056D01*
X26025809Y27119173D01*
X25845796Y27211346D01*
X25685423Y27314750D01*
X25548195Y27427563D01*
X25437615Y27547961D01*
X25357190Y27674122D01*
X25354809Y27678925D01*
X25330733Y27732905D01*
X25316906Y27774327D01*
X25316260Y27794561D01*
X25321011Y27798147D01*
X25355585Y27814365D01*
X25412525Y27835047D01*
X25483634Y27857679D01*
X25560716Y27879751D01*
X25635572Y27898749D01*
X25700005Y27912163D01*
X25721193Y27915371D01*
X25809273Y27923014D01*
X25918389Y27925979D01*
X26038898Y27923931D01*
G37*
G36*
X77999061Y27143924D02*
G01*
X78300348Y26971475D01*
X78748301Y26723762D01*
X79172699Y26500108D01*
X79573675Y26300454D01*
X79951360Y26124741D01*
X80305887Y25972912D01*
X80637387Y25844909D01*
X80945992Y25740673D01*
X81231835Y25660146D01*
X81495046Y25603271D01*
X81498160Y25601469D01*
X81499711Y25589452D01*
X81493598Y25564259D01*
X81478771Y25523430D01*
X81454184Y25464506D01*
X81418787Y25385031D01*
X81371532Y25282543D01*
X81311370Y25154586D01*
X81237254Y24998700D01*
X81220161Y24962894D01*
X81157962Y24832807D01*
X81100721Y24713412D01*
X81050039Y24608027D01*
X81007518Y24519971D01*
X80974759Y24452561D01*
X80953362Y24409115D01*
X80944929Y24392950D01*
X80943265Y24393067D01*
X80919082Y24402324D01*
X80869299Y24424040D01*
X80797759Y24456457D01*
X80708307Y24497819D01*
X80604789Y24546370D01*
X80491047Y24600352D01*
X80367154Y24659454D01*
X80240942Y24719609D01*
X80120398Y24777015D01*
X80011751Y24828705D01*
X79921229Y24871717D01*
X79855058Y24903085D01*
X79666709Y24992176D01*
X79483642Y24604924D01*
X79300575Y24217672D01*
X79138108Y24374185D01*
X79070390Y24439366D01*
X78857724Y24643422D01*
X78636620Y24854699D01*
X78413596Y25067000D01*
X78195172Y25274126D01*
X77987866Y25469880D01*
X77798198Y25648064D01*
X77744980Y25697906D01*
X77639878Y25796351D01*
X77538938Y25890915D01*
X77446273Y25977739D01*
X77366000Y26052969D01*
X77302233Y26112749D01*
X77259089Y26153221D01*
X77135080Y26269631D01*
X77392130Y26808161D01*
X77649180Y27346691D01*
X77999061Y27143924D01*
G37*
G36*
X74474918Y17959870D02*
G01*
X74509278Y17949151D01*
X74567551Y17928743D01*
X74645096Y17900438D01*
X74737274Y17866029D01*
X74839447Y17827310D01*
X74946974Y17786072D01*
X75055216Y17744108D01*
X75159533Y17703211D01*
X75255288Y17665174D01*
X75337839Y17631788D01*
X75402549Y17604847D01*
X75444776Y17586144D01*
X75459883Y17577470D01*
X75457733Y17571103D01*
X75444815Y17536748D01*
X75421100Y17474970D01*
X75387593Y17388350D01*
X75345299Y17279471D01*
X75295224Y17150916D01*
X75238373Y17005267D01*
X75175751Y16845108D01*
X75108363Y16673019D01*
X75037214Y16491584D01*
X74997031Y16389175D01*
X74927076Y16210846D01*
X74861035Y16042437D01*
X74799967Y15886653D01*
X74744930Y15746195D01*
X74696983Y15623767D01*
X74657185Y15522072D01*
X74626595Y15443813D01*
X74606271Y15391693D01*
X74597273Y15368416D01*
X74580001Y15322344D01*
X74473478Y15362597D01*
X74447886Y15372373D01*
X74385094Y15396666D01*
X74300373Y15429670D01*
X74199612Y15469082D01*
X74088701Y15512603D01*
X73973528Y15557931D01*
X73580101Y15713011D01*
X73604732Y15775557D01*
X73607883Y15783571D01*
X73623379Y15823028D01*
X73649668Y15889997D01*
X73685655Y15981692D01*
X73730249Y16095324D01*
X73782353Y16228106D01*
X73840875Y16377251D01*
X73904721Y16539970D01*
X73972797Y16713476D01*
X74044009Y16894983D01*
X74079668Y16985821D01*
X74148638Y17161220D01*
X74213565Y17325946D01*
X74273410Y17477387D01*
X74327136Y17612934D01*
X74373704Y17729975D01*
X74412078Y17825899D01*
X74441219Y17898095D01*
X74460090Y17943953D01*
X74467653Y17960861D01*
X74474918Y17959870D01*
G37*
G36*
X66458280Y21112379D02*
G01*
X66489583Y21102123D01*
X66546618Y21081549D01*
X66625565Y21052090D01*
X66722602Y21015180D01*
X66833908Y20972253D01*
X66955661Y20924742D01*
X67451670Y20730114D01*
X67523247Y20413447D01*
X67524910Y20406093D01*
X67547396Y20307946D01*
X67567579Y20222046D01*
X67584197Y20153603D01*
X67595986Y20107824D01*
X67601685Y20089919D01*
X67602156Y20089792D01*
X67620652Y20098907D01*
X67662121Y20124172D01*
X67722200Y20162790D01*
X67796526Y20211962D01*
X67880735Y20268890D01*
X68152925Y20454721D01*
X68655378Y20257298D01*
X68736767Y20225222D01*
X68864138Y20174427D01*
X68963747Y20133667D01*
X69038183Y20101767D01*
X69090035Y20077554D01*
X69121891Y20059852D01*
X69136341Y20047488D01*
X69135975Y20039286D01*
X69121838Y20028607D01*
X69081848Y20000138D01*
X69019249Y19956286D01*
X68936924Y19899048D01*
X68837756Y19830424D01*
X68724628Y19752411D01*
X68600421Y19667008D01*
X68468020Y19576214D01*
X68352567Y19496988D01*
X68227502Y19410788D01*
X68113318Y19331689D01*
X68012868Y19261688D01*
X67929007Y19202781D01*
X67864589Y19156966D01*
X67822468Y19126241D01*
X67805498Y19112602D01*
X67804648Y19111309D01*
X67792680Y19085908D01*
X67770536Y19033773D01*
X67739933Y18959132D01*
X67702587Y18866212D01*
X67660216Y18759238D01*
X67614536Y18642439D01*
X67607597Y18624594D01*
X67562301Y18508450D01*
X67520684Y18402306D01*
X67484455Y18310483D01*
X67455326Y18237302D01*
X67435007Y18187085D01*
X67425208Y18164152D01*
X67416337Y18150257D01*
X67401171Y18144419D01*
X67372642Y18150845D01*
X67321842Y18170044D01*
X67299592Y18178842D01*
X67241873Y18201574D01*
X67161771Y18233060D01*
X67064922Y18271086D01*
X66956966Y18313438D01*
X66843539Y18357900D01*
X66762247Y18389833D01*
X66660889Y18429886D01*
X66573004Y18464889D01*
X66503118Y18493027D01*
X66455757Y18512487D01*
X66435446Y18521454D01*
X66434524Y18532675D01*
X66444727Y18574170D01*
X66467747Y18645027D01*
X66503233Y18744238D01*
X66550837Y18870796D01*
X66610206Y19023693D01*
X66803332Y19515088D01*
X66625294Y20311031D01*
X66623258Y20320137D01*
X66587986Y20478581D01*
X66555348Y20626522D01*
X66526032Y20760738D01*
X66500729Y20878007D01*
X66480130Y20975107D01*
X66464924Y21048816D01*
X66455802Y21095912D01*
X66453454Y21113173D01*
X66458280Y21112379D01*
G37*
G36*
X71434789Y19041429D02*
G01*
X71418666Y18999824D01*
X71391683Y18930554D01*
X71354986Y18836550D01*
X71309720Y18720740D01*
X71257032Y18586055D01*
X71198067Y18435424D01*
X71133972Y18271778D01*
X71065892Y18098045D01*
X70994973Y17917156D01*
X70937879Y17771752D01*
X70861173Y17577209D01*
X70795259Y17411243D01*
X70739358Y17271999D01*
X70692690Y17157622D01*
X70654475Y17066257D01*
X70623932Y16996049D01*
X70600282Y16945143D01*
X70582744Y16911684D01*
X70570538Y16893818D01*
X70562885Y16889688D01*
X70532166Y16901317D01*
X70450693Y16932607D01*
X70354963Y16969835D01*
X70249558Y17011175D01*
X70139060Y17054798D01*
X70028051Y17098877D01*
X69921113Y17141585D01*
X69822828Y17181094D01*
X69737780Y17215576D01*
X69670549Y17243205D01*
X69625717Y17262152D01*
X69607868Y17270589D01*
X69607313Y17272196D01*
X69612227Y17297337D01*
X69628055Y17348919D01*
X69653371Y17422875D01*
X69686748Y17515138D01*
X69726759Y17621642D01*
X69771976Y17738320D01*
X69782937Y17766228D01*
X69827496Y17880387D01*
X69867096Y17982957D01*
X69900231Y18069954D01*
X69925394Y18137395D01*
X69941079Y18181300D01*
X69945777Y18197684D01*
X69936466Y18198045D01*
X69901866Y18193210D01*
X69851458Y18183404D01*
X69832476Y18180027D01*
X69764952Y18173234D01*
X69682575Y18169957D01*
X69599052Y18170876D01*
X69575509Y18171913D01*
X69497431Y18177566D01*
X69437150Y18187690D01*
X69381776Y18205123D01*
X69318416Y18232706D01*
X69296329Y18243326D01*
X69169522Y18317923D01*
X69067893Y18405840D01*
X68984440Y18512952D01*
X68979064Y18521372D01*
X68905557Y18666032D01*
X68862692Y18814227D01*
X68859344Y18849493D01*
X69828318Y18849493D01*
X69833137Y18762323D01*
X69867187Y18681544D01*
X69927399Y18615921D01*
X69935610Y18609983D01*
X69988909Y18580838D01*
X70040263Y18564538D01*
X70096908Y18556035D01*
X70192250Y18802137D01*
X70287591Y19048239D01*
X70195850Y19082564D01*
X70156504Y19096225D01*
X70104349Y19111106D01*
X70070014Y19116889D01*
X70045911Y19114651D01*
X69980267Y19087994D01*
X69919042Y19036121D01*
X69868397Y18965192D01*
X69834493Y18881368D01*
X69828318Y18849493D01*
X68859344Y18849493D01*
X68848596Y18962692D01*
X68861394Y19108165D01*
X68899215Y19247380D01*
X68960185Y19377075D01*
X69042431Y19493984D01*
X69144080Y19594845D01*
X69263259Y19676392D01*
X69398096Y19735364D01*
X69546716Y19768494D01*
X69707248Y19772520D01*
X69738485Y19770029D01*
X69782046Y19765104D01*
X69826909Y19757676D01*
X69876092Y19746738D01*
X69932611Y19731281D01*
X69999482Y19710300D01*
X70079723Y19682787D01*
X70176350Y19647734D01*
X70292379Y19604134D01*
X70430828Y19550981D01*
X70594714Y19487266D01*
X70787052Y19411983D01*
X71473357Y19142833D01*
X71437501Y19048510D01*
X71437397Y19048239D01*
X71434789Y19041429D01*
G37*
G36*
X73956605Y18045637D02*
G01*
X73924637Y17957875D01*
X73883686Y17847965D01*
X73834723Y17718490D01*
X73778720Y17572030D01*
X73716650Y17411167D01*
X73649484Y17238481D01*
X73578195Y17056555D01*
X73535356Y16947625D01*
X73465306Y16769506D01*
X73399264Y16601576D01*
X73338279Y16446504D01*
X73283401Y16306960D01*
X73235679Y16185610D01*
X73196162Y16085124D01*
X73165901Y16008171D01*
X73145944Y15957418D01*
X73137340Y15935535D01*
X73124896Y15911204D01*
X73109902Y15897409D01*
X73105931Y15898576D01*
X73076292Y15909298D01*
X73021843Y15929755D01*
X72947271Y15958131D01*
X72857267Y15992610D01*
X72756518Y16031379D01*
X72649713Y16072621D01*
X72541542Y16114522D01*
X72436693Y16155268D01*
X72339855Y16193042D01*
X72255716Y16226029D01*
X72188966Y16252416D01*
X72144294Y16270386D01*
X72126387Y16278125D01*
X72126464Y16279057D01*
X72133971Y16301344D01*
X72152066Y16350302D01*
X72179238Y16421962D01*
X72213971Y16512356D01*
X72254753Y16617517D01*
X72300069Y16733477D01*
X72309750Y16758179D01*
X72354548Y16873033D01*
X72394697Y16976846D01*
X72428640Y17065522D01*
X72454816Y17134964D01*
X72471665Y17181078D01*
X72477628Y17199766D01*
X72464131Y17203552D01*
X72425944Y17200589D01*
X72371724Y17191155D01*
X72327467Y17182975D01*
X72161112Y17171902D01*
X72002602Y17191499D01*
X71855067Y17239703D01*
X71721638Y17314449D01*
X71605443Y17413673D01*
X71509613Y17535310D01*
X71437279Y17677297D01*
X71404401Y17792576D01*
X72363998Y17792576D01*
X72375117Y17743369D01*
X72417910Y17664675D01*
X72487872Y17605758D01*
X72533793Y17583155D01*
X72580695Y17566508D01*
X72592946Y17564004D01*
X72607741Y17565293D01*
X72621710Y17576255D01*
X72637444Y17601284D01*
X72657535Y17644776D01*
X72684572Y17711123D01*
X72721147Y17804720D01*
X72741564Y17857663D01*
X72771156Y17935914D01*
X72794228Y17998872D01*
X72808813Y18041124D01*
X72812944Y18057259D01*
X72806865Y18061159D01*
X72763986Y18079721D01*
X72705096Y18097880D01*
X72644495Y18111677D01*
X72596488Y18117156D01*
X72561636Y18113235D01*
X72494246Y18083327D01*
X72435976Y18029590D01*
X72391638Y17958742D01*
X72366041Y17877498D01*
X72363998Y17792576D01*
X71404401Y17792576D01*
X71391569Y17837569D01*
X71390554Y17843188D01*
X71381050Y17982936D01*
X71397697Y18131097D01*
X71438574Y18277650D01*
X71501762Y18412570D01*
X71526958Y18449842D01*
X71585298Y18518447D01*
X71655820Y18587738D01*
X71728325Y18648004D01*
X71792614Y18689533D01*
X71830646Y18707421D01*
X71974909Y18754036D01*
X72132663Y18776644D01*
X72295087Y18774482D01*
X72453357Y18746786D01*
X72455560Y18746183D01*
X72493826Y18733776D01*
X72557577Y18711182D01*
X72642999Y18679876D01*
X72746280Y18641334D01*
X72863606Y18597032D01*
X72991164Y18548447D01*
X73125142Y18497053D01*
X73261726Y18444328D01*
X73397103Y18391747D01*
X73527460Y18340786D01*
X73648984Y18292921D01*
X73757862Y18249629D01*
X73850281Y18212385D01*
X73922427Y18182666D01*
X73970488Y18161947D01*
X73990651Y18151704D01*
X73989699Y18144396D01*
X73978616Y18108672D01*
X73960663Y18057259D01*
X73956605Y18045637D01*
G37*
G36*
X25074440Y22921398D02*
G01*
X25105972Y22913296D01*
X25168143Y22896733D01*
X25259576Y22872084D01*
X25378892Y22839728D01*
X25524715Y22800043D01*
X25695665Y22753406D01*
X25890367Y22700194D01*
X26107442Y22640786D01*
X26345512Y22575558D01*
X26603201Y22504888D01*
X26879129Y22429154D01*
X27171921Y22348733D01*
X27480198Y22264003D01*
X27802582Y22175341D01*
X28137696Y22083125D01*
X28484163Y21987733D01*
X28840604Y21889541D01*
X29205643Y21788928D01*
X29352755Y21748365D01*
X29814751Y21620898D01*
X30244907Y21502087D01*
X30643883Y21391745D01*
X31012338Y21289687D01*
X31350933Y21195727D01*
X31660325Y21109679D01*
X31941177Y21031359D01*
X32194146Y20960580D01*
X32419893Y20897156D01*
X32619078Y20840902D01*
X32792360Y20791633D01*
X32940398Y20749162D01*
X33063853Y20713304D01*
X33163383Y20683874D01*
X33239650Y20660685D01*
X33293311Y20643553D01*
X33325028Y20632291D01*
X33335460Y20626714D01*
X33334480Y20621398D01*
X33326468Y20587935D01*
X33311219Y20527380D01*
X33289739Y20443554D01*
X33263034Y20340281D01*
X33232109Y20221382D01*
X33197969Y20090678D01*
X33161619Y19951992D01*
X33124067Y19809145D01*
X33086316Y19665960D01*
X33049372Y19526258D01*
X33014241Y19393861D01*
X32981929Y19272592D01*
X32953440Y19166271D01*
X32929781Y19078721D01*
X32911956Y19013765D01*
X32900972Y18975223D01*
X32872926Y18923052D01*
X32819449Y18864240D01*
X32749173Y18807565D01*
X32670034Y18759386D01*
X32589970Y18726063D01*
X32556046Y18719760D01*
X32498290Y18714315D01*
X32432382Y18711674D01*
X32420253Y18711975D01*
X32401119Y18713755D01*
X32376266Y18717417D01*
X32344410Y18723307D01*
X32304270Y18731773D01*
X32254566Y18743159D01*
X32194016Y18757814D01*
X32121339Y18776082D01*
X32035253Y18798310D01*
X31934476Y18824846D01*
X31817729Y18856034D01*
X31683728Y18892221D01*
X31531193Y18933754D01*
X31358842Y18980979D01*
X31165395Y19034242D01*
X30949569Y19093890D01*
X30710084Y19160270D01*
X30445658Y19233726D01*
X30155009Y19314606D01*
X29836857Y19403256D01*
X29489919Y19500023D01*
X29112915Y19605253D01*
X28704564Y19719291D01*
X28631012Y19739837D01*
X28289486Y19835251D01*
X27955888Y19928476D01*
X27631764Y20019079D01*
X27318658Y20106628D01*
X27018114Y20190689D01*
X26731677Y20270831D01*
X26460892Y20346620D01*
X26207302Y20417624D01*
X25972453Y20483411D01*
X25757890Y20543547D01*
X25565155Y20597600D01*
X25395795Y20645138D01*
X25251354Y20685727D01*
X25133376Y20718935D01*
X25043406Y20744330D01*
X24982988Y20761479D01*
X24953667Y20769949D01*
X24939836Y20774144D01*
X24871293Y20797282D01*
X24822752Y20820679D01*
X24782973Y20850912D01*
X24740716Y20894558D01*
X24672493Y20990539D01*
X24625162Y21111058D01*
X24609049Y21242562D01*
X24610258Y21260790D01*
X24617992Y21308401D01*
X24633243Y21378502D01*
X24656439Y21472738D01*
X24688003Y21592755D01*
X24728363Y21740195D01*
X24777943Y21916705D01*
X24837169Y22123928D01*
X24841837Y22140150D01*
X24886975Y22296738D01*
X24929231Y22442822D01*
X24967683Y22575251D01*
X25001407Y22690869D01*
X25029483Y22786524D01*
X25050987Y22859062D01*
X25064998Y22905330D01*
X25070594Y22922174D01*
X25074440Y22921398D01*
G37*
G36*
X75758090Y17464253D02*
G01*
X75799100Y17448642D01*
X75867170Y17422363D01*
X75959705Y17386429D01*
X76074107Y17341854D01*
X76207780Y17289651D01*
X76358125Y17230834D01*
X76522547Y17166416D01*
X76698448Y17097410D01*
X76883232Y17024831D01*
X77015724Y16972760D01*
X77194970Y16902320D01*
X77363705Y16836015D01*
X77519299Y16774879D01*
X77659126Y16719944D01*
X77780555Y16672243D01*
X77880958Y16632808D01*
X77957707Y16602673D01*
X78008173Y16582870D01*
X78029727Y16574431D01*
X78031185Y16573861D01*
X78043488Y16567583D01*
X78050108Y16557320D01*
X78049906Y16538488D01*
X78041747Y16506499D01*
X78024493Y16456770D01*
X77997008Y16384714D01*
X77958154Y16285745D01*
X77928299Y16210391D01*
X77896034Y16129919D01*
X77869700Y16065322D01*
X77851434Y16021828D01*
X77843371Y16004668D01*
X77841119Y16004775D01*
X77814812Y16012913D01*
X77762262Y16031653D01*
X77687404Y16059520D01*
X77594172Y16095034D01*
X77486500Y16136719D01*
X77368322Y16183097D01*
X77328155Y16198912D01*
X77213097Y16243652D01*
X77109863Y16282975D01*
X77022376Y16315440D01*
X76954564Y16339606D01*
X76910352Y16354032D01*
X76893666Y16357279D01*
X76893583Y16356916D01*
X76895975Y16335583D01*
X76903864Y16284080D01*
X76916756Y16205293D01*
X76934154Y16102110D01*
X76955563Y15977417D01*
X76980489Y15834102D01*
X77008435Y15675051D01*
X77038907Y15503152D01*
X77071409Y15321292D01*
X77074584Y15303593D01*
X77107053Y15122398D01*
X77137634Y14951344D01*
X77165816Y14793330D01*
X77191081Y14651260D01*
X77212918Y14528035D01*
X77230810Y14426557D01*
X77244245Y14349727D01*
X77252706Y14300448D01*
X77255682Y14281620D01*
X77253736Y14276185D01*
X77234833Y14275571D01*
X77218873Y14281859D01*
X77173480Y14299698D01*
X77101377Y14328019D01*
X77005095Y14365827D01*
X76887166Y14412128D01*
X76750120Y14465929D01*
X76596491Y14526236D01*
X76428810Y14592053D01*
X76249608Y14662389D01*
X76061418Y14736248D01*
X75888829Y14804060D01*
X75709212Y14874806D01*
X75541095Y14941202D01*
X75386985Y15002247D01*
X75249390Y15056943D01*
X75130818Y15104291D01*
X75033775Y15143291D01*
X74960771Y15172945D01*
X74914313Y15192253D01*
X74896908Y15200216D01*
X74897770Y15211728D01*
X74908366Y15249718D01*
X74927477Y15307903D01*
X74952741Y15379949D01*
X74981799Y15459525D01*
X75012290Y15540295D01*
X75041851Y15615927D01*
X75068123Y15680087D01*
X75088744Y15726443D01*
X75101354Y15748660D01*
X75104952Y15748939D01*
X75134377Y15741449D01*
X75189762Y15723314D01*
X75267164Y15695948D01*
X75362638Y15660767D01*
X75472242Y15619185D01*
X75592032Y15572618D01*
X75640252Y15553726D01*
X75756350Y15508829D01*
X75860594Y15469338D01*
X75949061Y15436686D01*
X76017829Y15412307D01*
X76062973Y15397634D01*
X76080570Y15394102D01*
X76080765Y15394730D01*
X76078727Y15417396D01*
X76071201Y15470114D01*
X76058668Y15550017D01*
X76041609Y15654237D01*
X76020504Y15779908D01*
X75995835Y15924160D01*
X75968082Y16084127D01*
X75937726Y16256940D01*
X75905247Y16439732D01*
X75868044Y16648594D01*
X75835094Y16835193D01*
X75807666Y16992739D01*
X75785423Y17123408D01*
X75768032Y17229377D01*
X75755155Y17312820D01*
X75746458Y17375914D01*
X75741606Y17420836D01*
X75740264Y17449760D01*
X75742096Y17464863D01*
X75746766Y17468322D01*
X75758090Y17464253D01*
G37*
G36*
X72018678Y28629494D02*
G01*
X72062927Y28615719D01*
X72133127Y28588016D01*
X72227022Y28547286D01*
X72342353Y28494429D01*
X72665512Y28343240D01*
X72978214Y28083653D01*
X73055954Y28018745D01*
X73189280Y27906147D01*
X73335165Y27781676D01*
X73488092Y27650121D01*
X73642541Y27516270D01*
X73792992Y27384913D01*
X73933929Y27260838D01*
X74059830Y27148834D01*
X74165177Y27053691D01*
X74319237Y26913040D01*
X74206507Y26679240D01*
X74177252Y26618506D01*
X74115233Y26489103D01*
X74066403Y26385911D01*
X74029479Y26305955D01*
X74003178Y26246261D01*
X73986219Y26203856D01*
X73977318Y26175765D01*
X73975194Y26159013D01*
X73978563Y26150628D01*
X73978772Y26150457D01*
X73998125Y26140027D01*
X74044975Y26116639D01*
X74116420Y26081674D01*
X74209558Y26036513D01*
X74321486Y25982538D01*
X74449300Y25921128D01*
X74590099Y25853664D01*
X74740980Y25781527D01*
X74899040Y25706099D01*
X75061376Y25628758D01*
X75225087Y25550888D01*
X75387268Y25473867D01*
X75545018Y25399077D01*
X75695434Y25327899D01*
X75835612Y25261713D01*
X75962652Y25201900D01*
X76073649Y25149841D01*
X76165701Y25106916D01*
X76235906Y25074507D01*
X76281360Y25053994D01*
X76299162Y25046758D01*
X76301080Y25045746D01*
X76322493Y25027650D01*
X76365010Y24988618D01*
X76426293Y24930889D01*
X76504004Y24856702D01*
X76595808Y24768295D01*
X76699366Y24667908D01*
X76812342Y24557778D01*
X76932399Y24440146D01*
X77549211Y23834285D01*
X77417370Y23555540D01*
X77383445Y23484021D01*
X77336200Y23385039D01*
X77292055Y23293204D01*
X77254782Y23216355D01*
X77228154Y23162335D01*
X77170780Y23047874D01*
X77056659Y23104217D01*
X77043982Y23110384D01*
X76999008Y23132015D01*
X76926165Y23166904D01*
X76827182Y23214229D01*
X76703784Y23273166D01*
X76557698Y23342892D01*
X76390651Y23422583D01*
X76204368Y23511417D01*
X76000576Y23608569D01*
X75781003Y23713217D01*
X75547374Y23824538D01*
X75301416Y23941707D01*
X75044855Y24063903D01*
X74779418Y24190301D01*
X74506832Y24320078D01*
X74328190Y24405152D01*
X74063020Y24531551D01*
X73807345Y24653564D01*
X73562788Y24770410D01*
X73330973Y24881309D01*
X73113525Y24985479D01*
X72912068Y25082139D01*
X72728227Y25170508D01*
X72563627Y25249805D01*
X72419891Y25319249D01*
X72298645Y25378058D01*
X72201512Y25425452D01*
X72130118Y25460649D01*
X72086086Y25482869D01*
X72071042Y25491329D01*
X72072381Y25495273D01*
X72085269Y25524830D01*
X72110586Y25580273D01*
X72146804Y25658328D01*
X72192392Y25755722D01*
X72245822Y25869183D01*
X72305563Y25995438D01*
X72370087Y26131215D01*
X72399111Y26192256D01*
X72461326Y26323744D01*
X72517821Y26444019D01*
X72567105Y26549856D01*
X72607692Y26638031D01*
X72638093Y26705320D01*
X72656819Y26748499D01*
X72662382Y26764344D01*
X72659680Y26765770D01*
X72632735Y26778924D01*
X72579669Y26804444D01*
X72503754Y26840766D01*
X72408263Y26886329D01*
X72296469Y26939570D01*
X72171647Y26998926D01*
X72037068Y27062835D01*
X71986571Y27086818D01*
X71854902Y27149520D01*
X71734038Y27207319D01*
X71627286Y27258616D01*
X71537951Y27301817D01*
X71469338Y27335324D01*
X71424754Y27357542D01*
X71407502Y27366873D01*
X71407962Y27370665D01*
X71418821Y27399471D01*
X71441807Y27453128D01*
X71475071Y27527719D01*
X71516766Y27619327D01*
X71565043Y27724033D01*
X71618055Y27837921D01*
X71673952Y27957072D01*
X71730888Y28077570D01*
X71787013Y28195496D01*
X71840479Y28306934D01*
X71889439Y28407965D01*
X71932044Y28494672D01*
X71966447Y28563138D01*
X71990798Y28609444D01*
X72003249Y28629674D01*
X72018678Y28629494D01*
G37*
G36*
X60203302Y46223859D02*
G01*
X60201829Y46014610D01*
X60198757Y45812855D01*
X60194086Y45623865D01*
X60187816Y45452912D01*
X60179948Y45305267D01*
X60170481Y45186202D01*
X60125988Y44791057D01*
X60035291Y44178214D01*
X59919559Y43584305D01*
X59777842Y43005954D01*
X59609192Y42439783D01*
X59412658Y41882418D01*
X59187293Y41330482D01*
X58932147Y40780598D01*
X58836052Y40588898D01*
X58532405Y40028673D01*
X58205902Y39492033D01*
X57854699Y38976368D01*
X57476950Y38479066D01*
X57070810Y37997517D01*
X56634435Y37529110D01*
X56334260Y37231903D01*
X55852982Y36794034D01*
X55352417Y36383553D01*
X54833566Y36000907D01*
X54297429Y35646544D01*
X53745005Y35320912D01*
X53177296Y35024459D01*
X52595301Y34757631D01*
X52000022Y34520877D01*
X51392457Y34314645D01*
X50773609Y34139381D01*
X50144477Y33995535D01*
X49506061Y33883552D01*
X48859362Y33803882D01*
X48205380Y33756972D01*
X47965318Y33749101D01*
X47631311Y33747119D01*
X47281963Y33754169D01*
X46926974Y33769910D01*
X46576043Y33794002D01*
X46238869Y33826104D01*
X45641750Y33906513D01*
X45014959Y34023066D01*
X44399059Y34170629D01*
X43794928Y34348370D01*
X43203445Y34555458D01*
X42625488Y34791063D01*
X42061935Y35054353D01*
X41513664Y35344498D01*
X40981556Y35660666D01*
X40466487Y36002026D01*
X39969337Y36367748D01*
X39490983Y36757001D01*
X39032305Y37168953D01*
X38594180Y37602774D01*
X38177488Y38057632D01*
X37783106Y38532697D01*
X37411914Y39027137D01*
X37064789Y39540122D01*
X36742610Y40070820D01*
X36446256Y40618401D01*
X36176606Y41182034D01*
X35934536Y41760887D01*
X35720927Y42354130D01*
X35536656Y42960931D01*
X35382602Y43580460D01*
X35259644Y44211886D01*
X35212981Y44505822D01*
X35172833Y44800422D01*
X35141499Y45086457D01*
X35118304Y45372332D01*
X35102572Y45666449D01*
X35093628Y45977211D01*
X35090797Y46313020D01*
X45849624Y46313020D01*
X45849845Y46242728D01*
X45851545Y46146157D01*
X45855578Y46070158D01*
X45862715Y46006379D01*
X45873726Y45946466D01*
X45889382Y45882068D01*
X45966382Y45648008D01*
X46073923Y45423668D01*
X46209406Y45218222D01*
X46372437Y45032360D01*
X46545528Y44880258D01*
X46749886Y44743201D01*
X46970388Y44635377D01*
X47204713Y44558109D01*
X47265071Y44544580D01*
X47392707Y44524519D01*
X47532770Y44511137D01*
X47674004Y44505080D01*
X47805150Y44506989D01*
X47914952Y44517509D01*
X47984391Y44529806D01*
X48220829Y44592786D01*
X48442925Y44684701D01*
X48648643Y44803337D01*
X48835946Y44946480D01*
X49002799Y45111917D01*
X49147164Y45297434D01*
X49267005Y45500818D01*
X49360287Y45719854D01*
X49424971Y45952329D01*
X49459024Y46196029D01*
X49461779Y46370777D01*
X49439231Y46594596D01*
X49389703Y46817201D01*
X49315180Y47030138D01*
X49217644Y47224953D01*
X49163989Y47310182D01*
X49016302Y47502539D01*
X48847924Y47670688D01*
X48661700Y47813752D01*
X48460474Y47930851D01*
X48247090Y48021107D01*
X48024391Y48083643D01*
X47795222Y48117579D01*
X47562428Y48122038D01*
X47328851Y48096141D01*
X47097337Y48039009D01*
X46870729Y47949764D01*
X46730313Y47874276D01*
X46542621Y47743754D01*
X46369370Y47588643D01*
X46215342Y47413927D01*
X46085320Y47224588D01*
X45984083Y47025613D01*
X45960425Y46967933D01*
X45915463Y46843265D01*
X45883805Y46725523D01*
X45863547Y46604624D01*
X45852788Y46470484D01*
X45849624Y46313020D01*
X35090797Y46313020D01*
X35090881Y46398664D01*
X35092005Y46600527D01*
X35094739Y46778607D01*
X35099467Y46940187D01*
X35106569Y47092551D01*
X35116426Y47242982D01*
X35129420Y47398763D01*
X35145932Y47567178D01*
X35166345Y47755510D01*
X35210570Y48101984D01*
X35306228Y48673785D01*
X35429442Y49246764D01*
X35578344Y49812589D01*
X35751064Y50362923D01*
X35936223Y50870124D01*
X36184706Y51462529D01*
X36461582Y52038268D01*
X36765889Y52596545D01*
X37096670Y53136562D01*
X37452964Y53657521D01*
X37833813Y54158624D01*
X38238256Y54639075D01*
X38665335Y55098076D01*
X39114090Y55534829D01*
X39583562Y55948537D01*
X40072791Y56338402D01*
X40580817Y56703627D01*
X41106683Y57043414D01*
X41649428Y57356966D01*
X42208092Y57643485D01*
X42781717Y57902174D01*
X43369343Y58132234D01*
X43970011Y58332870D01*
X44582761Y58503283D01*
X45206634Y58642675D01*
X45840670Y58750249D01*
X46112086Y58786151D01*
X46761656Y58848385D01*
X47409485Y58877356D01*
X48054472Y58873406D01*
X48695515Y58836877D01*
X49331510Y58768108D01*
X49961355Y58667443D01*
X50583947Y58535222D01*
X51198185Y58371787D01*
X51802965Y58177478D01*
X52397184Y57952638D01*
X52979741Y57697608D01*
X53549533Y57412729D01*
X54105457Y57098343D01*
X54646410Y56754790D01*
X55171291Y56382413D01*
X55678996Y55981553D01*
X56168422Y55552550D01*
X56191415Y55531276D01*
X56658276Y55075225D01*
X57099915Y54596838D01*
X57515630Y54097157D01*
X57904723Y53577222D01*
X58266493Y53038073D01*
X58600240Y52480751D01*
X58905264Y51906296D01*
X59180864Y51315749D01*
X59426342Y50710151D01*
X59555556Y50349081D01*
X59728829Y49796414D01*
X59876160Y49232666D01*
X59998346Y48654327D01*
X60096187Y48057887D01*
X60170481Y47439837D01*
X60178567Y47341500D01*
X60186686Y47197996D01*
X60193207Y47030354D01*
X60198129Y46843848D01*
X60201452Y46643749D01*
X60203176Y46435329D01*
X60203214Y46370777D01*
X60203302Y46223859D01*
G37*
G36*
X76344827Y34410734D02*
G01*
X76374619Y34397736D01*
X76432130Y34371406D01*
X76515417Y34332674D01*
X76622534Y34282469D01*
X76751539Y34221721D01*
X76900486Y34151359D01*
X77067431Y34072311D01*
X77250430Y33985507D01*
X77447539Y33891877D01*
X77656813Y33792349D01*
X77876308Y33687853D01*
X78104080Y33579317D01*
X78338184Y33467672D01*
X78576677Y33353846D01*
X78817613Y33238769D01*
X79059048Y33123369D01*
X79299039Y33008576D01*
X79535641Y32895320D01*
X79766910Y32784528D01*
X79990901Y32677132D01*
X80205670Y32574059D01*
X80409272Y32476238D01*
X80599764Y32384601D01*
X80775202Y32300074D01*
X80933640Y32223588D01*
X81073135Y32156072D01*
X81191742Y32098455D01*
X81287517Y32051666D01*
X81358515Y32016634D01*
X81402793Y31994290D01*
X81418406Y31985560D01*
X81417833Y31981454D01*
X81406715Y31951305D01*
X81383000Y31895293D01*
X81348189Y31816738D01*
X81303782Y31718957D01*
X81251279Y31605267D01*
X81192182Y31478987D01*
X81127991Y31343432D01*
X81100578Y31285791D01*
X81038402Y31154414D01*
X80981897Y31034142D01*
X80932559Y30928215D01*
X80891887Y30839877D01*
X80861376Y30772369D01*
X80842523Y30728935D01*
X80836827Y30712816D01*
X80840049Y30710982D01*
X80868046Y30696964D01*
X80922044Y30670620D01*
X80998795Y30633515D01*
X81095051Y30587212D01*
X81207565Y30533275D01*
X81333087Y30473267D01*
X81468370Y30408753D01*
X81526343Y30381130D01*
X81657791Y30318424D01*
X81778048Y30260954D01*
X81883879Y30210272D01*
X81972048Y30167933D01*
X82039319Y30135489D01*
X82082456Y30114492D01*
X82098224Y30106495D01*
X82096166Y30100670D01*
X82082148Y30068806D01*
X82056506Y30012670D01*
X82021105Y29936208D01*
X81977806Y29843366D01*
X81928473Y29738091D01*
X81874968Y29624329D01*
X81819155Y29506027D01*
X81762897Y29387130D01*
X81708056Y29271586D01*
X81656496Y29163341D01*
X81610079Y29066340D01*
X81570668Y28984531D01*
X81540127Y28921860D01*
X81520317Y28882272D01*
X81493577Y28830562D01*
X82124062Y28530021D01*
X82186131Y28500419D01*
X82318013Y28437422D01*
X82438706Y28379632D01*
X82544974Y28328610D01*
X82633581Y28285912D01*
X82701292Y28253097D01*
X82744870Y28231722D01*
X82761080Y28223344D01*
X82761397Y28220803D01*
X82753955Y28195381D01*
X82736018Y28149325D01*
X82710483Y28090251D01*
X82680903Y28029472D01*
X82647102Y27976649D01*
X82619226Y27955349D01*
X82612524Y27954446D01*
X82574178Y27952672D01*
X82509542Y27951654D01*
X82424059Y27951420D01*
X82323170Y27951995D01*
X82212318Y27953404D01*
X82022209Y27959668D01*
X81798539Y27975685D01*
X81571069Y28001802D01*
X81335359Y28038819D01*
X81086970Y28087535D01*
X80821461Y28148751D01*
X80534392Y28223264D01*
X80221324Y28311874D01*
X80197668Y28318846D01*
X80073328Y28356649D01*
X79935750Y28400131D01*
X79788182Y28448135D01*
X79633868Y28499500D01*
X79476055Y28553068D01*
X79317989Y28607681D01*
X79162916Y28662180D01*
X79014082Y28715405D01*
X78874733Y28766200D01*
X78748116Y28813403D01*
X78637476Y28855858D01*
X78546059Y28892405D01*
X78477112Y28921885D01*
X78433880Y28943140D01*
X78419610Y28955012D01*
X78419746Y28955459D01*
X78428845Y28976000D01*
X78451294Y29024472D01*
X78485962Y29098485D01*
X78531717Y29195649D01*
X78587430Y29313571D01*
X78651969Y29449863D01*
X78724205Y29602132D01*
X78803005Y29767988D01*
X78887239Y29945040D01*
X78975776Y30130898D01*
X78985593Y30151493D01*
X79073713Y30336486D01*
X79157411Y30512397D01*
X79235555Y30676837D01*
X79307014Y30827415D01*
X79370658Y30961745D01*
X79425355Y31077436D01*
X79469974Y31172100D01*
X79503386Y31243349D01*
X79524458Y31288792D01*
X79532061Y31306042D01*
X79531930Y31306333D01*
X79514383Y31316803D01*
X79469258Y31340336D01*
X79399306Y31375612D01*
X79307273Y31421308D01*
X79195910Y31476104D01*
X79067964Y31538677D01*
X78926184Y31607707D01*
X78773318Y31681872D01*
X78612115Y31759850D01*
X78445323Y31840321D01*
X78275691Y31921963D01*
X78105967Y32003453D01*
X77938901Y32083472D01*
X77777239Y32160698D01*
X77623731Y32233809D01*
X77481126Y32301483D01*
X77352171Y32362400D01*
X77239616Y32415238D01*
X77146208Y32458675D01*
X77074697Y32491391D01*
X77027830Y32512063D01*
X77008357Y32519371D01*
X77005980Y32517545D01*
X76990142Y32492858D01*
X76962145Y32441870D01*
X76923632Y32367821D01*
X76876247Y32273953D01*
X76821633Y32163507D01*
X76761434Y32039725D01*
X76697293Y31905848D01*
X76675295Y31859642D01*
X76612350Y31727904D01*
X76554115Y31606713D01*
X76502220Y31499417D01*
X76458296Y31409364D01*
X76423972Y31339902D01*
X76400879Y31294378D01*
X76390647Y31276142D01*
X76390599Y31276104D01*
X76373435Y31281776D01*
X76328499Y31300698D01*
X76258551Y31331578D01*
X76166346Y31373123D01*
X76054644Y31424038D01*
X75926201Y31483031D01*
X75783775Y31548809D01*
X75630123Y31620078D01*
X75468004Y31695545D01*
X75300175Y31773916D01*
X75129394Y31853899D01*
X74958417Y31934200D01*
X74790004Y32013526D01*
X74626910Y32090584D01*
X74471895Y32164080D01*
X74327715Y32232721D01*
X74197128Y32295214D01*
X74082892Y32350265D01*
X73987765Y32396581D01*
X73914504Y32432870D01*
X73865866Y32457837D01*
X73844609Y32470189D01*
X73845012Y32473360D01*
X73855410Y32501043D01*
X73877734Y32553880D01*
X73910186Y32627966D01*
X73950969Y32719399D01*
X73998286Y32824274D01*
X74050340Y32938688D01*
X74105332Y33058735D01*
X74161467Y33180514D01*
X74216946Y33300119D01*
X74269973Y33413648D01*
X74318750Y33517195D01*
X74361480Y33606858D01*
X74396366Y33678732D01*
X74421611Y33728915D01*
X74435417Y33753500D01*
X74439617Y33752219D01*
X74469330Y33739414D01*
X74524808Y33714202D01*
X74602864Y33678072D01*
X74700308Y33632512D01*
X74813950Y33579009D01*
X74940602Y33519052D01*
X75077074Y33454128D01*
X75715215Y33149831D01*
X75837736Y33406842D01*
X75850074Y33432742D01*
X75898256Y33534121D01*
X75955351Y33654526D01*
X76017139Y33785048D01*
X76079402Y33916778D01*
X76137922Y34040805D01*
X76187400Y34144818D01*
X76238198Y34248492D01*
X76277812Y34324885D01*
X76307424Y34376153D01*
X76328218Y34404455D01*
X76341374Y34411948D01*
X76344827Y34410734D01*
G37*
G36*
X93146681Y26412288D02*
G01*
X93345731Y26317277D01*
X93528144Y26230078D01*
X93692187Y26151512D01*
X93836127Y26082402D01*
X93958230Y26023568D01*
X94056762Y25975833D01*
X94129990Y25940019D01*
X94176179Y25916946D01*
X94193596Y25907437D01*
X94188731Y25895881D01*
X94169985Y25855006D01*
X94137707Y25785772D01*
X94092464Y25689379D01*
X94034828Y25567029D01*
X93965367Y25419920D01*
X93884651Y25249253D01*
X93793249Y25056228D01*
X93691731Y24842045D01*
X93580666Y24607904D01*
X93460625Y24355005D01*
X93332175Y24084549D01*
X93195887Y23797735D01*
X93052330Y23495763D01*
X92902074Y23179834D01*
X92745689Y22851147D01*
X92583742Y22510902D01*
X92416805Y22160301D01*
X92245447Y21800542D01*
X92070236Y21432826D01*
X91919583Y21116774D01*
X91747496Y20755928D01*
X91579639Y20404137D01*
X91416585Y20062597D01*
X91258911Y19732504D01*
X91107188Y19415057D01*
X90961991Y19111453D01*
X90823895Y18822887D01*
X90693474Y18550558D01*
X90571301Y18295662D01*
X90457950Y18059396D01*
X90353996Y17842958D01*
X90260012Y17647544D01*
X90176573Y17474352D01*
X90104253Y17324578D01*
X90043626Y17199420D01*
X89995265Y17100074D01*
X89959745Y17027737D01*
X89937640Y16983608D01*
X89929524Y16968882D01*
X89928920Y16969129D01*
X89903526Y16980631D01*
X89849887Y17005682D01*
X89769734Y17043453D01*
X89664796Y17093118D01*
X89536804Y17153849D01*
X89387489Y17224818D01*
X89218580Y17305197D01*
X89031808Y17394159D01*
X88828904Y17490877D01*
X88611597Y17594521D01*
X88381619Y17704265D01*
X88140699Y17819281D01*
X87890567Y17938741D01*
X87632954Y18061817D01*
X87369591Y18187683D01*
X87102208Y18315509D01*
X86832534Y18444469D01*
X86562301Y18573734D01*
X86293239Y18702478D01*
X86027078Y18829872D01*
X85765548Y18955089D01*
X85510380Y19077300D01*
X85263304Y19195679D01*
X85026050Y19309397D01*
X84800350Y19417627D01*
X84587932Y19519542D01*
X84390527Y19614312D01*
X84209867Y19701112D01*
X84047680Y19779112D01*
X83905698Y19847486D01*
X83785651Y19905406D01*
X83689269Y19952043D01*
X83618282Y19986571D01*
X83574421Y20008161D01*
X83559416Y20015986D01*
X83560608Y20019475D01*
X83573181Y20048157D01*
X83598229Y20102793D01*
X83634215Y20180101D01*
X83679603Y20276804D01*
X83732853Y20389620D01*
X83792431Y20515272D01*
X83856799Y20650478D01*
X83883650Y20706943D01*
X83945624Y20838660D01*
X84001614Y20959599D01*
X84050155Y21066472D01*
X84089784Y21155991D01*
X84119036Y21224870D01*
X84136447Y21269822D01*
X84140553Y21287560D01*
X84138099Y21289228D01*
X84111345Y21303486D01*
X84058354Y21330092D01*
X83982472Y21367417D01*
X83887047Y21413829D01*
X83775426Y21467699D01*
X83650957Y21527396D01*
X83516987Y21591289D01*
X83473550Y21611965D01*
X83342446Y21674576D01*
X83222031Y21732385D01*
X83115630Y21783775D01*
X83026567Y21827130D01*
X82958164Y21860836D01*
X82913746Y21883276D01*
X82896637Y21892836D01*
X82897012Y21896788D01*
X82907821Y21926290D01*
X82931288Y21981605D01*
X82965931Y22059472D01*
X83010269Y22156630D01*
X83062819Y22269816D01*
X83122102Y22395771D01*
X83186634Y22531232D01*
X83202453Y22564333D01*
X84783469Y22564333D01*
X84786583Y22562672D01*
X84814299Y22549058D01*
X84868010Y22523082D01*
X84944483Y22486295D01*
X85040484Y22440250D01*
X85152779Y22386498D01*
X85278134Y22326592D01*
X85413316Y22262082D01*
X85471146Y22234491D01*
X85602708Y22171617D01*
X85723141Y22113917D01*
X85829201Y22062956D01*
X85917641Y22020298D01*
X85985215Y21987507D01*
X86028679Y21966146D01*
X86044786Y21957781D01*
X86044083Y21955016D01*
X86032894Y21928323D01*
X86009694Y21876543D01*
X85976337Y21803615D01*
X85934673Y21713480D01*
X85886557Y21610079D01*
X85833840Y21497351D01*
X85778375Y21379237D01*
X85722015Y21259678D01*
X85666612Y21142615D01*
X85614018Y21031986D01*
X85566087Y20931733D01*
X85524670Y20845796D01*
X85491621Y20778116D01*
X85468792Y20732633D01*
X85442428Y20681651D01*
X86072537Y20382007D01*
X86134233Y20352688D01*
X86266192Y20290123D01*
X86387046Y20233016D01*
X86493551Y20182889D01*
X86582457Y20141264D01*
X86650519Y20109663D01*
X86694488Y20089610D01*
X86711117Y20082626D01*
X86712163Y20083840D01*
X86724861Y20107208D01*
X86750945Y20158997D01*
X86789593Y20237472D01*
X86839982Y20340896D01*
X86901287Y20467535D01*
X86972686Y20615653D01*
X87053355Y20783514D01*
X87142472Y20969385D01*
X87239213Y21171528D01*
X87342755Y21388209D01*
X87452274Y21617693D01*
X87566948Y21858243D01*
X87685953Y22108125D01*
X87808466Y22365604D01*
X87933663Y22628943D01*
X88060722Y22896408D01*
X88188820Y23166263D01*
X88317132Y23436773D01*
X88444836Y23706203D01*
X88571109Y23972817D01*
X88695127Y24234879D01*
X88816067Y24490655D01*
X88933106Y24738410D01*
X89045420Y24976406D01*
X89152188Y25202911D01*
X89252584Y25416187D01*
X89345786Y25614500D01*
X89430971Y25796114D01*
X89507316Y25959294D01*
X89573997Y26102305D01*
X89630191Y26223410D01*
X89675075Y26320876D01*
X89707826Y26392966D01*
X89727620Y26437946D01*
X89733634Y26454079D01*
X89731475Y26455591D01*
X89705577Y26469525D01*
X89654276Y26495363D01*
X89581564Y26531199D01*
X89491433Y26575126D01*
X89387877Y26625238D01*
X89274886Y26679626D01*
X89156455Y26736385D01*
X89036575Y26793607D01*
X88919239Y26849387D01*
X88808440Y26901816D01*
X88708169Y26948989D01*
X88622420Y26988998D01*
X88555184Y27019936D01*
X88510455Y27039898D01*
X88492224Y27046976D01*
X88490006Y27044636D01*
X88474962Y27018672D01*
X88447700Y26966546D01*
X88409820Y26891485D01*
X88362922Y26796712D01*
X88308608Y26685453D01*
X88248479Y26560931D01*
X88184135Y26426373D01*
X88159038Y26373753D01*
X88095812Y26242198D01*
X88037203Y26121657D01*
X87984845Y26015405D01*
X87940376Y25926716D01*
X87905429Y25858867D01*
X87881642Y25815131D01*
X87870650Y25798784D01*
X87866530Y25799348D01*
X87836331Y25810442D01*
X87780272Y25834136D01*
X87701672Y25868930D01*
X87603854Y25913323D01*
X87490136Y25965814D01*
X87363841Y26024903D01*
X87228288Y26089088D01*
X87170732Y26116466D01*
X87039413Y26178668D01*
X86919231Y26235236D01*
X86813423Y26284669D01*
X86725227Y26325465D01*
X86657881Y26356124D01*
X86614622Y26375143D01*
X86598688Y26381022D01*
X86597695Y26379336D01*
X86585322Y26354624D01*
X86559860Y26302287D01*
X86522371Y26224563D01*
X86473922Y26123692D01*
X86415577Y26001911D01*
X86348400Y25861461D01*
X86273458Y25704580D01*
X86191813Y25533507D01*
X86104532Y25350481D01*
X86012679Y25157740D01*
X85917318Y24957524D01*
X85819515Y24752071D01*
X85720335Y24543621D01*
X85620842Y24334412D01*
X85522102Y24126682D01*
X85425178Y23922672D01*
X85331135Y23724620D01*
X85241040Y23534764D01*
X85155956Y23355345D01*
X85076948Y23188599D01*
X85005080Y23036767D01*
X84941419Y22902087D01*
X84887029Y22786799D01*
X84842973Y22693140D01*
X84810318Y22623350D01*
X84790129Y22579668D01*
X84783469Y22564333D01*
X83202453Y22564333D01*
X83215235Y22591081D01*
X83277649Y22722866D01*
X83334143Y22843765D01*
X83383239Y22950511D01*
X83423458Y23039836D01*
X83453320Y23108474D01*
X83471347Y23153156D01*
X83476060Y23170616D01*
X83473787Y23172204D01*
X83447610Y23186201D01*
X83395173Y23212556D01*
X83319807Y23249648D01*
X83224841Y23295852D01*
X83113605Y23349548D01*
X82989429Y23409112D01*
X82855642Y23472923D01*
X82813157Y23493146D01*
X82681855Y23555848D01*
X82561100Y23613812D01*
X82454239Y23665410D01*
X82364620Y23709017D01*
X82295590Y23743006D01*
X82250497Y23765750D01*
X82232688Y23775623D01*
X82232768Y23776583D01*
X82241703Y23798974D01*
X82263936Y23849227D01*
X82298407Y23925099D01*
X82344056Y24024348D01*
X82399823Y24144733D01*
X82464650Y24284012D01*
X82537475Y24439943D01*
X82617240Y24610283D01*
X82702884Y24792790D01*
X82793348Y24985223D01*
X82887572Y25185340D01*
X82984496Y25390899D01*
X83083060Y25599657D01*
X83182205Y25809372D01*
X83280871Y26017803D01*
X83377997Y26222708D01*
X83472525Y26421845D01*
X83563395Y26612971D01*
X83649546Y26793845D01*
X83729919Y26962224D01*
X83803455Y27115868D01*
X83869092Y27252532D01*
X83925773Y27369977D01*
X83972436Y27465959D01*
X84008022Y27538237D01*
X84031472Y27584568D01*
X84041725Y27602711D01*
X84045629Y27602107D01*
X84074960Y27590800D01*
X84130133Y27566955D01*
X84207906Y27532051D01*
X84305036Y27487568D01*
X84418281Y27434986D01*
X84544399Y27375782D01*
X84680147Y27311438D01*
X84741996Y27282079D01*
X84874041Y27220052D01*
X84995167Y27164034D01*
X85102106Y27115479D01*
X85191594Y27075845D01*
X85260365Y27046586D01*
X85305153Y27029158D01*
X85322692Y27025017D01*
X85324313Y27027482D01*
X85338416Y27054245D01*
X85364891Y27107234D01*
X85402112Y27183104D01*
X85448453Y27278510D01*
X85502286Y27390108D01*
X85561985Y27514553D01*
X85625924Y27648502D01*
X85646682Y27692057D01*
X85709379Y27823154D01*
X85767285Y27943563D01*
X85818780Y28049960D01*
X85862245Y28139023D01*
X85896061Y28207429D01*
X85918608Y28251853D01*
X85928268Y28268974D01*
X85932262Y28268603D01*
X85961857Y28257794D01*
X86017255Y28234317D01*
X86095193Y28199654D01*
X86192409Y28155288D01*
X86305639Y28102700D01*
X86431620Y28043373D01*
X86567088Y27978789D01*
X86627118Y27950075D01*
X86758823Y27887612D01*
X86879601Y27831056D01*
X86986193Y27781889D01*
X87075338Y27741592D01*
X87143775Y27711647D01*
X87188243Y27693535D01*
X87205484Y27688738D01*
X87207030Y27691030D01*
X87220862Y27717230D01*
X87247063Y27769679D01*
X87284015Y27845052D01*
X87330104Y27940024D01*
X87383713Y28051270D01*
X87443227Y28175464D01*
X87507030Y28309282D01*
X87527435Y28352146D01*
X87590181Y28483488D01*
X87648215Y28604275D01*
X87699907Y28711159D01*
X87743626Y28800794D01*
X87777743Y28869834D01*
X87800629Y28914932D01*
X87810653Y28932742D01*
X87811765Y28932527D01*
X87834821Y28922835D01*
X87886317Y28899591D01*
X87964519Y28863615D01*
X88067695Y28815729D01*
X88194110Y28756756D01*
X88342030Y28687516D01*
X88509722Y28608832D01*
X88695452Y28521526D01*
X88897487Y28426418D01*
X89114092Y28324331D01*
X89343534Y28216087D01*
X89584080Y28102507D01*
X89833995Y27984413D01*
X90091545Y27862626D01*
X90354998Y27737969D01*
X90622620Y27611263D01*
X90892676Y27483329D01*
X91163433Y27354990D01*
X91433157Y27227068D01*
X91700115Y27100383D01*
X91962573Y26975758D01*
X92218797Y26854014D01*
X92467054Y26735974D01*
X92705609Y26622458D01*
X92932730Y26514289D01*
X93059023Y26454079D01*
X93146681Y26412288D01*
G37*
%TD*%
D11*
%TO.C,J2*%
X44282000Y5630000D03*
X50062000Y5630000D03*
D12*
X42852000Y6130000D03*
D13*
X42852000Y1950000D03*
D12*
X51492000Y6130000D03*
D13*
X51492000Y1950000D03*
%TD*%
D14*
%TO.C,SW3*%
X87220000Y79340000D03*
D15*
X84532994Y82027006D03*
%TD*%
D16*
%TO.C,SW2*%
X16472000Y2950000D03*
X23272000Y2950000D03*
%TD*%
D17*
%TO.C,J1*%
X64912000Y6160000D03*
X72892000Y6160000D03*
%TD*%
D18*
%TO.C,X1*%
X8650000Y81880000D03*
X8650000Y79340000D03*
D19*
X11190000Y81880000D03*
D18*
X11190000Y79340000D03*
D19*
X13730000Y81880000D03*
D18*
X13730000Y79340000D03*
%TD*%
D20*
%TO.C,J4*%
X2522000Y36856750D03*
D19*
X2522000Y34316750D03*
X2522000Y31776750D03*
X2522000Y29236750D03*
X2522000Y26696750D03*
X2522000Y24156750D03*
X2522000Y21616750D03*
X2522000Y19076750D03*
X2522000Y16536750D03*
X2522000Y13996750D03*
%TD*%
D21*
%TO.C,SW1*%
X28982000Y2910000D03*
X28982000Y1110000D03*
%TD*%
D22*
%TO.C,MK1*%
X43700000Y21667500D03*
%TD*%
D20*
%TO.C,J3*%
X2522000Y72416750D03*
D19*
X2522000Y69876750D03*
X2522000Y67336750D03*
X2522000Y64796750D03*
X2522000Y62256750D03*
X2522000Y59716750D03*
X2522000Y57176750D03*
X2522000Y54636750D03*
%TD*%
D23*
%TO.C,TP2*%
X18090000Y63870000D03*
%TD*%
%TO.C,TP1*%
X18090000Y57990000D03*
%TD*%
M02*
