%TF.GenerationSoftware,KiCad,Pcbnew,9.0.1*%
%TF.CreationDate,2025-06-26T00:44:45-06:00*%
%TF.ProjectId,zippy-badge,7a697070-792d-4626-9164-67652e6b6963,1.1*%
%TF.SameCoordinates,PX6aea9b0PY7fd22b0*%
%TF.FileFunction,Copper,L1,Top*%
%TF.FilePolarity,Positive*%
%FSLAX46Y46*%
G04 Gerber Fmt 4.6, Leading zero omitted, Abs format (unit mm)*
G04 Created by KiCad (PCBNEW 9.0.1) date 2025-06-26 00:44:45*
%MOMM*%
%LPD*%
G01*
G04 APERTURE LIST*
G04 Aperture macros list*
%AMRoundRect*
0 Rectangle with rounded corners*
0 $1 Rounding radius*
0 $2 $3 $4 $5 $6 $7 $8 $9 X,Y pos of 4 corners*
0 Add a 4 corners polygon primitive as box body*
4,1,4,$2,$3,$4,$5,$6,$7,$8,$9,$2,$3,0*
0 Add four circle primitives for the rounded corners*
1,1,$1+$1,$2,$3*
1,1,$1+$1,$4,$5*
1,1,$1+$1,$6,$7*
1,1,$1+$1,$8,$9*
0 Add four rect primitives between the rounded corners*
20,1,$1+$1,$2,$3,$4,$5,0*
20,1,$1+$1,$4,$5,$6,$7,0*
20,1,$1+$1,$6,$7,$8,$9,0*
20,1,$1+$1,$8,$9,$2,$3,0*%
%AMRotRect*
0 Rectangle, with rotation*
0 The origin of the aperture is its center*
0 $1 length*
0 $2 width*
0 $3 Rotation angle, in degrees counterclockwise*
0 Add horizontal line*
21,1,$1,$2,0,0,$3*%
%AMFreePoly0*
4,1,23,0.500000,-0.750000,0.000000,-0.750000,0.000000,-0.745722,-0.065263,-0.745722,-0.191342,-0.711940,-0.304381,-0.646677,-0.396677,-0.554381,-0.461940,-0.441342,-0.495722,-0.315263,-0.495722,-0.250000,-0.500000,-0.250000,-0.500000,0.250000,-0.495722,0.250000,-0.495722,0.315263,-0.461940,0.441342,-0.396677,0.554381,-0.304381,0.646677,-0.191342,0.711940,-0.065263,0.745722,0.000000,0.745722,
0.000000,0.750000,0.500000,0.750000,0.500000,-0.750000,0.500000,-0.750000,$1*%
%AMFreePoly1*
4,1,23,0.000000,0.745722,0.065263,0.745722,0.191342,0.711940,0.304381,0.646677,0.396677,0.554381,0.461940,0.441342,0.495722,0.315263,0.495722,0.250000,0.500000,0.250000,0.500000,-0.250000,0.495722,-0.250000,0.495722,-0.315263,0.461940,-0.441342,0.396677,-0.554381,0.304381,-0.646677,0.191342,-0.711940,0.065263,-0.745722,0.000000,-0.745722,0.000000,-0.750000,-0.500000,-0.750000,
-0.500000,0.750000,0.000000,0.750000,0.000000,0.745722,0.000000,0.745722,$1*%
%AMFreePoly2*
4,1,64,0.235856,1.440014,0.383010,1.379061,0.515445,1.290571,0.628071,1.177945,0.716561,1.045510,0.777514,0.898356,0.808588,0.742139,0.808588,0.582861,0.777514,0.426644,0.716561,0.279490,0.628071,0.147055,0.515445,0.034429,0.383010,-0.054061,0.235856,-0.115014,0.079639,-0.146088,0.031751,-0.146088,0.029264,-0.147118,-0.029264,-0.147118,-0.031751,-0.146088,-0.079639,-0.146088,
-0.235856,-0.115014,-0.383010,-0.054061,-0.515445,0.034429,-0.628071,0.147055,-0.716561,0.279490,-0.777514,0.426644,-0.808588,0.582861,-0.808588,0.729972,-0.512500,0.729972,-0.512500,0.595028,-0.477574,0.464683,-0.410102,0.347818,-0.314682,0.252398,-0.197817,0.184926,-0.067472,0.150000,0.067472,0.150000,0.197817,0.184926,0.314682,0.252398,0.410102,0.347818,0.477574,0.464683,
0.512500,0.595028,0.512500,0.729972,0.477574,0.860317,0.410102,0.977182,0.314682,1.072602,0.197817,1.140074,0.067472,1.175000,-0.067472,1.175000,-0.197817,1.140074,-0.314682,1.072602,-0.410102,0.977182,-0.477574,0.860317,-0.512500,0.729972,-0.808588,0.729972,-0.808588,0.742139,-0.777514,0.898356,-0.716561,1.045510,-0.628071,1.177945,-0.515445,1.290571,-0.383010,1.379061,
-0.235856,1.440014,-0.079639,1.471088,0.079639,1.471088,0.235856,1.440014,0.235856,1.440014,$1*%
G04 Aperture macros list end*
%TA.AperFunction,SMDPad,CuDef*%
%ADD10RoundRect,0.090000X0.660000X0.360000X-0.660000X0.360000X-0.660000X-0.360000X0.660000X-0.360000X0*%
%TD*%
%TA.AperFunction,SMDPad,CuDef*%
%ADD11RoundRect,0.225000X-0.225000X-0.250000X0.225000X-0.250000X0.225000X0.250000X-0.225000X0.250000X0*%
%TD*%
%TA.AperFunction,SMDPad,CuDef*%
%ADD12C,1.000000*%
%TD*%
%TA.AperFunction,SMDPad,CuDef*%
%ADD13RoundRect,0.225000X0.225000X0.250000X-0.225000X0.250000X-0.225000X-0.250000X0.225000X-0.250000X0*%
%TD*%
%TA.AperFunction,SMDPad,CuDef*%
%ADD14RoundRect,0.150000X-0.150000X-0.500000X0.150000X-0.500000X0.150000X0.500000X-0.150000X0.500000X0*%
%TD*%
%TA.AperFunction,SMDPad,CuDef*%
%ADD15RoundRect,0.075000X-0.075000X-0.575000X0.075000X-0.575000X0.075000X0.575000X-0.075000X0.575000X0*%
%TD*%
%TA.AperFunction,HeatsinkPad*%
%ADD16O,1.000000X2.100000*%
%TD*%
%TA.AperFunction,HeatsinkPad*%
%ADD17O,1.000000X1.600000*%
%TD*%
%TA.AperFunction,SMDPad,CuDef*%
%ADD18R,1.000000X1.000000*%
%TD*%
%TA.AperFunction,SMDPad,CuDef*%
%ADD19RoundRect,0.250000X-0.300000X0.300000X-0.300000X-0.300000X0.300000X-0.300000X0.300000X0.300000X0*%
%TD*%
%TA.AperFunction,SMDPad,CuDef*%
%ADD20RoundRect,0.150000X0.150000X-0.512500X0.150000X0.512500X-0.150000X0.512500X-0.150000X-0.512500X0*%
%TD*%
%TA.AperFunction,SMDPad,CuDef*%
%ADD21RoundRect,0.150000X0.512500X0.150000X-0.512500X0.150000X-0.512500X-0.150000X0.512500X-0.150000X0*%
%TD*%
%TA.AperFunction,SMDPad,CuDef*%
%ADD22RoundRect,0.200000X-0.200000X-0.275000X0.200000X-0.275000X0.200000X0.275000X-0.200000X0.275000X0*%
%TD*%
%TA.AperFunction,SMDPad,CuDef*%
%ADD23RotRect,2.000000X1.800000X225.000000*%
%TD*%
%TA.AperFunction,SMDPad,CuDef*%
%ADD24RotRect,1.350000X1.000000X225.000000*%
%TD*%
%TA.AperFunction,SMDPad,CuDef*%
%ADD25RoundRect,0.200000X0.200000X0.275000X-0.200000X0.275000X-0.200000X-0.275000X0.200000X-0.275000X0*%
%TD*%
%TA.AperFunction,SMDPad,CuDef*%
%ADD26RoundRect,0.225000X0.250000X-0.225000X0.250000X0.225000X-0.250000X0.225000X-0.250000X-0.225000X0*%
%TD*%
%TA.AperFunction,SMDPad,CuDef*%
%ADD27RoundRect,0.200000X-0.275000X0.200000X-0.275000X-0.200000X0.275000X-0.200000X0.275000X0.200000X0*%
%TD*%
%TA.AperFunction,SMDPad,CuDef*%
%ADD28R,1.250000X2.500000*%
%TD*%
%TA.AperFunction,SMDPad,CuDef*%
%ADD29R,1.200000X1.400000*%
%TD*%
%TA.AperFunction,SMDPad,CuDef*%
%ADD30RoundRect,0.225000X-0.250000X0.225000X-0.250000X-0.225000X0.250000X-0.225000X0.250000X0.225000X0*%
%TD*%
%TA.AperFunction,SMDPad,CuDef*%
%ADD31R,0.812800X0.254000*%
%TD*%
%TA.AperFunction,SMDPad,CuDef*%
%ADD32R,0.203200X1.600200*%
%TD*%
%TA.AperFunction,SMDPad,CuDef*%
%ADD33RoundRect,0.250000X0.300000X-0.300000X0.300000X0.300000X-0.300000X0.300000X-0.300000X-0.300000X0*%
%TD*%
%TA.AperFunction,WasherPad*%
%ADD34C,1.200000*%
%TD*%
%TA.AperFunction,SMDPad,CuDef*%
%ADD35R,0.700000X1.600000*%
%TD*%
%TA.AperFunction,SMDPad,CuDef*%
%ADD36R,1.200000X2.200000*%
%TD*%
%TA.AperFunction,SMDPad,CuDef*%
%ADD37R,1.600000X1.400000*%
%TD*%
%TA.AperFunction,ComponentPad*%
%ADD38O,1.700000X1.700000*%
%TD*%
%TA.AperFunction,ComponentPad*%
%ADD39C,1.700000*%
%TD*%
%TA.AperFunction,ComponentPad*%
%ADD40R,1.700000X1.700000*%
%TD*%
%TA.AperFunction,SMDPad,CuDef*%
%ADD41FreePoly0,180.000000*%
%TD*%
%TA.AperFunction,SMDPad,CuDef*%
%ADD42FreePoly1,180.000000*%
%TD*%
%TA.AperFunction,SMDPad,CuDef*%
%ADD43RoundRect,0.200000X0.275000X-0.200000X0.275000X0.200000X-0.275000X0.200000X-0.275000X-0.200000X0*%
%TD*%
%TA.AperFunction,SMDPad,CuDef*%
%ADD44RoundRect,0.050000X0.387500X0.050000X-0.387500X0.050000X-0.387500X-0.050000X0.387500X-0.050000X0*%
%TD*%
%TA.AperFunction,SMDPad,CuDef*%
%ADD45RoundRect,0.050000X0.050000X0.387500X-0.050000X0.387500X-0.050000X-0.387500X0.050000X-0.387500X0*%
%TD*%
%TA.AperFunction,HeatsinkPad*%
%ADD46R,3.200000X3.200000*%
%TD*%
%TA.AperFunction,SMDPad,CuDef*%
%ADD47RoundRect,0.250000X-0.450000X-0.275000X0.450000X-0.275000X0.450000X0.275000X-0.450000X0.275000X0*%
%TD*%
%TA.AperFunction,SMDPad,CuDef*%
%ADD48R,0.522000X0.600000*%
%TD*%
%TA.AperFunction,SMDPad,CuDef*%
%ADD49FreePoly2,180.000000*%
%TD*%
%TA.AperFunction,SMDPad,CuDef*%
%ADD50R,0.275000X0.250000*%
%TD*%
%TA.AperFunction,SMDPad,CuDef*%
%ADD51R,0.250000X0.275000*%
%TD*%
%TA.AperFunction,ViaPad*%
%ADD52C,0.600000*%
%TD*%
%TA.AperFunction,Conductor*%
%ADD53C,0.200000*%
%TD*%
%TA.AperFunction,Conductor*%
%ADD54C,0.203200*%
%TD*%
%TA.AperFunction,Conductor*%
%ADD55C,0.304800*%
%TD*%
%TA.AperFunction,Conductor*%
%ADD56C,0.177800*%
%TD*%
%TA.AperFunction,Conductor*%
%ADD57C,0.254000*%
%TD*%
%TA.AperFunction,Conductor*%
%ADD58C,0.508000*%
%TD*%
G04 APERTURE END LIST*
D10*
%TO.P,D5,1,VDD*%
%TO.N,VCC*%
X69992000Y64640000D03*
%TO.P,D5,2,DOUT*%
%TO.N,Net-(D5-DOUT)*%
X69992000Y67940000D03*
%TO.P,D5,3,VSS*%
%TO.N,GND*%
X65092000Y67940000D03*
%TO.P,D5,4,DIN*%
%TO.N,Net-(D4-DOUT)*%
X65092000Y64640000D03*
%TD*%
%TO.P,D23,1,VDD*%
%TO.N,VCC*%
X45632000Y44780000D03*
%TO.P,D23,2,DOUT*%
%TO.N,Net-(D23-DOUT)*%
X45632000Y48080000D03*
%TO.P,D23,3,VSS*%
%TO.N,GND*%
X40732000Y48080000D03*
%TO.P,D23,4,DIN*%
%TO.N,Net-(D22-DOUT)*%
X40732000Y44780000D03*
%TD*%
%TO.P,D18,1,VDD*%
%TO.N,VCC*%
X53752000Y58020000D03*
%TO.P,D18,2,DOUT*%
%TO.N,Net-(D18-DOUT)*%
X53752000Y61320000D03*
%TO.P,D18,3,VSS*%
%TO.N,GND*%
X48852000Y61320000D03*
%TO.P,D18,4,DIN*%
%TO.N,Net-(D17-DOUT)*%
X48852000Y58020000D03*
%TD*%
%TO.P,D36,1,VDD*%
%TO.N,VCC*%
X37512000Y84500000D03*
%TO.P,D36,2,DOUT*%
%TO.N,Net-(D36-DOUT)*%
X37512000Y87800000D03*
%TO.P,D36,3,VSS*%
%TO.N,GND*%
X32612000Y87800000D03*
%TO.P,D36,4,DIN*%
%TO.N,Net-(D35-DOUT)*%
X32612000Y84500000D03*
%TD*%
D11*
%TO.P,C17,1*%
%TO.N,GND*%
X50512000Y89870000D03*
%TO.P,C17,2*%
%TO.N,VCC*%
X52062000Y89870000D03*
%TD*%
D10*
%TO.P,D24,1,VDD*%
%TO.N,VCC*%
X45632000Y51400000D03*
%TO.P,D24,2,DOUT*%
%TO.N,Net-(D24-DOUT)*%
X45632000Y54700000D03*
%TO.P,D24,3,VSS*%
%TO.N,GND*%
X40732000Y54700000D03*
%TO.P,D24,4,DIN*%
%TO.N,Net-(D23-DOUT)*%
X40732000Y51400000D03*
%TD*%
D12*
%TO.P,FID2,*%
%TO.N,*%
X12070000Y7440000D03*
%TD*%
D13*
%TO.P,C22,1*%
%TO.N,GND*%
X20370000Y34550000D03*
%TO.P,C22,2*%
%TO.N,+3.3V*%
X18820000Y34550000D03*
%TD*%
D10*
%TO.P,D7,1,VDD*%
%TO.N,VCC*%
X69992000Y77880000D03*
%TO.P,D7,2,DOUT*%
%TO.N,Net-(D7-DOUT)*%
X69992000Y81180000D03*
%TO.P,D7,3,VSS*%
%TO.N,GND*%
X65092000Y81180000D03*
%TO.P,D7,4,DIN*%
%TO.N,Net-(D6-DOUT)*%
X65092000Y77880000D03*
%TD*%
D14*
%TO.P,J2,A1,GND*%
%TO.N,GND*%
X43972000Y6770000D03*
%TO.P,J2,A4,VBUS*%
%TO.N,VBUS*%
X44772000Y6770000D03*
D15*
%TO.P,J2,A5,CC1*%
%TO.N,Net-(J2-CC1)*%
X45922000Y6770000D03*
%TO.P,J2,A6,D+*%
%TO.N,Net-(D44-K-Pad2)*%
X46922000Y6770000D03*
%TO.P,J2,A7,D-*%
%TO.N,Net-(D44-K-Pad1)*%
X47422000Y6770000D03*
%TO.P,J2,A8,SBU1*%
%TO.N,unconnected-(J2-SBU1-PadA8)*%
X48422000Y6770000D03*
D14*
%TO.P,J2,A9,VBUS*%
%TO.N,VBUS*%
X49572000Y6770000D03*
%TO.P,J2,A12,GND*%
%TO.N,GND*%
X50372000Y6770000D03*
%TO.P,J2,B1,GND*%
X50372000Y6770000D03*
%TO.P,J2,B4,VBUS*%
%TO.N,VBUS*%
X49572000Y6770000D03*
D15*
%TO.P,J2,B5,CC2*%
%TO.N,Net-(J2-CC2)*%
X48922000Y6770000D03*
%TO.P,J2,B6,D+*%
%TO.N,Net-(D44-K-Pad2)*%
X47922000Y6770000D03*
%TO.P,J2,B7,D-*%
%TO.N,Net-(D44-K-Pad1)*%
X46422000Y6770000D03*
%TO.P,J2,B8,SBU2*%
%TO.N,unconnected-(J2-SBU2-PadB8)*%
X45422000Y6770000D03*
D14*
%TO.P,J2,B9,VBUS*%
%TO.N,VBUS*%
X44772000Y6770000D03*
%TO.P,J2,B12,GND*%
%TO.N,GND*%
X43972000Y6770000D03*
D16*
%TO.P,J2,S1,SHIELD*%
X42852000Y6130000D03*
D17*
X42852000Y1950000D03*
D16*
X51492000Y6130000D03*
D17*
X51492000Y1950000D03*
%TD*%
D18*
%TO.P,TP5,1,1*%
%TO.N,Net-(U2-GPIO15)*%
X29380000Y29910000D03*
%TD*%
D10*
%TO.P,D13,1,VDD*%
%TO.N,VCC*%
X61872000Y71260000D03*
%TO.P,D13,2,DOUT*%
%TO.N,Net-(D13-DOUT)*%
X61872000Y74560000D03*
%TO.P,D13,3,VSS*%
%TO.N,GND*%
X56972000Y74560000D03*
%TO.P,D13,4,DIN*%
%TO.N,Net-(D12-DOUT)*%
X56972000Y71260000D03*
%TD*%
%TO.P,D42,1,VDD*%
%TO.N,VCC*%
X29392000Y77880000D03*
%TO.P,D42,2,DOUT*%
%TO.N,Net-(D42-DOUT)*%
X29392000Y81180000D03*
%TO.P,D42,3,VSS*%
%TO.N,GND*%
X24492000Y81180000D03*
%TO.P,D42,4,DIN*%
%TO.N,Net-(D41-DOUT)*%
X24492000Y77880000D03*
%TD*%
%TO.P,D8,1,VDD*%
%TO.N,VCC*%
X69992000Y84500000D03*
%TO.P,D8,2,DOUT*%
%TO.N,Net-(D8-DOUT)*%
X69992000Y87800000D03*
%TO.P,D8,3,VSS*%
%TO.N,GND*%
X65092000Y87800000D03*
%TO.P,D8,4,DIN*%
%TO.N,Net-(D7-DOUT)*%
X65092000Y84500000D03*
%TD*%
D19*
%TO.P,D45,1,K*%
%TO.N,VCC*%
X40380000Y10037500D03*
%TO.P,D45,2,A*%
%TO.N,VBUS*%
X40380000Y7237500D03*
%TD*%
D20*
%TO.P,D44,1,K*%
%TO.N,Net-(D44-K-Pad1)*%
X46282000Y13282500D03*
%TO.P,D44,2,K*%
%TO.N,Net-(D44-K-Pad2)*%
X48182000Y13282500D03*
%TO.P,D44,3,A*%
%TO.N,GND*%
X47232000Y15557500D03*
%TD*%
D10*
%TO.P,D2,1,VDD*%
%TO.N,VCC*%
X69992000Y44780000D03*
%TO.P,D2,2,DOUT*%
%TO.N,Net-(D2-DOUT)*%
X69992000Y48080000D03*
%TO.P,D2,3,VSS*%
%TO.N,GND*%
X65092000Y48080000D03*
%TO.P,D2,4,DIN*%
%TO.N,Net-(D2-DIN)*%
X65092000Y44780000D03*
%TD*%
D21*
%TO.P,U1,1,IN*%
%TO.N,VCC*%
X38017000Y8150000D03*
%TO.P,U1,2,GND*%
%TO.N,GND*%
X38017000Y9100000D03*
%TO.P,U1,3,EN*%
%TO.N,VCC*%
X38017000Y10050000D03*
%TO.P,U1,4,NC*%
%TO.N,unconnected-(U1-NC-Pad4)*%
X35742000Y10050000D03*
%TO.P,U1,5,OUT*%
%TO.N,+3.3V*%
X35742000Y8150000D03*
%TD*%
D10*
%TO.P,D21,1,VDD*%
%TO.N,VCC*%
X53752000Y77880000D03*
%TO.P,D21,2,DOUT*%
%TO.N,Net-(D21-DOUT)*%
X53752000Y81180000D03*
%TO.P,D21,3,VSS*%
%TO.N,GND*%
X48852000Y81180000D03*
%TO.P,D21,4,DIN*%
%TO.N,Net-(D20-DOUT)*%
X48852000Y77880000D03*
%TD*%
D22*
%TO.P,R1,1*%
%TO.N,Net-(R1-Pad1)*%
X28142000Y6990000D03*
%TO.P,R1,2*%
%TO.N,SS*%
X29792000Y6990000D03*
%TD*%
D11*
%TO.P,C9,1*%
%TO.N,GND*%
X36082000Y6330000D03*
%TO.P,C9,2*%
%TO.N,VCC*%
X37632000Y6330000D03*
%TD*%
D23*
%TO.P,SW3,*%
%TO.N,*%
X88740279Y77819721D03*
X83012715Y83547285D03*
D24*
%TO.P,SW3,1,A*%
%TO.N,DPAD_A*%
X89412031Y82203783D03*
%TO.P,SW3,2,Center*%
%TO.N,DPAD_CTR*%
X88404404Y83211410D03*
%TO.P,SW3,3,C*%
%TO.N,DPAD_C*%
X87396777Y84219037D03*
%TO.P,SW3,4,B*%
%TO.N,DPAD_B*%
X84356217Y77147969D03*
%TO.P,SW3,5,Common*%
%TO.N,GND*%
X83348590Y78155596D03*
%TO.P,SW3,6,D*%
%TO.N,DPAD_D*%
X82340963Y79163223D03*
%TD*%
D25*
%TO.P,R8,1*%
%TO.N,Net-(C13-Pad2)*%
X29270000Y32370000D03*
%TO.P,R8,2*%
%TO.N,XTAL_OUT*%
X27620000Y32370000D03*
%TD*%
D26*
%TO.P,C14,1*%
%TO.N,GND*%
X22120000Y14510000D03*
%TO.P,C14,2*%
%TO.N,+3.3V*%
X22120000Y16060000D03*
%TD*%
D10*
%TO.P,D43,1,VDD*%
%TO.N,VCC*%
X29392000Y84500000D03*
%TO.P,D43,2,DOUT*%
%TO.N,unconnected-(D43-DOUT-Pad2)*%
X29392000Y87800000D03*
%TO.P,D43,3,VSS*%
%TO.N,GND*%
X24492000Y87800000D03*
%TO.P,D43,4,DIN*%
%TO.N,Net-(D42-DOUT)*%
X24492000Y84500000D03*
%TD*%
D27*
%TO.P,R9,1*%
%TO.N,Net-(D2-DIN)*%
X41770000Y31930000D03*
%TO.P,R9,2*%
%TO.N,RGB*%
X41770000Y30280000D03*
%TD*%
D10*
%TO.P,D15,1,VDD*%
%TO.N,VCC*%
X61872000Y84500000D03*
%TO.P,D15,2,DOUT*%
%TO.N,Net-(D15-DOUT)*%
X61872000Y87800000D03*
%TO.P,D15,3,VSS*%
%TO.N,GND*%
X56972000Y87800000D03*
%TO.P,D15,4,DIN*%
%TO.N,Net-(D14-DOUT)*%
X56972000Y84500000D03*
%TD*%
%TO.P,D11,1,VDD*%
%TO.N,VCC*%
X61872000Y58020000D03*
%TO.P,D11,2,DOUT*%
%TO.N,Net-(D11-DOUT)*%
X61872000Y61320000D03*
%TO.P,D11,3,VSS*%
%TO.N,GND*%
X56972000Y61320000D03*
%TO.P,D11,4,DIN*%
%TO.N,Net-(D10-DOUT)*%
X56972000Y58020000D03*
%TD*%
D26*
%TO.P,C11,1*%
%TO.N,GND*%
X31170000Y29310000D03*
%TO.P,C11,2*%
%TO.N,XTAL_IN*%
X31170000Y30860000D03*
%TD*%
D28*
%TO.P,SW2,1,A*%
%TO.N,unconnected-(SW2-A-Pad1)*%
X17372000Y5700000D03*
%TO.P,SW2,2,B*%
%TO.N,Net-(D1-K)*%
X19872000Y5700000D03*
%TO.P,SW2,3,C*%
%TO.N,VCC*%
X22372000Y5700000D03*
%TD*%
D10*
%TO.P,D14,1,VDD*%
%TO.N,VCC*%
X61872000Y77880000D03*
%TO.P,D14,2,DOUT*%
%TO.N,Net-(D14-DOUT)*%
X61872000Y81180000D03*
%TO.P,D14,3,VSS*%
%TO.N,GND*%
X56972000Y81180000D03*
%TO.P,D14,4,DIN*%
%TO.N,Net-(D13-DOUT)*%
X56972000Y77880000D03*
%TD*%
D11*
%TO.P,C5,1*%
%TO.N,GND*%
X16510000Y24300000D03*
%TO.P,C5,2*%
%TO.N,+3.3V*%
X18060000Y24300000D03*
%TD*%
D10*
%TO.P,D34,1,VDD*%
%TO.N,VCC*%
X37512000Y71260000D03*
%TO.P,D34,2,DOUT*%
%TO.N,Net-(D34-DOUT)*%
X37512000Y74560000D03*
%TO.P,D34,3,VSS*%
%TO.N,GND*%
X32612000Y74560000D03*
%TO.P,D34,4,DIN*%
%TO.N,Net-(D33-DOUT)*%
X32612000Y71260000D03*
%TD*%
D11*
%TO.P,C12,1*%
%TO.N,GND*%
X30240000Y13400000D03*
%TO.P,C12,2*%
%TO.N,+3.3V*%
X31790000Y13400000D03*
%TD*%
D29*
%TO.P,Y1,1,1*%
%TO.N,Net-(C13-Pad2)*%
X34320000Y32270000D03*
%TO.P,Y1,2,2*%
%TO.N,GND*%
X34320000Y30070000D03*
%TO.P,Y1,3,3*%
%TO.N,XTAL_IN*%
X36020000Y30070000D03*
%TO.P,Y1,4,4*%
%TO.N,GND*%
X36020000Y32270000D03*
%TD*%
D10*
%TO.P,D25,1,VDD*%
%TO.N,VCC*%
X45632000Y58020000D03*
%TO.P,D25,2,DOUT*%
%TO.N,Net-(D25-DOUT)*%
X45632000Y61320000D03*
%TO.P,D25,3,VSS*%
%TO.N,GND*%
X40732000Y61320000D03*
%TO.P,D25,4,DIN*%
%TO.N,Net-(D24-DOUT)*%
X40732000Y58020000D03*
%TD*%
%TO.P,D26,1,VDD*%
%TO.N,VCC*%
X45632000Y64640000D03*
%TO.P,D26,2,DOUT*%
%TO.N,Net-(D26-DOUT)*%
X45632000Y67940000D03*
%TO.P,D26,3,VSS*%
%TO.N,GND*%
X40732000Y67940000D03*
%TO.P,D26,4,DIN*%
%TO.N,Net-(D25-DOUT)*%
X40732000Y64640000D03*
%TD*%
%TO.P,D22,1,VDD*%
%TO.N,VCC*%
X53752000Y84500000D03*
%TO.P,D22,2,DOUT*%
%TO.N,Net-(D22-DOUT)*%
X53752000Y87800000D03*
%TO.P,D22,3,VSS*%
%TO.N,GND*%
X48852000Y87800000D03*
%TO.P,D22,4,DIN*%
%TO.N,Net-(D21-DOUT)*%
X48852000Y84500000D03*
%TD*%
%TO.P,D41,1,VDD*%
%TO.N,VCC*%
X29392000Y71260000D03*
%TO.P,D41,2,DOUT*%
%TO.N,Net-(D41-DOUT)*%
X29392000Y74560000D03*
%TO.P,D41,3,VSS*%
%TO.N,GND*%
X24492000Y74560000D03*
%TO.P,D41,4,DIN*%
%TO.N,Net-(D40-DOUT)*%
X24492000Y71260000D03*
%TD*%
D11*
%TO.P,C16,1*%
%TO.N,GND*%
X58662000Y89890000D03*
%TO.P,C16,2*%
%TO.N,VCC*%
X60212000Y89890000D03*
%TD*%
D10*
%TO.P,D32,1,VDD*%
%TO.N,VCC*%
X37512000Y58020000D03*
%TO.P,D32,2,DOUT*%
%TO.N,Net-(D32-DOUT)*%
X37512000Y61320000D03*
%TO.P,D32,3,VSS*%
%TO.N,GND*%
X32612000Y61320000D03*
%TO.P,D32,4,DIN*%
%TO.N,Net-(D31-DOUT)*%
X32612000Y58020000D03*
%TD*%
D30*
%TO.P,C6,1*%
%TO.N,GND*%
X25800000Y32390000D03*
%TO.P,C6,2*%
%TO.N,Net-(U2-VREG_VOUT)*%
X25800000Y30840000D03*
%TD*%
D31*
%TO.P,U3,1,~{CS}*%
%TO.N,SS*%
X34201500Y14949999D03*
%TO.P,U3,2,DO(IO1)*%
%TO.N,DS1*%
X34201500Y15450000D03*
%TO.P,U3,3,IO2*%
%TO.N,DS2*%
X34201500Y15950000D03*
%TO.P,U3,4,GND*%
%TO.N,GND*%
X34201500Y16450001D03*
%TO.P,U3,5,DI(IO0)*%
%TO.N,DS0*%
X31404700Y16450001D03*
%TO.P,U3,6,CLK*%
%TO.N,CLK*%
X31404700Y15950000D03*
%TO.P,U3,7,IO3*%
%TO.N,DS3*%
X31404700Y15450000D03*
%TO.P,U3,8,VCC*%
%TO.N,+3.3V*%
X31404700Y14949999D03*
D32*
%TO.P,U3,9*%
%TO.N,N/C*%
X32803100Y15700000D03*
%TD*%
D33*
%TO.P,D1,1,K*%
%TO.N,Net-(D1-K)*%
X16540000Y13192500D03*
%TO.P,D1,2,A*%
%TO.N,Net-(D1-A)*%
X16540000Y15992500D03*
%TD*%
D34*
%TO.P,J1,*%
%TO.N,*%
X64912000Y6160000D03*
X72892000Y6160000D03*
D35*
%TO.P,J1,1,NC*%
%TO.N,unconnected-(J1-NC-Pad1)*%
X72042000Y16660000D03*
%TO.P,J1,2,/CS*%
%TO.N,SD_CS*%
X70942000Y16660000D03*
%TO.P,J1,3,DI*%
%TO.N,SPI0_MOSI*%
X69842000Y16660000D03*
%TO.P,J1,4,VDD*%
%TO.N,+3.3V*%
X68742000Y16660000D03*
%TO.P,J1,5,CLK*%
%TO.N,SPI0_SCK*%
X67642000Y16660000D03*
%TO.P,J1,6,VSS*%
%TO.N,GND*%
X66542000Y16660000D03*
%TO.P,J1,7,DO*%
%TO.N,SPI0_MISO*%
X65442000Y16660000D03*
%TO.P,J1,8,RSV*%
%TO.N,unconnected-(J1-RSV-Pad8)*%
X64342000Y16660000D03*
%TO.P,J1,9,Cd*%
%TO.N,unconnected-(J1-Cd-Pad9)*%
X63242000Y16660000D03*
D29*
%TO.P,J1,10,SHIELD*%
%TO.N,GND*%
X62092000Y16160000D03*
D36*
X62092000Y6560000D03*
D37*
X76692000Y16160000D03*
D36*
X77592000Y6560000D03*
%TD*%
D38*
%TO.P,X1,1,VCC*%
%TO.N,+3.3V*%
X8650000Y81880000D03*
%TO.P,X1,2,GND*%
%TO.N,GND*%
X8650000Y79340000D03*
D39*
%TO.P,X1,3,SDA*%
%TO.N,SDA*%
X11190000Y81880000D03*
D38*
%TO.P,X1,4,SCL*%
%TO.N,SCL*%
X11190000Y79340000D03*
D39*
%TO.P,X1,5,GPIO1*%
%TO.N,SAO1*%
X13730000Y81880000D03*
D38*
%TO.P,X1,6,GPIO2*%
%TO.N,SAO2*%
X13730000Y79340000D03*
%TD*%
D10*
%TO.P,D3,1,VDD*%
%TO.N,VCC*%
X69992000Y51400000D03*
%TO.P,D3,2,DOUT*%
%TO.N,Net-(D3-DOUT)*%
X69992000Y54700000D03*
%TO.P,D3,3,VSS*%
%TO.N,GND*%
X65092000Y54700000D03*
%TO.P,D3,4,DIN*%
%TO.N,Net-(D2-DOUT)*%
X65092000Y51400000D03*
%TD*%
D13*
%TO.P,C21,1*%
%TO.N,GND*%
X44220000Y18520000D03*
%TO.P,C21,2*%
%TO.N,+3.3V*%
X42670000Y18520000D03*
%TD*%
D10*
%TO.P,D37,1,VDD*%
%TO.N,VCC*%
X29392000Y44780000D03*
%TO.P,D37,2,DOUT*%
%TO.N,Net-(D37-DOUT)*%
X29392000Y48080000D03*
%TO.P,D37,3,VSS*%
%TO.N,GND*%
X24492000Y48080000D03*
%TO.P,D37,4,DIN*%
%TO.N,Net-(D36-DOUT)*%
X24492000Y44780000D03*
%TD*%
D40*
%TO.P,J4,1,Pin_1*%
%TO.N,+3.3V*%
X2522000Y36856750D03*
D39*
%TO.P,J4,2,Pin_2*%
%TO.N,SWCLK*%
X2522000Y34316750D03*
%TO.P,J4,3,Pin_3*%
%TO.N,GND*%
X2522000Y31776750D03*
%TO.P,J4,4,Pin_4*%
%TO.N,SWD*%
X2522000Y29236750D03*
%TO.P,J4,5,Pin_5*%
%TO.N,GPIO24*%
X2522000Y26696750D03*
%TO.P,J4,6,Pin_6*%
%TO.N,GPIO25*%
X2522000Y24156750D03*
%TO.P,J4,7,Pin_7*%
%TO.N,GPIO26*%
X2522000Y21616750D03*
%TO.P,J4,8,Pin_8*%
%TO.N,GPIO27*%
X2522000Y19076750D03*
%TO.P,J4,9,Pin_9*%
%TO.N,GPIO28*%
X2522000Y16536750D03*
%TO.P,J4,10,Pin_10*%
%TO.N,GND*%
X2522000Y13996750D03*
%TD*%
D26*
%TO.P,C10,1*%
%TO.N,GND*%
X33600000Y6420000D03*
%TO.P,C10,2*%
%TO.N,+3.3V*%
X33600000Y7970000D03*
%TD*%
D41*
%TO.P,JP2,1,A*%
%TO.N,VBUS*%
X7750000Y72560000D03*
D42*
%TO.P,JP2,2,B*%
%TO.N,Net-(J3-Pin_1)*%
X6450000Y72560000D03*
%TD*%
D10*
%TO.P,D6,1,VDD*%
%TO.N,VCC*%
X69992000Y71260000D03*
%TO.P,D6,2,DOUT*%
%TO.N,Net-(D6-DOUT)*%
X69992000Y74560000D03*
%TO.P,D6,3,VSS*%
%TO.N,GND*%
X65092000Y74560000D03*
%TO.P,D6,4,DIN*%
%TO.N,Net-(D5-DOUT)*%
X65092000Y71260000D03*
%TD*%
D25*
%TO.P,R3,1*%
%TO.N,Net-(J2-CC1)*%
X44267000Y11820000D03*
%TO.P,R3,2*%
%TO.N,GND*%
X42617000Y11820000D03*
%TD*%
D10*
%TO.P,D17,1,VDD*%
%TO.N,VCC*%
X53752000Y51400000D03*
%TO.P,D17,2,DOUT*%
%TO.N,Net-(D17-DOUT)*%
X53752000Y54700000D03*
%TO.P,D17,3,VSS*%
%TO.N,GND*%
X48852000Y54700000D03*
%TO.P,D17,4,DIN*%
%TO.N,Net-(D16-DOUT)*%
X48852000Y51400000D03*
%TD*%
%TO.P,D33,1,VDD*%
%TO.N,VCC*%
X37512000Y64640000D03*
%TO.P,D33,2,DOUT*%
%TO.N,Net-(D33-DOUT)*%
X37512000Y67940000D03*
%TO.P,D33,3,VSS*%
%TO.N,GND*%
X32612000Y67940000D03*
%TO.P,D33,4,DIN*%
%TO.N,Net-(D32-DOUT)*%
X32612000Y64640000D03*
%TD*%
D43*
%TO.P,R2,1*%
%TO.N,Net-(U2-RUN)*%
X23130000Y30790000D03*
%TO.P,R2,2*%
%TO.N,+3.3V*%
X23130000Y32440000D03*
%TD*%
D10*
%TO.P,D28,1,VDD*%
%TO.N,VCC*%
X45632000Y77880000D03*
%TO.P,D28,2,DOUT*%
%TO.N,Net-(D28-DOUT)*%
X45632000Y81180000D03*
%TO.P,D28,3,VSS*%
%TO.N,GND*%
X40732000Y81180000D03*
%TO.P,D28,4,DIN*%
%TO.N,Net-(D27-DOUT)*%
X40732000Y77880000D03*
%TD*%
%TO.P,D35,1,VDD*%
%TO.N,VCC*%
X37512000Y77880000D03*
%TO.P,D35,2,DOUT*%
%TO.N,Net-(D35-DOUT)*%
X37512000Y81180000D03*
%TO.P,D35,3,VSS*%
%TO.N,GND*%
X32612000Y81180000D03*
%TO.P,D35,4,DIN*%
%TO.N,Net-(D34-DOUT)*%
X32612000Y77880000D03*
%TD*%
D44*
%TO.P,U2,1,IOVDD*%
%TO.N,+3.3V*%
X29822500Y20702500D03*
%TO.P,U2,2,GPIO0*%
%TO.N,I2S_BCLK*%
X29822500Y21102500D03*
%TO.P,U2,3,GPIO1*%
%TO.N,I2S_LRCLK*%
X29822500Y21502500D03*
%TO.P,U2,4,GPIO2*%
%TO.N,Net-(U2-GPIO2)*%
X29822500Y21902500D03*
%TO.P,U2,5,GPIO3*%
%TO.N,I2S_DOUT*%
X29822500Y22302500D03*
%TO.P,U2,6,GPIO4*%
%TO.N,SPI0_MISO*%
X29822500Y22702500D03*
%TO.P,U2,7,GPIO5*%
%TO.N,SD_CS*%
X29822500Y23102500D03*
%TO.P,U2,8,GPIO6*%
%TO.N,SPI0_SCK*%
X29822500Y23502500D03*
%TO.P,U2,9,GPIO7*%
%TO.N,SPI0_MOSI*%
X29822500Y23902500D03*
%TO.P,U2,10,IOVDD*%
%TO.N,+3.3V*%
X29822500Y24302500D03*
%TO.P,U2,11,GPIO8*%
%TO.N,DPAD_C*%
X29822500Y24702500D03*
%TO.P,U2,12,GPIO9*%
%TO.N,DPAD_CTR*%
X29822500Y25102500D03*
%TO.P,U2,13,GPIO10*%
%TO.N,DPAD_A*%
X29822500Y25502500D03*
%TO.P,U2,14,GPIO11*%
%TO.N,DPAD_D*%
X29822500Y25902500D03*
D45*
%TO.P,U2,15,GPIO12*%
%TO.N,DPAD_B*%
X28985000Y26740000D03*
%TO.P,U2,16,GPIO13*%
%TO.N,RGB*%
X28585000Y26740000D03*
%TO.P,U2,17,GPIO14*%
%TO.N,Net-(U2-GPIO14)*%
X28185000Y26740000D03*
%TO.P,U2,18,GPIO15*%
%TO.N,Net-(U2-GPIO15)*%
X27785000Y26740000D03*
%TO.P,U2,19,TESTEN*%
%TO.N,GND*%
X27385000Y26740000D03*
%TO.P,U2,20,XIN*%
%TO.N,XTAL_IN*%
X26985000Y26740000D03*
%TO.P,U2,21,XOUT*%
%TO.N,XTAL_OUT*%
X26585000Y26740000D03*
%TO.P,U2,22,IOVDD*%
%TO.N,+3.3V*%
X26185000Y26740000D03*
%TO.P,U2,23,DVDD*%
%TO.N,Net-(U2-VREG_VOUT)*%
X25785000Y26740000D03*
%TO.P,U2,24,SWCLK*%
%TO.N,SWCLK*%
X25385000Y26740000D03*
%TO.P,U2,25,SWD*%
%TO.N,SWD*%
X24985000Y26740000D03*
%TO.P,U2,26,RUN*%
%TO.N,Net-(U2-RUN)*%
X24585000Y26740000D03*
%TO.P,U2,27,GPIO16*%
%TO.N,SDA*%
X24185000Y26740000D03*
%TO.P,U2,28,GPIO17*%
%TO.N,SCL*%
X23785000Y26740000D03*
D44*
%TO.P,U2,29,GPIO18*%
%TO.N,GPIO18*%
X22947500Y25902500D03*
%TO.P,U2,30,GPIO19*%
%TO.N,GPIO19*%
X22947500Y25502500D03*
%TO.P,U2,31,GPIO20*%
%TO.N,GPIO20*%
X22947500Y25102500D03*
%TO.P,U2,32,GPIO21*%
%TO.N,GPIO21*%
X22947500Y24702500D03*
%TO.P,U2,33,IOVDD*%
%TO.N,+3.3V*%
X22947500Y24302500D03*
%TO.P,U2,34,GPIO22*%
%TO.N,GPIO22*%
X22947500Y23902500D03*
%TO.P,U2,35,GPIO23*%
%TO.N,GPIO23*%
X22947500Y23502500D03*
%TO.P,U2,36,GPIO24*%
%TO.N,GPIO24*%
X22947500Y23102500D03*
%TO.P,U2,37,GPIO25*%
%TO.N,GPIO25*%
X22947500Y22702500D03*
%TO.P,U2,38,GPIO26_ADC0*%
%TO.N,GPIO26*%
X22947500Y22302500D03*
%TO.P,U2,39,GPIO27_ADC1*%
%TO.N,GPIO27*%
X22947500Y21902500D03*
%TO.P,U2,40,GPIO28_ADC2*%
%TO.N,GPIO28*%
X22947500Y21502500D03*
%TO.P,U2,41,GPIO29_ADC3*%
%TO.N,Net-(U2-GPIO29_ADC3)*%
X22947500Y21102500D03*
%TO.P,U2,42,IOVDD*%
%TO.N,+3.3V*%
X22947500Y20702500D03*
D45*
%TO.P,U2,43,ADC_AVDD*%
X23785000Y19865000D03*
%TO.P,U2,44,VREG_IN*%
X24185000Y19865000D03*
%TO.P,U2,45,VREG_VOUT*%
%TO.N,Net-(U2-VREG_VOUT)*%
X24585000Y19865000D03*
%TO.P,U2,46,USB_DM*%
%TO.N,USB_N*%
X24985000Y19865000D03*
%TO.P,U2,47,USB_DP*%
%TO.N,USB_P*%
X25385000Y19865000D03*
%TO.P,U2,48,USB_VDD*%
%TO.N,+3.3V*%
X25785000Y19865000D03*
%TO.P,U2,49,IOVDD*%
X26185000Y19865000D03*
%TO.P,U2,50,DVDD*%
%TO.N,Net-(U2-VREG_VOUT)*%
X26585000Y19865000D03*
%TO.P,U2,51,QSPI_SD3*%
%TO.N,DS3*%
X26985000Y19865000D03*
%TO.P,U2,52,QSPI_SCLK*%
%TO.N,CLK*%
X27385000Y19865000D03*
%TO.P,U2,53,QSPI_SD0*%
%TO.N,DS0*%
X27785000Y19865000D03*
%TO.P,U2,54,QSPI_SD2*%
%TO.N,DS2*%
X28185000Y19865000D03*
%TO.P,U2,55,QSPI_SD1*%
%TO.N,DS1*%
X28585000Y19865000D03*
%TO.P,U2,56,QSPI_SS*%
%TO.N,SS*%
X28985000Y19865000D03*
D46*
%TO.P,U2,57,GND*%
%TO.N,GND*%
X26385000Y23302500D03*
%TD*%
D25*
%TO.P,R5,1*%
%TO.N,Net-(D44-K-Pad2)*%
X44267000Y15070000D03*
%TO.P,R5,2*%
%TO.N,USB_P*%
X42617000Y15070000D03*
%TD*%
D26*
%TO.P,C7,1*%
%TO.N,GND*%
X28290000Y14510000D03*
%TO.P,C7,2*%
%TO.N,Net-(U2-VREG_VOUT)*%
X28290000Y16060000D03*
%TD*%
D10*
%TO.P,D10,1,VDD*%
%TO.N,VCC*%
X61872000Y51400000D03*
%TO.P,D10,2,DOUT*%
%TO.N,Net-(D10-DOUT)*%
X61872000Y54700000D03*
%TO.P,D10,3,VSS*%
%TO.N,GND*%
X56972000Y54700000D03*
%TO.P,D10,4,DIN*%
%TO.N,Net-(D10-DIN)*%
X56972000Y51400000D03*
%TD*%
D26*
%TO.P,C3,1*%
%TO.N,GND*%
X26705000Y14510000D03*
%TO.P,C3,2*%
%TO.N,+3.3V*%
X26705000Y16060000D03*
%TD*%
D25*
%TO.P,R7,1*%
%TO.N,SS*%
X35430000Y13400000D03*
%TO.P,R7,2*%
%TO.N,+3.3V*%
X33780000Y13400000D03*
%TD*%
D11*
%TO.P,C15,1*%
%TO.N,GND*%
X66782000Y89800000D03*
%TO.P,C15,2*%
%TO.N,VCC*%
X68332000Y89800000D03*
%TD*%
D30*
%TO.P,C13,1*%
%TO.N,GND*%
X31170000Y33920000D03*
%TO.P,C13,2*%
%TO.N,Net-(C13-Pad2)*%
X31170000Y32370000D03*
%TD*%
D26*
%TO.P,C4,1*%
%TO.N,GND*%
X20530000Y14510000D03*
%TO.P,C4,2*%
%TO.N,+3.3V*%
X20530000Y16060000D03*
%TD*%
D10*
%TO.P,D9,1,VDD*%
%TO.N,VCC*%
X61872000Y44780000D03*
%TO.P,D9,2,DOUT*%
%TO.N,Net-(D10-DIN)*%
X61872000Y48080000D03*
%TO.P,D9,3,VSS*%
%TO.N,GND*%
X56972000Y48080000D03*
%TO.P,D9,4,DIN*%
%TO.N,Net-(D8-DOUT)*%
X56972000Y44780000D03*
%TD*%
D13*
%TO.P,C2,1*%
%TO.N,GND*%
X35930000Y24760000D03*
%TO.P,C2,2*%
%TO.N,+3.3V*%
X34380000Y24760000D03*
%TD*%
D10*
%TO.P,D38,1,VDD*%
%TO.N,VCC*%
X29392000Y51400000D03*
%TO.P,D38,2,DOUT*%
%TO.N,Net-(D38-DOUT)*%
X29392000Y54700000D03*
%TO.P,D38,3,VSS*%
%TO.N,GND*%
X24492000Y54700000D03*
%TO.P,D38,4,DIN*%
%TO.N,Net-(D37-DOUT)*%
X24492000Y51400000D03*
%TD*%
D47*
%TO.P,SW1,1,1*%
%TO.N,GND*%
X27182000Y2730000D03*
X30782000Y2730000D03*
%TO.P,SW1,2,2*%
%TO.N,Net-(R1-Pad1)*%
X27182000Y1290000D03*
X30782000Y1290000D03*
%TD*%
D12*
%TO.P,FID3,*%
%TO.N,*%
X81720000Y89880000D03*
%TD*%
D10*
%TO.P,D16,1,VDD*%
%TO.N,VCC*%
X53752000Y44780000D03*
%TO.P,D16,2,DOUT*%
%TO.N,Net-(D16-DOUT)*%
X53752000Y48080000D03*
%TO.P,D16,3,VSS*%
%TO.N,GND*%
X48852000Y48080000D03*
%TO.P,D16,4,DIN*%
%TO.N,Net-(D15-DOUT)*%
X48852000Y44780000D03*
%TD*%
D26*
%TO.P,C8,1*%
%TO.N,GND*%
X23705000Y14510000D03*
%TO.P,C8,2*%
%TO.N,Net-(U2-VREG_VOUT)*%
X23705000Y16060000D03*
%TD*%
D12*
%TO.P,FID1,*%
%TO.N,*%
X77150000Y23390000D03*
%TD*%
D10*
%TO.P,D4,1,VDD*%
%TO.N,VCC*%
X69992000Y58020000D03*
%TO.P,D4,2,DOUT*%
%TO.N,Net-(D4-DOUT)*%
X69992000Y61320000D03*
%TO.P,D4,3,VSS*%
%TO.N,GND*%
X65092000Y61320000D03*
%TO.P,D4,4,DIN*%
%TO.N,Net-(D3-DOUT)*%
X65092000Y58020000D03*
%TD*%
D18*
%TO.P,TP6,1,1*%
%TO.N,Net-(U2-GPIO29_ADC3)*%
X18960000Y19470000D03*
%TD*%
D10*
%TO.P,D20,1,VDD*%
%TO.N,VCC*%
X53752000Y71260000D03*
%TO.P,D20,2,DOUT*%
%TO.N,Net-(D20-DOUT)*%
X53752000Y74560000D03*
%TO.P,D20,3,VSS*%
%TO.N,GND*%
X48852000Y74560000D03*
%TO.P,D20,4,DIN*%
%TO.N,Net-(D19-DOUT)*%
X48852000Y71260000D03*
%TD*%
D11*
%TO.P,C18,1*%
%TO.N,GND*%
X42492000Y89930000D03*
%TO.P,C18,2*%
%TO.N,VCC*%
X44042000Y89930000D03*
%TD*%
D18*
%TO.P,TP3,1,1*%
%TO.N,Net-(U2-GPIO2)*%
X33770000Y21440000D03*
%TD*%
D12*
%TO.P,FID4,*%
%TO.N,*%
X12380000Y89880000D03*
%TD*%
D22*
%TO.P,R4,1*%
%TO.N,Net-(J2-CC2)*%
X50067000Y11840000D03*
%TO.P,R4,2*%
%TO.N,GND*%
X51717000Y11840000D03*
%TD*%
D10*
%TO.P,D12,1,VDD*%
%TO.N,VCC*%
X61872000Y64640000D03*
%TO.P,D12,2,DOUT*%
%TO.N,Net-(D12-DOUT)*%
X61872000Y67940000D03*
%TO.P,D12,3,VSS*%
%TO.N,GND*%
X56972000Y67940000D03*
%TO.P,D12,4,DIN*%
%TO.N,Net-(D11-DOUT)*%
X56972000Y64640000D03*
%TD*%
D11*
%TO.P,C19,1*%
%TO.N,GND*%
X34322000Y89910000D03*
%TO.P,C19,2*%
%TO.N,VCC*%
X35872000Y89910000D03*
%TD*%
D22*
%TO.P,R6,1*%
%TO.N,USB_N*%
X42617000Y13445000D03*
%TO.P,R6,2*%
%TO.N,Net-(D44-K-Pad1)*%
X44267000Y13445000D03*
%TD*%
D10*
%TO.P,D40,1,VDD*%
%TO.N,VCC*%
X29392000Y64640000D03*
%TO.P,D40,2,DOUT*%
%TO.N,Net-(D40-DOUT)*%
X29392000Y67940000D03*
%TO.P,D40,3,VSS*%
%TO.N,GND*%
X24492000Y67940000D03*
%TO.P,D40,4,DIN*%
%TO.N,Net-(D39-DOUT)*%
X24492000Y64640000D03*
%TD*%
D13*
%TO.P,C1,1*%
%TO.N,GND*%
X70060000Y22600000D03*
%TO.P,C1,2*%
%TO.N,+3.3V*%
X68510000Y22600000D03*
%TD*%
D10*
%TO.P,D19,1,VDD*%
%TO.N,VCC*%
X53752000Y64640000D03*
%TO.P,D19,2,DOUT*%
%TO.N,Net-(D19-DOUT)*%
X53752000Y67940000D03*
%TO.P,D19,3,VSS*%
%TO.N,GND*%
X48852000Y67940000D03*
%TO.P,D19,4,DIN*%
%TO.N,Net-(D18-DOUT)*%
X48852000Y64640000D03*
%TD*%
%TO.P,D30,1,VDD*%
%TO.N,VCC*%
X37512000Y44780000D03*
%TO.P,D30,2,DOUT*%
%TO.N,Net-(D30-DOUT)*%
X37512000Y48080000D03*
%TO.P,D30,3,VSS*%
%TO.N,GND*%
X32612000Y48080000D03*
%TO.P,D30,4,DIN*%
%TO.N,Net-(D29-DOUT)*%
X32612000Y44780000D03*
%TD*%
D48*
%TO.P,MK1,1,WS*%
%TO.N,I2S_LRCLK*%
X41626000Y20767500D03*
%TO.P,MK1,2,LR*%
%TO.N,+3.3V*%
X42448000Y20767500D03*
D49*
%TO.P,MK1,3,GND*%
%TO.N,GND*%
X43700000Y22330000D03*
D48*
%TO.P,MK1,4,SCK*%
%TO.N,I2S_BCLK*%
X42448000Y22567500D03*
%TO.P,MK1,5,VDD*%
%TO.N,+3.3V*%
X41626000Y22567500D03*
%TO.P,MK1,6,SD*%
%TO.N,I2S_DOUT*%
X41626000Y21667500D03*
%TD*%
D10*
%TO.P,D27,1,VDD*%
%TO.N,VCC*%
X45632000Y71260000D03*
%TO.P,D27,2,DOUT*%
%TO.N,Net-(D27-DOUT)*%
X45632000Y74560000D03*
%TO.P,D27,3,VSS*%
%TO.N,GND*%
X40732000Y74560000D03*
%TO.P,D27,4,DIN*%
%TO.N,Net-(D26-DOUT)*%
X40732000Y71260000D03*
%TD*%
D50*
%TO.P,U4,1,SA0*%
%TO.N,GND*%
X20400000Y31140000D03*
%TO.P,U4,2,SDA*%
%TO.N,SDA*%
X20400000Y31640000D03*
%TO.P,U4,3,VDD_IO*%
%TO.N,+3.3V*%
X20400000Y32140000D03*
%TO.P,U4,4,NC*%
%TO.N,unconnected-(U4-NC-Pad4)*%
X20400000Y32640000D03*
D51*
%TO.P,U4,5,INT1*%
%TO.N,unconnected-(U4-INT1-Pad5)*%
X19887500Y32652500D03*
%TO.P,U4,6,INT2*%
%TO.N,unconnected-(U4-INT2-Pad6)*%
X19387500Y32652500D03*
D50*
%TO.P,U4,7,VDD*%
%TO.N,+3.3V*%
X18875000Y32640000D03*
%TO.P,U4,8,GND_IO*%
%TO.N,GND*%
X18875000Y32140000D03*
%TO.P,U4,9,GND*%
X18875000Y31640000D03*
%TO.P,U4,10,NC*%
%TO.N,unconnected-(U4-NC-Pad10)*%
X18875000Y31140000D03*
D51*
%TO.P,U4,11,NC*%
%TO.N,unconnected-(U4-NC-Pad11)*%
X19387500Y31127500D03*
%TO.P,U4,12,SCL*%
%TO.N,SCL*%
X19887500Y31127500D03*
%TD*%
D18*
%TO.P,TP4,1,1*%
%TO.N,Net-(U2-GPIO14)*%
X29380000Y28510000D03*
%TD*%
D40*
%TO.P,J3,1,Pin_1*%
%TO.N,Net-(J3-Pin_1)*%
X2522000Y72416750D03*
D39*
%TO.P,J3,2,Pin_2*%
%TO.N,GPIO19*%
X2522000Y69876750D03*
%TO.P,J3,3,Pin_3*%
%TO.N,GPIO20*%
X2522000Y67336750D03*
%TO.P,J3,4,Pin_4*%
%TO.N,GPIO18*%
X2522000Y64796750D03*
%TO.P,J3,5,Pin_5*%
%TO.N,GPIO22*%
X2522000Y62256750D03*
%TO.P,J3,6,Pin_6*%
%TO.N,GPIO23*%
X2522000Y59716750D03*
%TO.P,J3,7,Pin_7*%
%TO.N,GPIO21*%
X2522000Y57176750D03*
%TO.P,J3,8,Pin_8*%
%TO.N,GND*%
X2522000Y54636750D03*
%TD*%
D10*
%TO.P,D29,1,VDD*%
%TO.N,VCC*%
X45632000Y84500000D03*
%TO.P,D29,2,DOUT*%
%TO.N,Net-(D29-DOUT)*%
X45632000Y87800000D03*
%TO.P,D29,3,VSS*%
%TO.N,GND*%
X40732000Y87800000D03*
%TO.P,D29,4,DIN*%
%TO.N,Net-(D28-DOUT)*%
X40732000Y84500000D03*
%TD*%
%TO.P,D31,1,VDD*%
%TO.N,VCC*%
X37512000Y51400000D03*
%TO.P,D31,2,DOUT*%
%TO.N,Net-(D31-DOUT)*%
X37512000Y54700000D03*
%TO.P,D31,3,VSS*%
%TO.N,GND*%
X32612000Y54700000D03*
%TO.P,D31,4,DIN*%
%TO.N,Net-(D30-DOUT)*%
X32612000Y51400000D03*
%TD*%
D11*
%TO.P,C20,1*%
%TO.N,GND*%
X26282000Y89930000D03*
%TO.P,C20,2*%
%TO.N,VCC*%
X27832000Y89930000D03*
%TD*%
D10*
%TO.P,D39,1,VDD*%
%TO.N,VCC*%
X29392000Y58020000D03*
%TO.P,D39,2,DOUT*%
%TO.N,Net-(D39-DOUT)*%
X29392000Y61320000D03*
%TO.P,D39,3,VSS*%
%TO.N,GND*%
X24492000Y61320000D03*
%TO.P,D39,4,DIN*%
%TO.N,Net-(D38-DOUT)*%
X24492000Y58020000D03*
%TD*%
D52*
%TO.N,GND*%
X76692000Y13410000D03*
X36020000Y33710000D03*
X65102000Y62910000D03*
X25810000Y24190000D03*
X24492000Y82800000D03*
X65092000Y69540000D03*
X40732000Y76180000D03*
X48862000Y62930000D03*
X45340000Y18530000D03*
X24492000Y89420000D03*
X32612000Y69550000D03*
X65092000Y89400000D03*
X48852000Y82800000D03*
X32670000Y30070000D03*
X40732000Y82800000D03*
X66510000Y22230000D03*
X20476400Y30160000D03*
X24492000Y49700000D03*
X32612000Y49690000D03*
X27280000Y24190000D03*
X59420000Y8310000D03*
X17880000Y31860000D03*
X59430000Y17910000D03*
X24502000Y62930000D03*
X32612000Y89410000D03*
X30080000Y33920000D03*
X65092000Y76160000D03*
X48250000Y15570000D03*
X43972000Y10020000D03*
X56972000Y69550000D03*
X48852000Y89420000D03*
X56972000Y76170000D03*
X56972000Y89410000D03*
X65092000Y56310000D03*
X20370000Y35720000D03*
X82250000Y77050000D03*
X70050000Y23740000D03*
X32622000Y62920000D03*
X32612000Y76170000D03*
X24492000Y69560000D03*
X27500000Y14510000D03*
X32612000Y82790000D03*
X65092000Y82780000D03*
X50372000Y10040000D03*
X32612000Y56320000D03*
X40732000Y69560000D03*
X40732000Y89420000D03*
X33210000Y5120000D03*
X24492000Y56330000D03*
X21330000Y14510000D03*
X24492000Y76180000D03*
X25800000Y33830000D03*
X56972000Y82790000D03*
X34620000Y12720000D03*
X22920000Y14510000D03*
X15260000Y24840000D03*
X39172000Y9100000D03*
X40742000Y62930000D03*
X48852000Y69560000D03*
X37100000Y24760000D03*
X27839268Y29930732D03*
X56982000Y62920000D03*
X48852000Y76180000D03*
X65092000Y49680000D03*
%TO.N,+3.3V*%
X32520000Y8020000D03*
X40380000Y22560000D03*
X32810000Y12560000D03*
X24120000Y23490000D03*
X23991100Y32450000D03*
X41430000Y18500000D03*
X33440000Y24720000D03*
X17580000Y33210000D03*
X13290000Y33200000D03*
%TO.N,Net-(U2-VREG_VOUT)*%
X24210000Y17220000D03*
X27125000Y17225000D03*
X26933584Y31226416D03*
%TO.N,VBUS*%
X40420000Y3970000D03*
X10690000Y72560000D03*
%TO.N,Net-(D1-A)*%
X13400000Y15980000D03*
%TO.N,SPI0_MOSI*%
X69780000Y21080000D03*
X66530000Y26190000D03*
%TO.N,SPI0_SCK*%
X67610000Y24290000D03*
X67610000Y25890000D03*
%TO.N,SS*%
X29780000Y8010000D03*
X36490000Y13390000D03*
%TO.N,SWCLK*%
X12630000Y34316750D03*
X24590000Y34240000D03*
%TO.N,SWD*%
X24556416Y29266416D03*
X13290000Y29236750D03*
%TO.N,GPIO21*%
X12820000Y57176750D03*
X14850000Y57180000D03*
%TO.N,I2S_BCLK*%
X42430000Y23990000D03*
X40200000Y19720000D03*
%TO.N,GPIO18*%
X20271416Y26821416D03*
X15820000Y26830000D03*
%TO.N,VCC*%
X68350000Y91150000D03*
X35870000Y91150000D03*
X28020000Y91150000D03*
X22372000Y8080000D03*
X60220000Y91150000D03*
X44040000Y91150000D03*
X52060000Y91150000D03*
%TD*%
D53*
%TO.N,GND*%
X66542000Y22198000D02*
X66542000Y16660000D01*
X66510000Y22230000D02*
X66542000Y22198000D01*
D54*
X40732000Y54700000D02*
X39450000Y55982000D01*
D53*
X56982000Y61320000D02*
X56982000Y62920000D01*
D55*
X70060000Y22600000D02*
X70060000Y23730000D01*
D53*
X58662000Y89890000D02*
X57452000Y89890000D01*
D56*
X27691900Y2999900D02*
X27182000Y2490000D01*
D53*
X40732000Y87820000D02*
X40732000Y89420000D01*
X32612000Y74570000D02*
X32612000Y76170000D01*
D56*
X36020000Y32270000D02*
X36020000Y33710000D01*
X16510000Y24300000D02*
X15800000Y24300000D01*
X33505200Y16366900D02*
X33588301Y16450001D01*
X35930000Y24760000D02*
X37100000Y24760000D01*
D53*
X51717000Y11385000D02*
X50372000Y10040000D01*
D54*
X47799400Y56070000D02*
X47799400Y58808174D01*
X39450000Y49362000D02*
X39450000Y56110000D01*
D53*
X25002000Y89930000D02*
X26282000Y89930000D01*
D54*
X44220000Y18520000D02*
X45330000Y18520000D01*
X56972000Y48080000D02*
X55800000Y49252000D01*
D53*
X27182000Y2730000D02*
X28063000Y3611000D01*
D54*
X48852000Y54700000D02*
X47799400Y55752600D01*
D53*
X56972000Y67950000D02*
X56972000Y69550000D01*
X48852000Y81200000D02*
X48852000Y82800000D01*
D54*
X48852000Y48080000D02*
X47799400Y49132600D01*
D53*
X48852000Y67960000D02*
X48852000Y69560000D01*
X24492000Y74580000D02*
X24492000Y76180000D01*
D54*
X43889705Y22330000D02*
X44302600Y21917105D01*
X45330000Y18520000D02*
X45340000Y18530000D01*
D55*
X50372000Y10040000D02*
X50372000Y6770000D01*
D56*
X31930000Y30070000D02*
X31170000Y29310000D01*
D53*
X65092000Y81180000D02*
X65092000Y82780000D01*
X25800000Y32390000D02*
X25800000Y33830000D01*
D54*
X47799400Y55752600D02*
X47799400Y56070000D01*
X39450000Y55982000D02*
X39450000Y56110000D01*
D56*
X27182000Y2490000D02*
X26926540Y2490000D01*
X62092000Y16160000D02*
X61180000Y16160000D01*
D53*
X32612000Y48090000D02*
X32612000Y49690000D01*
D56*
X76692000Y13410000D02*
X76692000Y9210000D01*
D54*
X55800000Y56240000D02*
X55800000Y58851775D01*
D56*
X62092000Y6560000D02*
X61170000Y6560000D01*
X76692000Y16160000D02*
X76692000Y13410000D01*
D53*
X24502000Y61330000D02*
X24502000Y62930000D01*
D54*
X39450000Y56110000D02*
X39450000Y58788828D01*
X55800000Y58851775D02*
X56972000Y60023775D01*
D53*
X48852000Y74580000D02*
X48852000Y76180000D01*
X49302000Y89870000D02*
X48852000Y89420000D01*
D56*
X21330000Y14510000D02*
X20530000Y14510000D01*
D53*
X32612000Y81190000D02*
X32612000Y82790000D01*
D56*
X28290000Y14510000D02*
X27500000Y14510000D01*
X66542000Y21238000D02*
X66530000Y21250000D01*
D53*
X65492000Y89800000D02*
X65092000Y89400000D01*
X65092000Y54710000D02*
X65092000Y56310000D01*
X65092000Y87800000D02*
X65092000Y89400000D01*
D54*
X47232000Y15557500D02*
X48237500Y15557500D01*
D53*
X24492000Y54730000D02*
X24492000Y56330000D01*
D56*
X20370000Y34550000D02*
X20370000Y35720000D01*
D53*
X40732000Y67960000D02*
X40732000Y69560000D01*
D54*
X44302600Y18602600D02*
X44220000Y18520000D01*
D53*
X42617000Y11375000D02*
X43972000Y10020000D01*
D56*
X61180000Y16160000D02*
X59430000Y17910000D01*
D53*
X41242000Y89930000D02*
X40732000Y89420000D01*
X65092000Y67940000D02*
X65092000Y69540000D01*
D56*
X34320000Y30070000D02*
X32670000Y30070000D01*
D57*
X33600000Y5510000D02*
X33210000Y5120000D01*
D53*
X48852000Y87820000D02*
X48852000Y89420000D01*
X56972000Y74570000D02*
X56972000Y76170000D01*
D54*
X39450000Y58788828D02*
X40732000Y60070828D01*
D56*
X77592000Y8310000D02*
X77592000Y6560000D01*
D54*
X47799400Y49132600D02*
X47799400Y56070000D01*
D53*
X65102000Y61310000D02*
X65102000Y62910000D01*
X32622000Y61320000D02*
X32622000Y62920000D01*
D56*
X31170000Y33920000D02*
X30080000Y33920000D01*
D57*
X33690000Y6330000D02*
X33600000Y6420000D01*
D53*
X32612000Y87810000D02*
X32612000Y89410000D01*
D56*
X22120000Y14510000D02*
X21330000Y14510000D01*
X66542000Y16660000D02*
X66542000Y21238000D01*
D53*
X66782000Y89800000D02*
X65492000Y89800000D01*
X34322000Y89910000D02*
X33112000Y89910000D01*
X24492000Y89420000D02*
X25002000Y89930000D01*
D54*
X40732000Y48080000D02*
X39450000Y49362000D01*
D53*
X83348590Y78155596D02*
X83348590Y78148590D01*
X32612000Y67950000D02*
X32612000Y69550000D01*
X33112000Y89910000D02*
X32612000Y89410000D01*
X56972000Y87810000D02*
X56972000Y89410000D01*
X65092000Y48080000D02*
X65092000Y49680000D01*
D54*
X56972000Y54700000D02*
X55800000Y55872000D01*
D53*
X40732000Y81200000D02*
X40732000Y82800000D01*
D56*
X27500000Y14510000D02*
X26705000Y14510000D01*
D53*
X32612000Y54720000D02*
X32612000Y56320000D01*
X27385000Y26740000D02*
X27385000Y29476464D01*
D56*
X33846901Y14533099D02*
X33505200Y14533099D01*
D54*
X48237500Y15557500D02*
X48250000Y15570000D01*
D56*
X18160000Y32140000D02*
X17880000Y31860000D01*
X33505200Y14533099D02*
X33505200Y16366900D01*
D53*
X28063000Y3611000D02*
X29901000Y3611000D01*
X24492000Y48100000D02*
X24492000Y49700000D01*
X51717000Y11840000D02*
X51717000Y11385000D01*
D57*
X36082000Y6330000D02*
X33690000Y6330000D01*
D56*
X20400000Y30236400D02*
X20476400Y30160000D01*
D54*
X30820000Y2730000D02*
X33210000Y5120000D01*
X48852000Y59860774D02*
X48852000Y61320000D01*
D57*
X33600000Y6420000D02*
X33600000Y5510000D01*
D56*
X22920000Y14510000D02*
X22120000Y14510000D01*
D53*
X56972000Y81190000D02*
X56972000Y82790000D01*
D54*
X55800000Y55872000D02*
X55800000Y56240000D01*
X43700000Y22330000D02*
X43889705Y22330000D01*
D56*
X34620000Y12720000D02*
X34620000Y13760000D01*
X34620000Y13760000D02*
X33846901Y14533099D01*
D53*
X29901000Y3611000D02*
X30782000Y2730000D01*
D54*
X40732000Y60070828D02*
X40732000Y61320000D01*
D56*
X18875000Y32140000D02*
X18160000Y32140000D01*
X32670000Y30070000D02*
X31930000Y30070000D01*
D54*
X56972000Y60023775D02*
X56972000Y61320000D01*
D53*
X42492000Y89930000D02*
X41242000Y89930000D01*
D56*
X27740000Y13400000D02*
X30240000Y13400000D01*
X20400000Y31140000D02*
X20400000Y30236400D01*
X15800000Y24300000D02*
X15260000Y24840000D01*
D53*
X50512000Y89870000D02*
X49302000Y89870000D01*
X83348590Y78148590D02*
X82250000Y77050000D01*
D55*
X38017000Y9100000D02*
X39172000Y9100000D01*
D56*
X27500000Y14510000D02*
X27500000Y13640000D01*
D53*
X40732000Y74580000D02*
X40732000Y76180000D01*
D56*
X33588301Y16450001D02*
X34201500Y16450001D01*
D54*
X55800000Y49252000D02*
X55800000Y56240000D01*
D53*
X40742000Y61330000D02*
X40742000Y62930000D01*
D55*
X43972000Y10020000D02*
X43972000Y6770000D01*
D56*
X18100000Y31640000D02*
X17880000Y31860000D01*
X61170000Y6560000D02*
X59420000Y8310000D01*
D53*
X57452000Y89890000D02*
X56972000Y89410000D01*
D56*
X30782000Y2490000D02*
X30272100Y2999900D01*
X27500000Y13640000D02*
X27740000Y13400000D01*
X76692000Y9210000D02*
X77592000Y8310000D01*
D53*
X42617000Y11820000D02*
X42617000Y11375000D01*
X24492000Y67960000D02*
X24492000Y69560000D01*
X24492000Y81200000D02*
X24492000Y82800000D01*
X24492000Y87820000D02*
X24492000Y89420000D01*
D55*
X70060000Y23730000D02*
X70050000Y23740000D01*
D53*
X48862000Y61330000D02*
X48862000Y62930000D01*
D54*
X47799400Y58808174D02*
X48852000Y59860774D01*
D56*
X18875000Y31640000D02*
X18100000Y31640000D01*
D54*
X44302600Y21917105D02*
X44302600Y18602600D01*
D56*
X23705000Y14510000D02*
X22920000Y14510000D01*
D53*
X65092000Y74560000D02*
X65092000Y76160000D01*
D54*
X30782000Y2730000D02*
X30820000Y2730000D01*
D53*
X27385000Y29476464D02*
X27839268Y29930732D01*
D56*
%TO.N,+3.3V*%
X18875000Y32640000D02*
X18875000Y33450000D01*
X22947500Y20702500D02*
X23812500Y20702500D01*
D55*
X41430000Y18500000D02*
X42650000Y18500000D01*
X28320000Y25560000D02*
X28270000Y25610000D01*
D56*
X26185000Y19865000D02*
X26185000Y20985000D01*
X20530000Y16060000D02*
X20530000Y16065000D01*
X33922500Y24302500D02*
X34380000Y24760000D01*
D55*
X42448000Y20767500D02*
X42448000Y18742000D01*
X12413250Y36856750D02*
X2522000Y36856750D01*
D56*
X24185000Y19865000D02*
X24185000Y20945000D01*
D55*
X28290000Y21010000D02*
X28510000Y21230000D01*
X68750000Y18418000D02*
X68742000Y18410000D01*
D56*
X32830000Y12580000D02*
X32810000Y12560000D01*
D55*
X34340000Y24720000D02*
X34380000Y24760000D01*
X41618500Y22560000D02*
X41626000Y22567500D01*
X33440000Y24720000D02*
X34340000Y24720000D01*
X28660000Y24300000D02*
X28660000Y24820000D01*
D56*
X24185000Y20945000D02*
X24120000Y21010000D01*
X21040000Y32140000D02*
X20400000Y32140000D01*
D55*
X24110000Y25220000D02*
X24080000Y25190000D01*
D56*
X26185000Y25615000D02*
X26180000Y25610000D01*
X22947500Y24302500D02*
X24062500Y24302500D01*
D55*
X42448000Y18742000D02*
X42670000Y18520000D01*
X68750000Y21050000D02*
X68750000Y18418000D01*
X68742000Y14942000D02*
X68742000Y16660000D01*
X68190000Y14390000D02*
X68742000Y14942000D01*
X26210000Y21010000D02*
X28290000Y21010000D01*
D56*
X29822500Y20702500D02*
X29037500Y20702500D01*
D55*
X57220000Y16640000D02*
X59470000Y14390000D01*
X28660000Y25220000D02*
X28320000Y25560000D01*
D56*
X23785000Y18255000D02*
X22120000Y16590000D01*
D55*
X42650000Y18500000D02*
X42670000Y18520000D01*
D56*
X26185000Y26740000D02*
X26185000Y25615000D01*
D55*
X24500000Y25610000D02*
X24110000Y25220000D01*
D56*
X23785000Y19865000D02*
X23785000Y19320000D01*
X31404700Y13785300D02*
X31790000Y13400000D01*
X23785000Y19320000D02*
X23785000Y18255000D01*
X20530000Y16065000D02*
X23785000Y19320000D01*
X26185000Y16580000D02*
X26705000Y16060000D01*
D55*
X28660000Y24820000D02*
X28660000Y25220000D01*
D56*
X32830000Y13400000D02*
X33780000Y13400000D01*
X21070000Y33450000D02*
X21240000Y33280000D01*
X18062500Y24302500D02*
X18060000Y24300000D01*
X25794900Y19855100D02*
X25794900Y16970100D01*
D55*
X32520000Y8020000D02*
X33550000Y8020000D01*
D56*
X24185000Y18125000D02*
X22120000Y16060000D01*
D55*
X24080000Y25180000D02*
X24120000Y23490000D01*
X13290000Y35980000D02*
X12413250Y36856750D01*
X17580000Y33310000D02*
X18820000Y34550000D01*
X24120000Y21010000D02*
X26210000Y21010000D01*
D56*
X21240000Y32340000D02*
X21040000Y32140000D01*
D55*
X28510000Y21230000D02*
X28620000Y21340000D01*
X68750000Y22360000D02*
X68510000Y22600000D01*
D56*
X29822500Y24302500D02*
X33922500Y24302500D01*
X24185000Y19865000D02*
X24185000Y18125000D01*
D55*
X43290000Y16640000D02*
X41430000Y18500000D01*
X68750000Y21050000D02*
X68750000Y22360000D01*
D56*
X23812500Y20702500D02*
X24120000Y21010000D01*
X18875000Y33450000D02*
X18875000Y34495000D01*
D55*
X23140000Y32450000D02*
X23130000Y32440000D01*
X33780000Y8150000D02*
X33600000Y7970000D01*
D56*
X26185000Y19865000D02*
X26185000Y16580000D01*
D55*
X35742000Y8150000D02*
X33780000Y8150000D01*
D56*
X18875000Y34495000D02*
X18820000Y34550000D01*
D55*
X40380000Y22560000D02*
X41618500Y22560000D01*
X13290000Y33200000D02*
X13290000Y35980000D01*
D56*
X26185000Y20985000D02*
X26210000Y21010000D01*
X18875000Y33450000D02*
X21070000Y33450000D01*
D55*
X57220000Y16640000D02*
X43290000Y16640000D01*
D56*
X31790000Y13400000D02*
X32830000Y13400000D01*
D55*
X68742000Y18410000D02*
X68742000Y17305200D01*
X23991100Y32450000D02*
X23140000Y32450000D01*
D56*
X23785000Y20675000D02*
X24120000Y21010000D01*
X22120000Y16590000D02*
X22120000Y16060000D01*
X29037500Y20702500D02*
X28510000Y21230000D01*
D55*
X59470000Y14390000D02*
X68190000Y14390000D01*
X33550000Y8020000D02*
X33600000Y7970000D01*
D56*
X28662500Y24302500D02*
X28660000Y24300000D01*
X25794900Y16970100D02*
X26185000Y16580000D01*
D55*
X28270000Y25610000D02*
X26180000Y25610000D01*
X25540000Y25610000D02*
X24500000Y25610000D01*
D56*
X32830000Y13400000D02*
X32830000Y12580000D01*
D55*
X26180000Y25610000D02*
X25540000Y25610000D01*
D56*
X25785000Y19865000D02*
X25794900Y19855100D01*
X22947500Y24302500D02*
X18062500Y24302500D01*
X31404700Y14949999D02*
X31404700Y13785300D01*
X21240000Y33280000D02*
X21240000Y32340000D01*
D55*
X17580000Y33210000D02*
X17580000Y33310000D01*
X28660000Y21380000D02*
X28660000Y24300000D01*
D56*
X23785000Y19865000D02*
X23785000Y20675000D01*
X29822500Y24302500D02*
X28662500Y24302500D01*
D55*
X28620000Y21340000D02*
X28660000Y21380000D01*
D56*
%TO.N,Net-(U2-VREG_VOUT)*%
X25785000Y26740000D02*
X25785000Y28080000D01*
X25785000Y28080000D02*
X25800000Y28095000D01*
X24210000Y17220000D02*
X23830000Y17220000D01*
X25800000Y30092832D02*
X26933584Y31226416D01*
X24585000Y17989296D02*
X23822852Y17227148D01*
X25800000Y28810000D02*
X25800000Y30092832D01*
X25800000Y28095000D02*
X25800000Y28810000D01*
X25800000Y28810000D02*
X25800000Y30840000D01*
X26585000Y17765000D02*
X27125000Y17225000D01*
X24585000Y19865000D02*
X24585000Y17989296D01*
X23830000Y17220000D02*
X23822852Y17227148D01*
X26585000Y19865000D02*
X26585000Y17765000D01*
X27125000Y17225000D02*
X28290000Y16060000D01*
X23822852Y17227148D02*
X23705000Y17109296D01*
X23705000Y17109296D02*
X23705000Y16060000D01*
D58*
%TO.N,VBUS*%
X40440000Y3990000D02*
X45280000Y3990000D01*
X40380000Y4010000D02*
X40420000Y3970000D01*
D55*
X44772000Y6770000D02*
X44918600Y6623400D01*
X47430000Y3990000D02*
X45280000Y3990000D01*
D58*
X40380000Y7237500D02*
X40380000Y4010000D01*
D55*
X49425400Y5985400D02*
X47430000Y3990000D01*
X44918600Y6015472D02*
X45280000Y5654072D01*
X45280000Y5654072D02*
X45280000Y3990000D01*
X44918600Y6623400D02*
X44918600Y6015472D01*
D58*
X40420000Y3970000D02*
X40440000Y3990000D01*
D55*
X49425400Y6623400D02*
X49425400Y5985400D01*
X49572000Y6770000D02*
X49425400Y6623400D01*
D58*
X10690000Y72560000D02*
X7750000Y72560000D01*
D56*
%TO.N,XTAL_IN*%
X36020000Y30680000D02*
X35540000Y31160000D01*
X32860000Y31160000D02*
X32560000Y30860000D01*
X32560000Y30860000D02*
X31170000Y30860000D01*
X27935704Y30860000D02*
X31170000Y30860000D01*
X35540000Y31160000D02*
X32860000Y31160000D01*
X36020000Y30070000D02*
X36020000Y30680000D01*
X26985000Y29909296D02*
X27935704Y30860000D01*
X26985000Y26740000D02*
X26985000Y29909296D01*
%TO.N,Net-(C13-Pad2)*%
X34320000Y32270000D02*
X31270000Y32270000D01*
X31270000Y32270000D02*
X31170000Y32370000D01*
X29270000Y32370000D02*
X31170000Y32370000D01*
D58*
%TO.N,Net-(D1-K)*%
X16540000Y13192500D02*
X19872000Y9860500D01*
X19872000Y9860500D02*
X19872000Y5700000D01*
%TO.N,Net-(D1-A)*%
X13412500Y15992500D02*
X13400000Y15980000D01*
X16540000Y15992500D02*
X13412500Y15992500D01*
D56*
%TO.N,Net-(D2-DIN)*%
X65092000Y34082000D02*
X65092000Y44780000D01*
X62940000Y31930000D02*
X65092000Y34082000D01*
X41770000Y31930000D02*
X62940000Y31930000D01*
D53*
%TO.N,Net-(D2-DOUT)*%
X68412000Y48080000D02*
X65092000Y51400000D01*
X69992000Y48080000D02*
X68412000Y48080000D01*
%TO.N,Net-(D3-DOUT)*%
X69992000Y54700000D02*
X68412000Y54700000D01*
X68412000Y54700000D02*
X65092000Y58020000D01*
%TO.N,Net-(D4-DOUT)*%
X69992000Y61320000D02*
X68412000Y61320000D01*
X68412000Y61320000D02*
X65092000Y64640000D01*
%TO.N,Net-(D5-DOUT)*%
X68412000Y67940000D02*
X65092000Y71260000D01*
X69992000Y67940000D02*
X68412000Y67940000D01*
%TO.N,Net-(D6-DOUT)*%
X69992000Y74560000D02*
X68412000Y74560000D01*
X68412000Y74560000D02*
X65092000Y77880000D01*
%TO.N,Net-(D7-DOUT)*%
X68412000Y81180000D02*
X65092000Y84500000D01*
X69992000Y81180000D02*
X68412000Y81180000D01*
D54*
%TO.N,Net-(D8-DOUT)*%
X63731600Y44419600D02*
X63731600Y85309600D01*
X58402000Y43350000D02*
X62662000Y43350000D01*
X63731600Y85309600D02*
X64742000Y86320000D01*
X62662000Y43350000D02*
X63731600Y44419600D01*
X67522000Y87800000D02*
X69992000Y87800000D01*
X64742000Y86320000D02*
X66042000Y86320000D01*
X56972000Y44780000D02*
X58402000Y43350000D01*
X66042000Y86320000D02*
X67522000Y87800000D01*
D53*
%TO.N,Net-(D10-DIN)*%
X61872000Y48090000D02*
X60292000Y48090000D01*
X60292000Y48090000D02*
X56972000Y51410000D01*
%TO.N,Net-(D10-DOUT)*%
X61872000Y54710000D02*
X60292000Y54710000D01*
X60292000Y54710000D02*
X56972000Y58030000D01*
%TO.N,Net-(D11-DOUT)*%
X60292000Y61330000D02*
X56972000Y64650000D01*
X61872000Y61330000D02*
X60292000Y61330000D01*
%TO.N,Net-(D12-DOUT)*%
X60292000Y67950000D02*
X56972000Y71270000D01*
X61872000Y67950000D02*
X60292000Y67950000D01*
%TO.N,Net-(D13-DOUT)*%
X61872000Y74570000D02*
X60292000Y74570000D01*
X60292000Y74570000D02*
X56972000Y77890000D01*
%TO.N,Net-(D14-DOUT)*%
X60292000Y81190000D02*
X56972000Y84510000D01*
X61872000Y81190000D02*
X60292000Y81190000D01*
D54*
%TO.N,Net-(D15-DOUT)*%
X54557000Y43345000D02*
X55259600Y44047600D01*
X55259600Y44047600D02*
X55259600Y58883000D01*
X55626600Y85304600D02*
X56637000Y86315000D01*
X59417000Y87795000D02*
X61887000Y87795000D01*
X50297000Y43345000D02*
X54557000Y43345000D01*
X55626600Y59250000D02*
X55626600Y85304600D01*
X56637000Y86315000D02*
X57937000Y86315000D01*
X55259600Y58883000D02*
X55626600Y59250000D01*
X57937000Y86315000D02*
X59417000Y87795000D01*
X48867000Y44775000D02*
X50297000Y43345000D01*
D53*
%TO.N,Net-(D16-DOUT)*%
X53752000Y48100000D02*
X52172000Y48100000D01*
X52172000Y48100000D02*
X48852000Y51420000D01*
%TO.N,Net-(D17-DOUT)*%
X53752000Y54720000D02*
X52172000Y54720000D01*
X52172000Y54720000D02*
X48852000Y58040000D01*
%TO.N,Net-(D18-DOUT)*%
X52172000Y61340000D02*
X48852000Y64660000D01*
X53752000Y61340000D02*
X52172000Y61340000D01*
%TO.N,Net-(D19-DOUT)*%
X52172000Y67960000D02*
X48852000Y71280000D01*
X53752000Y67960000D02*
X52172000Y67960000D01*
%TO.N,Net-(D20-DOUT)*%
X53752000Y74580000D02*
X52172000Y74580000D01*
X52172000Y74580000D02*
X48852000Y77900000D01*
%TO.N,Net-(D21-DOUT)*%
X53752000Y81200000D02*
X52172000Y81200000D01*
X52172000Y81200000D02*
X48852000Y84520000D01*
D54*
%TO.N,Net-(D22-DOUT)*%
X46427000Y43315000D02*
X47139600Y44027600D01*
X48507000Y86285000D02*
X49807000Y86285000D01*
X42167000Y43315000D02*
X46427000Y43315000D01*
X49807000Y86285000D02*
X51287000Y87765000D01*
X40737000Y44745000D02*
X42167000Y43315000D01*
X47496600Y59077000D02*
X47496600Y85274600D01*
X47496600Y85274600D02*
X48507000Y86285000D01*
X47139600Y58720000D02*
X47496600Y59077000D01*
X47139600Y44027600D02*
X47139600Y58720000D01*
X51287000Y87765000D02*
X53757000Y87765000D01*
D53*
%TO.N,Net-(D23-DOUT)*%
X44052000Y48100000D02*
X40732000Y51420000D01*
X45632000Y48100000D02*
X44052000Y48100000D01*
%TO.N,Net-(D24-DOUT)*%
X45632000Y54720000D02*
X44052000Y54720000D01*
X44052000Y54720000D02*
X40732000Y58040000D01*
%TO.N,Net-(D25-DOUT)*%
X44052000Y61340000D02*
X40732000Y64660000D01*
X45632000Y61340000D02*
X44052000Y61340000D01*
%TO.N,Net-(D26-DOUT)*%
X44052000Y67960000D02*
X40732000Y71280000D01*
X45632000Y67960000D02*
X44052000Y67960000D01*
%TO.N,Net-(D27-DOUT)*%
X45632000Y74580000D02*
X44052000Y74580000D01*
X44052000Y74580000D02*
X40732000Y77900000D01*
%TO.N,Net-(D28-DOUT)*%
X45632000Y81200000D02*
X44052000Y81200000D01*
X44052000Y81200000D02*
X40732000Y84520000D01*
D54*
%TO.N,Net-(D29-DOUT)*%
X40407000Y86315000D02*
X41707000Y86315000D01*
X41707000Y86315000D02*
X43187000Y87795000D01*
X43187000Y87795000D02*
X45657000Y87795000D01*
X39019600Y44037600D02*
X39019600Y58930054D01*
X34067000Y43345000D02*
X38327000Y43345000D01*
X32637000Y44775000D02*
X34067000Y43345000D01*
X39396600Y85304600D02*
X40407000Y86315000D01*
X38327000Y43345000D02*
X39019600Y44037600D01*
X39396600Y59307054D02*
X39396600Y85304600D01*
X39019600Y58930054D02*
X39396600Y59307054D01*
D53*
%TO.N,Net-(D30-DOUT)*%
X37512000Y48090000D02*
X35932000Y48090000D01*
X35932000Y48090000D02*
X32612000Y51410000D01*
%TO.N,Net-(D31-DOUT)*%
X35932000Y54710000D02*
X32612000Y58030000D01*
X37512000Y54710000D02*
X35932000Y54710000D01*
%TO.N,Net-(D32-DOUT)*%
X37512000Y61330000D02*
X35932000Y61330000D01*
X35932000Y61330000D02*
X32612000Y64650000D01*
%TO.N,Net-(D33-DOUT)*%
X37512000Y67950000D02*
X35932000Y67950000D01*
X35932000Y67950000D02*
X32612000Y71270000D01*
%TO.N,Net-(D34-DOUT)*%
X37512000Y74570000D02*
X35932000Y74570000D01*
X35932000Y74570000D02*
X32612000Y77890000D01*
%TO.N,Net-(D35-DOUT)*%
X37512000Y81190000D02*
X35932000Y81190000D01*
X35932000Y81190000D02*
X32612000Y84510000D01*
D54*
%TO.N,Net-(D36-DOUT)*%
X35057000Y87775000D02*
X37527000Y87775000D01*
X30197000Y43325000D02*
X31266600Y44394600D01*
X33577000Y86295000D02*
X35057000Y87775000D01*
X31266600Y85284600D02*
X32277000Y86295000D01*
X24507000Y44755000D02*
X25937000Y43325000D01*
X25937000Y43325000D02*
X30197000Y43325000D01*
X32277000Y86295000D02*
X33577000Y86295000D01*
X31266600Y44394600D02*
X31266600Y85284600D01*
D53*
%TO.N,Net-(D37-DOUT)*%
X29392000Y48100000D02*
X27812000Y48100000D01*
X27812000Y48100000D02*
X24492000Y51420000D01*
%TO.N,Net-(D38-DOUT)*%
X27812000Y54720000D02*
X24492000Y58040000D01*
X29392000Y54720000D02*
X27812000Y54720000D01*
%TO.N,Net-(D39-DOUT)*%
X29392000Y61340000D02*
X27812000Y61340000D01*
X27812000Y61340000D02*
X24492000Y64660000D01*
%TO.N,Net-(D40-DOUT)*%
X27812000Y67960000D02*
X24492000Y71280000D01*
X29392000Y67960000D02*
X27812000Y67960000D01*
%TO.N,Net-(D41-DOUT)*%
X27812000Y74580000D02*
X24492000Y77900000D01*
X29392000Y74580000D02*
X27812000Y74580000D01*
%TO.N,Net-(D42-DOUT)*%
X29392000Y81200000D02*
X27812000Y81200000D01*
X27812000Y81200000D02*
X24492000Y84520000D01*
D56*
%TO.N,SPI0_MISO*%
X64710000Y24630000D02*
X41200000Y24630000D01*
X41200000Y24630000D02*
X39272500Y22702500D01*
X39272500Y22702500D02*
X29822500Y22702500D01*
X65442000Y23898000D02*
X64710000Y24630000D01*
X65442000Y16660000D02*
X65442000Y23898000D01*
%TO.N,SPI0_MOSI*%
X69842000Y21018000D02*
X69780000Y21080000D01*
X29822500Y23902500D02*
X38865388Y23902500D01*
X42980000Y25820000D02*
X66180000Y25820000D01*
X38865388Y23902500D02*
X40782888Y25820000D01*
X40782888Y25820000D02*
X42980000Y25820000D01*
X66180000Y25820000D02*
X66530000Y26170000D01*
X69842000Y16660000D02*
X69842000Y21018000D01*
X66530000Y26170000D02*
X66530000Y26190000D01*
%TO.N,SD_CS*%
X70942000Y23918000D02*
X69830000Y25030000D01*
X70942000Y16660000D02*
X70942000Y23918000D01*
X41064296Y25030000D02*
X39136796Y23102500D01*
X69830000Y25030000D02*
X41064296Y25030000D01*
X39136796Y23102500D02*
X29822500Y23102500D01*
%TO.N,SPI0_SCK*%
X39834296Y24335704D02*
X40918592Y25420000D01*
X67642000Y16660000D02*
X67642000Y24258000D01*
X39001092Y23502500D02*
X39834296Y24335704D01*
X42400000Y25420000D02*
X67140000Y25420000D01*
X40918592Y25420000D02*
X42400000Y25420000D01*
X67642000Y24258000D02*
X67610000Y24290000D01*
X67140000Y25420000D02*
X67610000Y25890000D01*
X29822500Y23502500D02*
X39001092Y23502500D01*
D54*
%TO.N,Net-(J2-CC2)*%
X48922000Y10770000D02*
X49992000Y11840000D01*
D53*
X48922000Y6770000D02*
X48922000Y10770000D01*
D54*
X49992000Y11840000D02*
X50382000Y11840000D01*
%TO.N,Net-(J2-CC1)*%
X43952000Y11820000D02*
X44582000Y11820000D01*
D53*
X45922000Y7520000D02*
X45872000Y7570000D01*
X45922000Y6770000D02*
X45922000Y7520000D01*
D54*
X44582000Y11820000D02*
X45872000Y10530000D01*
D53*
X45872000Y7570000D02*
X45872000Y10530000D01*
D56*
%TO.N,SS*%
X28985000Y19865000D02*
X28985000Y19257816D01*
X29780000Y8010000D02*
X29780000Y7002000D01*
X28985000Y19257816D02*
X30485216Y17757600D01*
X35907600Y15247600D02*
X35907600Y13902400D01*
X35907600Y15247600D02*
X35609999Y14949999D01*
X35430000Y13420000D02*
X35430000Y13400000D01*
X36480000Y13400000D02*
X36490000Y13390000D01*
X35213808Y17757600D02*
X35907600Y17063808D01*
X35430000Y13400000D02*
X36480000Y13400000D01*
X30485216Y17757600D02*
X35213808Y17757600D01*
X35910000Y13900000D02*
X35430000Y13420000D01*
X29780000Y7002000D02*
X29792000Y6990000D01*
X35609999Y14949999D02*
X34201500Y14949999D01*
X35907600Y13902400D02*
X35910000Y13900000D01*
X35907600Y17063808D02*
X35907600Y15247600D01*
D53*
%TO.N,Net-(R1-Pad1)*%
X27182000Y1290000D02*
X27702000Y1810000D01*
X26482000Y1290000D02*
X27182000Y1290000D01*
X30262000Y1810000D02*
X30782000Y1290000D01*
X27702000Y1810000D02*
X30262000Y1810000D01*
X28457000Y6990000D02*
X26922000Y6990000D01*
X26162100Y1609900D02*
X26482000Y1290000D01*
X26922000Y6990000D02*
X26162100Y6230100D01*
X26162100Y6230100D02*
X26162100Y1609900D01*
D56*
%TO.N,Net-(U2-RUN)*%
X23130000Y29860000D02*
X23130000Y30790000D01*
X24585000Y26740000D02*
X24585000Y28405000D01*
X24585000Y28405000D02*
X23130000Y29860000D01*
%TO.N,GPIO24*%
X20112500Y23102500D02*
X22947500Y23102500D01*
X6422852Y25447148D02*
X6422852Y23772852D01*
X5173250Y26696750D02*
X6422852Y25447148D01*
X6422852Y23772852D02*
X7425704Y22770000D01*
X7425704Y22770000D02*
X19780000Y22770000D01*
X2522000Y26696750D02*
X5173250Y26696750D01*
X19780000Y22770000D02*
X20112500Y23102500D01*
%TO.N,RGB*%
X41770000Y30084128D02*
X41770000Y30280000D01*
X28585000Y26740000D02*
X28585000Y27265000D01*
X39275872Y27590000D02*
X41770000Y30084128D01*
X28585000Y27265000D02*
X28910000Y27590000D01*
X28910000Y27590000D02*
X39275872Y27590000D01*
%TO.N,GPIO28*%
X5326750Y16536750D02*
X2522000Y16536750D01*
X20655316Y21502500D02*
X20382816Y21230000D01*
X6407852Y20252148D02*
X6407852Y17617852D01*
X22947500Y21502500D02*
X20655316Y21502500D01*
X7385704Y21230000D02*
X6407852Y20252148D01*
X6407852Y17617852D02*
X5326750Y16536750D01*
X20382816Y21230000D02*
X7385704Y21230000D01*
%TO.N,GPIO27*%
X20238312Y21621200D02*
X7241200Y21621200D01*
X5730000Y20110000D02*
X5730000Y20106750D01*
X5730000Y20106750D02*
X4700000Y19076750D01*
X20519612Y21902500D02*
X20238312Y21621200D01*
X7241200Y21621200D02*
X5730000Y20110000D01*
X4700000Y19076750D02*
X2522000Y19076750D01*
X22947500Y21902500D02*
X20519612Y21902500D01*
%TO.N,DS2*%
X34940000Y15950000D02*
X34201500Y15950000D01*
X28185000Y19865000D02*
X28185000Y18986408D01*
X30171408Y17000000D02*
X34900000Y17000000D01*
X28185000Y18986408D02*
X30171408Y17000000D01*
X34900000Y17000000D02*
X35150000Y16750000D01*
X35150000Y16750000D02*
X35150000Y16160000D01*
X35150000Y16160000D02*
X34940000Y15950000D01*
%TO.N,GPIO26*%
X20081408Y22000000D02*
X2905250Y22000000D01*
X20383908Y22302500D02*
X20081408Y22000000D01*
X22947500Y22302500D02*
X20383908Y22302500D01*
X2905250Y22000000D02*
X2522000Y21616750D01*
D58*
%TO.N,Net-(J3-Pin_1)*%
X2665250Y72560000D02*
X2522000Y72416750D01*
X6450000Y72560000D02*
X2665250Y72560000D01*
D56*
%TO.N,GPIO25*%
X19936904Y22391200D02*
X7268800Y22391200D01*
X7268800Y22391200D02*
X5503250Y24156750D01*
X5503250Y24156750D02*
X2522000Y24156750D01*
X22947500Y22702500D02*
X20248204Y22702500D01*
X20248204Y22702500D02*
X19936904Y22391200D01*
%TO.N,DS0*%
X30185703Y16450001D02*
X31404700Y16450001D01*
X27785000Y18850704D02*
X30185703Y16450001D01*
X27785000Y19865000D02*
X27785000Y18850704D01*
%TO.N,SWCLK*%
X25385000Y26740000D02*
X25385000Y29275000D01*
X24580000Y34230000D02*
X24590000Y34240000D01*
X25385000Y29275000D02*
X24610000Y30050000D01*
X24610000Y30050000D02*
X24580000Y30050000D01*
X24580000Y30050000D02*
X24580000Y34230000D01*
X2522000Y34316750D02*
X12630000Y34316750D01*
%TO.N,GPIO20*%
X16050000Y29670000D02*
X16050000Y65940000D01*
X14653250Y67336750D02*
X2522000Y67336750D01*
X22947500Y25102500D02*
X20617500Y25102500D01*
X16050000Y65940000D02*
X14653250Y67336750D01*
X20617500Y25102500D02*
X16050000Y29670000D01*
%TO.N,SWD*%
X2522000Y29236750D02*
X13290000Y29236750D01*
X24985000Y28837832D02*
X24556416Y29266416D01*
X24985000Y26740000D02*
X24985000Y28837832D01*
%TO.N,Net-(D44-K-Pad1)*%
X46119500Y13445000D02*
X46282000Y13282500D01*
D54*
X46282000Y13282500D02*
X46299500Y13265000D01*
X46299500Y10292500D02*
X46402000Y10190000D01*
D53*
X46422000Y10170000D02*
X46402000Y10190000D01*
D54*
X47072000Y10190000D02*
X47422000Y9840000D01*
D56*
X44267000Y13445000D02*
X46119500Y13445000D01*
D53*
X46422000Y6770000D02*
X46422000Y10170000D01*
D54*
X46299500Y13265000D02*
X46299500Y10292500D01*
X46402000Y10190000D02*
X47072000Y10190000D01*
D53*
X47422000Y6770000D02*
X47422000Y9840000D01*
D56*
%TO.N,SDA*%
X24185000Y26740000D02*
X24185000Y28197300D01*
X17220000Y40960000D02*
X17220000Y70745704D01*
X17220000Y70745704D02*
X12450000Y75515704D01*
X21636150Y30746150D02*
X20742300Y31640000D01*
X24185000Y28197300D02*
X21636150Y30746150D01*
X21636150Y36543850D02*
X17220000Y40960000D01*
X12450000Y80620000D02*
X11190000Y81880000D01*
X20742300Y31640000D02*
X20400000Y31640000D01*
X12450000Y75515704D02*
X12450000Y80620000D01*
X21636150Y30746150D02*
X21636150Y36543850D01*
%TO.N,CLK*%
X27385000Y18710118D02*
X30145118Y15950000D01*
X27385000Y18710118D02*
X27385000Y19865000D01*
X30145118Y15950000D02*
X31404700Y15950000D01*
%TO.N,GPIO21*%
X14850000Y26680000D02*
X15890000Y25640000D01*
X18880000Y25640000D02*
X19817500Y24702500D01*
X2522000Y57176750D02*
X12820000Y57176750D01*
X15890000Y25640000D02*
X18880000Y25640000D01*
X19817500Y24702500D02*
X22947500Y24702500D01*
X14850000Y57180000D02*
X14850000Y26680000D01*
%TO.N,I2S_DOUT*%
X41626000Y21667500D02*
X35252500Y21667500D01*
X34617500Y22302500D02*
X29822500Y22302500D01*
X35252500Y21667500D02*
X34617500Y22302500D01*
%TO.N,DS3*%
X30109414Y15450000D02*
X31404700Y15450000D01*
X26985000Y18574414D02*
X30109414Y15450000D01*
X26985000Y19865000D02*
X26985000Y18574414D01*
%TO.N,I2S_LRCLK*%
X33090200Y20540000D02*
X38214296Y20540000D01*
X32127700Y21502500D02*
X33090200Y20540000D01*
X38441796Y20767500D02*
X41626000Y20767500D01*
X38214296Y20540000D02*
X38441796Y20767500D01*
X29822500Y21502500D02*
X32127700Y21502500D01*
%TO.N,I2S_BCLK*%
X42430000Y22585500D02*
X42448000Y22567500D01*
X39758800Y20161200D02*
X40200000Y19720000D01*
X29822500Y21102500D02*
X31991996Y21102500D01*
X32933296Y20161200D02*
X39758800Y20161200D01*
X31991996Y21102500D02*
X32933296Y20161200D01*
X42430000Y23990000D02*
X42430000Y22585500D01*
D53*
%TO.N,USB_N*%
X24985000Y16572300D02*
X24952700Y16540000D01*
X41628397Y13445000D02*
X39658397Y11475000D01*
X24985000Y19865000D02*
X24985000Y16572300D01*
X39658397Y11475000D02*
X25806802Y11475000D01*
X25806802Y11475000D02*
X24952700Y12329102D01*
X42617000Y13445000D02*
X41628397Y13445000D01*
X24952700Y16540000D02*
X24952700Y12329102D01*
%TO.N,USB_P*%
X42617000Y15070000D02*
X39472000Y11925000D01*
X25385000Y19865000D02*
X25385000Y16557700D01*
X25993198Y11925000D02*
X25402700Y12515498D01*
X39472000Y11925000D02*
X25993198Y11925000D01*
X25385000Y16557700D02*
X25402700Y16540000D01*
X25402700Y16540000D02*
X25402700Y12515498D01*
D56*
%TO.N,DS1*%
X35056904Y17378800D02*
X35528800Y16906904D01*
X28585000Y19122112D02*
X30328312Y17378800D01*
X35220000Y15450000D02*
X34201500Y15450000D01*
X28585000Y19865000D02*
X28585000Y19122112D01*
X35528800Y16906904D02*
X35528800Y15758800D01*
X35528800Y15758800D02*
X35220000Y15450000D01*
X30328312Y17378800D02*
X35056904Y17378800D01*
%TO.N,SCL*%
X20740000Y28090000D02*
X18705704Y28090000D01*
X16813800Y70616200D02*
X11190000Y76240000D01*
X18705704Y28090000D02*
X16813800Y29981904D01*
X23785000Y27485000D02*
X23180000Y28090000D01*
X20740000Y28090000D02*
X19887500Y28942500D01*
X23785000Y26740000D02*
X23785000Y27485000D01*
X19887500Y28942500D02*
X19887500Y31127500D01*
X11190000Y76240000D02*
X11190000Y79340000D01*
X16813800Y29981904D02*
X16813800Y70616200D01*
X23180000Y28090000D02*
X20740000Y28090000D01*
%TO.N,XTAL_OUT*%
X26585000Y26740000D02*
X26585000Y30045000D01*
X27620000Y31080000D02*
X27620000Y32370000D01*
X26585000Y30045000D02*
X27620000Y31080000D01*
D53*
%TO.N,DPAD_A*%
X90652000Y79908000D02*
X89412031Y81147969D01*
D56*
X88036200Y27790000D02*
X90651000Y30404800D01*
D53*
X89412031Y81147969D02*
X89412031Y82203783D01*
D56*
X39754380Y26430000D02*
X41114380Y27790000D01*
X32141098Y25502500D02*
X33068598Y26430000D01*
D53*
X90652000Y38700000D02*
X90652000Y79908000D01*
D56*
X90651000Y30404800D02*
X90651000Y39280000D01*
X33068598Y26430000D02*
X39754380Y26430000D01*
X41114380Y27790000D02*
X88036200Y27790000D01*
X29822500Y25502500D02*
X32141098Y25502500D01*
D53*
%TO.N,DPAD_B*%
X89850000Y73250000D02*
X85340000Y77760000D01*
D56*
X89850000Y30738000D02*
X89850000Y68170000D01*
D53*
X89850000Y68170000D02*
X89850000Y73250000D01*
D56*
X29454800Y27209800D02*
X39431376Y27209800D01*
X28985000Y26740000D02*
X29454800Y27209800D01*
D53*
X85340000Y77760000D02*
X84968248Y77760000D01*
D56*
X39431376Y27209800D02*
X40791576Y28570000D01*
X87682000Y28570000D02*
X89850000Y30738000D01*
D53*
X84968248Y77760000D02*
X84356217Y77147969D01*
D56*
X40791576Y28570000D02*
X87682000Y28570000D01*
%TO.N,Net-(D44-K-Pad2)*%
X47922000Y6101876D02*
X47922000Y6770000D01*
D54*
X48182000Y13282500D02*
X48199500Y13265000D01*
D56*
X46922000Y6101876D02*
X47193776Y5830100D01*
X48182000Y14180000D02*
X47952000Y14410000D01*
X48182000Y13282500D02*
X48182000Y14180000D01*
X44267000Y15070000D02*
X44267000Y15055000D01*
X46922000Y6770000D02*
X46922000Y6101876D01*
D53*
X47922000Y6770000D02*
X47922000Y10210000D01*
D56*
X44267000Y15055000D02*
X44912000Y14410000D01*
D53*
X47922000Y6836176D02*
X47922000Y6770000D01*
D54*
X48199500Y13265000D02*
X48199500Y10487500D01*
D56*
X47650224Y5830100D02*
X47922000Y6101876D01*
X47193776Y5830100D02*
X47650224Y5830100D01*
D54*
X48199500Y10487500D02*
X47922000Y10210000D01*
D56*
X44912000Y14410000D02*
X47952000Y14410000D01*
%TO.N,DPAD_C*%
X89860000Y84520000D02*
X87697740Y84520000D01*
X91453000Y82927000D02*
X89860000Y84520000D01*
X33420000Y25650000D02*
X40077184Y25650000D01*
X88380400Y27000000D02*
X91453000Y30072600D01*
X41427184Y27000000D02*
X88380400Y27000000D01*
X40077184Y25650000D02*
X41427184Y27000000D01*
X87697740Y84520000D02*
X87396777Y84219037D01*
X29822500Y24702500D02*
X32472500Y24702500D01*
X32472500Y24702500D02*
X33420000Y25650000D01*
X91453000Y30072600D02*
X91453000Y82927000D01*
D53*
%TO.N,DPAD_CTR*%
X89864300Y29051000D02*
X91052000Y30238700D01*
X91052000Y82778000D02*
X90220000Y83610000D01*
X39915682Y26039900D02*
X41265682Y27389900D01*
X33229900Y26039900D02*
X39915682Y26039900D01*
X41265682Y27389900D02*
X88199900Y27389900D01*
X89861000Y29051000D02*
X89864300Y29051000D01*
X29822500Y25102500D02*
X32292500Y25102500D01*
X88802994Y83610000D02*
X88404404Y83211410D01*
X88199900Y27389900D02*
X89861000Y29051000D01*
X90220000Y83610000D02*
X88802994Y83610000D01*
X32292500Y25102500D02*
X33229900Y26039900D01*
X91052000Y30238700D02*
X91052000Y82778000D01*
%TO.N,DPAD_D*%
X31982500Y25902500D02*
X32899900Y26819900D01*
X40952878Y28179900D02*
X87859900Y28179900D01*
X89532100Y29852100D02*
X89532100Y29853000D01*
X83177740Y80000000D02*
X82340963Y79163223D01*
X39592878Y26819900D02*
X40952878Y28179900D01*
X29822500Y25902500D02*
X31982500Y25902500D01*
X90251000Y73499000D02*
X83750000Y80000000D01*
X89532100Y29853000D02*
X90251000Y30571900D01*
X90251000Y30571900D02*
X90251000Y73499000D01*
X83750000Y80000000D02*
X83177740Y80000000D01*
X32899900Y26819900D02*
X39592878Y26819900D01*
X87859900Y28179900D02*
X89532100Y29852100D01*
D56*
%TO.N,GPIO19*%
X16435000Y29825000D02*
X16435000Y68385000D01*
X14943250Y69876750D02*
X2522000Y69876750D01*
X22947500Y25502500D02*
X20757500Y25502500D01*
X16435000Y68385000D02*
X14943250Y69876750D01*
X20757500Y25502500D02*
X16435000Y29825000D01*
%TO.N,GPIO18*%
X21190332Y25902500D02*
X20271416Y26821416D01*
X15671200Y64095550D02*
X14970000Y64796750D01*
X22947500Y25902500D02*
X21557500Y25902500D01*
X15820000Y26830000D02*
X15671200Y26978800D01*
X2522000Y64796750D02*
X14970000Y64796750D01*
X21557500Y25902500D02*
X21190332Y25902500D01*
X15671200Y26978800D02*
X15671200Y64095550D01*
%TO.N,GPIO22*%
X15300000Y23530000D02*
X14258800Y24571200D01*
X14258800Y61447950D02*
X13450000Y62256750D01*
X22947500Y23902500D02*
X19832500Y23902500D01*
X13450000Y62256750D02*
X2522000Y62256750D01*
X19832500Y23902500D02*
X19460000Y23530000D01*
X14258800Y24571200D02*
X14258800Y61447950D01*
X19460000Y23530000D02*
X15300000Y23530000D01*
%TO.N,GPIO23*%
X13880000Y58676750D02*
X12840000Y59716750D01*
X22947500Y23502500D02*
X19968204Y23502500D01*
X15143096Y23151200D02*
X13880000Y24414296D01*
X13880000Y24414296D02*
X13880000Y58676750D01*
X19616904Y23151200D02*
X15143096Y23151200D01*
X12840000Y59716750D02*
X2522000Y59716750D01*
X19968204Y23502500D02*
X19616904Y23151200D01*
D57*
%TO.N,VCC*%
X45632000Y64660000D02*
X47062000Y66090000D01*
X71422000Y66070000D02*
X71422000Y67190000D01*
X45632000Y44780000D02*
X46710000Y45858000D01*
X71422000Y53460000D02*
X71422000Y60020000D01*
X44042000Y91148000D02*
X44040000Y91150000D01*
X37512000Y71270000D02*
X38942000Y72700000D01*
X45632000Y71280000D02*
X47062000Y72710000D01*
X46631000Y59039000D02*
X47062000Y59470000D01*
D58*
X37264256Y8150000D02*
X36689744Y8724512D01*
D57*
X54830000Y45858000D02*
X54830000Y52630000D01*
X55182000Y86300000D02*
X55182000Y88880000D01*
X30822000Y59470000D02*
X30822000Y60040000D01*
X55182000Y88880000D02*
X54192000Y89870000D01*
X71422000Y73620000D02*
X71422000Y80170000D01*
X30822000Y66090000D02*
X30822000Y67210000D01*
X55182000Y85950000D02*
X55182000Y86300000D01*
X71422000Y52830000D02*
X71422000Y53460000D01*
X69992000Y71260000D02*
X71422000Y72690000D01*
D55*
X37632000Y7765000D02*
X38017000Y8150000D01*
D57*
X47062000Y88880000D02*
X46012000Y89930000D01*
X63302000Y52840000D02*
X63302000Y53470000D01*
X45632000Y84520000D02*
X47062000Y85950000D01*
X55182000Y73640000D02*
X55182000Y80190000D01*
X63302000Y86290000D02*
X63302000Y88870000D01*
X61872000Y77890000D02*
X63302000Y79320000D01*
X47062000Y59470000D02*
X47062000Y60040000D01*
X46710000Y45858000D02*
X46710000Y52800000D01*
X54706000Y58994000D02*
X55182000Y59470000D01*
X63302000Y53470000D02*
X63302000Y60030000D01*
X63302000Y72700000D02*
X63302000Y73630000D01*
X61872000Y64650000D02*
X63302000Y66080000D01*
X71422000Y59450000D02*
X71422000Y60020000D01*
X71422000Y46210000D02*
X71422000Y53460000D01*
X55182000Y59470000D02*
X55182000Y60040000D01*
X30822000Y67210000D02*
X30822000Y73640000D01*
X61872000Y44790000D02*
X63302000Y46220000D01*
X38942000Y60030000D02*
X38942000Y67200000D01*
X30822000Y88880000D02*
X29772000Y89930000D01*
X71422000Y80170000D02*
X71422000Y86280000D01*
X60212000Y89890000D02*
X60212000Y91142000D01*
X53752000Y64660000D02*
X55182000Y66090000D01*
X37512000Y51400000D02*
X38590000Y52478000D01*
X55182000Y79330000D02*
X55182000Y80190000D01*
X35872000Y89910000D02*
X35872000Y91148000D01*
X27832000Y90962000D02*
X28020000Y91150000D01*
D58*
X36689744Y8724512D02*
X36689744Y9295000D01*
D57*
X71422000Y88860000D02*
X70482000Y89800000D01*
X38942000Y72700000D02*
X38942000Y73630000D01*
D58*
X36689744Y9295000D02*
X37444744Y10050000D01*
D57*
X30822000Y80190000D02*
X30822000Y86300000D01*
X38942000Y66080000D02*
X38942000Y67200000D01*
X37512000Y58030000D02*
X38466000Y58984000D01*
X63302000Y79320000D02*
X63302000Y80180000D01*
X37512000Y77890000D02*
X38942000Y79320000D01*
X53752000Y77900000D02*
X55182000Y79330000D01*
X46710000Y52478000D02*
X46710000Y52800000D01*
X54192000Y89870000D02*
X52062000Y89870000D01*
X63302000Y66080000D02*
X63302000Y67200000D01*
X45632000Y77900000D02*
X47062000Y79330000D01*
X63302000Y73630000D02*
X63302000Y80180000D01*
X54830000Y52630000D02*
X54830000Y58870000D01*
X46710000Y52800000D02*
X46710000Y58960000D01*
X47062000Y73640000D02*
X47062000Y80190000D01*
X55182000Y66090000D02*
X55182000Y67210000D01*
X29392000Y44800000D02*
X30822000Y46230000D01*
X71422000Y85930000D02*
X71422000Y86280000D01*
X47062000Y80190000D02*
X47062000Y86300000D01*
X47062000Y85950000D02*
X47062000Y86300000D01*
X38942000Y67200000D02*
X38942000Y73630000D01*
X38942000Y73630000D02*
X38942000Y80180000D01*
X35872000Y91148000D02*
X35870000Y91150000D01*
X53752000Y84520000D02*
X55182000Y85950000D01*
X38942000Y88870000D02*
X37902000Y89910000D01*
X47062000Y72710000D02*
X47062000Y73640000D01*
X63302000Y60030000D02*
X63302000Y67200000D01*
X38942000Y59460000D02*
X38942000Y60030000D01*
X69992000Y44780000D02*
X71422000Y46210000D01*
X29392000Y71280000D02*
X30822000Y72710000D01*
X37512000Y64650000D02*
X38942000Y66080000D01*
X47062000Y67210000D02*
X47062000Y73640000D01*
X37902000Y89910000D02*
X35872000Y89910000D01*
X38590000Y52478000D02*
X38590000Y52740000D01*
X69992000Y58020000D02*
X71422000Y59450000D01*
X52062000Y89870000D02*
X52062000Y91148000D01*
X30822000Y79330000D02*
X30822000Y80190000D01*
X37512000Y84510000D02*
X38942000Y85940000D01*
X54830000Y58870000D02*
X54706000Y58994000D01*
X55182000Y60040000D02*
X55182000Y67210000D01*
X63302000Y46220000D02*
X63302000Y53470000D01*
X71422000Y72690000D02*
X71422000Y73620000D01*
X52062000Y91148000D02*
X52060000Y91150000D01*
X71422000Y79310000D02*
X71422000Y80170000D01*
X47062000Y79330000D02*
X47062000Y80190000D01*
X30822000Y85950000D02*
X30822000Y86300000D01*
D58*
X22372000Y8342000D02*
X22372000Y8080000D01*
D57*
X55182000Y67210000D02*
X55182000Y73640000D01*
X53752000Y58040000D02*
X54706000Y58994000D01*
X68332000Y89800000D02*
X68332000Y91132000D01*
X61872000Y84510000D02*
X63302000Y85940000D01*
X63302000Y85940000D02*
X63302000Y86290000D01*
X71422000Y67190000D02*
X71422000Y73620000D01*
X30822000Y53480000D02*
X30822000Y60040000D01*
X47062000Y60040000D02*
X47062000Y67210000D01*
X45632000Y58040000D02*
X46631000Y59039000D01*
X69992000Y77880000D02*
X71422000Y79310000D01*
X46710000Y58960000D02*
X46631000Y59039000D01*
X69992000Y51400000D02*
X71422000Y52830000D01*
X27832000Y89930000D02*
X27832000Y90962000D01*
D58*
X23325000Y9295000D02*
X22372000Y8342000D01*
D57*
X30822000Y73640000D02*
X30822000Y80190000D01*
X38942000Y80180000D02*
X38942000Y86290000D01*
D58*
X36689744Y9295000D02*
X23325000Y9295000D01*
D57*
X45632000Y51400000D02*
X46710000Y52478000D01*
X63302000Y80180000D02*
X63302000Y86290000D01*
X29392000Y51420000D02*
X30822000Y52850000D01*
X38942000Y79320000D02*
X38942000Y80180000D01*
X63302000Y59460000D02*
X63302000Y60030000D01*
X30822000Y52850000D02*
X30822000Y53480000D01*
D58*
X40380000Y10037500D02*
X38029500Y10037500D01*
D57*
X70482000Y89800000D02*
X68332000Y89800000D01*
X54830000Y52478000D02*
X54830000Y52630000D01*
D58*
X37444744Y10050000D02*
X38017000Y10050000D01*
D57*
X61872000Y58030000D02*
X63302000Y59460000D01*
D58*
X38017000Y8150000D02*
X37264256Y8150000D01*
D57*
X30822000Y46230000D02*
X30822000Y53480000D01*
X53752000Y71280000D02*
X55182000Y72710000D01*
X68332000Y91132000D02*
X68350000Y91150000D01*
D58*
X22372000Y5682000D02*
X22372000Y5700000D01*
D57*
X53752000Y51400000D02*
X54830000Y52478000D01*
X29392000Y84520000D02*
X30822000Y85950000D01*
X46012000Y89930000D02*
X44042000Y89930000D01*
X38942000Y86290000D02*
X38942000Y88870000D01*
X37512000Y44780000D02*
X38590000Y45858000D01*
X63302000Y67200000D02*
X63302000Y73630000D01*
D55*
X69982000Y44790000D02*
X69992000Y44780000D01*
D57*
X30822000Y72710000D02*
X30822000Y73640000D01*
X71422000Y86280000D02*
X71422000Y88860000D01*
X61872000Y51410000D02*
X63302000Y52840000D01*
X38466000Y58984000D02*
X38942000Y59460000D01*
X63302000Y88870000D02*
X62282000Y89890000D01*
X69992000Y64640000D02*
X71422000Y66070000D01*
X38942000Y85940000D02*
X38942000Y86290000D01*
X30822000Y60040000D02*
X30822000Y67210000D01*
X55182000Y72710000D02*
X55182000Y73640000D01*
X38590000Y58860000D02*
X38466000Y58984000D01*
X62282000Y89890000D02*
X60212000Y89890000D01*
X38590000Y52740000D02*
X38590000Y58860000D01*
D55*
X37632000Y6330000D02*
X37632000Y7765000D01*
D57*
X69992000Y84500000D02*
X71422000Y85930000D01*
X29392000Y77900000D02*
X30822000Y79330000D01*
X71422000Y60020000D02*
X71422000Y67190000D01*
X53752000Y44780000D02*
X54830000Y45858000D01*
X60212000Y91142000D02*
X60220000Y91150000D01*
X47062000Y86300000D02*
X47062000Y88880000D01*
D58*
X38029500Y10037500D02*
X38017000Y10050000D01*
D57*
X29392000Y64660000D02*
X30822000Y66090000D01*
X38590000Y45858000D02*
X38590000Y52740000D01*
X47062000Y66090000D02*
X47062000Y67210000D01*
X44042000Y89930000D02*
X44042000Y91148000D01*
D58*
X22372000Y8080000D02*
X22372000Y5700000D01*
D57*
X55182000Y80190000D02*
X55182000Y86300000D01*
X61872000Y71270000D02*
X63302000Y72700000D01*
X30822000Y86300000D02*
X30822000Y88880000D01*
X29772000Y89930000D02*
X27832000Y89930000D01*
X29392000Y58040000D02*
X30822000Y59470000D01*
D56*
%TO.N,Net-(U2-GPIO2)*%
X29822500Y21902500D02*
X33307500Y21902500D01*
X33307500Y21902500D02*
X33770000Y21440000D01*
%TO.N,Net-(U2-GPIO14)*%
X28185000Y26740000D02*
X28185000Y27280000D01*
X29720000Y28460000D02*
X29042200Y28460000D01*
X29042200Y28460000D02*
X28185000Y27602800D01*
X28185000Y27602800D02*
X28185000Y27280000D01*
%TO.N,Net-(U2-GPIO15)*%
X28960000Y29860000D02*
X27785000Y28685000D01*
X27785000Y28685000D02*
X27785000Y26740000D01*
X29720000Y29860000D02*
X28960000Y29860000D01*
%TO.N,Net-(U2-GPIO29_ADC3)*%
X18960000Y19470000D02*
X19637800Y19470000D01*
X19637800Y19470000D02*
X21270300Y21102500D01*
X21270300Y21102500D02*
X22947500Y21102500D01*
%TD*%
M02*
