M48
; DRILL file {KiCad 9.0.1} date 2025-04-15T01:11:24-0600
; FORMAT={-:-/ absolute / metric / decimal}
; #@! TF.CreationDate,2025-04-15T01:11:24-06:00
; #@! TF.GenerationSoftware,Kicad,Pcbnew,9.0.1
; #@! TF.FileFunction,Plated,1,2,PTH
FMAT,2
METRIC
; #@! TA.AperFunction,Plated,PTH,ViaDrill
T1C0.300
; #@! TA.AperFunction,Plated,PTH,ComponentDrill
T2C0.600
; #@! TA.AperFunction,Plated,PTH,ComponentDrill
T3C1.000
%
G90
G05
T1
X17.39Y91.43
X18.16Y81.83
X25.28Y79.46
X27.42Y79.1
X27.8Y48.68
X29.52Y72.57
X29.65Y79.77
X31.13Y30.56
X31.14Y43.79
X31.14Y37.16
X31.14Y23.93
X31.14Y17.31
X31.14Y10.69
X31.14Y4.07
X35.35Y91.45
X35.44Y81.83
X35.96Y48.68
X39.25Y30.55
X39.26Y43.78
X39.26Y37.15
X39.26Y23.92
X39.26Y17.3
X39.26Y10.68
X39.26Y4.06
X44.26Y48.68
X45.78Y87.68
X45.89Y80.61
X46.25Y77.89
X47.37Y30.54
X47.38Y43.77
X47.38Y37.14
X47.38Y23.91
X47.38Y17.29
X47.38Y10.67
X47.38Y4.05
X49.95Y81.9
X50.12Y78.71
X50.21Y69.73
X51.29Y61.19
X52.18Y87.7
X52.25Y48.68
X53.36Y75.51
X54.64Y64.83
X55.34Y90.4
X55.49Y30.54
X55.5Y43.77
X55.5Y37.14
X55.5Y23.91
X55.5Y17.29
X55.5Y10.67
X55.5Y4.05
X56.98Y88.62
X57.23Y60.98
X58.72Y66.72
X59.81Y80.39
X59.86Y72.52
X59.86Y70.7
X60.185Y77.675
X60.42Y48.68
X61.332Y67.013
X61.52Y63.02
X61.91Y72.51
X61.91Y70.7
X62.4Y93.96
X62.56Y87.17
X63.1Y77.68
X63.19Y73.89
X63.61Y30.55
X63.62Y43.78
X63.62Y37.15
X63.62Y23.92
X63.62Y17.3
X63.62Y10.68
X63.62Y4.06
X64.39Y80.39
X65.75Y89.17
X65.98Y80.39
X66.83Y67.85
X66.83Y65.83
X68.01Y78.71
X68.35Y75.3
X69.06Y48.68
X71.23Y68.07
X71.73Y30.54
X71.74Y43.77
X71.74Y37.14
X71.74Y23.91
X71.74Y17.29
X71.74Y10.67
X71.74Y4.05
X72.38Y81.58
X72.49Y91.46
T3
X86.69Y77.41
X86.69Y74.87
X89.23Y77.41
X89.23Y74.87
X91.77Y77.41
X91.77Y74.87
T2
G00X44.66Y93.47
M15
G01X44.66Y94.07
M16
G05
G00X44.66Y89.04
M15
G01X44.66Y90.14
M16
G05
G00X53.3Y93.47
M15
G01X53.3Y94.07
M16
G05
G00X53.3Y89.04
M15
G01X53.3Y90.14
M16
G05
M30
